<svg preserveAspectRatio="none" width="100%" height="100%" overflow="visible" style="display: block;" viewBox="0 0 21 23.8203" fill="none" xmlns="http://www.w3.org/2000/svg">
<g id="Group">
<path id="Vector" fill-rule="evenodd" clip-rule="evenodd" d="M0.611448 4.08459C0.240898 4.24084 0 4.60387 0 5.00602V10.4147V16.4147C0 20.0573 7.71292 22.9652 9.9178 23.7221C10.2992 23.853 10.7008 23.853 11.0822 23.7221C13.2871 22.9652 21 20.0573 21 16.4147V10.4147V5.00602C21 4.60387 20.7591 4.24084 20.3885 4.08459L10.8885 0.0785736C10.6401 -0.0261912 10.3599 -0.0261912 10.1115 0.0785736L0.611448 4.08459ZM2.86497 9.20659L0.01336 10.4091L2.86465 9.20694C2.86477 9.20682 2.86487 9.20672 2.86497 9.20659Z" fill="url(#paint0_linear_2058_9117)"/>
</g>
<defs>
<linearGradient id="paint0_linear_2058_9117" x1="0.25" y1="-4.89251" x2="6.47535" y2="15.6095" gradientUnits="userSpaceOnUse">
<stop stop-color="#FFED80"/>
<stop offset="0.961333" stop-color="#FFDB00"/>
</linearGradient>
</defs>
</svg>
