<svg preserveAspectRatio="none" width="100%" height="100%" overflow="visible" style="display: block;" viewBox="0 0 70 78" fill="none" xmlns="http://www.w3.org/2000/svg">
<g id="Warstwa_1" clip-path="url(#clip0_2058_9084)">
<path id="Vector" d="M39.7246 15.7473L34.0128 25.7467L41.5463 38.9287L34.0128 52.1108H18.9574L11.4238 38.9287L18.9574 25.7467H34.0128L39.7246 15.7473H13.2455L0 38.9287L13.2455 62.1102H39.3721L39.4661 62.2646L39.7364 62.1102L40.0067 61.9558L39.9127 61.8015L52.9819 38.9406L39.7364 15.7591L39.7246 15.7473ZM13.5981 61.4808L1.06951 39.5463H11.0712L18.4285 52.4196L18.6048 52.7284H34.0245L39.0312 61.4808H13.5981ZM34.5534 52.4196L42.087 39.2375L42.2633 38.9287L42.087 38.62L34.7297 25.7467L39.7364 16.9942L52.2649 38.9287L39.5601 61.172L34.5534 52.4196Z" fill="var(--fill-0, black)"/>
<path id="Vector_2" d="M8.47381 14.9635C12.5631 14.9635 15.8781 11.6138 15.8781 7.48173C15.8781 3.34968 12.5631 0 8.47381 0C4.38453 0 1.06951 3.34968 1.06951 7.48173C1.06951 11.6138 4.38453 14.9635 8.47381 14.9635Z" fill="var(--fill-0, black)"/>
<path id="Vector_3" d="M62.5957 31.447C58.5057 31.447 55.1914 34.796 55.1914 38.9287C55.1914 43.0615 58.5057 46.4105 62.5957 46.4105C66.6857 46.4105 70 43.0615 70 38.9287C70 34.796 66.6857 31.447 62.5957 31.447ZM62.5957 45.7929C58.8583 45.7929 55.8026 42.7171 55.8026 38.9287C55.8026 35.1404 58.8465 32.0646 62.5957 32.0646C66.3449 32.0646 69.3889 35.1404 69.3889 38.9287C69.3889 42.7171 66.3449 45.7929 62.5957 45.7929Z" fill="var(--fill-0, black)"/>
<path id="Vector_4" d="M9.0497 63.0365C4.9597 63.0365 1.6454 66.3855 1.6454 70.5183C1.6454 74.651 4.9597 78 9.0497 78C13.1397 78 16.454 74.651 16.454 70.5183C16.454 66.3855 13.1397 63.0365 9.0497 63.0365ZM9.0497 77.3706C5.31229 77.3706 2.25655 74.2948 2.25655 70.5064C2.25655 66.718 5.30054 63.6422 9.0497 63.6422C12.7989 63.6422 15.8428 66.718 15.8428 70.5064C15.8428 74.2948 12.7989 77.3706 9.0497 77.3706Z" fill="var(--fill-0, black)"/>
</g>
<defs>
<clipPath id="clip0_2058_9084">
<rect width="70" height="78" fill="white"/>
</clipPath>
</defs>
</svg>
