<svg preserveAspectRatio="none" width="100%" height="100%" overflow="visible" style="display: block;" viewBox="0 0 26.7283 23.4028" fill="none" xmlns="http://www.w3.org/2000/svg">
<g id="Group">
<path id="Vector" d="M0.0221152 1.33343C-0.116138 0.64372 0.411355 0 1.1148 0H7.98135C8.51641 0 8.97597 0.380279 9.07607 0.905898L9.22192 1.67163H25.6134C26.324 1.67163 26.8531 2.32775 26.7025 3.02222L25.1317 10.266C25.0206 10.7785 24.5671 11.1442 24.0426 11.1442H11.0262L11.5569 13.9303H22.2956C23.0036 13.9303 23.5321 14.5819 23.386 15.2747L21.858 22.5184C21.7492 23.0339 21.2944 23.4028 20.7675 23.4028H5.35906C4.82801 23.4028 4.37074 23.0281 4.26637 22.5074L0.0221152 1.33343Z" fill="url(#paint0_linear_2058_9144)"/>
</g>
<defs>
<linearGradient id="paint0_linear_2058_9144" x1="-3.4944" y1="-5.85071" x2="9.95905" y2="24.8917" gradientUnits="userSpaceOnUse">
<stop stop-color="#FAC240"/>
<stop offset="0.199984" stop-color="#F29800"/>
</linearGradient>
</defs>
</svg>
