<svg preserveAspectRatio="none" width="100%" height="100%" overflow="visible" style="display: block;" viewBox="0 0 34.9922 40" fill="none" xmlns="http://www.w3.org/2000/svg">
<g id="Group">
<path id="Vector" d="M22.7838 14.3106C21.3219 15.4675 19.4946 16.1648 17.5039 16.1648C15.5132 16.1648 13.6781 15.4675 12.224 14.3106L0 26.7591L4.94557 31.7987L13.9969 22.5753V40H20.9953V22.5753L30.0467 31.7987L34.9922 26.7591L22.7761 14.3106H22.7838Z" fill="var(--fill-0, white)"/>
<path id="Vector_2" d="M17.5031 14.7781C21.5078 14.7781 24.7582 11.4659 24.7582 7.3851C24.7582 3.30428 21.5078 0 17.5031 0C13.4984 0 10.248 3.3122 10.248 7.39303C10.248 11.4739 13.4984 14.7861 17.5031 14.7861V14.7781ZM17.5031 0.792393C21.0723 0.792393 23.9806 3.74802 23.9806 7.39303C23.9806 11.038 21.0801 13.9937 17.5031 13.9937C13.9261 13.9937 11.0257 11.038 11.0257 7.39303C11.0257 3.74802 13.9339 0.792393 17.5031 0.792393Z" fill="var(--fill-0, white)"/>
</g>
</svg>
