<svg preserveAspectRatio="none" width="100%" height="100%" overflow="visible" style="display: block;" viewBox="0 0 29 32.9971" fill="none" xmlns="http://www.w3.org/2000/svg">
<g id="Group">
<path id="Vector" d="M3.5 0L21 6.24995V14.8311C21 15.5226 20.315 16.0054 19.6638 15.7729L16 14.4648V9.60602C16 8.5645 15.3543 7.63207 14.3793 7.26575L12.6758 6.62572C12.3489 6.5029 12 6.74455 12 7.09377V13.0357L3.5 10V0Z" fill="url(#paint0_linear_2058_9173)"/>
<g id="Group_2" filter="url(#filter0_f_2058_9173)">
<path id="Vector_2" d="M21 8.09863C21 9.14848 20.3441 10.0883 19.358 10.4486L8 14.5987V24.5987L21 19.8486V8.09863Z" fill="var(--fill-0, black)" fill-opacity="0.24"/>
</g>
<g id="Group_3" filter="url(#filter1_f_2058_9173)">
<path id="Vector_3" d="M21 8.49707C21 9.54692 20.3441 10.4867 19.358 10.847L8 14.9971V24.9971L21 20.2471V8.49707Z" fill="var(--fill-0, black)" fill-opacity="0.32"/>
</g>
<path id="Vector_4" d="M21 7.99805C21 9.0479 20.3441 9.98772 19.358 10.348L8 14.4981V24.4981L21 19.748V7.99805Z" fill="url(#paint1_linear_2058_9173)"/>
<path id="Vector_5" opacity="0.5" d="M21 7.99805C21 9.0479 20.3441 9.98772 19.358 10.348L8 14.4981V24.4981L21 19.748V7.99805Z" fill="url(#paint2_linear_2058_9173)"/>
<path id="Vector_6" opacity="0.5" d="M15.9998 11.5781L11.9976 13.0423L11.9976 18.9068C11.9976 19.2562 12.3468 19.4978 12.6737 19.3747L14.3805 18.7323C15.3548 18.3655 15.9998 17.4335 15.9998 16.3926V11.5781Z" fill="var(--fill-0, #B0ADFF)"/>
</g>
<defs>
<filter id="filter0_f_2058_9173" x="7.2" y="7.29863" width="14.6" height="18.1" filterUnits="userSpaceOnUse" color-interpolation-filters="sRGB">
<feFlood flood-opacity="0" result="BackgroundImageFix"/>
<feBlend mode="normal" in="SourceGraphic" in2="BackgroundImageFix" result="shape"/>
<feGaussianBlur stdDeviation="0.4" result="effect1_foregroundBlur_2058_9173"/>
</filter>
<filter id="filter1_f_2058_9173" x="0" y="0.49707" width="29" height="32.5" filterUnits="userSpaceOnUse" color-interpolation-filters="sRGB">
<feFlood flood-opacity="0" result="BackgroundImageFix"/>
<feBlend mode="normal" in="SourceGraphic" in2="BackgroundImageFix" result="shape"/>
<feGaussianBlur stdDeviation="4" result="effect1_foregroundBlur_2058_9173"/>
</filter>
<linearGradient id="paint0_linear_2058_9173" x1="10.0113" y1="-5.82139e-08" x2="14.6646" y2="12.1808" gradientUnits="userSpaceOnUse">
<stop stop-color="#0B53CE"/>
<stop offset="1" stop-color="#7252AA"/>
</linearGradient>
<linearGradient id="paint1_linear_2058_9173" x1="16.5344" y1="23.6211" x2="16.5344" y2="9.10187" gradientUnits="userSpaceOnUse">
<stop stop-color="#2266E3"/>
<stop offset="1" stop-color="#AE7FE2"/>
</linearGradient>
<linearGradient id="paint2_linear_2058_9173" x1="21" y1="14.4445" x2="16.0191" y2="14.4445" gradientUnits="userSpaceOnUse">
<stop stop-color="#94B9FF"/>
<stop offset="0.287843" stop-color="#94B9FF" stop-opacity="0.523646"/>
<stop offset="1" stop-color="#538FFF" stop-opacity="0"/>
</linearGradient>
</defs>
</svg>
