<svg preserveAspectRatio="none" width="100%" height="100%" overflow="visible" style="display: block;" viewBox="0 0 253.111 207.838" fill="none" xmlns="http://www.w3.org/2000/svg">
<path id="Vector" d="M124.475 201.5C124.475 203.683 124.077 205.758 123.238 207.838L139.725 201.5L123.238 195.162C124.072 197.242 124.475 199.317 124.475 201.5ZM152.278 201.5C152.278 203.683 151.879 205.758 151.045 207.838L167.532 201.5L151.045 195.162C151.879 197.242 152.278 199.317 152.278 201.5ZM181.422 201.5C181.422 203.683 181.023 205.758 180.189 207.838L196.676 201.5L180.189 195.162C181.023 197.242 181.422 199.317 181.422 201.5ZM139.512 179.77C139.512 181.953 139.113 184.028 138.279 186.108L154.766 179.77L138.279 173.432C139.113 175.512 139.512 177.587 139.512 179.77ZM168.04 179.77C168.04 181.953 167.641 184.028 166.807 186.108L183.294 179.77L166.807 173.432C167.641 175.512 168.04 177.587 168.04 179.77ZM196.567 179.77C196.567 181.953 196.169 184.028 195.335 186.108L211.822 179.77L195.335 173.432C196.169 175.512 196.567 177.587 196.567 179.77ZM154.136 158.036C154.136 160.219 153.737 162.294 152.903 164.373L169.39 158.036L152.903 151.698C153.737 153.777 154.136 155.852 154.136 158.036ZM181.422 158.036C181.422 160.219 181.023 162.294 180.189 164.373L196.676 158.036L180.189 151.698C181.023 153.777 181.422 155.852 181.422 158.036ZM210.467 158.036C210.467 160.219 210.068 162.294 209.234 164.373L225.721 158.036L209.234 151.698C210.068 153.777 210.467 155.852 210.467 158.036ZM1.23719 136.306C1.23719 138.489 0.838386 140.564 0.00453181 142.643L16.4913 136.306L0 129.968C0.833854 132.043 1.23719 134.122 1.23719 136.306ZM31.623 136.306C31.623 138.489 31.2242 140.564 30.3903 142.643L46.8771 136.306L30.3903 129.968C31.2242 132.043 31.623 134.122 31.623 136.306ZM58.5964 136.306C58.5964 138.489 58.1976 140.564 57.3637 142.643L73.8505 136.306L57.3637 129.968C58.1976 132.043 58.5964 134.122 58.5964 136.306ZM85.5652 136.306C85.5652 138.489 85.1664 140.564 84.3325 142.643L100.819 136.306L84.3325 129.968C85.1664 132.043 85.5652 134.122 85.5652 136.306ZM112.539 136.306C112.539 138.489 112.14 140.564 111.306 142.643L127.793 136.306L111.306 129.968C112.14 132.043 112.539 134.122 112.539 136.306ZM141.791 136.306C141.791 138.489 141.393 140.564 140.559 142.643L157.046 136.306L140.559 129.968C141.393 132.043 141.791 134.122 141.791 136.306ZM168.765 136.306C168.765 138.489 168.366 140.564 167.532 142.643L184.019 136.306L167.532 129.968C168.366 132.043 168.765 134.122 168.765 136.306ZM196.567 136.306C196.567 138.489 196.169 140.564 195.335 142.643L211.822 136.306L195.335 129.968C196.169 132.043 196.567 134.122 196.567 136.306ZM223.541 136.306C223.541 138.489 223.142 140.564 222.308 142.643L238.795 136.306L222.308 129.968C223.142 132.043 223.541 134.122 223.541 136.306ZM15.1363 114.576C15.1363 116.759 14.7375 118.834 13.9036 120.914L30.3903 114.576L13.9036 108.238C14.7375 110.318 15.1363 112.392 15.1363 114.576ZM45.5221 114.576C45.5221 116.759 45.1233 118.834 44.2894 120.914L60.7762 114.576L44.2894 108.238C45.1233 110.318 45.5221 112.392 45.5221 114.576ZM72.9124 114.576C72.9124 116.759 72.5136 118.834 71.6752 120.914L88.1619 114.576L71.6752 108.238C72.509 110.318 72.9124 112.392 72.9124 114.576ZM99.4688 114.576C99.4688 116.759 99.07 118.834 98.2362 120.914L114.723 114.576L98.2362 108.238C99.07 110.318 99.4688 112.392 99.4688 114.576ZM126.855 114.576C126.855 116.759 126.456 118.834 125.622 120.914L142.109 114.576L125.622 108.238C126.456 110.318 126.855 112.392 126.855 114.576ZM155.695 114.576C155.695 116.759 155.296 118.834 154.458 120.914L170.945 114.576L154.458 108.238C155.292 110.318 155.695 112.392 155.695 114.576ZM183.081 114.576C183.081 116.759 182.682 118.834 181.844 120.914L198.33 114.576L181.844 108.238C182.677 110.318 183.081 112.392 183.081 114.576ZM210.467 114.576C210.467 116.759 210.068 118.834 209.234 120.914L225.721 114.576L209.234 108.238C210.068 110.318 210.467 112.392 210.467 114.576ZM237.857 114.576C237.857 116.759 237.458 118.834 236.624 120.914L253.111 114.576L236.624 108.238C237.458 110.318 237.857 112.392 237.857 114.576ZM1.23719 92.846C1.23719 95.0293 0.838386 97.1042 0.00453181 99.1837L16.4913 92.846L0 86.5083C0.833854 88.5877 1.23719 90.6626 1.23719 92.846ZM31.623 92.846C31.623 95.0293 31.2242 97.1042 30.3903 99.1837L46.8771 92.846L30.3903 86.5083C31.2242 88.5877 31.623 90.6626 31.623 92.846ZM58.5964 92.846C58.5964 95.0293 58.1976 97.1042 57.3637 99.1837L73.8505 92.846L57.3637 86.5083C58.1976 88.5877 58.5964 90.6626 58.5964 92.846ZM85.5652 92.846C85.5652 95.0293 85.1664 97.1042 84.3325 99.1837L100.819 92.846L84.3325 86.5083C85.1664 88.5877 85.5652 90.6626 85.5652 92.846ZM112.539 92.846C112.539 95.0293 112.14 97.1042 111.306 99.1837L127.793 92.846L111.306 86.5083C112.14 88.5877 112.539 90.6626 112.539 92.846ZM141.791 92.846C141.791 95.0293 141.393 97.1042 140.559 99.1837L157.046 92.846L140.559 86.5083C141.393 88.5877 141.791 90.6626 141.791 92.846ZM168.765 92.846C168.765 95.0293 168.366 97.1042 167.532 99.1837L184.019 92.846L167.532 86.5083C168.366 88.5877 168.765 90.6626 168.765 92.846ZM196.567 92.846C196.567 95.0293 196.169 97.1042 195.335 99.1837L211.822 92.846L195.335 86.5083C196.169 88.5877 196.567 90.6626 196.567 92.846ZM223.541 92.846C223.541 95.0293 223.142 97.1042 222.308 99.1837L238.795 92.846L222.308 86.5083C223.142 88.5877 223.541 90.6626 223.541 92.846ZM154.136 72.1512C154.136 74.3346 153.737 76.4095 152.903 78.4889L169.39 72.1512L152.903 65.8135C153.737 67.893 154.136 69.9678 154.136 72.1512ZM181.422 72.1512C181.422 74.3346 181.023 76.4095 180.189 78.4889L196.676 72.1512L180.189 65.8135C181.023 67.893 181.422 69.9678 181.422 72.1512ZM210.467 72.1512C210.467 74.3346 210.068 76.4095 209.234 78.4889L225.721 72.1512L209.234 65.8135C210.068 67.893 210.467 69.9678 210.467 72.1512ZM139.512 49.3816C139.512 51.565 139.113 53.6399 138.279 55.7193L154.766 49.3816L138.279 43.0439C139.113 45.1233 139.512 47.1982 139.512 49.3816ZM168.04 49.3816C168.04 51.565 167.641 53.6399 166.807 55.7193L183.294 49.3816L166.807 43.0439C167.641 45.1233 168.04 47.1982 168.04 49.3816ZM196.567 49.3816C196.567 51.565 196.169 53.6399 195.335 55.7193L211.822 49.3816L195.335 43.0439C196.169 45.1233 196.567 47.1982 196.567 49.3816ZM124.475 27.8597C124.475 30.0431 124.077 32.1179 123.238 34.1974L139.725 27.8597L123.238 21.522C124.072 23.6014 124.475 25.6763 124.475 27.8597ZM152.278 27.8597C152.278 30.0431 151.879 32.1179 151.045 34.1974L167.532 27.8597L151.045 21.522C151.879 23.6014 152.278 25.6763 152.278 27.8597ZM181.422 27.8597C181.422 30.0431 181.023 32.1179 180.189 34.1974L196.676 27.8597L180.189 21.522C181.023 23.6014 181.422 25.6763 181.422 27.8597ZM108.292 6.3377C108.292 8.52109 107.893 10.596 107.06 12.6754L123.546 6.3377L107.06 0C107.893 2.0749 108.292 4.15431 108.292 6.3377ZM136.095 6.3377C136.095 8.52109 135.696 10.596 134.862 12.6754L151.349 6.3377L134.862 0C135.696 2.0749 136.095 4.15431 136.095 6.3377ZM165.239 6.3377C165.239 8.52109 164.84 10.596 164.006 12.6754L180.493 6.3377L164.002 0C164.836 2.0749 165.234 4.15431 165.234 6.3377" fill="var(--fill-0, black)"/>
</svg>
