<svg width="44" height="39" viewBox="0 0 44 39.0928" fill="none" xmlns="http://www.w3.org/2000/svg">
<g id="Group">
<path id="Vector" d="M36 29.2188C36 34.0755 25.7161 37.9528 22.7763 38.9619C22.2677 39.1365 21.7323 39.1365 21.2237 38.9619C18.2839 37.9528 8 34.0755 8 29.2188C8 21.4868 14.268 15.2188 22 15.2188C29.732 15.2188 36 21.4868 36 29.2188Z" fill="url(#paint0_linear_54_3015)"/>
<g id="Group_2" filter="url(#filter0_f_54_3015)">
<path id="Vector_2" d="M8 21.8854L21.4826 16.2009C21.8138 16.0613 22.1874 16.0613 22.5186 16.201L36 21.8851V29.8854L22.5181 24.2003C22.1868 24.0606 21.8132 24.0606 21.4819 24.2003L8 29.8854V21.8854Z" fill="black" fill-opacity="0.32"/>
</g>
<g id="Group_3" filter="url(#filter1_f_54_3015)">
<path id="Vector_3" d="M8 21.3464L21.4826 15.6619C21.8138 15.5222 22.1874 15.5222 22.5186 15.6619L36 21.346V29.3464L22.5181 23.6612C22.1868 23.5215 21.8132 23.5215 21.4819 23.6612L8 29.3464V21.3464Z" fill="black" fill-opacity="0.24"/>
</g>
<path id="Vector_4" d="M8 21.2173L21.4826 15.5329C21.8138 15.3932 22.1874 15.3932 22.5186 15.5329L36 21.217V29.2173L22.5181 23.5322C22.1868 23.3925 21.8132 23.3925 21.4819 23.5322L8 29.2173V21.2173Z" fill="url(#paint1_linear_54_3015)"/>
<g id="Group_4" filter="url(#filter2_f_54_3015)">
<path id="Vector_5" d="M8 14.6747C8 14.1385 8.3212 13.6545 8.81526 13.4461L21.4819 8.10477C21.8132 7.96508 22.1868 7.96508 22.5181 8.10477L35.1847 13.4461C35.6788 13.6545 36 14.1385 36 14.6747V21.8863L22.5181 16.2011C22.1868 16.0615 21.8132 16.0615 21.4819 16.2011L8 21.8863V14.6747Z" fill="black" fill-opacity="0.32"/>
</g>
<g id="Group_5" filter="url(#filter3_f_54_3015)">
<path id="Vector_6" d="M8 14.1344C8 13.5982 8.3212 13.1142 8.81526 12.9058L21.4819 7.56447C21.8132 7.42478 22.1868 7.42478 22.5181 7.56447L35.1847 12.9058C35.6788 13.1142 36 13.5982 36 14.1344V21.346L22.5181 15.6609C22.1868 15.5212 21.8132 15.5212 21.4819 15.6609L8 21.346V14.1344Z" fill="black" fill-opacity="0.24"/>
</g>
<path id="Vector_7" d="M8 14.006C8 13.4698 8.3212 12.9857 8.81526 12.7774L21.4819 7.43602C21.8132 7.29633 22.1868 7.29633 22.5181 7.43602L35.1847 12.7774C35.6788 12.9857 36 13.4698 36 14.006V21.2176L22.5181 15.5324C22.1868 15.3927 21.8132 15.3927 21.4819 15.5324L8 21.2176V14.006Z" fill="url(#paint2_linear_54_3015)"/>
</g>
<defs>
<filter id="filter0_f_54_3015" x="0" y="8.09622" width="44" height="29.7892" filterUnits="userSpaceOnUse" color-interpolation-filters="sRGB">
<feFlood flood-opacity="0" result="BackgroundImageFix"/>
<feBlend mode="normal" in="SourceGraphic" in2="BackgroundImageFix" result="shape"/>
<feGaussianBlur stdDeviation="4" result="effect1_foregroundBlur_54_3015"/>
</filter>
<filter id="filter1_f_54_3015" x="7.24" y="14.7972" width="29.52" height="15.3092" filterUnits="userSpaceOnUse" color-interpolation-filters="sRGB">
<feFlood flood-opacity="0" result="BackgroundImageFix"/>
<feBlend mode="normal" in="SourceGraphic" in2="BackgroundImageFix" result="shape"/>
<feGaussianBlur stdDeviation="0.38" result="effect1_foregroundBlur_54_3015"/>
</filter>
<filter id="filter2_f_54_3015" x="0" y="0" width="44" height="29.8863" filterUnits="userSpaceOnUse" color-interpolation-filters="sRGB">
<feFlood flood-opacity="0" result="BackgroundImageFix"/>
<feBlend mode="normal" in="SourceGraphic" in2="BackgroundImageFix" result="shape"/>
<feGaussianBlur stdDeviation="4" result="effect1_foregroundBlur_54_3015"/>
</filter>
<filter id="filter3_f_54_3015" x="7.24" y="6.6997" width="29.52" height="15.4063" filterUnits="userSpaceOnUse" color-interpolation-filters="sRGB">
<feFlood flood-opacity="0" result="BackgroundImageFix"/>
<feBlend mode="normal" in="SourceGraphic" in2="BackgroundImageFix" result="shape"/>
<feGaussianBlur stdDeviation="0.38" result="effect1_foregroundBlur_54_3015"/>
</filter>
<linearGradient id="paint0_linear_54_3015" x1="8" y1="15.2188" x2="40.3027" y2="24.9796" gradientUnits="userSpaceOnUse">
<stop stop-color="#EA8200"/>
<stop offset="1" stop-color="#C46A08"/>
</linearGradient>
<linearGradient id="paint1_linear_54_3015" x1="8" y1="15.3145" x2="35.7119" y2="29.7696" gradientUnits="userSpaceOnUse">
<stop stop-color="#FAC240"/>
<stop offset="1" stop-color="#F29800"/>
</linearGradient>
<linearGradient id="paint2_linear_54_3015" x1="8.33333" y1="0.807917" x2="16.6338" y2="28.1439" gradientUnits="userSpaceOnUse">
<stop stop-color="#FFED80"/>
<stop offset="0.961333" stop-color="#FFDB00"/>
</linearGradient>
</defs>
</svg>
