<svg preserveAspectRatio="none" width="100%" height="100%" overflow="visible" style="display: block;" viewBox="0 0 32.4798 32.4914" fill="none" xmlns="http://www.w3.org/2000/svg">
<g id="Group">
<path id="Vector" d="M8.28251 4.6117C7.65312 3.98155 8.09942 2.905 8.99002 2.905H27.9631C28.5153 2.905 28.9631 3.35271 28.9631 3.905V22.9005C28.9631 23.7917 27.8853 24.2378 27.2555 23.6072L8.28251 4.6117Z" fill="url(#paint0_linear_2066_9337)"/>
<g id="Group_2" filter="url(#filter0_f_2066_9337)">
<path id="Vector_2" d="M8.29762 9.20695C7.66787 8.57692 8.11408 7.5 9.00488 7.5H23.4798C24.032 7.5 24.4798 7.94772 24.4798 8.5V22.9813C24.4798 23.8723 23.4024 24.3184 22.7725 23.6883L8.29762 9.20695Z" fill="var(--fill-0, black)" fill-opacity="0.24"/>
</g>
<g id="Group_3" filter="url(#filter1_f_2066_9337)">
<path id="Vector_3" d="M8.29762 9.70695C7.66787 9.07693 8.11408 8 9.00488 8H23.4798C24.032 8 24.4798 8.44772 24.4798 9V23.4813C24.4798 24.3723 23.4024 24.8184 22.7725 24.1883L8.29762 9.70695Z" fill="var(--fill-0, black)" fill-opacity="0.32"/>
</g>
<path id="Vector_4" d="M8.29762 9.11195C7.66787 8.48192 8.11408 7.405 9.00488 7.405H23.4798C24.032 7.405 24.4798 7.85272 24.4798 8.405V22.8863C24.4798 23.7773 23.4024 24.2234 22.7725 23.5932L8.29762 9.11195Z" fill="url(#paint1_linear_2066_9337)"/>
<g id="Group_4" filter="url(#filter2_f_2066_9337)">
<path id="Vector_5" d="M8.29389 13.7061C7.66531 13.0757 8.11179 12 9.00201 12H18.963C19.5153 12 19.963 12.4477 19.963 13V22.9894C19.963 23.881 18.8845 24.3269 18.2549 23.6955L8.29389 13.7061Z" fill="var(--fill-0, black)" fill-opacity="0.24"/>
</g>
<g id="Group_5" filter="url(#filter3_f_2066_9337)">
<path id="Vector_6" d="M8.29389 14.2061C7.66531 13.5757 8.11179 12.5 9.00201 12.5H18.963C19.5153 12.5 19.963 12.9477 19.963 13.5V23.4894C19.963 24.381 18.8845 24.8269 18.2549 24.1955L8.29389 14.2061Z" fill="var(--fill-0, black)" fill-opacity="0.32"/>
</g>
<path id="Vector_7" d="M8.29389 13.6111C7.66531 12.9807 8.11179 11.905 9.00201 11.905H18.963C19.5153 11.905 19.963 12.3527 19.963 12.905V22.8944C19.963 23.786 18.8845 24.2319 18.2549 23.6005L8.29389 13.6111Z" fill="url(#paint2_linear_2066_9337)"/>
</g>
<defs>
<filter id="filter0_f_2066_9337" x="7.24288" y="6.74" width="17.9969" height="18.0033" filterUnits="userSpaceOnUse" color-interpolation-filters="sRGB">
<feFlood flood-opacity="0" result="BackgroundImageFix"/>
<feBlend mode="normal" in="SourceGraphic" in2="BackgroundImageFix" result="shape"/>
<feGaussianBlur stdDeviation="0.38" result="effect1_foregroundBlur_2066_9337"/>
</filter>
<filter id="filter1_f_2066_9337" x="0.00287713" y="0" width="32.4769" height="32.4833" filterUnits="userSpaceOnUse" color-interpolation-filters="sRGB">
<feFlood flood-opacity="0" result="BackgroundImageFix"/>
<feBlend mode="normal" in="SourceGraphic" in2="BackgroundImageFix" result="shape"/>
<feGaussianBlur stdDeviation="4" result="effect1_foregroundBlur_2066_9337"/>
</filter>
<filter id="filter2_f_2066_9337" x="7.24" y="11.24" width="13.483" height="13.5114" filterUnits="userSpaceOnUse" color-interpolation-filters="sRGB">
<feFlood flood-opacity="0" result="BackgroundImageFix"/>
<feBlend mode="normal" in="SourceGraphic" in2="BackgroundImageFix" result="shape"/>
<feGaussianBlur stdDeviation="0.38" result="effect1_foregroundBlur_2066_9337"/>
</filter>
<filter id="filter3_f_2066_9337" x="2.31899e-07" y="4.5" width="27.963" height="27.9914" filterUnits="userSpaceOnUse" color-interpolation-filters="sRGB">
<feFlood flood-opacity="0" result="BackgroundImageFix"/>
<feBlend mode="normal" in="SourceGraphic" in2="BackgroundImageFix" result="shape"/>
<feGaussianBlur stdDeviation="4" result="effect1_foregroundBlur_2066_9337"/>
</filter>
<linearGradient id="paint0_linear_2066_9337" x1="33.6781" y1="28.4965" x2="13.9505" y2="-3.19447" gradientUnits="userSpaceOnUse">
<stop stop-color="#922717"/>
<stop offset="0.513532" stop-color="#D83B01"/>
</linearGradient>
<linearGradient id="paint1_linear_2066_9337" x1="10.7433" y1="3.27647" x2="27.521" y2="27.3912" gradientUnits="userSpaceOnUse">
<stop stop-color="#F69B63"/>
<stop offset="1" stop-color="#D83B01"/>
</linearGradient>
<linearGradient id="paint2_linear_2066_9337" x1="19.4352" y1="25.3135" x2="8.22611" y2="10.6558" gradientUnits="userSpaceOnUse">
<stop stop-color="#F69B63"/>
<stop offset="1" stop-color="#FFB685"/>
</linearGradient>
</defs>
</svg>
