<svg width="27" height="27" viewBox="0 0 27.9668 27.9967" fill="none" xmlns="http://www.w3.org/2000/svg">
<g id="Group">
<path id="Vector" fill-rule="evenodd" clip-rule="evenodd" d="M0.392719 2.2756C-0.446465 1.4354 0.148595 0 1.33608 0H26.6334C27.3698 0 27.9668 0.596953 27.9668 1.33333V26.6607C27.9668 27.849 26.5298 28.4437 25.6901 27.603L21.9893 23.8978V26.6417C21.9893 27.8297 20.5528 28.4246 19.713 27.5843L15.9668 23.8364V26.6526C15.9668 27.8413 14.5287 28.4358 13.6893 27.594L0.407945 14.2748C-0.430165 13.4343 0.165138 12 1.35211 12H4.13558L0.413155 8.27593C-0.426512 7.4359 0.168438 6 1.35618 6H4.11271L0.392719 2.2756Z" fill="url(#paint0_linear_54_3046)"/>
</g>
<defs>
<linearGradient id="paint0_linear_54_3046" x1="26.8628" y1="27.9967" x2="3.46928" y2="-2.64829" gradientUnits="userSpaceOnUse">
<stop stop-color="#F69B63"/>
<stop offset="1" stop-color="#FFB685"/>
</linearGradient>
</defs>
</svg>
