<svg preserveAspectRatio="none" width="100%" height="100%" overflow="visible" style="display: block;" viewBox="0 0 20.975 20.9975" fill="none" xmlns="http://www.w3.org/2000/svg">
<g id="Group">
<path id="Vector" fill-rule="evenodd" clip-rule="evenodd" d="M0.294478 1.7067C-0.33491 1.07655 0.111385 0 1.002 0H19.975C20.5273 0 20.975 0.447715 20.975 1V19.9956C20.975 20.8867 19.8973 21.3328 19.2675 20.7022L16.4919 17.9234V19.9813C16.4919 20.8723 15.4146 21.3184 14.7847 20.6882L11.975 17.8773V19.9894C11.975 20.881 10.8964 21.3269 10.2669 20.6955L0.305898 10.7061C-0.322685 10.0757 0.123793 9 1.01402 9H3.10162L0.309805 6.20695C-0.319945 5.57693 0.126268 4.5 1.01707 4.5H3.08447L0.294478 1.7067Z" fill="url(#paint0_linear_2066_9350)"/>
</g>
<defs>
<linearGradient id="paint0_linear_2066_9350" x1="20.1471" y1="20.9976" x2="2.6019" y2="-1.98622" gradientUnits="userSpaceOnUse">
<stop stop-color="#F69B63"/>
<stop offset="1" stop-color="#FFB685"/>
</linearGradient>
</defs>
</svg>
