<svg preserveAspectRatio="none" width="100%" height="100%" overflow="visible" style="display: block;" viewBox="0 0 119.25 132.501" fill="none" xmlns="http://www.w3.org/2000/svg">
<path id="Vector" d="M60.5518 0.5L60.9707 0.507812C63.0648 0.58037 65.111 1.16828 66.9268 2.22168H66.9277L111.381 27.8594V27.8604C113.204 28.9162 114.747 30.3917 115.883 32.1621L116.104 32.5205L117.024 34.1641L117.028 34.1709C118.082 35.9869 118.67 38.033 118.742 40.127L118.75 40.5459V91.8887C118.731 94.1236 118.139 96.3159 117.032 98.2568L116.039 99.9131L116.035 99.9189L116.031 99.9258C114.941 101.873 113.333 103.481 111.387 104.57L111.381 104.573L66.9268 130.278C64.9902 131.402 62.7913 131.996 60.5518 132H58.6924C56.4534 132.021 54.252 131.426 52.3281 130.281L52.3223 130.278L7.80859 104.644H7.80957C5.89575 103.495 4.29338 101.892 3.14453 99.9785L2.22461 98.3359L2.22168 98.3291L2.0166 97.9629C1.0916 96.2403 0.575508 94.3275 0.507812 92.373L0.5 91.9541V40.6123C0.503952 38.373 1.09808 36.1743 2.22168 34.2373L2.22461 34.2305L3.14941 32.5801C4.26666 30.6485 5.87109 29.044 7.80273 27.9268L52.2568 2.22168C54.0725 1.1683 56.1189 0.580386 58.2129 0.507812L58.6318 0.5H60.5518ZM105.75 46.6709L66 69.6592L65.75 69.8037V116.804L66.5 116.37L105.256 93.9775L105.368 93.9131L105.435 93.8018L106.429 92.1455L106.5 92.0273V46.2373L105.75 46.6709ZM58.3809 12.8174L19.625 35.21L18.875 35.6426L19.625 36.0752L59.375 58.998L59.625 59.1426L59.875 58.998L99.625 36.0752L100.376 35.6426L99.625 35.209L60.8027 12.8164L60.6865 12.75H58.4971L58.3809 12.8174Z" stroke="var(--stroke-0, white)"/>
</svg>
