<svg preserveAspectRatio="none" width="100%" height="100%" overflow="visible" style="display: block;" viewBox="0 0 92.6333 301.763" fill="none" xmlns="http://www.w3.org/2000/svg">
<g id="Group 670">
<g id="Group 669">
<g id="Group 664">
<line id="Line 7" x1="6.81641" y1="88.7168" x2="6.81642" y2="301.763" stroke="url(#paint0_linear_62_3166)"/>
<line id="Line 8" x1="86.8164" y1="20.2695" x2="86.8164" y2="301.763" stroke="url(#paint1_linear_62_3166)"/>
</g>
<path id="Vector" d="M0 84.0461C2.07029 83.217 4.14035 82.8163 6.31638 82.8163C8.4924 82.8163 10.563 83.2114 12.6333 84.0461L6.31638 67.6523L0 84.0461Z" fill="url(#paint2_linear_62_3166)"/>
</g>
<path id="Vector_2" d="M80 16.3938C82.0703 15.5646 84.1404 15.164 86.3164 15.164C88.4924 15.164 90.563 15.5591 92.6333 16.3938L86.3164 0L80 16.3938Z" fill="url(#paint3_linear_62_3166)"/>
</g>
<defs>
<linearGradient id="paint0_linear_62_3166" x1="5.81642" y1="301.763" x2="5.81641" y2="88.7168" gradientUnits="userSpaceOnUse">
<stop stop-color="#E5E7EA" stop-opacity="0"/>
<stop offset="0.410242" stop-color="#E5E7EA"/>
</linearGradient>
<linearGradient id="paint1_linear_62_3166" x1="85.8164" y1="301.763" x2="85.8164" y2="20.2695" gradientUnits="userSpaceOnUse">
<stop stop-color="#E5E7EA" stop-opacity="0"/>
<stop offset="0.410242" stop-color="#E5E7EA"/>
</linearGradient>
<linearGradient id="paint2_linear_62_3166" x1="6.31665" y1="67.6523" x2="6.31665" y2="84.0461" gradientUnits="userSpaceOnUse">
<stop stop-color="#F1EB74"/>
<stop offset="1" stop-color="#65AAAB"/>
</linearGradient>
<linearGradient id="paint3_linear_62_3166" x1="86.3167" y1="0" x2="86.3167" y2="16.3938" gradientUnits="userSpaceOnUse">
<stop stop-color="#F1EB74"/>
<stop offset="1" stop-color="#65AAAB"/>
</linearGradient>
</defs>
</svg>
