<svg width="395" height="368" viewBox="0 0 395.866 368.758" fill="none" xmlns="http://www.w3.org/2000/svg">
<g id="Group">
<path id="Vector" d="M227.948 364.994L226.956 364.627C223.419 363.317 219.874 362.679 216.118 362.679C212.363 362.679 208.817 363.317 205.281 364.627L204.288 364.994L216.118 336.584L227.948 364.994ZM216.118 338.985L205.919 363.48C209.241 362.364 212.591 361.816 216.118 361.816C219.645 361.816 222.995 362.36 226.317 363.48L216.118 338.985Z" fill="#0E0E0E"/>
<path id="Vector_2" d="M227.948 327.824L226.956 327.457C223.419 326.147 219.874 325.509 216.118 325.509C212.363 325.509 208.817 326.147 205.281 327.457L204.288 327.824L216.118 299.414L227.948 327.824ZM216.118 301.815L205.919 326.311C209.241 325.194 212.591 324.646 216.118 324.646C219.645 324.646 222.995 325.19 226.317 326.311L216.118 301.815Z" fill="#0E0E0E"/>
<path id="Vector_3" d="M227.948 290.656L226.956 290.289C223.419 288.979 219.874 288.341 216.118 288.341C212.363 288.341 208.817 288.979 205.281 290.289L204.288 290.656L216.118 262.246L227.948 290.656ZM216.118 264.643L205.919 289.138C209.241 288.022 212.591 287.474 216.118 287.474C219.645 287.474 222.995 288.017 226.317 289.138L216.118 264.643Z" fill="#0E0E0E"/>
<path id="Vector_4" d="M207.581 255.404L212.977 225.373L230.756 250.989L229.703 250.812C225.953 250.187 222.342 250.226 218.666 250.924C214.985 251.627 211.654 252.912 208.476 254.856L207.586 255.404H207.581ZM213.499 227.718L208.849 253.61C211.859 251.894 215.022 250.735 218.475 250.08C221.932 249.42 225.328 249.329 228.827 249.804L213.499 227.718Z" fill="#0E0E0E"/>
<path id="Vector_5" d="M226.796 217.084L201.31 197.831L234.171 196.283L233.482 197.042C231.031 199.741 229.275 202.659 228.101 205.961C226.931 209.264 226.479 212.579 226.726 216.097L226.796 217.084ZM203.775 198.577L225.748 215.178C225.636 211.906 226.12 208.794 227.22 205.694C228.319 202.59 229.922 199.818 232.107 197.245L203.775 198.577Z" fill="#0E0E0E"/>
<path id="Vector_6" d="M250.945 367.244L254.915 337.023L273.887 361.894L272.829 361.76C269.055 361.29 265.449 361.471 261.806 362.321C258.162 363.17 254.896 364.588 251.812 366.662L250.945 367.244ZM255.548 339.351L252.129 365.407C255.055 363.571 258.158 362.286 261.577 361.489C264.997 360.691 268.389 360.462 271.907 360.794L255.548 339.351Z" fill="#0E0E0E"/>
<path id="Vector_7" d="M252.469 330.63L253.639 300.207L274.833 323.495L273.766 323.448C269.96 323.275 266.386 323.741 262.836 324.875C259.286 326.009 256.159 327.681 253.28 329.988L252.469 330.634V330.63ZM254.487 302.47L253.476 328.703C256.224 326.642 259.197 325.116 262.533 324.051C265.869 322.987 269.228 322.495 272.76 322.547L254.487 302.47Z" fill="#0E0E0E"/>
<path id="Vector_8" d="M254.577 294.004L252.001 263.654L275.921 284.558L274.854 284.623C271.052 284.852 267.558 285.692 264.17 287.192C260.783 288.693 257.88 290.684 255.304 293.275L254.582 294.004H254.577ZM253.119 265.818L255.341 291.986C257.82 289.65 260.583 287.822 263.765 286.412C266.947 285.002 270.223 284.158 273.74 283.839L253.119 265.814V265.818Z" fill="#0E0E0E"/>
<path id="Vector_9" d="M260.328 257.192L248.121 228.92L277.674 242.301L276.677 242.655C273.122 243.918 270.052 245.681 267.298 248.044C264.545 250.406 262.415 253.105 260.785 256.291L260.328 257.187V257.192ZM249.887 230.679L260.412 255.053C262.024 252.143 264.079 249.639 266.669 247.414C269.255 245.194 272.111 243.487 275.368 242.215L249.887 230.675V230.679Z" fill="#0E0E0E"/>
<path id="Vector_10" d="M269.4 217.084L243.914 197.831L276.775 196.283L276.086 197.042C273.635 199.741 271.878 202.659 270.704 205.961C269.535 209.264 269.083 212.579 269.33 216.097L269.4 217.084ZM246.374 198.577L268.347 215.178C268.235 211.906 268.719 208.794 269.819 205.694C270.919 202.59 272.521 199.818 274.707 197.245L246.374 198.577Z" fill="#0E0E0E"/>
<path id="Vector_11" d="M289.146 367.244L293.115 337.023L312.088 361.894L311.03 361.76C307.256 361.29 303.65 361.471 300.006 362.321C296.363 363.17 293.097 364.588 290.012 366.662L289.146 367.244ZM293.749 339.351L290.329 365.407C293.255 363.571 296.358 362.286 299.778 361.489C303.198 360.691 306.59 360.462 310.107 360.794L293.749 339.351Z" fill="#0E0E0E"/>
<path id="Vector_12" d="M290.67 330.63L291.839 300.207L313.034 323.495L311.967 323.448C308.16 323.275 304.587 323.741 301.036 324.875C297.486 326.009 294.36 327.681 291.48 329.988L290.67 330.634V330.63ZM292.687 302.47L291.676 328.703C294.425 326.642 297.398 325.116 300.734 324.051C304.07 322.987 307.429 322.495 310.961 322.547L292.687 302.47Z" fill="#0E0E0E"/>
<g id="Group_2">
<path id="Vector_13" d="M298.078 293.319C299.835 290.107 302.09 287.426 304.936 285.106C307.788 282.791 310.956 281.067 314.623 279.873L287.492 266.729L298.078 293.319Z" fill="url(#paint0_linear_63_1994)"/>
<path id="Vector_14" d="M298.013 294.395L286.639 265.826L315.787 279.949L314.781 280.277C311.189 281.449 308.072 283.135 305.248 285.428C302.425 287.722 300.216 290.365 298.497 293.512L298.013 294.395ZM288.349 267.632L298.157 292.261C299.858 289.39 301.982 286.937 304.633 284.786C307.284 282.631 310.187 280.997 313.481 279.807L288.349 267.632Z" fill="url(#paint1_linear_63_1994)"/>
</g>
<path id="Vector_15" d="M303.254 256.261L283.811 231.701L316.039 237.84L315.168 238.413C312.065 240.457 309.568 242.871 307.541 245.798C305.509 248.721 304.177 251.829 303.459 255.291L303.259 256.261H303.254ZM285.992 232.999L302.756 254.175C303.534 250.984 304.848 248.083 306.753 245.333C308.659 242.587 310.965 240.271 313.775 238.288L285.987 232.994L285.992 232.999Z" fill="#0E0E0E"/>
<path id="Vector_16" d="M310.346 215.018L281.473 200.416L313.467 193.32L312.941 194.183C311.068 197.252 309.917 200.421 309.423 203.865C308.929 207.31 309.144 210.646 310.08 214.061L310.346 215.018ZM284.044 200.735L308.939 213.323C308.179 210.129 308.039 206.986 308.505 203.749C308.971 200.511 309.996 197.515 311.636 194.614L284.049 200.731L284.044 200.735Z" fill="#0E0E0E"/>
<path id="Vector_17" d="M336.633 368.753L328.372 339.283L355.866 356.006L354.827 356.243C351.128 357.079 347.843 358.472 344.791 360.498C341.735 362.524 339.256 364.951 337.206 367.921L336.633 368.758V368.753ZM329.882 341.236L337.006 366.645C339.004 363.947 341.381 361.701 344.251 359.799C347.121 357.898 350.182 356.536 353.588 355.656L329.882 341.24V341.236Z" fill="#0E0E0E"/>
<path id="Vector_18" d="M339.588 331.487L326.538 303.539L356.482 316.162L355.495 316.541C351.977 317.895 348.962 319.736 346.283 322.171C343.6 324.603 341.554 327.358 340.021 330.582L339.593 331.487H339.588ZM328.35 305.251L339.602 329.345C341.13 326.392 343.106 323.835 345.626 321.551C348.147 319.266 350.947 317.485 354.167 316.132L328.35 305.251Z" fill="#0E0E0E"/>
<path id="Vector_19" d="M343.198 293.613L324.613 268.492L356.612 275.58L355.722 276.127C352.549 278.08 349.973 280.421 347.843 283.283C345.714 286.146 344.27 289.211 343.436 292.647L343.203 293.613H343.198ZM326.742 269.85L342.77 291.509C343.659 288.34 345.071 285.482 347.07 282.792C349.069 280.102 351.454 277.86 354.334 275.959L326.746 269.85H326.742Z" fill="#0E0E0E"/>
<path id="Vector_20" d="M346.507 255.153L323.188 233.676L356.054 235.124L355.29 235.814C352.564 238.276 350.505 241.022 348.99 244.203C347.476 247.385 346.675 250.644 346.544 254.166L346.507 255.153ZM325.559 234.641L345.664 253.162C345.901 249.898 346.712 246.842 348.133 243.854C349.559 240.867 351.446 238.254 353.892 235.892L325.555 234.641H325.559Z" fill="#0E0E0E"/>
<path id="Vector_21" d="M352.531 213.305L321.864 202.278L352.601 191.414L352.2 192.332C350.775 195.6 350.071 198.876 350.062 202.355C350.053 205.83 350.728 209.115 352.135 212.387L352.531 213.305ZM324.455 202.286L350.896 211.797C349.698 208.719 349.116 205.619 349.13 202.355C349.139 199.092 349.74 195.992 350.956 192.923L324.455 202.291V202.286Z" fill="#0E0E0E"/>
<path id="Vector_22" d="M378.125 368.72L366.169 340.357L395.602 353.967L394.6 354.317C391.031 355.554 387.951 357.291 385.174 359.636C382.397 361.977 380.245 364.659 378.591 367.836L378.125 368.728V368.72ZM367.917 342.129L378.223 366.586C379.863 363.689 381.941 361.197 384.545 358.998C387.155 356.795 390.02 355.114 393.291 353.864L367.912 342.129H367.917Z" fill="#0E0E0E"/>
<path id="Vector_23" d="M380.849 331.174L364.631 304.688L395.866 314.258L394.929 314.732C391.589 316.426 388.807 318.556 386.422 321.246C384.036 323.932 382.322 326.872 381.171 330.23L380.849 331.174ZM366.634 306.205L380.616 329.045C381.79 325.958 383.458 323.221 385.7 320.694C387.941 318.172 390.517 316.125 393.56 314.456L366.629 306.205H366.634Z" fill="#0E0E0E"/>
<path id="Vector_24" d="M384.08 293.052L363.085 269.613L395.653 273.959L394.819 274.58C391.856 276.791 389.517 279.339 387.681 282.374C385.846 285.405 384.714 288.577 384.22 292.074L384.08 293.057V293.052ZM365.345 270.786L383.446 290.996C384.019 287.767 385.142 284.801 386.866 281.951C388.59 279.102 390.743 276.666 393.422 274.532L365.345 270.786Z" fill="#0E0E0E"/>
<path id="Vector_25" d="M387.582 254.111L361.798 235.198L394.631 233.211L393.956 233.978C391.547 236.711 389.837 239.652 388.719 242.971C387.601 246.291 387.2 249.61 387.503 253.124L387.587 254.111H387.582ZM364.272 235.914L386.506 252.218C386.343 248.95 386.776 245.829 387.829 242.712C388.882 239.596 390.438 236.802 392.581 234.198L364.272 235.91V235.914Z" fill="#0E0E0E"/>
<path id="Vector_26" d="M391.758 213.305L361.091 202.278L391.827 191.414L391.427 192.332C390.001 195.6 389.297 198.876 389.288 202.355C389.279 205.83 389.954 209.115 391.362 212.387L391.758 213.305ZM363.681 202.286L390.122 211.797C388.925 208.719 388.342 205.619 388.356 202.355C388.366 199.092 388.967 195.992 390.183 192.923L363.681 202.291V202.286Z" fill="#0E0E0E"/>
<path id="Vector_27" d="M216.118 32.9976L204.288 4.58789L205.281 4.95433C208.817 6.26488 212.363 6.90292 216.118 6.90292C219.874 6.90292 223.419 6.26488 226.956 4.95433L227.948 4.58789L216.118 32.9976ZM205.919 6.10537L216.118 30.6006L226.317 6.10537C222.995 7.22193 219.645 7.76943 216.118 7.76943C212.591 7.76943 209.241 7.22624 205.919 6.10537Z" fill="#0E0E0E"/>
<path id="Vector_28" d="M216.118 70.1675L204.288 41.7578L205.281 42.1243C208.817 43.4348 212.363 44.0728 216.118 44.0728C219.874 44.0728 223.419 43.4348 226.956 42.1243L227.948 41.7578L216.118 70.1675ZM205.919 43.2796L216.118 67.7749L226.317 43.2796C222.995 44.3962 219.645 44.9437 216.118 44.9437C212.591 44.9437 209.241 44.4005 205.919 43.2796Z" fill="#0E0E0E"/>
<path id="Vector_29" d="M216.118 107.341L204.288 78.9316L205.281 79.2981C208.817 80.6086 212.363 81.2467 216.118 81.2467C219.874 81.2467 223.419 80.6086 226.956 79.2981L227.948 78.9316L216.118 107.341ZM205.919 80.4491L216.118 104.944L226.317 80.4491C222.995 81.5657 219.645 82.1132 216.118 82.1132C212.591 82.1132 209.241 81.57 205.919 80.4491Z" fill="#0E0E0E"/>
<path id="Vector_30" d="M215.638 144.506L204.763 115.773L205.742 116.17C209.232 117.584 212.754 118.321 216.509 118.429C220.265 118.537 223.829 118.002 227.407 116.791L228.414 116.45L215.638 144.506ZM206.343 117.334L215.717 142.11L226.732 117.92C223.372 118.942 220.008 119.39 216.481 119.291C212.954 119.192 209.628 118.55 206.343 117.338V117.334Z" fill="#0E0E0E"/>
<path id="Vector_31" d="M211.318 180.981L209.519 150.584L210.339 151.218C213.265 153.472 216.424 155.089 220.002 156.162C223.576 157.232 227.159 157.637 230.961 157.395L232.028 157.326L211.318 180.981ZM210.567 152.489L212.119 178.701L229.978 158.305C226.441 158.421 223.078 157.986 219.723 156.982C216.364 155.977 213.363 154.503 210.572 152.494L210.567 152.489Z" fill="#0E0E0E"/>
<path id="Vector_32" d="M254.915 32.5621L250.945 2.3418L251.812 2.92378C254.891 4.99308 258.162 6.41572 261.806 7.26499C265.449 8.11427 269.055 8.29964 272.829 7.82543L273.887 7.69178L254.915 32.5621ZM252.124 4.1783L255.544 30.2341L271.902 8.79109C268.385 9.12304 264.997 8.89456 261.573 8.09702C258.153 7.29948 255.05 6.01479 252.124 4.1783Z" fill="#0E0E0E"/>
<path id="Vector_33" d="M253.639 69.3819L252.469 38.959L253.28 39.6056C256.159 41.912 259.286 43.5847 262.836 44.7185C266.386 45.8523 269.965 46.3222 273.766 46.1455L274.833 46.0981L253.639 69.3862V69.3819ZM253.476 40.8817L254.487 67.1143L272.76 47.0379C269.228 47.0896 265.869 46.5981 262.533 45.5333C259.197 44.4685 256.224 42.9424 253.476 40.8817Z" fill="#0E0E0E"/>
<path id="Vector_34" d="M253.788 106.6L252.283 76.1855L253.099 76.8236C256.001 79.1041 259.146 80.7466 262.711 81.8459C266.275 82.9452 269.853 83.3807 273.655 83.1694L274.722 83.1091L253.784 106.591L253.788 106.6ZM253.313 78.104L254.608 104.324L272.663 84.079C269.126 84.1653 265.767 83.704 262.417 82.6693C259.067 81.6347 256.081 80.1388 253.313 78.104Z" fill="#0E0E0E"/>
<path id="Vector_35" d="M251.369 142.803L255.428 112.592L256.117 113.351C258.563 116.049 261.363 118.162 264.676 119.8C267.989 121.438 271.437 122.425 275.225 122.813L276.287 122.921L251.369 142.803ZM256.089 114.644L252.59 140.691L274.074 123.55C270.575 123.085 267.346 122.106 264.233 120.563C261.121 119.024 258.447 117.08 256.089 114.644Z" fill="#0E0E0E"/>
<path id="Vector_36" d="M245.537 174.947L265.218 150.547L265.409 151.521C266.094 154.987 267.398 158.104 269.402 161.044C271.405 163.984 273.874 166.42 276.959 168.489L277.825 169.071L245.542 174.943L245.537 174.947ZM264.696 152.633L247.727 173.671L275.561 168.606C272.77 166.601 270.487 164.269 268.605 161.506C266.723 158.742 265.441 155.832 264.691 152.633H264.696Z" fill="#0E0E0E"/>
<path id="Vector_37" d="M293.115 32.5621L289.146 2.3418L290.012 2.92378C293.092 4.99308 296.363 6.41572 300.006 7.26499C303.65 8.11427 307.256 8.29964 311.03 7.82543L312.088 7.69178L293.115 32.5621ZM290.324 4.1783L293.744 30.2341L310.103 8.79109C306.585 9.12304 303.198 8.89456 299.773 8.09702C296.353 7.29948 293.25 6.01479 290.324 4.1783Z" fill="#0E0E0E"/>
<path id="Vector_38" d="M291.839 69.3819L290.67 38.959L291.48 39.6056C294.36 41.912 297.486 43.5847 301.036 44.7185C304.587 45.8523 308.165 46.3222 311.967 46.1455L313.034 46.0981L291.839 69.3862V69.3819ZM291.676 40.8817L292.687 67.1143L310.961 47.0379C307.424 47.0896 304.07 46.5981 300.734 45.5333C297.398 44.4685 294.425 42.9424 291.676 40.8817Z" fill="#0E0E0E"/>
<path id="Vector_39" d="M287.736 104.569L296.285 75.1719L296.854 76.0125C298.871 79.0001 301.331 81.4487 304.364 83.5008C307.398 85.5485 310.668 86.9712 314.358 87.8377L315.393 88.0834L287.736 104.573V104.569ZM296.635 77.2843L289.264 102.633L313.11 88.4154C309.713 87.5057 306.661 86.1176 303.81 84.1949C300.958 82.2678 298.601 80.0045 296.63 77.2886L296.635 77.2843Z" fill="#0E0E0E"/>
<path id="Vector_40" d="M286.066 140.436L298.972 112.432L299.405 113.337C300.952 116.557 303.016 119.299 305.714 121.722C308.407 124.145 311.431 125.973 314.958 127.309L315.945 127.684L286.071 140.436H286.066ZM298.995 114.57L287.869 138.716L313.63 127.719C310.406 126.378 307.591 124.61 305.062 122.338C302.532 120.062 300.537 117.514 298.995 114.57Z" fill="#0E0E0E"/>
<path id="Vector_41" d="M314.926 173.43L282.078 171.658L307.718 152.582L307.639 153.569C307.364 157.083 307.788 160.402 308.934 163.713C310.08 167.024 311.814 169.955 314.241 172.671L314.921 173.434L314.926 173.43ZM284.548 170.925L312.867 172.456C310.705 169.869 309.125 167.084 308.049 163.972C306.973 160.859 306.516 157.747 306.656 154.475L284.548 170.921V170.925Z" fill="#0E0E0E"/>
<path id="Vector_42" d="M328.372 30.3022L336.633 0.832031L337.206 1.66837C339.256 4.63867 341.735 7.06578 344.791 9.09196C347.848 11.1181 351.128 12.5063 354.827 13.3469L355.866 13.5841L328.372 30.3065V30.3022ZM337.006 2.94444L329.882 28.3536L353.588 13.9376C350.182 13.0581 347.121 11.6958 344.251 9.79466C341.381 7.8935 339.004 5.64745 337.006 2.94875V2.94444Z" fill="#0E0E0E"/>
<path id="Vector_43" d="M326.536 66.0441L339.586 38.0957L340.015 39.001C341.548 42.23 343.598 44.9804 346.277 47.4118C348.961 49.8476 351.971 51.6884 355.488 53.042L356.476 53.4214L326.531 66.0441H326.536ZM339.6 40.234L328.348 64.3283L354.165 53.4473C350.946 52.0936 348.145 50.3132 345.625 48.0283C343.104 45.7435 341.129 43.187 339.6 40.234Z" fill="#0E0E0E"/>
<path id="Vector_44" d="M325.976 102.685L340.559 75.3965L340.937 76.3234C342.288 79.617 344.18 82.4623 346.724 85.023C349.268 87.5794 352.175 89.5625 355.613 91.08L356.578 91.5068L325.976 102.69V102.685ZM340.457 77.5304L327.882 101.06L354.267 91.4206C351.127 89.916 348.429 88.0062 346.039 85.6007C343.649 83.1994 341.818 80.5482 340.457 77.5304Z" fill="#0E0E0E"/>
<path id="Vector_45" d="M324.315 137.859L343.814 113.338L344.014 114.308C344.722 117.77 346.05 120.878 348.077 123.805C350.099 126.732 352.592 129.155 355.69 131.203L356.561 131.78L324.32 137.855L324.315 137.859ZM343.311 115.424L326.5 136.566L354.297 131.328C351.487 129.34 349.191 127.021 347.29 124.271C345.389 121.52 344.084 118.615 343.311 115.424Z" fill="#0E0E0E"/>
<path id="Vector_46" d="M354.516 175.39L322.139 169.967L350.075 153.887L349.87 154.857C349.143 158.314 349.13 161.655 349.833 165.07C350.537 168.484 351.878 171.588 353.938 174.554L354.516 175.386V175.39ZM324.687 169.519L352.601 174.192C350.788 171.381 349.586 168.441 348.92 165.233C348.258 162.026 348.207 158.883 348.771 155.65L324.683 169.514L324.687 169.519Z" fill="#0E0E0E"/>
<path id="Vector_47" d="M366.169 29.2294L378.125 0.867188L378.591 1.75957C380.245 4.93249 382.402 7.61395 385.174 9.95915C387.951 12.3043 391.031 14.0417 394.6 15.279L395.602 15.6281L366.169 29.2381V29.2294ZM378.227 3.00546L367.921 27.4619L393.3 15.7273C390.029 14.4814 387.159 12.7958 384.555 10.5929C381.946 8.39424 379.872 5.90247 378.232 3.00546H378.227Z" fill="#0E0E0E"/>
<path id="Vector_48" d="M364.631 64.8991L380.849 38.4121L381.171 39.3562C382.317 42.7145 384.036 45.6546 386.422 48.3404C388.807 51.0262 391.589 53.1558 394.929 54.8544L395.866 55.3286L364.631 64.8991ZM380.616 40.5418L366.634 63.3816L393.564 55.1303C390.522 53.4619 387.941 51.4142 385.704 48.8922C383.463 46.3703 381.795 43.6285 380.621 40.5418H380.616Z" fill="#0E0E0E"/>
<path id="Vector_49" d="M364.156 101.508L381.777 75.7969L382.047 76.7539C383.011 80.1639 384.572 83.1774 386.809 85.9709C389.045 88.7645 391.71 91.0191 394.953 92.8642L395.866 93.3816L364.156 101.504V101.508ZM381.432 77.9136L366.238 100.081L393.579 93.0755C390.629 91.2691 388.165 89.1093 386.063 86.4839C383.962 83.8628 382.443 81.0477 381.432 77.9136Z" fill="#0E0E0E"/>
<path id="Vector_50" d="M362.646 136.375L385.127 114.143L385.202 115.13C385.467 118.648 386.39 121.877 388.03 125.006C389.665 128.136 391.832 130.809 394.646 133.18L395.438 133.848L362.646 136.375ZM384.363 116.164L364.981 135.331L393.253 133.154C390.718 130.874 388.729 128.326 387.191 125.386C385.654 122.446 384.726 119.424 384.363 116.169V116.164Z" fill="#0E0E0E"/>
<path id="Vector_51" d="M393.396 175.989L361.266 169.424L389.85 154.344L389.603 155.305C388.732 158.737 388.583 162.073 389.147 165.509C389.71 168.945 390.922 172.092 392.855 175.132L393.396 175.985V175.989ZM363.828 169.066L391.527 174.726C389.836 171.855 388.751 168.872 388.224 165.643C387.693 162.414 387.777 159.271 388.471 156.064L363.828 169.066Z" fill="#0E0E0E"/>
<path id="Vector_52" d="M187.296 367.34L186.439 366.749C183.387 364.641 180.135 363.184 176.505 362.291C172.876 361.399 169.27 361.175 165.491 361.602L164.429 361.722L183.746 337.076L187.296 367.344V367.34ZM169.144 360.524C171.706 360.524 174.222 360.834 176.748 361.455C180.158 362.291 183.243 363.615 186.145 365.486L183.084 339.391L166.428 360.64C167.341 360.567 168.245 360.528 169.144 360.528V360.524Z" fill="#0E0E0E"/>
<path id="Vector_53" d="M187.24 330.187L186.383 329.592C183.336 327.475 180.093 326.01 176.463 325.104C172.834 324.203 169.232 323.966 165.449 324.38L164.387 324.496L183.788 299.906L187.235 330.183L187.24 330.187ZM169.018 323.324C171.613 323.324 174.157 323.638 176.71 324.277C180.116 325.126 183.196 326.454 186.094 328.333L183.121 302.23L166.395 323.432C167.275 323.363 168.151 323.324 169.018 323.324Z" fill="#0E0E0E"/>
<path id="Vector_54" d="M184.305 293.919L183.564 293.203C180.927 290.659 177.978 288.732 174.553 287.301C171.129 285.87 167.616 285.102 163.809 284.952L162.742 284.908L186.159 263.521L184.305 293.919ZM164.904 284.145C168.431 284.391 171.725 285.171 174.94 286.512C178.155 287.857 180.964 289.629 183.494 291.914L185.093 265.707L164.904 284.145Z" fill="#0E0E0E"/>
<path id="Vector_55" d="M180.224 257.248L179.665 256.403C177.671 253.398 175.239 250.932 172.224 248.859C169.21 246.785 165.953 245.341 162.267 244.444L161.233 244.194L189.039 227.92L180.219 257.252L180.224 257.248ZM163.521 243.875C166.908 244.811 169.946 246.22 172.778 248.169C175.611 250.117 177.946 252.402 179.893 255.131L187.497 229.843L163.521 243.875Z" fill="#0E0E0E"/>
<path id="Vector_56" d="M169.064 217.084L169.134 216.097C169.381 212.579 168.929 209.264 167.76 205.961C166.59 202.659 164.829 199.741 162.378 197.042L161.689 196.283L194.55 197.831L169.064 217.084ZM163.758 197.24C165.943 199.814 167.546 202.586 168.645 205.69C169.745 208.794 170.229 211.906 170.117 215.174L192.09 198.572L163.758 197.24Z" fill="#0E0E0E"/>
<path id="Vector_57" d="M142.003 368.189L141.248 367.486C138.565 364.985 135.583 363.097 132.135 361.718C128.687 360.338 125.16 359.623 121.349 359.528L120.282 359.502L143.322 337.766L142.003 368.184V368.189ZM122.434 358.713C125.966 358.907 129.27 359.635 132.512 360.929C135.751 362.222 138.593 363.951 141.165 366.197L142.301 339.969L122.439 358.709L122.434 358.713Z" fill="#0E0E0E"/>
<path id="Vector_58" d="M138.845 331.528L138.23 330.717C136.036 327.838 133.436 325.518 130.281 323.626C127.127 321.733 123.782 320.487 120.04 319.806L118.992 319.617L145.62 301.734L138.845 331.524V331.528ZM121.252 319.168C124.7 319.901 127.826 321.13 130.789 322.906C133.753 324.682 136.241 326.825 138.37 329.437L144.212 303.752L121.252 319.168Z" fill="#0E0E0E"/>
<path id="Vector_59" d="M136.758 294.422L136.241 293.555C134.396 290.473 132.085 287.903 129.173 285.709C126.261 283.51 123.079 281.932 119.445 280.885L118.424 280.592L146.995 265.49L136.763 294.426L136.758 294.422ZM120.721 280.368C124.062 281.445 127.025 282.98 129.76 285.041C132.495 287.106 134.718 289.485 136.53 292.292L145.355 267.344L120.721 280.363V280.368Z" fill="#0E0E0E"/>
<path id="Vector_60" d="M131.782 256.547L131.525 255.585C130.612 252.162 129.098 249.127 126.904 246.308C124.709 243.488 122.081 241.195 118.862 239.307L117.958 238.776L149.79 231.068L131.777 256.547H131.782ZM120.246 239.117C123.167 240.958 125.599 243.156 127.663 245.808C129.722 248.459 131.199 251.291 132.164 254.438L147.693 232.474L120.25 239.121L120.246 239.117Z" fill="#0E0E0E"/>
<path id="Vector_61" d="M123.789 215.087L124.046 214.125C124.964 210.707 125.159 207.37 124.642 203.926C124.125 200.481 122.955 197.321 121.068 194.26L120.537 193.402L152.574 200.339L123.789 215.082V215.087ZM122.387 194.687C124.041 197.58 125.085 200.572 125.569 203.805C126.054 207.038 125.933 210.181 125.192 213.38L150.012 200.666L122.387 194.683V194.687Z" fill="#0E0E0E"/>
<path id="Vector_62" d="M100.584 368.706L99.9691 367.895C97.7839 365.007 95.1934 362.683 92.0437 360.782C88.8988 358.881 85.5535 357.622 81.8168 356.932L80.7684 356.738L107.456 338.934L100.579 368.706H100.584ZM83.0328 356.29C86.476 357.036 89.6023 358.273 92.5562 360.058C95.5102 361.842 97.9936 363.994 100.114 366.61L106.04 340.943L83.0281 356.294L83.0328 356.29Z" fill="#0E0E0E"/>
<path id="Vector_63" d="M97.881 331.57L97.3965 330.687C95.6726 327.544 93.4594 324.906 90.6313 322.616C87.8031 320.327 84.6861 318.646 81.0892 317.478L80.0782 317.15L109.203 302.988L97.8764 331.57H97.881ZM82.3891 317.003C85.6832 318.189 88.5906 319.819 91.2463 321.97C93.9021 324.121 96.0313 326.57 97.7366 329.436L107.502 304.79L82.3891 316.999V317.003Z" fill="#0E0E0E"/>
<path id="Vector_64" d="M95.239 294.094L94.8896 293.159C93.6502 289.826 91.8518 286.929 89.3964 284.299C86.941 281.67 84.0989 279.605 80.7163 277.988L79.7658 277.535L110.731 267.236L95.2437 294.094H95.239ZM82.0721 277.682C85.1611 279.277 87.7936 281.264 90.1046 283.735C92.4109 286.205 94.1581 288.904 95.4161 291.96L108.769 268.801L82.0721 277.682Z" fill="#0E0E0E"/>
<path id="Vector_65" d="M90.5862 255.485L90.507 254.498C90.2228 250.984 89.2769 247.76 87.6183 244.639C85.9596 241.517 83.7791 238.857 80.9509 236.499L80.1542 235.835L112.927 233.137L90.5862 255.485ZM82.3487 236.521C84.8973 238.788 86.9008 241.328 88.4569 244.259C90.0131 247.191 90.9589 250.208 91.341 253.463L110.607 234.193L82.3487 236.521Z" fill="#0E0E0E"/>
<path id="Vector_66" d="M85.5155 215.018L85.7811 214.061C86.7176 210.646 86.9365 207.31 86.438 203.865C85.9441 200.421 84.7886 197.252 82.9203 194.183L82.3938 193.32L114.389 200.416L85.5155 215.018ZM84.2342 194.614C85.8696 197.515 86.8946 200.511 87.3606 203.749C87.8265 206.986 87.6867 210.129 86.9272 213.323L111.821 200.735L84.2342 194.618V194.614Z" fill="#0E0E0E"/>
<path id="Vector_67" d="M57.2235 368.735L56.7436 367.852C55.043 364.7 52.8485 362.045 50.039 359.734C47.2295 357.428 44.1218 355.725 40.5389 354.535L39.5325 354.199L68.7644 340.227L57.2235 368.735ZM41.8388 354.065C45.1235 355.272 48.0216 356.919 50.6587 359.087C53.2958 361.256 55.4111 363.722 57.0931 366.597L67.0452 342.016L41.8388 354.065Z" fill="#0E0E0E"/>
<path id="Vector_68" d="M54.3451 331.194L54.019 330.25C52.8495 326.896 51.1163 323.964 48.7168 321.291C46.3173 318.619 43.5218 316.502 40.1718 314.825L39.2306 314.355L70.4055 304.625L54.3451 331.198V331.194ZM41.5323 314.545C44.5841 316.196 47.1746 318.231 49.4297 320.74C51.6847 323.253 53.3714 325.982 54.5641 329.064L68.4113 306.155L41.5323 314.545Z" fill="#0E0E0E"/>
<path id="Vector_69" d="M52.6673 293.613L52.4344 292.647C51.6004 289.207 50.156 286.146 48.0267 283.283C45.8975 280.421 43.3209 278.08 40.148 276.127L39.2581 275.58L71.2576 268.492L52.672 293.613H52.6673ZM41.5318 275.959C44.4112 277.856 46.792 280.102 48.7955 282.792C50.7943 285.482 52.2107 288.344 53.096 291.509L69.1237 269.85L41.5364 275.959H41.5318Z" fill="#0E0E0E"/>
<path id="Vector_70" d="M49.36 255.153L49.3227 254.166C49.1923 250.644 48.3955 247.385 46.8766 244.203C45.3624 241.022 43.2983 238.28 40.5773 235.814L39.8132 235.124L72.6794 233.676L49.36 255.153ZM41.9704 235.892C44.4165 238.254 46.3082 240.867 47.7292 243.854C49.155 246.842 49.9657 249.894 50.1986 253.162L70.3032 234.641L41.9658 235.892H41.9704Z" fill="#0E0E0E"/>
<path id="Vector_71" d="M43.3302 213.305L43.7262 212.387C45.1333 209.111 45.8135 205.83 45.7995 202.355C45.7902 198.881 45.0914 195.6 43.661 192.332L43.2603 191.414L73.9972 202.278L43.3302 213.305ZM44.9096 192.919C46.1257 195.988 46.7267 199.088 46.736 202.351C46.7454 205.615 46.1676 208.714 44.9702 211.792L71.4113 202.282L44.9096 192.914V192.919Z" fill="#0E0E0E"/>
<path id="Vector_72" d="M15.7256 368.476L15.3668 367.545C14.0809 364.226 12.2452 361.35 9.75713 358.746C7.26444 356.147 4.39902 354.112 0.993131 352.534L0.0379958 352.09L30.8588 341.438L15.7303 368.472L15.7256 368.476ZM2.33965 352.215C5.44735 353.776 8.10776 355.729 10.4513 358.173C12.7903 360.617 14.5701 363.294 15.87 366.338L28.9158 343.028L2.33965 352.211V352.215Z" fill="#0E0E0E"/>
<path id="Vector_73" d="M12.4643 330.471L12.2872 329.497C11.6536 326.022 10.3909 322.892 8.43405 319.926C6.47252 316.96 4.03575 314.494 0.983962 312.386L0.126653 311.796L32.4943 306.316L12.4689 330.475L12.4643 330.471ZM2.3724 312.287C5.13532 314.326 7.38571 316.684 9.2261 319.474C11.0665 322.259 12.3105 325.186 13.014 328.393L30.2811 307.567L2.37706 312.292L2.3724 312.287Z" fill="#0E0E0E"/>
<path id="Vector_74" d="M11.7888 293.051L11.649 292.068C11.1552 288.572 10.023 285.399 8.18723 282.368C6.3515 279.337 4.01722 276.785 1.0493 274.574L0.215309 273.953L32.7833 269.607L11.7888 293.046V293.051ZM2.44707 274.531C5.12612 276.665 7.27868 279.1 9.0026 281.95C10.7265 284.799 11.8494 287.765 12.4225 290.994L30.5235 270.784L2.44707 274.531Z" fill="#0E0E0E"/>
<path id="Vector_75" d="M8.28594 254.111L8.3698 253.124C8.66799 249.61 8.27196 246.291 7.15375 242.971C6.03554 239.652 4.32095 236.711 1.91679 233.978L1.24119 233.211L34.0747 235.198L8.2906 254.111H8.28594ZM3.28657 234.198C5.42981 236.802 6.99066 239.596 8.03898 242.712C9.09197 245.829 9.52529 248.95 9.36222 252.218L31.596 235.914L3.28657 234.202V234.198Z" fill="#0E0E0E"/>
<path id="Vector_76" d="M4.10375 213.305L4.49981 212.387C5.90689 209.111 6.58714 205.83 6.57316 202.355C6.56385 198.881 5.86495 195.6 4.43457 192.332L4.03388 191.414L34.7708 202.278L4.10375 213.305ZM5.67857 192.919C6.89463 195.988 7.49569 199.088 7.50501 202.351C7.51433 205.615 6.93657 208.714 5.73915 211.792L32.1802 202.282L5.67857 192.914V192.919Z" fill="#0E0E0E"/>
<path id="Vector_77" d="M182.931 31.8678L165.073 6.29906L166.126 6.47151C169.876 7.08798 173.487 7.04056 177.163 6.32924C180.839 5.61792 184.171 4.32461 187.339 2.37172L188.229 1.82422L182.927 31.8721L182.931 31.8678ZM167.006 7.47166L182.405 29.5183L186.976 3.6133C183.97 5.33771 180.811 6.50168 177.359 7.16989C173.906 7.8381 170.505 7.93726 167.006 7.47166Z" fill="#0E0E0E"/>
<path id="Vector_78" d="M183.928 68.8143L164.294 44.3837L165.356 44.4915C169.144 44.8752 172.741 44.6122 176.361 43.6767C179.981 42.7455 183.21 41.2496 186.234 39.107L187.082 38.5078L183.928 68.81V68.8143ZM166.302 45.4443L183.233 66.5079L185.954 40.3788C183.08 42.28 180.009 43.6379 176.613 44.5131C173.211 45.3882 169.829 45.6943 166.306 45.4443H166.302Z" fill="#0E0E0E"/>
<path id="Vector_79" d="M185.097 105.639L163.441 82.7216L164.508 82.7517C168.314 82.8595 171.879 82.3336 175.41 81.1394C178.937 79.9453 182.031 78.2208 184.864 75.8627L185.661 75.2031L185.097 105.643V105.639ZM165.538 83.6226L184.212 103.384L184.696 77.1388C181.989 79.2469 179.049 80.8204 175.737 81.9413C172.424 83.0621 169.079 83.6139 165.542 83.6226H165.538Z" fill="#0E0E0E"/>
<path id="Vector_80" d="M186.853 142.097L162.318 121.809L163.385 121.718C167.177 121.395 170.644 120.464 173.989 118.877C177.335 117.291 180.172 115.226 182.674 112.566L183.378 111.82L186.858 142.092L186.853 142.097ZM164.517 122.473L185.67 139.963L182.669 113.859C180.265 116.256 177.554 118.153 174.413 119.645C171.273 121.136 168.025 122.063 164.517 122.469V122.473Z" fill="#0E0E0E"/>
<path id="Vector_81" d="M190.124 177.192L160.855 163.289L161.861 162.953C165.444 161.754 168.547 160.043 171.348 157.728C174.152 155.413 176.338 152.753 178.029 149.597L178.504 148.709L190.124 177.192ZM163.161 163.418L188.4 175.407L178.378 150.852C176.706 153.731 174.6 156.202 171.967 158.379C169.335 160.551 166.446 162.211 163.161 163.423V163.418Z" fill="#0E0E0E"/>
<path id="Vector_82" d="M143.276 31.0089L120.32 9.19937L121.387 9.17782C125.193 9.09591 128.725 8.39321 132.178 7.02231C135.63 5.65571 138.621 3.7761 141.31 1.28433L142.064 0.585938L143.271 31.0089H143.276ZM122.463 9.99691L142.256 28.8016L141.217 2.56901C138.635 4.80643 135.793 6.52653 132.546 7.81122C129.303 9.0959 125.99 9.81585 122.463 9.99691Z" fill="#0E0E0E"/>
<path id="Vector_83" d="M144.11 67.8222L119.803 47.3017L120.87 47.2197C124.667 46.9309 128.143 46.0342 131.507 44.4822C134.866 42.9303 137.731 40.8912 140.261 38.2571L140.97 37.5156L144.11 67.8222ZM121.993 47.9871L142.95 65.6796L140.243 39.5504C137.811 41.9258 135.08 43.7968 131.921 45.2582C128.762 46.7197 125.506 47.6164 121.993 47.9871Z" fill="#0E0E0E"/>
<path id="Vector_84" d="M146.085 103.901L118.777 86.9198L119.816 86.6956C123.525 85.8937 126.823 84.5314 129.898 82.5354C132.974 80.5394 135.48 78.1339 137.563 75.1851L138.145 74.3574L146.08 103.905L146.085 103.901ZM121.055 87.2991L144.603 101.939L137.763 76.4655C135.736 79.147 133.332 81.3715 130.444 83.2424C127.555 85.1177 124.475 86.4498 121.06 87.2948L121.055 87.2991Z" fill="#0E0E0E"/>
<path id="Vector_85" d="M148.759 138.878L117.985 128.109L118.945 127.669C122.36 126.104 125.235 124.082 127.737 121.491C130.239 118.9 132.089 116.029 133.389 112.718L133.752 111.787L148.759 138.882V138.878ZM120.296 127.992L146.831 137.278L133.892 113.921C132.578 116.96 130.789 119.633 128.436 122.065C126.083 124.5 123.413 126.445 120.301 127.992H120.296Z" fill="#0E0E0E"/>
<path id="Vector_86" d="M151.532 171.969L118.638 171.18L119.388 170.473C122.053 167.955 124.052 165.17 125.491 161.958C126.931 158.747 127.658 155.475 127.704 151.952L127.718 150.961L151.532 171.969ZM120.781 170.369L149.141 171.05L128.608 152.94C128.45 156.207 127.709 159.277 126.353 162.295C124.997 165.312 123.171 167.959 120.781 170.373V170.369Z" fill="#0E0E0E"/>
<path id="Vector_87" d="M107.233 29.9618L80.8803 11.7304L81.9333 11.5537C85.6793 10.9243 89.0479 9.71718 92.2302 7.86775C95.4124 6.01832 98.0449 3.73347 100.286 0.883883L100.915 0.0820312L107.233 29.9575V29.9618ZM83.1354 12.2133L105.854 27.9313L100.407 2.17288C98.2359 4.75518 95.7152 6.86328 92.7287 8.60062C89.7421 10.338 86.5925 11.5235 83.1354 12.2133Z" fill="#0E0E0E"/>
<path id="Vector_88" d="M108.067 66.6111L80.4982 49.9921L81.5373 49.755C85.2321 48.9014 88.5121 47.5003 91.5546 45.4655C94.6018 43.4307 97.0711 40.9949 99.1072 38.016L99.6803 37.1797L108.067 66.6197V66.6111ZM82.7813 50.3369L106.548 64.6668L99.3168 39.2835C97.332 41.9908 94.9605 44.2455 92.0997 46.1552C89.2389 48.0693 86.1825 49.4402 82.7813 50.3326V50.3369Z" fill="#0E0E0E"/>
<path id="Vector_89" d="M110.019 102.236L79.8734 90.0398L80.8565 89.6475C84.3509 88.2464 87.3329 86.3625 89.9746 83.8879C92.6164 81.4177 94.6199 78.6371 96.0969 75.3866L96.5115 74.4727L110.019 102.231V102.236ZM82.1844 90.0312L108.178 100.546L96.5301 76.6109C95.0532 79.5855 93.1149 82.1678 90.6362 84.4915C88.1528 86.8151 85.3807 88.6301 82.1844 90.0312Z" fill="#0E0E0E"/>
<path id="Vector_90" d="M112.053 137.058L79.8249 130.919L80.6961 130.345C83.7992 128.302 86.2965 125.888 88.3233 122.961C90.3547 120.038 91.6872 116.934 92.4048 113.472L92.6051 112.502L112.048 137.062L112.053 137.058ZM82.0846 130.47L109.872 135.764L93.1083 114.588C92.3302 117.779 91.0163 120.68 89.1107 123.426C87.2051 126.172 84.8988 128.487 82.0892 130.47H82.0846Z" fill="#0E0E0E"/>
<path id="Vector_91" d="M81.1678 173.149L81.8201 172.365C84.1497 169.575 85.7804 166.596 86.8055 163.251C87.8305 159.906 88.138 156.578 87.7373 153.073L87.6255 152.09L113.931 170.377L81.1632 173.149H81.1678ZM88.7577 153.952C89.014 157.216 88.6645 160.345 87.7001 163.484C86.7356 166.627 85.2539 169.455 83.1852 172.11L111.434 169.722L88.7531 153.957L88.7577 153.952Z" fill="#0E0E0E"/>
<path id="Vector_92" d="M67.4931 29.4745L39.999 12.752L41.038 12.5149C44.7374 11.6743 48.0221 10.2861 51.0739 8.25993C54.1257 6.23375 56.6091 3.80664 58.6591 0.836341L59.2323 0L67.4931 29.4702V29.4745ZM42.2773 13.1055L65.9835 27.5216L58.8595 2.1124C56.8607 4.81111 54.4845 7.05715 51.6144 8.95832C48.7443 10.8595 45.6832 12.2218 42.2773 13.1012V13.1055Z" fill="#0E0E0E"/>
<path id="Vector_93" d="M69.3291 65.2179L39.3889 52.5952L40.3767 52.2159C43.8944 50.8622 46.9089 49.0214 49.588 46.5857C52.2717 44.1499 54.3171 41.3995 55.8499 38.1748L56.2786 37.2695L69.3291 65.2179ZM41.6952 52.6254L67.512 63.5064L56.26 39.4121C54.7317 42.3652 52.7562 44.9216 50.2356 47.2065C47.715 49.4913 44.9148 51.2718 41.6952 52.6254Z" fill="#0E0E0E"/>
<path id="Vector_94" d="M71.2534 100.267L39.2538 93.1795L40.1438 92.632C43.3167 90.6791 45.8932 88.3382 48.0225 85.4757C50.1518 82.6132 51.5961 79.548 52.4301 76.1122L52.6631 75.1465L71.2487 100.267H71.2534ZM41.5322 92.8001L69.1195 98.9089L53.0917 77.2503C52.2018 80.4189 50.7901 83.2771 48.7913 85.9672C46.7925 88.6572 44.4069 90.899 41.5275 92.8001H41.5322Z" fill="#0E0E0E"/>
<path id="Vector_95" d="M72.6752 135.083L39.809 133.635L40.5731 132.945C43.2988 130.479 45.3582 127.737 46.8724 124.555C48.3866 121.374 49.188 118.115 49.3185 114.593L49.3557 113.605L72.6752 135.083ZM41.9709 132.867L70.3083 134.117L50.2037 115.597C49.9661 118.861 49.1554 121.917 47.7343 124.905C46.3086 127.892 44.4216 130.505 41.9756 132.867H41.9709Z" fill="#0E0E0E"/>
<path id="Vector_96" d="M41.3605 174.587L41.9382 173.755C43.9883 170.785 45.3255 167.681 46.0244 164.267C46.7233 160.852 46.7046 157.511 45.9731 154.054L45.7681 153.084L73.7328 169.125L41.3652 174.596L41.3605 174.587ZM47.0727 154.843C47.6411 158.072 47.5992 161.215 46.9422 164.426C46.2853 167.634 45.0832 170.578 43.2801 173.389L71.1888 168.673L47.0774 154.843H47.0727Z" fill="#0E0E0E"/>
<path id="Vector_97" d="M29.6941 28.4021L0.261749 14.7922L1.26349 14.443C4.83246 13.2058 7.91219 11.4684 10.6891 9.12321C13.466 6.78232 15.6186 4.10086 17.2726 0.923633L17.7385 0.03125L29.6941 28.3935V28.4021ZM2.57273 14.9L27.9515 26.6346L17.6453 2.17814C16.0053 5.07515 13.9272 7.56693 11.3227 9.76556C8.71357 11.9685 5.84817 13.6498 2.5774 14.9H2.57273Z" fill="#0E0E0E"/>
<path id="Vector_98" d="M31.2354 64.0764L0 54.5059L0.936508 54.0317C4.27717 52.3375 7.05873 50.2078 9.44425 47.522C11.8298 44.8363 13.5444 41.8962 14.6952 38.5379L15.0167 37.5938L31.2354 64.0807V64.0764ZM2.30166 54.3033L29.232 62.5546L15.2497 39.7148C14.0755 42.8015 12.4075 45.539 10.1664 48.0652C7.92534 50.5872 5.34879 52.6349 2.30632 54.3033H2.30166Z" fill="#0E0E0E"/>
<path id="Vector_99" d="M32.7833 99.1445L0.215309 94.799L1.0493 94.1782C4.01257 91.9667 6.3515 89.4189 8.18723 86.3839C10.023 83.3532 11.1552 80.1803 11.649 76.6841L11.7888 75.7012L32.7833 99.1402V99.1445ZM2.44707 94.2257L30.5235 97.9719L12.4225 77.7618C11.8494 80.9908 10.7265 83.9568 9.0026 86.8064C7.27868 89.656 5.12612 92.0917 2.44707 94.2257Z" fill="#0E0E0E"/>
<path id="Vector_100" d="M1.2353 135.548L1.9109 134.781C4.31506 132.048 6.02964 129.108 7.14786 125.788C8.26607 122.469 8.66676 119.149 8.36391 115.636L8.28005 114.648L34.0642 133.561L1.23064 135.548H1.2353ZM9.36099 116.541C9.52406 119.809 9.09074 122.93 8.03776 126.047C6.98477 129.164 5.42859 131.957 3.28534 134.561L31.5948 132.85L9.36099 116.545V116.541Z" fill="#0E0E0E"/>
<path id="Vector_101" d="M2.20375 174.71L2.77217 173.873C4.79893 170.89 6.10816 167.773 6.77908 164.355C7.45001 160.936 7.40343 157.595 6.63931 154.142L6.42501 153.172L34.5248 169.011L2.20375 174.71ZM7.74821 154.926C8.34459 158.151 8.32596 161.294 7.69697 164.51C7.06797 167.722 5.88918 170.675 4.10936 173.498L31.9762 168.584L7.74821 154.926Z" fill="#0E0E0E"/>
</g>
<defs>
<linearGradient id="paint0_linear_63_1994" x1="306.777" y1="285.521" x2="288.041" y2="265.272" gradientUnits="userSpaceOnUse">
<stop stop-color="#1A3574"/>
<stop offset="1" stop-color="#65AAAB"/>
</linearGradient>
<linearGradient id="paint1_linear_63_1994" x1="307.092" y1="284.75" x2="288.225" y2="264.359" gradientUnits="userSpaceOnUse">
<stop stop-color="#1A3574"/>
<stop offset="1" stop-color="#65AAAB"/>
</linearGradient>
</defs>
</svg>
