<svg preserveAspectRatio="none" width="100%" height="100%" overflow="visible" style="display: block;" viewBox="0 0 95.9857 16" fill="none" xmlns="http://www.w3.org/2000/svg">
<g id="Logo">
<path fill-rule="evenodd" clip-rule="evenodd" d="M25.65 0L17.4654 16H9.77778L13.203 9.36889H13.0493C10.2236 13.0372 6.00738 15.452 0 16V9.46071C0 9.46071 3.84307 9.23369 6.10229 6.85844H0V0.000126203H6.85832V5.641L7.01225 5.64036L9.81485 0.000126203H15.0016V5.60523L15.1555 5.60498L18.0632 0H25.65Z" fill="var(--fill-0, black)"/>
<path d="M70.2813 14.234H72.4901V1.55556H70.2813V14.234Z" fill="var(--fill-0, black)"/>
<path fill-rule="evenodd" clip-rule="evenodd" d="M58.1043 14.1045C58.5843 14.304 59.0725 14.4039 59.5688 14.4039C60.3886 14.4039 61.1222 14.2043 61.7695 13.8051C62.4167 13.406 62.9184 12.8559 63.2744 12.1546C63.6304 11.448 63.8083 10.647 63.8083 9.7516C63.8083 8.85623 63.6249 8.05526 63.2582 7.34865C62.8913 6.64206 62.3816 6.09457 61.7289 5.70621C61.0763 5.31246 60.3346 5.11828 59.504 5.12367C58.9754 5.12367 58.4684 5.22616 57.9829 5.43113C57.4975 5.63609 57.0929 5.92736 56.7693 6.30494C56.7443 6.33368 56.72 6.36272 56.6965 6.39204V1.56369H54.4796V14.234H56.6803L56.6759 13.0504C56.7328 13.1201 56.7936 13.1883 56.8583 13.255C57.2088 13.6164 57.6242 13.8995 58.1043 14.1045ZM60.3697 12.0576C60.0083 12.2787 59.5957 12.3893 59.1318 12.3893C58.6733 12.3893 58.2526 12.276 57.8696 12.0495C57.4866 11.8175 57.1819 11.502 56.9553 11.1028C56.7342 10.7037 56.6236 10.2505 56.6236 9.74352C56.6183 9.23649 56.7261 8.78343 56.9473 8.38429C57.1738 7.97975 57.4785 7.66689 57.8616 7.44575C58.2445 7.2192 58.668 7.10863 59.1318 7.11402C59.5957 7.10863 60.0083 7.2165 60.3697 7.43766C60.7365 7.65341 61.0169 7.96356 61.2112 8.3681C61.4107 8.76725 61.5105 9.22574 61.5105 9.74352C61.5105 10.2614 61.4107 10.7199 61.2112 11.119C61.0169 11.5182 60.7365 11.831 60.3697 12.0576Z" fill="var(--fill-0, black)"/>
<path d="M28.8498 2.32422H31.3742L33.6323 10.571L36.0345 2.32422H38.1382L40.7434 10.4055L42.9118 2.32422H45.2257L41.8114 14.234H39.635L36.9857 6.33922L34.5539 14.234H32.3532L28.8498 2.32422Z" fill="var(--fill-0, black)"/>
<path fill-rule="evenodd" clip-rule="evenodd" d="M48.9538 14.4443C48.0745 14.4497 47.2816 14.2555 46.575 13.8618C45.8738 13.4626 45.321 12.9097 44.9164 12.2031C44.5173 11.4965 44.3177 10.6901 44.3177 9.78392C44.3177 8.90472 44.5227 8.10916 44.9326 7.39717C45.3425 6.68517 45.8981 6.12959 46.5993 5.73045C47.3006 5.3313 48.0826 5.13173 48.9456 5.13173C49.9166 5.13173 50.7661 5.34748 51.4942 5.77899C52.2278 6.2105 52.7753 6.82271 53.1367 7.61561C53.5035 8.40312 53.6357 9.30659 53.5332 10.3261H46.6028C46.6222 10.7322 46.7235 11.1017 46.9068 11.4345C47.1118 11.8013 47.3976 12.0871 47.7644 12.2921C48.1312 12.4971 48.5411 12.5996 48.9942 12.5996C49.3394 12.5941 49.6604 12.5349 49.957 12.4216C50.2537 12.3029 50.5045 12.1438 50.7094 11.9442C50.9198 11.7446 51.0682 11.5181 51.1545 11.2646H53.4685C53.3282 11.8849 53.0478 12.4378 52.627 12.9232C52.2062 13.4033 51.6777 13.7781 51.0412 14.0478C50.4047 14.3175 49.7089 14.4497 48.9538 14.4443ZM46.9149 8.10107C46.7856 8.32647 46.696 8.56917 46.6462 8.82926H51.2402C51.2069 8.50072 51.1054 8.20136 50.936 7.93116C50.7418 7.61292 50.4775 7.3675 50.1431 7.19489C49.8087 7.01689 49.4311 6.9279 49.0104 6.9279C48.5627 6.9279 48.1555 7.03038 47.7886 7.23534C47.4219 7.44031 47.1306 7.72889 46.9149 8.10107Z" fill="var(--fill-0, black)"/>
<path d="M65.4348 5.31783C65.4348 4.59505 65.5993 3.95318 65.9284 3.39221C66.2573 2.82585 66.7186 2.38624 67.3119 2.0734C67.9106 1.75516 68.6092 1.59064 69.4074 1.57986V3.54593C69.0352 3.55133 68.717 3.62954 68.4527 3.78057C68.1938 3.92621 67.9942 4.13927 67.854 4.41975C67.7249 4.67797 67.6552 4.97733 67.645 5.31783H69.3589V7.18682H67.6437V14.234H65.4348V7.18682H64.0109V5.31783H65.4348Z" fill="var(--fill-0, black)"/>
<path fill-rule="evenodd" clip-rule="evenodd" d="M78.1048 14.4281C77.204 14.4281 76.3976 14.2312 75.6856 13.8375C74.979 13.4383 74.4234 12.8882 74.0189 12.1869C73.6197 11.4803 73.4201 10.6793 73.4201 9.78388C73.4201 8.88317 73.6197 8.07946 74.0189 7.37285C74.4234 6.66085 74.979 6.10798 75.6856 5.71423C76.3976 5.32047 77.204 5.12359 78.1048 5.12359C79.0109 5.12359 79.8201 5.32047 80.532 5.71423C81.2494 6.10798 81.8077 6.65816 82.2068 7.36476C82.6059 8.07136 82.8082 8.87775 82.8136 9.78388C82.8082 10.6793 82.6059 11.4803 82.2068 12.1869C81.813 12.8882 81.2575 13.4383 80.54 13.8375C79.8227 14.2312 79.0109 14.4281 78.1048 14.4281ZM78.1048 12.3973C78.5794 12.3973 79.0001 12.2894 79.3669 12.0737C79.7337 11.8525 80.0169 11.545 80.2165 11.1513C80.4161 10.7521 80.5158 10.2963 80.5158 9.78388C80.5158 9.26611 80.4161 8.80762 80.2165 8.40848C80.0169 8.00933 79.7337 7.70188 79.3669 7.48612C79.0001 7.26498 78.5794 7.1544 78.1048 7.1544C77.6355 7.1544 77.2175 7.26498 76.8506 7.48612C76.4893 7.70188 76.2088 8.00933 76.0092 8.40848C75.8096 8.80762 75.7126 9.26611 75.7179 9.78388C75.7179 10.2963 75.8177 10.7521 76.0173 11.1513C76.2223 11.545 76.5027 11.8525 76.8587 12.0737C77.2201 12.2894 77.6355 12.3973 78.1048 12.3973Z" fill="var(--fill-0, black)"/>
<path d="M85.2004 5.31782H82.7409L85.4028 14.234H87.5549L89.3057 8.53921L91.1955 14.234H93.3155L95.9857 5.31782H93.7608L92.2461 10.8676L90.5723 5.31782H88.4206L86.755 10.9898L85.2004 5.31782Z" fill="var(--fill-0, black)"/>
</g>
</svg>
