<svg preserveAspectRatio="none" width="100%" height="100%" overflow="visible" style="display: block;" viewBox="0 0 48 48" fill="none" xmlns="http://www.w3.org/2000/svg">
<g id="Frame">
<path id="Vector" fill-rule="evenodd" clip-rule="evenodd" d="M18.4251 25.5C18.2589 27.0484 17.8108 28.2842 17.0294 29.3782C15.9836 30.8422 14.2314 32.2072 11.3292 33.6584C10.5882 34.0288 10.2879 34.9298 10.6584 35.6708C11.0288 36.4118 11.9299 36.7122 12.6708 36.3416C15.7686 34.7928 18.0164 33.1578 19.4706 31.1218C20.9522 29.0476 21.5 26.7142 21.5 24V15C21.5 13.067 19.933 11.5 18 11.5H10C8.06702 11.5 6.5 13.067 6.5 15V22C6.5 23.933 8.06704 25.5 10 25.5H18.4251Z" fill="var(--fill-0, black)"/>
<path id="Vector_2" fill-rule="evenodd" clip-rule="evenodd" d="M38.425 25.5C38.2588 27.0484 37.8108 28.2842 37.0294 29.3782C35.9836 30.8422 34.2314 32.2072 31.3292 33.6584C30.5882 34.0288 30.2878 34.9298 30.6584 35.6708C31.0288 36.4118 31.9298 36.7122 32.6708 36.3416C35.7686 34.7928 38.0164 33.1578 39.4706 31.1218C40.9522 29.0476 41.5 26.7142 41.5 24V15C41.5 13.067 39.933 11.5 38 11.5H30C28.067 11.5 26.5 13.067 26.5 15V22C26.5 23.933 28.067 25.5 30 25.5H38.425Z" fill="var(--fill-0, black)"/>
</g>
</svg>
