<svg preserveAspectRatio="none" width="100%" height="100%" overflow="visible" style="display: block;" viewBox="0 0 17.5 23.6526" fill="none" xmlns="http://www.w3.org/2000/svg">
<g id="Group">
<path id="Vector" d="M17.5 7.5936C17.5 6.53707 16.8359 5.5946 15.8409 5.23925L1.33633 0.0591029C0.6851 -0.173482 0 0.309315 0 1.00085V8.87712C0 9.29972 0.265675 9.67672 0.663675 9.81887L7.16368 12.1403C7.8149 12.3729 8.5 11.8901 8.5 11.1985V6.67605C8.5 6.3267 8.84915 6.08502 9.1761 6.20807L10.8806 6.84952C11.8549 7.2162 12.5 8.14827 12.5 9.18932V11.1587L5.1568 13.8418C4.76238 13.9859 4.5 14.3611 4.5 14.7811V22.6518C4.5 23.3464 5.19077 23.8294 5.8432 23.591L15.858 19.9317C16.8441 19.5714 17.5 18.6334 17.5 17.5836L17.5 7.5936Z" fill="var(--fill-0, white)"/>
</g>
</svg>
