<svg preserveAspectRatio="none" width="100%" height="100%" overflow="visible" style="display: block;" viewBox="0 0 19.5949 23.9953" fill="none" xmlns="http://www.w3.org/2000/svg">
<g id="Group">
<path id="Vector" d="M8.31949 0.292893C7.92897 -0.0976313 7.29582 -0.097631 6.90529 0.292893L0.293694 6.90447C-0.0968314 7.29499 -0.0968314 7.92817 0.293694 8.31869L3.96859 11.9936L0.292894 15.6693C-0.0976312 16.0598 -0.0976312 16.693 0.292894 17.0835L6.91182 23.7024C7.30234 24.093 7.93552 24.093 8.32604 23.7024L15.6521 16.3764L12.661 13.3853L15.6524 16.3754L19.3056 12.6848C19.6927 12.2937 19.6911 11.6633 19.302 11.2742L15.6388 7.61099L15.6382 7.61159L8.31949 0.292893Z" fill="url(#paint0_linear_2066_9299)"/>
</g>
<defs>
<linearGradient id="paint0_linear_2066_9299" x1="1.88753e-05" y1="-1.81062e-07" x2="10.9156" y2="27.4471" gradientUnits="userSpaceOnUse">
<stop stop-color="#CD9EF0"/>
<stop offset="1" stop-color="#9F75D3"/>
</linearGradient>
</defs>
</svg>
