<svg preserveAspectRatio="none" width="100%" height="100%" overflow="visible" style="display: block;" viewBox="0 0 41.9927 41.0003" fill="none" xmlns="http://www.w3.org/2000/svg">
<g id="Group">
<path id="Vector" d="M17.4948 18.8998C18.6127 18.8998 19.5188 17.992 19.5188 16.8723C19.5188 15.7526 18.6127 14.8448 17.4948 14.8448C16.377 14.8448 15.4708 15.7526 15.4708 16.8723C15.4708 17.992 16.377 18.8998 17.4948 18.8998Z" fill="var(--fill-0, white)"/>
<path id="Vector_2" d="M17.4948 26.497C18.6127 26.497 19.5188 25.5892 19.5188 24.4695C19.5188 23.3498 18.6127 22.442 17.4948 22.442C16.377 22.442 15.4708 23.3498 15.4708 24.4695C15.4708 25.5892 16.377 26.497 17.4948 26.497Z" fill="var(--fill-0, white)"/>
<path id="Vector_3" d="M1.67504 18.5502C2.60013 18.5502 3.35007 17.799 3.35007 16.8723C3.35007 15.9456 2.60013 15.1944 1.67504 15.1944C0.74994 15.1944 0 15.9456 0 16.8723C0 17.799 0.74994 18.5502 1.67504 18.5502Z" fill="var(--fill-0, white)"/>
<path id="Vector_4" d="M1.67504 26.0775C2.60013 26.0775 3.35007 25.3263 3.35007 24.3996C3.35007 23.4729 2.60013 22.7217 1.67504 22.7217C0.74994 22.7217 0 23.4729 0 24.3996C0 25.3263 0.74994 26.0775 1.67504 26.0775Z" fill="var(--fill-0, white)"/>
<path id="Vector_5" d="M25.4047 18.8998C26.5226 18.8998 27.4287 17.992 27.4287 16.8723C27.4287 15.7526 26.5226 14.8448 25.4047 14.8448C24.2869 14.8448 23.3807 15.7526 23.3807 16.8723C23.3807 17.992 24.2869 18.8998 25.4047 18.8998Z" fill="var(--fill-0, white)"/>
<path id="Vector_6" d="M25.4047 26.497C26.5226 26.497 27.4287 25.5892 27.4287 24.4695C27.4287 23.3498 26.5226 22.442 25.4047 22.442C24.2869 22.442 23.3807 23.3498 23.3807 24.4695C23.3807 25.5892 24.2869 26.497 25.4047 26.497Z" fill="var(--fill-0, white)"/>
<path id="Vector_7" d="M40.3176 18.5502C41.2427 18.5502 41.9927 17.7989 41.9927 16.8722C41.9927 15.9456 41.2427 15.1943 40.3176 15.1943C39.3925 15.1943 38.6426 15.9456 38.6426 16.8722C38.6426 17.7989 39.3925 18.5502 40.3176 18.5502Z" fill="var(--fill-0, white)"/>
<path id="Vector_8" d="M40.3176 26.1473C41.2427 26.1473 41.9927 25.3961 41.9927 24.4694C41.9927 23.5427 41.2427 22.7915 40.3176 22.7915C39.3925 22.7915 38.6426 23.5427 38.6426 24.4694C38.6426 25.3961 39.3925 26.1473 40.3176 26.1473Z" fill="var(--fill-0, white)"/>
<path id="Vector_9" d="M33.315 15.5283C34.0595 15.5283 34.6644 16.1342 34.6644 16.88C34.6644 17.6257 34.0595 18.2316 33.315 18.2316C32.5706 18.2316 31.9657 17.6257 31.9657 16.88C31.9657 16.1342 32.5706 15.5283 33.315 15.5283ZM33.315 14.8447C32.1983 14.8447 31.291 15.7536 31.291 16.8722C31.291 17.9908 32.1983 18.8997 33.315 18.8997C34.4317 18.8997 35.339 17.9908 35.339 16.8722C35.339 15.7536 34.4317 14.8447 33.315 14.8447Z" fill="var(--fill-0, white)"/>
<path id="Vector_10" d="M17.4948 7.93122C18.2393 7.93122 18.8442 8.53713 18.8442 9.28287C18.8442 10.0286 18.2393 10.6345 17.4948 10.6345C16.7504 10.6345 16.1455 10.0286 16.1455 9.28287C16.1455 8.53713 16.7504 7.93122 17.4948 7.93122ZM17.4948 7.24763C16.3781 7.24763 15.4708 8.1565 15.4708 9.2751C15.4708 10.3937 16.3781 11.3026 17.4948 11.3026C18.6115 11.3026 19.5188 10.3937 19.5188 9.2751C19.5188 8.1565 18.6115 7.24763 17.4948 7.24763Z" fill="var(--fill-0, white)"/>
<path id="Vector_11" d="M25.4047 7.93122C26.1492 7.93122 26.7541 8.53713 26.7541 9.28287C26.7541 10.0286 26.1492 10.6345 25.4047 10.6345C24.6603 10.6345 24.0554 10.0286 24.0554 9.28287C24.0554 8.53713 24.6603 7.93122 25.4047 7.93122ZM25.4047 7.24763C24.288 7.24763 23.3807 8.1565 23.3807 9.2751C23.3807 10.3937 24.288 11.3026 25.4047 11.3026C26.5214 11.3026 27.4287 10.3937 27.4287 9.2751C27.4287 8.1565 26.5214 7.24763 25.4047 7.24763Z" fill="var(--fill-0, white)"/>
<path id="Vector_12" d="M17.4953 3.35582C18.4204 3.35582 19.1704 2.60459 19.1704 1.67791C19.1704 0.751225 18.4204 0 17.4953 0C16.5703 0 15.8203 0.751225 15.8203 1.67791C15.8203 2.60459 16.5703 3.35582 17.4953 3.35582Z" fill="var(--fill-0, white)"/>
<path id="Vector_13" d="M25.4055 3.35582C26.3306 3.35582 27.0805 2.60459 27.0805 1.67791C27.0805 0.751225 26.3306 0 25.4055 0C24.4804 0 23.7305 0.751225 23.7305 1.67791C23.7305 2.60459 24.4804 3.35582 25.4055 3.35582Z" fill="var(--fill-0, white)"/>
<path id="Vector_14" d="M17.4953 41.0003C18.4204 41.0003 19.1704 40.2491 19.1704 39.3224C19.1704 38.3958 18.4204 37.6445 17.4953 37.6445C16.5703 37.6445 15.8203 38.3958 15.8203 39.3224C15.8203 40.2491 16.5703 41.0003 17.4953 41.0003Z" fill="var(--fill-0, white)"/>
<path id="Vector_15" d="M25.4055 41.0003C26.3306 41.0003 27.0805 40.2491 27.0805 39.3224C27.0805 38.3958 26.3306 37.6445 25.4055 37.6445C24.4804 37.6445 23.7305 38.3958 23.7305 39.3224C23.7305 40.2491 24.4804 41.0003 25.4055 41.0003Z" fill="var(--fill-0, white)"/>
<path id="Vector_16" d="M33.315 7.93115C34.0595 7.93115 34.6644 8.53706 34.6644 9.2828C34.6644 10.0285 34.0595 10.6344 33.315 10.6344C32.5706 10.6344 31.9657 10.0285 31.9657 9.2828C31.9657 8.53706 32.5706 7.93115 33.315 7.93115ZM33.315 7.24756C32.1983 7.24756 31.291 8.15643 31.291 9.27503C31.291 10.3936 32.1983 11.3025 33.315 11.3025C34.4317 11.3025 35.339 10.3936 35.339 9.27503C35.339 8.15643 34.4317 7.24756 33.315 7.24756Z" fill="var(--fill-0, white)"/>
<path id="Vector_17" d="M33.315 23.126C34.0595 23.126 34.6644 23.7319 34.6644 24.4776C34.6644 25.2234 34.0595 25.8293 33.315 25.8293C32.5706 25.8293 31.9657 25.2234 31.9657 24.4776C31.9657 23.7319 32.5706 23.126 33.315 23.126ZM33.315 22.4424C32.1983 22.4424 31.291 23.3513 31.291 24.4699C31.291 25.5885 32.1983 26.4973 33.315 26.4973C34.4317 26.4973 35.339 25.5885 35.339 24.4699C35.339 23.3513 34.4317 22.4424 33.315 22.4424Z" fill="var(--fill-0, white)"/>
<path id="Vector_18" d="M9.58455 15.5283C10.329 15.5283 10.9339 16.1342 10.9339 16.88C10.9339 17.6257 10.329 18.2316 9.58455 18.2316C8.84009 18.2316 8.23521 17.6257 8.23521 16.88C8.23521 16.1342 8.84009 15.5283 9.58455 15.5283ZM9.58455 14.8447C8.46786 14.8447 7.56055 15.7536 7.56055 16.8722C7.56055 17.9908 8.46786 18.8997 9.58455 18.8997C10.7012 18.8997 11.6086 17.9908 11.6086 16.8722C11.6086 15.7536 10.7012 14.8447 9.58455 14.8447Z" fill="var(--fill-0, white)"/>
<path id="Vector_19" d="M9.58455 7.93115C10.329 7.93115 10.9339 8.53706 10.9339 9.2828C10.9339 10.0285 10.329 10.6344 9.58455 10.6344C8.84009 10.6344 8.23521 10.0285 8.23521 9.2828C8.23521 8.53706 8.84009 7.93115 9.58455 7.93115ZM9.58455 7.24756C8.46786 7.24756 7.56055 8.15643 7.56055 9.27503C7.56055 10.3936 8.46786 11.3025 9.58455 11.3025C10.7012 11.3025 11.6086 10.3936 11.6086 9.27503C11.6086 8.15643 10.7012 7.24756 9.58455 7.24756Z" fill="var(--fill-0, white)"/>
<path id="Vector_20" d="M9.58455 23.126C10.329 23.126 10.9339 23.7319 10.9339 24.4776C10.9339 25.2234 10.329 25.8293 9.58455 25.8293C8.84009 25.8293 8.23521 25.2234 8.23521 24.4776C8.23521 23.7319 8.84009 23.126 9.58455 23.126ZM9.58455 22.4424C8.46786 22.4424 7.56055 23.3513 7.56055 24.4699C7.56055 25.5885 8.46786 26.4973 9.58455 26.4973C10.7012 26.4973 11.6086 25.5885 11.6086 24.4699C11.6086 23.3513 10.7012 22.4424 9.58455 22.4424Z" fill="var(--fill-0, white)"/>
<path id="Vector_21" d="M17.4948 30.7228C18.2393 30.7228 18.8442 31.3287 18.8442 32.0745C18.8442 32.8202 18.2393 33.4261 17.4948 33.4261C16.7504 33.4261 16.1455 32.8202 16.1455 32.0745C16.1455 31.3287 16.7504 30.7228 17.4948 30.7228ZM17.4948 30.0392C16.3781 30.0392 15.4708 30.9481 15.4708 32.0667C15.4708 33.1853 16.3781 34.0942 17.4948 34.0942C18.6115 34.0942 19.5188 33.1853 19.5188 32.0667C19.5188 30.9481 18.6115 30.0392 17.4948 30.0392Z" fill="var(--fill-0, white)"/>
<path id="Vector_22" d="M25.4047 30.7228C26.1492 30.7228 26.7541 31.3287 26.7541 32.0745C26.7541 32.8202 26.1492 33.4261 25.4047 33.4261C24.6603 33.4261 24.0554 32.8202 24.0554 32.0745C24.0554 31.3287 24.6603 30.7228 25.4047 30.7228ZM25.4047 30.0392C24.288 30.0392 23.3807 30.9481 23.3807 32.0667C23.3807 33.1853 24.288 34.0942 25.4047 34.0942C26.5214 34.0942 27.4287 33.1853 27.4287 32.0667C27.4287 30.9481 26.5214 30.0392 25.4047 30.0392Z" fill="var(--fill-0, white)"/>
<path id="Vector_23" d="M33.315 30.7227C34.0595 30.7227 34.6644 31.3286 34.6644 32.0743C34.6644 32.82 34.0595 33.426 33.315 33.426C32.5706 33.426 31.9657 32.82 31.9657 32.0743C31.9657 31.3286 32.5706 30.7227 33.315 30.7227ZM33.315 30.0391C32.1983 30.0391 31.291 30.9479 31.291 32.0665C31.291 33.1851 32.1983 34.094 33.315 34.094C34.4317 34.094 35.339 33.1851 35.339 32.0665C35.339 30.9479 34.4317 30.0391 33.315 30.0391Z" fill="var(--fill-0, white)"/>
<path id="Vector_24" d="M9.58455 30.7227C10.329 30.7227 10.9339 31.3286 10.9339 32.0743C10.9339 32.82 10.329 33.426 9.58455 33.426C8.84009 33.426 8.23521 32.82 8.23521 32.0743C8.23521 31.3286 8.84009 30.7227 9.58455 30.7227ZM9.58455 30.0391C8.46786 30.0391 7.56055 30.9479 7.56055 32.0665C7.56055 33.1851 8.46786 34.094 9.58455 34.094C10.7012 34.094 11.6086 33.1851 11.6086 32.0665C11.6086 30.9479 10.7012 30.0391 9.58455 30.0391Z" fill="var(--fill-0, white)"/>
</g>
</svg>
