<svg preserveAspectRatio="none" width="100%" height="100%" overflow="visible" style="display: block;" viewBox="0 0 21.9853 19.25" fill="none" xmlns="http://www.w3.org/2000/svg">
<g id="Group">
<path id="Vector" d="M0.0181909 1.09681C-0.0955292 0.529492 0.33836 0 0.916981 0H6.56506C7.00517 0 7.38318 0.312799 7.46552 0.745147L7.58549 1.375H21.0683C21.6528 1.375 22.088 1.91469 21.9641 2.48593L20.6721 8.44426C20.5807 8.86586 20.2076 9.16667 19.7763 9.16667H9.06962L9.50614 11.4583H18.3392C18.9216 11.4583 19.3564 11.9944 19.2362 12.5642L17.9793 18.5225C17.8898 18.9465 17.5157 19.25 17.0823 19.25H4.4081C3.97128 19.25 3.59515 18.9418 3.50931 18.5135L0.0181909 1.09681Z" fill="url(#paint0_linear_47_2284)"/>
</g>
<defs>
<linearGradient id="paint0_linear_47_2284" x1="-2.87432" y1="-4.8125" x2="8.19182" y2="20.4747" gradientUnits="userSpaceOnUse">
<stop stop-color="#FAC240"/>
<stop offset="0.199984" stop-color="#F29800"/>
</linearGradient>
</defs>
</svg>
