<svg preserveAspectRatio="none" width="100%" height="100%" overflow="visible" style="display: block;" viewBox="0 0 540.03 643.373" fill="none" xmlns="http://www.w3.org/2000/svg">
<g id="Group 689">
<g id="Rectangle 15">
<mask id="path-1-inside-1_2068_9361" fill="white">
<path d="M12.879 85.5117H540.03V643.373H12.879V85.5117Z"/>
</mask>
<path d="M12.879 85.5117H12.379V88.5436H12.879H13.379V85.5117H12.879ZM12.879 94.6073H12.379V100.671H12.879H13.379V94.6073H12.879ZM12.879 106.735H12.379V112.798H12.879H13.379V106.735H12.879ZM12.879 118.862H12.379V124.926H12.879H13.379V118.862H12.879ZM12.879 130.99H12.379V137.053H12.879H13.379V130.99H12.879ZM12.879 143.117H12.379V149.181H12.879H13.379V143.117H12.879ZM12.879 155.244H12.379V161.308H12.879H13.379V155.244H12.879ZM12.879 167.372H12.379V173.436H12.879H13.379V167.372H12.879ZM12.879 179.499H12.379V185.563H12.879H13.379V179.499H12.879ZM12.879 191.627H12.379V197.69H12.879H13.379V191.627H12.879ZM12.879 203.754H12.379V209.818H12.879H13.379V203.754H12.879ZM12.879 215.882H12.379V221.945H12.879H13.379V215.882H12.879ZM12.879 228.009H12.379V234.073H12.879H13.379V228.009H12.879ZM12.879 240.136H12.379V246.2H12.879H13.379V240.136H12.879ZM12.879 252.264H12.379V258.327H12.879H13.379V252.264H12.879ZM12.879 264.391H12.379V270.455H12.879H13.379V264.391H12.879ZM12.879 276.519H12.379V282.582H12.879H13.379V276.519H12.879ZM12.879 288.646H12.379V294.71H12.879H13.379V288.646H12.879ZM12.879 300.773H12.379V306.837H12.879H13.379V300.773H12.879ZM12.879 312.901H12.379V318.965H12.879H13.379V312.901H12.879ZM12.879 325.028H12.379V331.092H12.879H13.379V325.028H12.879ZM12.879 337.156H12.379V343.219H12.879H13.379V337.156H12.879ZM12.879 349.283H12.379V355.347H12.879H13.379V349.283H12.879ZM12.879 361.41H12.379V367.474H12.879H13.379V361.41H12.879ZM12.879 373.538H12.379V379.602H12.879H13.379V373.538H12.879ZM12.879 385.665H12.379V391.729H12.879H13.379V385.665H12.879ZM12.879 397.793H12.379V403.857H12.879H13.379V397.793H12.879ZM12.879 409.92H12.379V415.984H12.879H13.379V409.92H12.879ZM12.879 422.048H12.379V428.111H12.879H13.379V422.048H12.879ZM12.879 434.175H12.379V440.239H12.879H13.379V434.175H12.879ZM12.879 446.303H12.379V452.366H12.879H13.379V446.303H12.879ZM12.879 458.43H12.379V464.494H12.879H13.379V458.43H12.879ZM12.879 470.557H12.379V476.621H12.879H13.379V470.557H12.879ZM12.879 482.685H12.379V488.749H12.879H13.379V482.685H12.879ZM12.879 494.812H12.379V500.876H12.879H13.379V494.812H12.879ZM12.879 506.94H12.379V513.003H12.879H13.379V506.94H12.879ZM12.879 519.067H12.379V525.131H12.879H13.379V519.067H12.879ZM12.879 531.195H12.379V537.258H12.879H13.379V531.195H12.879ZM12.879 543.322H12.379V549.386H12.879H13.379V543.322H12.879ZM12.879 555.45H12.379V561.513H12.879H13.379V555.45H12.879ZM12.879 567.577H12.379V573.641H12.879H13.379V567.577H12.879ZM12.879 579.704H12.379V585.768H12.879H13.379V579.704H12.879ZM12.879 591.832H12.379V597.896H12.879H13.379V591.832H12.879ZM12.879 603.959H12.379V610.023H12.879H13.379V603.959H12.879ZM12.879 616.087H12.379V622.15H12.879H13.379V616.087H12.879ZM12.879 628.214H12.379V634.278H12.879H13.379V628.214H12.879ZM12.879 640.342H12.379V643.373H12.879H13.379V640.342H12.879ZM12.879 85.5117H11.879V88.5436H12.879H13.879V85.5117H12.879ZM12.879 94.6073H11.879V100.671H12.879H13.879V94.6073H12.879ZM12.879 106.735H11.879V112.798H12.879H13.879V106.735H12.879ZM12.879 118.862H11.879V124.926H12.879H13.879V118.862H12.879ZM12.879 130.99H11.879V137.053H12.879H13.879V130.99H12.879ZM12.879 143.117H11.879V149.181H12.879H13.879V143.117H12.879ZM12.879 155.244H11.879V161.308H12.879H13.879V155.244H12.879ZM12.879 167.372H11.879V173.436H12.879H13.879V167.372H12.879ZM12.879 179.499H11.879V185.563H12.879H13.879V179.499H12.879ZM12.879 191.627H11.879V197.69H12.879H13.879V191.627H12.879ZM12.879 203.754H11.879V209.818H12.879H13.879V203.754H12.879ZM12.879 215.882H11.879V221.945H12.879H13.879V215.882H12.879ZM12.879 228.009H11.879V234.073H12.879H13.879V228.009H12.879ZM12.879 240.136H11.879V246.2H12.879H13.879V240.136H12.879ZM12.879 252.264H11.879V258.327H12.879H13.879V252.264H12.879ZM12.879 264.391H11.879V270.455H12.879H13.879V264.391H12.879ZM12.879 276.519H11.879V282.582H12.879H13.879V276.519H12.879ZM12.879 288.646H11.879V294.71H12.879H13.879V288.646H12.879ZM12.879 300.773H11.879V306.837H12.879H13.879V300.773H12.879ZM12.879 312.901H11.879V318.965H12.879H13.879V312.901H12.879ZM12.879 325.028H11.879V331.092H12.879H13.879V325.028H12.879ZM12.879 337.156H11.879V343.219H12.879H13.879V337.156H12.879ZM12.879 349.283H11.879V355.347H12.879H13.879V349.283H12.879ZM12.879 361.41H11.879V367.474H12.879H13.879V361.41H12.879ZM12.879 373.538H11.879V379.602H12.879H13.879V373.538H12.879ZM12.879 385.665H11.879V391.729H12.879H13.879V385.665H12.879ZM12.879 397.793H11.879V403.857H12.879H13.879V397.793H12.879ZM12.879 409.92H11.879V415.984H12.879H13.879V409.92H12.879ZM12.879 422.048H11.879V428.111H12.879H13.879V422.048H12.879ZM12.879 434.175H11.879V440.239H12.879H13.879V434.175H12.879ZM12.879 446.303H11.879V452.366H12.879H13.879V446.303H12.879ZM12.879 458.43H11.879V464.494H12.879H13.879V458.43H12.879ZM12.879 470.557H11.879V476.621H12.879H13.879V470.557H12.879ZM12.879 482.685H11.879V488.749H12.879H13.879V482.685H12.879ZM12.879 494.812H11.879V500.876H12.879H13.879V494.812H12.879ZM12.879 506.94H11.879V513.003H12.879H13.879V506.94H12.879ZM12.879 519.067H11.879V525.131H12.879H13.879V519.067H12.879ZM12.879 531.195H11.879V537.258H12.879H13.879V531.195H12.879ZM12.879 543.322H11.879V549.386H12.879H13.879V543.322H12.879ZM12.879 555.45H11.879V561.513H12.879H13.879V555.45H12.879ZM12.879 567.577H11.879V573.641H12.879H13.879V567.577H12.879ZM12.879 579.704H11.879V585.768H12.879H13.879V579.704H12.879ZM12.879 591.832H11.879V597.896H12.879H13.879V591.832H12.879ZM12.879 603.959H11.879V610.023H12.879H13.879V603.959H12.879ZM12.879 616.087H11.879V622.15H12.879H13.879V616.087H12.879ZM12.879 628.214H11.879V634.278H12.879H13.879V628.214H12.879ZM12.879 640.342H11.879V643.373H12.879H13.879V640.342H12.879Z" fill="url(#paint0_linear_2068_9361)" mask="url(#path-1-inside-1_2068_9361)"/>
</g>
<path id="Vector" d="M5.21102 83.9137C7.85629 82.8543 10.5013 82.3424 13.2817 82.3424C16.0621 82.3424 18.7078 82.8472 21.353 83.9137L13.2817 62.9668L5.21102 83.9137Z" stroke="var(--stroke-0, #DDE0E4)" stroke-miterlimit="10" stroke-dasharray="5 5"/>
<path id="Vector_2" d="M0.878986 74.943C4.94373 73.3151 9.00805 72.5285 13.2804 72.5285C17.5528 72.5285 21.6181 73.3042 25.6829 74.943L13.2804 42.7559L0.878986 74.943Z" stroke="var(--stroke-0, #0B0B0B)" stroke-miterlimit="10"/>
<path id="Vector_3" d="M0.378986 32.1872C4.44373 30.5592 8.50805 29.7726 12.7804 29.7726C17.0528 29.7726 21.1181 30.5483 25.1829 32.1872L12.7804 0L0.378986 32.1872Z" fill="url(#paint1_linear_2068_9361)"/>
</g>
<defs>
<linearGradient id="paint0_linear_2068_9361" x1="276.454" y1="85.5117" x2="276.454" y2="643.373" gradientUnits="userSpaceOnUse">
<stop stop-color="#DCDFE3"/>
<stop offset="1" stop-color="#FAFAFA"/>
</linearGradient>
<linearGradient id="paint1_linear_2068_9361" x1="12.7809" y1="0" x2="12.7809" y2="32.1872" gradientUnits="userSpaceOnUse">
<stop stop-color="#F1EB74"/>
<stop offset="1" stop-color="#65AAAB"/>
</linearGradient>
</defs>
</svg>
