<svg preserveAspectRatio="none" width="100%" height="100%" overflow="visible" style="display: block;" viewBox="0 0 78 32" fill="none" xmlns="http://www.w3.org/2000/svg">
<g id="Mask group">
<mask id="mask0_2058_9000" style="mask-type:luminance" maskUnits="userSpaceOnUse" x="0" y="0" width="78" height="32">
<g id="Group">
<path id="Vector" d="M0 0H78V32H0V0Z" fill="var(--fill-0, white)"/>
</g>
</mask>
<g mask="url(#mask0_2058_9000)">
<path id="Fill-1" fill-rule="evenodd" clip-rule="evenodd" d="M3.05788 14.5509L2.87409 15.4765C3.61665 15.4765 3.81916 15.66 3.70145 16.2526C3.70145 16.2526 1.58326 27.0693 1.3278 28.2045C1.13984 29.04 1.13767 29.2461 0.184836 29.2628L0 30.1941H6.32916L6.51399 29.2628C5.83941 29.2628 5.52769 29.0653 5.64247 28.4868L7.22583 20.5142L14.0991 30.1941H19.0485L21.8043 16.2526C21.9135 15.7023 22.0298 15.4906 22.6796 15.4906L22.8644 14.5593H17.0062L16.8213 15.4906C17.3864 15.4906 17.5256 15.7447 17.4303 16.2244L16.0236 23.3082L9.71767 14.5509H3.05788ZM33.8485 14.2245C26.5048 14.125 24.1767 17.1443 23.2556 21.5991C22.1316 27.036 23.0488 30.5029 30.4278 30.5C32.6114 30.4991 37.228 30.1773 37.228 30.1773L38.4757 25.1349L37.4045 25.1351C37.2605 25.8903 36.2724 26.3267 31.3187 26.3267C28.3831 26.3267 27.0901 26.0188 28.1831 21.6818C28.7674 19.363 29.6319 18.3882 33.0317 18.291C37.3695 18.1669 38.0539 18.8681 38.0609 19.5389L39.1651 19.5407L40.1777 14.6734C40.1777 14.6734 35.698 14.2495 33.8485 14.2245ZM51.4378 14.2245C44.094 14.125 41.7659 17.1443 40.8449 21.5991C39.7208 27.036 40.6381 30.5029 48.0171 30.5C50.2007 30.4991 54.8174 30.1773 54.8174 30.1773L56.0649 25.1349L54.9938 25.1351C54.8497 25.8903 53.8616 26.3267 48.908 26.3267C45.9723 26.3267 44.6794 26.0188 45.7724 21.6818C46.3568 19.363 47.2212 18.3882 50.621 18.291C54.9588 18.1669 55.6432 18.8681 55.6502 19.5389L56.7543 19.5407L57.767 14.6734C57.767 14.6734 53.2872 14.2495 51.4378 14.2245ZM63.0435 12.9075L57.7565 22.767L78 7.84969H37.534L63.0435 12.9075ZM73.6752 20.6675L72.3022 13.1524L68.4715 15.9829L73.6752 20.6675ZM70.0196 1L71.1734 7.10366H66.537L70.0196 1Z" fill="var(--fill-0, #717F92)"/>
</g>
</g>
</svg>
