<svg width="56" height="49" viewBox="0 0 56.9062 49.793" fill="none" xmlns="http://www.w3.org/2000/svg">
<g id="Group">
<path id="Vector" d="M28.4531 49.793C28.5508 49.793 28.648 49.7917 28.745 49.7891C28.8449 49.7917 28.9453 49.793 29.0459 49.793H46.8291C47.0264 49.793 47.2222 49.7866 47.4162 49.7739C42.7846 49.4661 39.123 45.6117 39.123 40.9021C39.123 45.8128 43.1039 49.793 48.0146 49.793C52.9254 49.793 56.9062 45.8122 56.9062 40.9014V21.3399C56.9062 15.4471 52.1291 10.67 46.2363 10.67H39.123C39.123 4.77717 34.3459 0 28.4531 0C28.3552 0 28.2575 0.00131594 28.1602 0.00394193C28.0606 0.00133965 27.9606 2.96789e-05 27.8604 2.96789e-05H10.0771C9.87786 2.96789e-05 9.68011 0.0065859 9.48408 0.0194965C9.84614 0.0433141 10.2023 0.0888034 10.5512 0.154684C10.0135 0.0531778 9.45877 7.12294e-05 8.8916 7.12294e-05C3.98091 7.12294e-05 0 3.98096 0 8.89167V28.4532C0 34.346 4.77709 39.1231 10.6699 39.1231H17.7832C17.7832 45.0159 22.5603 49.793 28.4531 49.793Z" fill="url(#paint0_linear_47_2292)"/>
</g>
<defs>
<linearGradient id="paint0_linear_47_2292" x1="13.164" y1="-5.36097" x2="40.5865" y2="51.8916" gradientUnits="userSpaceOnUse">
<stop stop-color="#40C4F5"/>
<stop offset="1" stop-color="#0095E6"/>
</linearGradient>
</defs>
</svg>
