<svg preserveAspectRatio="none" width="100%" height="100%" overflow="visible" style="display: block;" viewBox="0 0 38.0006 42.9997" fill="none" xmlns="http://www.w3.org/2000/svg">
<g id="Group">
<path id="Vector" d="M21.5654 8.68425L18.4632 14.1929L22.5521 21.4595L18.4632 28.7261H10.2854L6.19651 21.4595L10.2854 14.1929H18.4632L21.5654 8.68425H7.19111L0 21.4595L7.19111 34.2347H21.376L21.4233 34.3238L21.5654 34.2347L21.7075 34.1456L21.6602 34.0565L28.7486 21.4514L21.5575 8.67615L21.5654 8.68425ZM7.38056 33.8945L0.576236 21.7997H6.00706L10.0012 28.8962L10.096 29.0663H18.4632L21.1786 33.8945H7.38056ZM18.7553 28.8962L22.8442 21.6296L22.9389 21.4595L22.8442 21.2894L18.85 14.1929L21.5654 9.36473L28.3698 21.4595L21.4707 33.7244L18.7553 28.8962Z" fill="var(--fill-0, white)"/>
<path id="Vector_2" d="M4.60199 8.2468C6.821 8.2468 8.61986 6.40069 8.61986 4.1234C8.61986 1.84611 6.821 0 4.60199 0C2.38299 0 0.58413 1.84611 0.58413 4.1234C0.58413 6.40069 2.38299 8.2468 4.60199 8.2468Z" fill="var(--fill-0, white)"/>
<path id="Vector_3" d="M33.9827 17.3359C31.7646 17.3359 29.9648 19.183 29.9648 21.4593C29.9648 23.7357 31.7646 25.5827 33.9827 25.5827C36.2008 25.5827 38.0006 23.7357 38.0006 21.4593C38.0006 19.183 36.2008 17.3359 33.9827 17.3359ZM33.9827 25.2425C31.954 25.2425 30.2964 23.5494 30.2964 21.4593C30.2964 19.3693 31.9461 17.6762 33.9827 17.6762C36.0193 17.6762 37.669 19.3693 37.669 21.4593C37.669 23.5494 36.0193 25.2425 33.9827 25.2425Z" fill="var(--fill-0, white)"/>
<path id="Vector_4" d="M4.91044 34.7529C2.69233 34.7529 0.892578 36.6 0.892578 38.8763C0.892578 41.1527 2.69233 42.9997 4.91044 42.9997C7.12856 42.9997 8.92831 41.1527 8.92831 38.8763C8.92831 36.6 7.12856 34.7529 4.91044 34.7529ZM4.91044 42.6514C2.88178 42.6514 1.22411 40.9583 1.22411 38.8682C1.22411 36.7782 2.87388 35.0851 4.91044 35.0851C6.947 35.0851 8.59677 36.7782 8.59677 38.8682C8.59677 40.9583 6.947 42.6514 4.91044 42.6514Z" fill="var(--fill-0, white)"/>
</g>
</svg>
