<svg preserveAspectRatio="none" width="100%" height="100%" overflow="visible" style="display: block;" viewBox="0 0 19.2271 19.2478" fill="none" xmlns="http://www.w3.org/2000/svg">
<g id="Group">
<path id="Vector" fill-rule="evenodd" clip-rule="evenodd" d="M0.269938 1.56448C-0.307 0.986838 0.102103 0 0.918498 0H18.3104C18.8167 0 19.2271 0.410405 19.2271 0.916667V18.3293C19.2271 19.1462 18.2392 19.555 17.6619 18.977L15.1176 16.4298V18.3162C15.1176 19.1329 14.13 19.5419 13.5526 18.9642L10.9771 16.3875V18.3236C10.9771 19.1409 9.98841 19.5496 9.41132 18.9709L0.280406 9.81392C-0.295794 9.23608 0.113477 8.25 0.929521 8.25H2.84315L0.283988 5.6897C-0.293283 5.11218 0.115745 4.125 0.932317 4.125H2.82743L0.269938 1.56448Z" fill="url(#paint0_linear_47_2245)"/>
</g>
<defs>
<linearGradient id="paint0_linear_47_2245" x1="18.4682" y1="19.2478" x2="2.38507" y2="-1.8207" gradientUnits="userSpaceOnUse">
<stop stop-color="#F69B63"/>
<stop offset="1" stop-color="#FFB685"/>
</linearGradient>
</defs>
</svg>
