<svg preserveAspectRatio="none" width="100%" height="100%" overflow="visible" style="display: block;" viewBox="0 0 73.2117 12" fill="none" xmlns="http://www.w3.org/2000/svg">
<g id="Group 649">
<path id="Vector" d="M15.2549 0H15.4719L22.5915 6.76848V0.367989H24.9647V11.9832H24.7477L17.6281 5.19745V11.7489H15.2549V0Z" fill="var(--fill-0, white)"/>
<path id="Vector_2" d="M32.4637 6.9537H37.6127V4.91404H32.4637V2.49066H37.8644V0.367649H30.0906V11.7501H37.9965V9.62712H32.4637V6.9537Z" fill="var(--fill-0, white)"/>
<path id="Vector_3" d="M47.7144 5.41709V7.45675H50.94C50.5719 8.91141 49.4522 9.88013 47.848 9.88013C45.7925 9.88013 44.5045 8.20846 44.5045 6.06815C44.5045 3.92784 45.7249 2.27346 47.7804 2.27346C49.0685 2.27346 50.1552 2.92452 50.6899 4.12913L52.9137 3.05976C51.9103 1.12074 50.0042 0.100126 47.782 0.100126C44.3394 0.100126 41.9819 2.60685 41.9819 6.06657C41.9819 9.5263 44.3567 12 47.7663 12C51.1759 12 53.516 9.59392 53.516 6.18452C53.516 5.9329 53.4987 5.66713 53.483 5.41552H47.7159L47.7144 5.41709Z" fill="var(--fill-0, white)"/>
<path id="Vector_4" d="M60.2312 0.367649H57.8407V11.7501H60.2312V0.367649Z" fill="var(--fill-0, white)"/>
<path id="Vector_5" d="M69.1479 4.81174C68.3789 4.59472 67.6098 4.32738 67.6098 3.50805C67.6098 2.7878 68.2295 2.23739 69.1982 2.23739C69.917 2.23739 70.6199 2.58808 71.2883 3.4074L73.0104 1.80335C72.0417 0.617609 70.7379 0.0813521 69.2659 0.0813521C66.9933 0.0813521 65.2209 1.51871 65.2209 3.5914C65.2209 5.66409 66.943 6.54946 69.1825 7.1502C69.9862 7.36879 70.8213 7.68488 70.8213 8.53723C70.8213 9.30623 70.1529 9.85664 69.1495 9.85664C68.2137 9.85664 67.2104 9.33768 66.4916 8.43658L64.7868 9.99189C65.7729 11.3946 67.344 11.997 68.9828 11.997C71.573 11.997 73.2117 10.5093 73.2117 8.43816C73.2117 6.0478 71.3733 5.39517 69.1495 4.81016" fill="var(--fill-0, white)"/>
<path id="Vector_6" d="M5.69156 8.48227C4.94454 8.48227 4.23368 8.61909 3.52282 8.90373L5.69156 3.27539L7.8603 8.90373C7.14945 8.61909 6.43859 8.48227 5.69156 8.48227ZM6.76886 0.367649H4.61584L0 11.7501H2.46598C3.41745 11.0032 4.47902 10.6336 5.69156 10.6336C6.90411 10.6336 7.96567 11.0032 8.91715 11.7501H11.3831L6.76886 0.367649Z" fill="var(--fill-0, white)"/>
</g>
</svg>
