<svg width="20" height="20" viewBox="0 0 20 20" fill="none" xmlns="http://www.w3.org/2000/svg">
<g id="Frame">
<path id="Vector" fill-rule="evenodd" clip-rule="evenodd" d="M7.67712 10.625C7.60786 11.2702 7.42117 11.7851 7.09558 12.2409C6.65984 12.8509 5.92976 13.4197 4.72049 14.0243C4.41176 14.1787 4.28662 14.5541 4.44098 14.8628C4.59535 15.1716 4.97077 15.2967 5.27951 15.1423C6.57024 14.497 7.50682 13.8157 8.11275 12.9674C8.73008 12.1032 8.95833 11.1309 8.95833 10V6.25C8.95833 5.44459 8.30541 4.79167 7.5 4.79167H4.16667C3.36126 4.79167 2.70833 5.44459 2.70833 6.25V9.16667C2.70833 9.97208 3.36127 10.625 4.16667 10.625H7.67712Z" fill="white"/>
<path id="Vector_2" fill-rule="evenodd" clip-rule="evenodd" d="M16.0104 10.625C15.9412 11.2702 15.7545 11.7851 15.4289 12.2409C14.9932 12.8509 14.2631 13.4197 13.0538 14.0243C12.7451 14.1787 12.6199 14.5541 12.7743 14.8628C12.9287 15.1716 13.3041 15.2967 13.6128 15.1423C14.9036 14.497 15.8402 13.8157 16.4461 12.9674C17.0634 12.1032 17.2917 11.1309 17.2917 10V6.25C17.2917 5.4446 16.6388 4.79167 15.8333 4.79167H12.5C11.6946 4.79167 11.0417 5.4446 11.0417 6.25V9.16667C11.0417 9.97208 11.6946 10.625 12.5 10.625H16.0104Z" fill="white"/>
</g>
</svg>
