<svg preserveAspectRatio="none" width="100%" height="100%" overflow="visible" style="display: block;" viewBox="0 0 41.7318 44.0032" fill="none" xmlns="http://www.w3.org/2000/svg">
<g id="Group">
<path id="Vector" d="M30.1698 7.33047H38.6678C39.4041 7.33047 40.0011 7.92742 40.0011 8.6638V16.968C40.0011 17.2874 39.8865 17.5961 39.6781 17.8381L25.0114 34.8695C24.4795 35.4872 23.5227 35.4872 22.9908 34.8695L14.2703 24.7429L29.1681 7.78384C29.4212 7.49566 29.7862 7.33047 30.1698 7.33047Z" fill="url(#paint0_linear_54_3031)"/>
<g id="Group_2" opacity="0.32" filter="url(#filter0_f_54_3031)">
<path id="Vector_2" d="M17.8314 8H9.33333C8.59695 8 8 8.59695 8 9.33333V17.6376C8 17.9569 8.1146 18.2656 8.32297 18.5076L22.9896 35.5399C23.5215 36.1577 24.4784 36.1576 25.0103 35.5398L33.7318 25.4102L18.833 8.45327C18.5799 8.16516 18.2149 8 17.8314 8Z" fill="var(--fill-0, black)"/>
</g>
<g id="Group_3" filter="url(#filter1_f_54_3031)">
<path id="Vector_3" d="M17.8314 7.45794H9.33333C8.59695 7.45794 8 8.0549 8 8.79128V17.0955C8 17.4148 8.1146 17.7236 8.32297 17.9655L22.9896 34.9978C23.5215 35.6156 24.4784 35.6156 25.0103 34.9978L33.7318 24.8681L18.833 7.91122C18.5799 7.6231 18.2149 7.45794 17.8314 7.45794Z" fill="var(--fill-0, black)" fill-opacity="0.24"/>
</g>
<path id="Vector_4" d="M17.8314 7.33047H9.33333C8.59695 7.33047 8 7.92742 8 8.6638V16.968C8 17.2874 8.1146 17.5961 8.32297 17.8381L22.9896 34.8704C23.5215 35.4881 24.4784 35.4881 25.0103 34.8703L33.7318 24.7406L18.833 7.78374C18.5799 7.49563 18.2149 7.33047 17.8314 7.33047Z" fill="url(#paint1_linear_54_3031)"/>
<path id="Vector_5" fill-rule="evenodd" clip-rule="evenodd" d="M24.0016 13.6648L14.2703 24.7426L22.9908 34.8692C23.5227 35.4869 24.4795 35.4869 25.0114 34.8692L28.5372 30.7749L33.7329 24.7404L24.0016 13.6648Z" fill="url(#paint2_linear_54_3031)"/>
</g>
<defs>
<filter id="filter0_f_54_3031" x="0" y="-1.19209e-07" width="41.7318" height="44.0032" filterUnits="userSpaceOnUse" color-interpolation-filters="sRGB">
<feFlood flood-opacity="0" result="BackgroundImageFix"/>
<feBlend mode="normal" in="SourceGraphic" in2="BackgroundImageFix" result="shape"/>
<feGaussianBlur stdDeviation="4" result="effect1_foregroundBlur_54_3031"/>
</filter>
<filter id="filter1_f_54_3031" x="7.24" y="6.69794" width="27.2518" height="29.5232" filterUnits="userSpaceOnUse" color-interpolation-filters="sRGB">
<feFlood flood-opacity="0" result="BackgroundImageFix"/>
<feBlend mode="normal" in="SourceGraphic" in2="BackgroundImageFix" result="shape"/>
<feGaussianBlur stdDeviation="0.38" result="effect1_foregroundBlur_54_3031"/>
</filter>
<linearGradient id="paint0_linear_54_3031" x1="17.3344" y1="3.99714" x2="38.396" y2="35.159" gradientUnits="userSpaceOnUse">
<stop stop-color="#8661C5"/>
<stop offset="1" stop-color="#5C428B"/>
</linearGradient>
<linearGradient id="paint1_linear_54_3031" x1="0.833333" y1="-1.00287" x2="25.0002" y2="26.7497" gradientUnits="userSpaceOnUse">
<stop stop-color="#EBC7FF"/>
<stop offset="0.493452" stop-color="#E4B4FF"/>
</linearGradient>
<linearGradient id="paint2_linear_54_3031" x1="5.94567" y1="6.17513" x2="19.5124" y2="44.2209" gradientUnits="userSpaceOnUse">
<stop stop-color="#CD9EF0"/>
<stop offset="0.894187" stop-color="#9F75D3"/>
</linearGradient>
</defs>
</svg>
