<svg width="330" height="367" viewBox="0 0 330.75 367.501" fill="none" xmlns="http://www.w3.org/2000/svg">
<path id="Vector" d="M162.619 0.5H167.946L168.543 0.505859C174.704 0.618078 180.737 2.29893 186.071 5.39355L186.072 5.39453L309.369 76.5059V76.5049C314.721 79.6041 319.222 83.9775 322.476 89.2314L322.787 89.7422L325.353 94.3242L325.356 94.3311C328.452 99.666 330.132 105.699 330.244 111.859L330.25 112.456V254.861C330.197 261.22 328.512 267.458 325.359 272.979L322.604 277.572L322.596 277.586C319.493 283.128 314.916 287.705 309.374 290.808L309.368 290.811L186.072 362.105L186.071 362.106C180.565 365.302 174.314 366.989 167.946 367H162.2C156.034 366.952 149.988 365.266 144.684 362.109L144.677 362.105L21.1973 290.994C15.7674 287.733 11.2218 283.186 7.96191 277.756L5.39746 273.176L5.39355 273.169C2.29891 267.835 0.618102 261.801 0.505859 255.641L0.5 255.044V112.64C0.511237 106.273 2.19906 100.022 5.39355 94.5146L5.39746 94.5078L7.9668 89.9199C11.1434 84.4277 15.706 79.866 21.1982 76.6895L144.494 5.39453V5.39355C149.829 2.29879 155.863 0.618034 162.023 0.505859L162.619 0.5ZM293.75 130.214L183.5 193.975L183.25 194.119V322.429L184 321.995L291.494 259.888L291.605 259.823L291.673 259.712L294.429 255.118L294.5 255V129.779L293.75 130.214ZM162.368 36.3174L54.875 98.4248L54.125 98.8574L54.875 99.291L165.125 162.868L165.375 163.012L165.625 162.868L275.875 99.291L276.626 98.8574L275.875 98.4248L168.197 36.3164L168.081 36.25H162.484L162.368 36.3174Z" stroke="white"/>
</svg>
