<svg width="37" height="37" viewBox="0 0 37.9703 37.9886" fill="none" xmlns="http://www.w3.org/2000/svg">
<g id="Group">
<path id="Vector" d="M8.3748 3.48107C7.53561 2.64087 8.13067 1.20547 9.31815 1.20547H34.6156C35.3519 1.20547 35.9489 1.80242 35.9489 2.5388V27.8662C35.9489 29.0544 34.5119 29.6492 33.6722 28.8084L8.3748 3.48107Z" fill="url(#paint0_linear_54_2949)"/>
<g id="Group_2" filter="url(#filter0_f_54_2949)">
<path id="Vector_2" d="M8.3941 9.60888C7.55443 8.76884 8.14938 7.33294 9.33711 7.33294H28.6369C29.3733 7.33294 29.9703 7.92991 29.9703 8.66628V27.9747C29.9703 29.1627 28.5338 29.7575 27.6939 28.9173L8.3941 9.60888Z" fill="black" fill-opacity="0.24"/>
</g>
<g id="Group_3" filter="url(#filter1_f_54_2949)">
<path id="Vector_3" d="M8.39416 10.2759C7.55449 9.4359 8.14945 8 9.33718 8H28.637C29.3734 8 29.9703 8.59697 29.9703 9.33333V28.6417C29.9703 29.8297 28.5339 30.4246 27.694 29.5843L8.39416 10.2759Z" fill="black" fill-opacity="0.32"/>
</g>
<path id="Vector_4" d="M8.39377 9.4814C7.5541 8.64137 8.14906 7.20547 9.33679 7.20547H28.6366C29.373 7.20547 29.97 7.80244 29.97 8.5388V27.8472C29.97 29.0352 28.5335 29.63 27.6936 28.7898L8.39377 9.4814Z" fill="url(#paint1_linear_54_2949)"/>
<g id="Group_4" filter="url(#filter2_f_54_2949)">
<path id="Vector_5" d="M8.39205 15.6077C7.55394 14.7672 8.14924 13.3329 9.3362 13.3329H22.6175C23.3539 13.3329 23.9509 13.9299 23.9509 14.6663V27.9855C23.9509 29.1743 22.5128 29.7688 21.6734 28.927L8.39205 15.6077Z" fill="black" fill-opacity="0.24"/>
</g>
<g id="Group_5" filter="url(#filter3_f_54_2949)">
<path id="Vector_6" d="M8.39185 16.2748C7.55374 15.4343 8.14905 14 9.33601 14H22.6173C23.3537 14 23.9507 14.597 23.9507 15.3333V28.6526C23.9507 29.8413 22.5126 30.4358 21.6732 29.594L8.39185 16.2748Z" fill="black" fill-opacity="0.32"/>
</g>
<path id="Vector_7" d="M8.39107 15.4803C7.55296 14.6398 8.14827 13.2055 9.33523 13.2055H22.6166C23.353 13.2055 23.9499 13.8024 23.9499 14.5388V27.858C23.9499 29.0468 22.5118 29.6413 21.6724 28.7995L8.39107 15.4803Z" fill="url(#paint2_linear_54_2949)"/>
</g>
<defs>
<filter id="filter0_f_54_2949" x="7.24111" y="6.57294" width="23.4892" height="23.4977" filterUnits="userSpaceOnUse" color-interpolation-filters="sRGB">
<feFlood flood-opacity="0" result="BackgroundImageFix"/>
<feBlend mode="normal" in="SourceGraphic" in2="BackgroundImageFix" result="shape"/>
<feGaussianBlur stdDeviation="0.38" result="effect1_foregroundBlur_54_2949"/>
</filter>
<filter id="filter1_f_54_2949" x="0.00117179" y="0" width="37.9692" height="37.9777" filterUnits="userSpaceOnUse" color-interpolation-filters="sRGB">
<feFlood flood-opacity="0" result="BackgroundImageFix"/>
<feBlend mode="normal" in="SourceGraphic" in2="BackgroundImageFix" result="shape"/>
<feGaussianBlur stdDeviation="4" result="effect1_foregroundBlur_54_2949"/>
</filter>
<filter id="filter2_f_54_2949" x="7.2402" y="12.5729" width="17.4707" height="17.5086" filterUnits="userSpaceOnUse" color-interpolation-filters="sRGB">
<feFlood flood-opacity="0" result="BackgroundImageFix"/>
<feBlend mode="normal" in="SourceGraphic" in2="BackgroundImageFix" result="shape"/>
<feGaussianBlur stdDeviation="0.38" result="effect1_foregroundBlur_54_2949"/>
</filter>
<filter id="filter3_f_54_2949" x="-1.06171e-07" y="6" width="31.9507" height="31.9886" filterUnits="userSpaceOnUse" color-interpolation-filters="sRGB">
<feFlood flood-opacity="0" result="BackgroundImageFix"/>
<feBlend mode="normal" in="SourceGraphic" in2="BackgroundImageFix" result="shape"/>
<feGaussianBlur stdDeviation="4" result="effect1_foregroundBlur_54_2949"/>
</filter>
<linearGradient id="paint0_linear_54_2949" x1="42.2356" y1="35.3275" x2="15.9321" y2="-6.92717" gradientUnits="userSpaceOnUse">
<stop stop-color="#922717"/>
<stop offset="0.513532" stop-color="#D83B01"/>
</linearGradient>
<linearGradient id="paint1_linear_54_2949" x1="11.6546" y1="1.70077" x2="34.0249" y2="33.8538" gradientUnits="userSpaceOnUse">
<stop stop-color="#F69B63"/>
<stop offset="1" stop-color="#D83B01"/>
</linearGradient>
<linearGradient id="paint2_linear_54_2949" x1="23.2462" y1="31.0835" x2="8.30069" y2="11.5399" gradientUnits="userSpaceOnUse">
<stop stop-color="#F69B63"/>
<stop offset="1" stop-color="#FFB685"/>
</linearGradient>
</defs>
</svg>
