<svg width="313" height="438" viewBox="0 0 313.543 438.093" fill="none" xmlns="http://www.w3.org/2000/svg">
<g id="Vector">
<mask id="path-1-inside-1_48_2438" fill="white">
<path d="M154.195 424.734C154.195 429.336 153.701 433.71 152.662 438.093L173.085 424.734L152.662 411.375C153.695 415.758 154.195 420.132 154.195 424.734ZM188.636 424.734C188.636 429.336 188.142 433.71 187.109 438.093L207.532 424.734L187.109 411.375C188.142 415.758 188.636 420.132 188.636 424.734ZM224.738 424.734C224.738 429.336 224.244 433.71 223.211 438.093L243.634 424.734L223.211 411.375C224.244 415.758 224.738 420.132 224.738 424.734ZM172.821 378.93C172.821 383.533 172.327 387.906 171.294 392.29L191.718 378.93L171.294 365.572C172.327 369.955 172.821 374.328 172.821 378.93ZM208.16 378.93C208.16 383.533 207.666 387.906 206.633 392.29L227.057 378.93L206.633 365.572C207.666 369.955 208.16 374.328 208.16 378.93ZM243.499 378.93C243.499 383.533 243.005 387.906 241.972 392.29L262.396 378.93L241.972 365.572C243.005 369.955 243.499 374.328 243.499 378.93ZM190.937 333.117C190.937 337.72 190.443 342.093 189.41 346.476L209.833 333.117L189.41 319.758C190.443 324.141 190.937 328.515 190.937 333.117ZM224.738 333.117C224.738 337.72 224.244 342.093 223.211 346.476L243.634 333.117L223.211 319.758C224.244 324.141 224.738 328.515 224.738 333.117ZM260.717 333.117C260.717 337.72 260.223 342.093 259.19 346.476L279.613 333.117L259.19 319.758C260.223 324.141 260.717 328.515 260.717 333.117ZM1.53257 287.314C1.53257 291.916 1.03856 296.29 0.00561382 300.673L20.4287 287.314L0 273.955C1.03294 278.328 1.53257 282.711 1.53257 287.314ZM39.1732 287.314C39.1732 291.916 38.6792 296.29 37.6463 300.673L58.0694 287.314L37.6463 273.955C38.6792 278.328 39.1732 282.711 39.1732 287.314ZM72.5867 287.314C72.5867 291.916 72.0927 296.29 71.0597 300.673L91.4828 287.314L71.0597 273.955C72.0927 278.328 72.5867 282.711 72.5867 287.314ZM105.995 287.314C105.995 291.916 105.501 296.29 104.468 300.673L124.891 287.314L104.468 273.955C105.501 278.328 105.995 282.711 105.995 287.314ZM139.408 287.314C139.408 291.916 138.914 296.29 137.881 300.673L158.304 287.314L137.881 273.955C138.914 278.328 139.408 282.711 139.408 287.314ZM175.645 287.314C175.645 291.916 175.151 296.29 174.118 300.673L194.541 287.314L174.118 273.955C175.151 278.328 175.645 282.711 175.645 287.314ZM209.059 287.314C209.059 291.916 208.565 296.29 207.532 300.673L227.955 287.314L207.532 273.955C208.565 278.328 209.059 282.711 209.059 287.314ZM243.499 287.314C243.499 291.916 243.005 296.29 241.972 300.673L262.396 287.314L241.972 273.955C243.005 278.328 243.499 282.711 243.499 287.314ZM276.913 287.314C276.913 291.916 276.419 296.29 275.386 300.673L295.809 287.314L275.386 273.955C276.419 278.328 276.913 282.711 276.913 287.314ZM18.7502 241.51C18.7502 246.112 18.2561 250.486 17.2232 254.869L37.6463 241.51L17.2232 228.151C18.2561 232.534 18.7502 236.908 18.7502 241.51ZM56.3908 241.51C56.3908 246.112 55.8968 250.486 54.8639 254.869L75.2869 241.51L54.8639 228.151C55.8968 232.534 56.3908 236.908 56.3908 241.51ZM90.3207 241.51C90.3207 246.112 89.8267 250.486 88.7882 254.869L109.211 241.51L88.7882 228.151C89.8211 232.534 90.3207 236.908 90.3207 241.51ZM123.218 241.51C123.218 246.112 122.724 250.486 121.691 254.869L142.114 241.51L121.691 228.151C122.724 232.534 123.218 236.908 123.218 241.51ZM157.142 241.51C157.142 246.112 156.648 250.486 155.615 254.869L176.038 241.51L155.615 228.151C156.648 232.534 157.142 236.908 157.142 241.51ZM192.868 241.51C192.868 246.112 192.374 250.486 191.336 254.869L211.759 241.51L191.336 228.151C192.369 232.534 192.868 236.908 192.868 241.51ZM226.793 241.51C226.793 246.112 226.299 250.486 225.26 254.869L245.683 241.51L225.26 228.151C226.293 232.534 226.793 236.908 226.793 241.51ZM260.717 241.51C260.717 246.112 260.223 250.486 259.19 254.869L279.613 241.51L259.19 228.151C260.223 232.534 260.717 236.908 260.717 241.51ZM294.647 241.51C294.647 246.112 294.153 250.486 293.12 254.869L313.543 241.51L293.12 228.151C294.153 232.534 294.647 236.908 294.647 241.51ZM1.53257 195.706C1.53257 200.309 1.03856 204.682 0.00561382 209.065L20.4287 195.706L0 182.347C1.03294 186.731 1.53257 191.104 1.53257 195.706ZM39.1732 195.706C39.1732 200.309 38.6792 204.682 37.6463 209.065L58.0694 195.706L37.6463 182.347C38.6792 186.731 39.1732 191.104 39.1732 195.706ZM72.5867 195.706C72.5867 200.309 72.0927 204.682 71.0597 209.065L91.4828 195.706L71.0597 182.347C72.0927 186.731 72.5867 191.104 72.5867 195.706ZM105.995 195.706C105.995 200.309 105.501 204.682 104.468 209.065L124.891 195.706L104.468 182.347C105.501 186.731 105.995 191.104 105.995 195.706ZM139.408 195.706C139.408 200.309 138.914 204.682 137.881 209.065L158.304 195.706L137.881 182.347C138.914 186.731 139.408 191.104 139.408 195.706ZM175.645 195.706C175.645 200.309 175.151 204.682 174.118 209.065L194.541 195.706L174.118 182.347C175.151 186.731 175.645 191.104 175.645 195.706ZM209.059 195.706C209.059 200.309 208.565 204.682 207.532 209.065L227.955 195.706L207.532 182.347C208.565 186.731 209.059 191.104 209.059 195.706ZM243.499 195.706C243.499 200.309 243.005 204.682 241.972 209.065L262.396 195.706L241.972 182.347C243.005 186.731 243.499 191.104 243.499 195.706ZM276.913 195.706C276.913 200.309 276.419 204.682 275.386 209.065L295.809 195.706L275.386 182.347C276.419 186.731 276.913 191.104 276.913 195.706ZM190.937 152.085C190.937 156.687 190.443 161.061 189.41 165.444L209.833 152.085L189.41 138.726C190.443 143.109 190.937 147.483 190.937 152.085ZM224.738 152.085C224.738 156.687 224.244 161.061 223.211 165.444L243.634 152.085L223.211 138.726C224.244 143.109 224.738 147.483 224.738 152.085ZM260.717 152.085C260.717 156.687 260.223 161.061 259.19 165.444L279.613 152.085L259.19 138.726C260.223 143.109 260.717 147.483 260.717 152.085ZM172.821 104.09C172.821 108.692 172.327 113.066 171.294 117.449L191.718 104.09L171.294 90.7306C172.327 95.1138 172.821 99.4874 172.821 104.09ZM208.16 104.09C208.16 108.692 207.666 113.066 206.633 117.449L227.057 104.09L206.633 90.7306C207.666 95.1138 208.16 99.4874 208.16 104.09ZM243.499 104.09C243.499 108.692 243.005 113.066 241.972 117.449L262.396 104.09L241.972 90.7306C243.005 95.1138 243.499 99.4874 243.499 104.09ZM154.195 58.7243C154.195 63.3266 153.701 67.7002 152.662 72.0833L173.085 58.7243L152.662 45.3653C153.695 49.7484 154.195 54.122 154.195 58.7243ZM188.636 58.7243C188.636 63.3266 188.142 67.7002 187.109 72.0833L207.532 58.7243L187.109 45.3653C188.142 49.7484 188.636 54.122 188.636 58.7243ZM224.738 58.7243C224.738 63.3266 224.244 67.7002 223.211 72.0833L243.634 58.7243L223.211 45.3653C224.244 49.7484 224.738 54.122 224.738 58.7243ZM134.148 13.359C134.148 17.9613 133.654 22.3349 132.621 26.718L153.044 13.359L132.621 0C133.654 4.37359 134.148 8.75672 134.148 13.359ZM168.589 13.359C168.589 17.9613 168.095 22.3349 167.062 26.718L187.485 13.359L167.062 0C168.095 4.37359 168.589 8.75672 168.589 13.359ZM204.691 13.359C204.691 17.9613 204.197 22.3349 203.164 26.718L223.587 13.359L203.159 0C204.191 4.37359 204.685 8.75672 204.685 13.359"/>
</mask>
<path d="M152.662 438.093L151.689 437.863L151.111 440.303L153.21 438.93L152.662 438.093ZM173.085 424.734L173.633 425.571L174.912 424.734L173.633 423.897L173.085 424.734ZM152.662 411.375L153.21 410.538L151.115 409.168L151.689 411.605L152.662 411.375ZM187.109 438.093L186.135 437.864L185.561 440.3L187.656 438.93L187.109 438.093ZM207.532 424.734L208.079 425.571L209.358 424.734L208.079 423.897L207.532 424.734ZM187.109 411.375L187.656 410.538L185.561 409.168L186.135 411.605L187.109 411.375ZM223.211 438.093L222.238 437.864L221.664 440.3L223.758 438.93L223.211 438.093ZM243.634 424.734L244.182 425.571L245.461 424.734L244.182 423.897L243.634 424.734ZM223.211 411.375L223.758 410.538L221.664 409.168L222.238 411.605L223.211 411.375ZM171.294 392.289L170.321 392.06L169.747 394.497L171.842 393.126L171.294 392.289ZM191.718 378.93L192.265 379.767L193.544 378.93L192.265 378.094L191.718 378.93ZM171.294 365.572L171.842 364.735L169.747 363.364L170.321 365.801L171.294 365.572ZM206.633 392.289L205.66 392.06L205.086 394.497L207.181 393.126L206.633 392.289ZM227.057 378.93L227.604 379.767L228.883 378.93L227.604 378.094L227.057 378.93ZM206.633 365.572L207.181 364.735L205.086 363.364L205.66 365.801L206.633 365.572ZM241.972 392.289L240.999 392.06L240.425 394.497L242.52 393.126L241.972 392.289ZM262.396 378.93L262.943 379.767L264.222 378.93L262.943 378.094L262.396 378.93ZM241.972 365.572L242.52 364.735L240.425 363.364L240.999 365.801L241.972 365.572ZM189.41 346.476L188.437 346.247L187.863 348.684L189.958 347.313L189.41 346.476ZM209.833 333.117L210.381 333.954L211.66 333.117L210.381 332.28L209.833 333.117ZM189.41 319.758L189.958 318.921L187.863 317.551L188.437 319.988L189.41 319.758ZM223.211 346.476L222.238 346.247L221.664 348.684L223.758 347.313L223.211 346.476ZM243.634 333.117L244.182 333.954L245.461 333.117L244.182 332.28L243.634 333.117ZM223.211 319.758L223.758 318.921L221.664 317.551L222.238 319.988L223.211 319.758ZM259.19 346.476L258.217 346.247L257.643 348.684L259.737 347.313L259.19 346.476ZM279.613 333.117L280.161 333.954L281.44 333.117L280.161 332.28L279.613 333.117ZM259.19 319.758L259.737 318.921L257.643 317.551L258.217 319.988L259.19 319.758ZM0.00561382 300.673L-0.967723 300.443L-1.54194 302.88L0.553019 301.51L0.00561382 300.673ZM20.4287 287.314L20.9761 288.151L22.2557 287.314L20.976 286.477L20.4287 287.314ZM0 273.955L0.5473 273.118L-1.54893 271.747L-0.973225 274.185L0 273.955ZM37.6463 300.673L36.6729 300.443L36.0987 302.88L38.1937 301.51L37.6463 300.673ZM58.0694 287.314L58.6168 288.151L59.8962 287.314L58.6168 286.477L58.0694 287.314ZM37.6463 273.955L38.1937 273.118L36.0972 271.747L36.673 274.185L37.6463 273.955ZM71.0597 300.673L70.0864 300.443L69.5122 302.88L71.6071 301.51L71.0597 300.673ZM91.4828 287.314L92.0302 288.151L93.3096 287.314L92.0302 286.477L91.4828 287.314ZM71.0597 273.955L71.6071 273.118L69.5107 271.747L70.0865 274.185L71.0597 273.955ZM104.468 300.673L103.494 300.443L102.92 302.88L105.015 301.51L104.468 300.673ZM124.891 287.314L125.438 288.151L126.717 287.314L125.438 286.477L124.891 287.314ZM104.468 273.955L105.015 273.118L102.919 271.747L103.494 274.185L104.468 273.955ZM137.881 300.673L136.908 300.443L136.333 302.88L138.428 301.51L137.881 300.673ZM158.304 287.314L158.852 288.151L160.131 287.314L158.852 286.477L158.304 287.314ZM137.881 273.955L138.428 273.118L136.332 271.747L136.908 274.185L137.881 273.955ZM174.118 300.673L173.145 300.443L172.571 302.88L174.666 301.51L174.118 300.673ZM194.541 287.314L195.089 288.151L196.368 287.314L195.089 286.477L194.541 287.314ZM174.118 273.955L174.666 273.118L172.569 271.747L173.145 274.185L174.118 273.955ZM207.532 300.673L206.558 300.443L205.984 302.88L208.079 301.51L207.532 300.673ZM227.955 287.314L228.502 288.151L229.782 287.314L228.502 286.477L227.955 287.314ZM207.532 273.955L208.079 273.118L205.983 271.747L206.558 274.185L207.532 273.955ZM241.972 300.673L240.999 300.443L240.425 302.88L242.52 301.51L241.972 300.673ZM262.396 287.314L262.943 288.151L264.222 287.314L262.943 286.477L262.396 287.314ZM241.972 273.955L242.52 273.118L240.423 271.747L240.999 274.185L241.972 273.955ZM275.386 300.673L274.413 300.443L273.838 302.88L275.933 301.51L275.386 300.673ZM295.809 287.314L296.356 288.151L297.636 287.314L296.356 286.477L295.809 287.314ZM275.386 273.955L275.933 273.118L273.837 271.747L274.413 274.185L275.386 273.955ZM17.2232 254.869L16.2499 254.64L15.6756 257.076L17.7706 255.706L17.2232 254.869ZM37.6463 241.51L38.1937 242.347L39.4731 241.51L38.1937 240.673L37.6463 241.51ZM17.2232 228.151L17.7706 227.314L15.6756 225.944L16.2499 228.38L17.2232 228.151ZM54.8639 254.869L53.8905 254.64L53.3163 257.076L55.4113 255.706L54.8639 254.869ZM75.2869 241.51L75.8343 242.347L77.1137 241.51L75.8343 240.673L75.2869 241.51ZM54.8639 228.151L55.4113 227.314L53.3163 225.944L53.8905 228.38L54.8639 228.151ZM88.7882 254.869L87.8151 254.639L87.2369 257.079L89.3356 255.706L88.7882 254.869ZM109.211 241.51L109.759 242.347L111.038 241.51L109.759 240.673L109.211 241.51ZM88.7882 228.151L89.3356 227.314L87.2406 225.944L87.8148 228.38L88.7882 228.151ZM121.691 254.869L120.717 254.64L120.143 257.076L122.238 255.706L121.691 254.869ZM142.114 241.51L142.661 242.347L143.941 241.51L142.661 240.673L142.114 241.51ZM121.691 228.151L122.238 227.314L120.143 225.944L120.717 228.38L121.691 228.151ZM155.615 254.869L154.642 254.64L154.068 257.076L156.163 255.706L155.615 254.869ZM176.038 241.51L176.586 242.347L177.865 241.51L176.586 240.673L176.038 241.51ZM155.615 228.151L156.163 227.314L154.068 225.944L154.642 228.38L155.615 228.151ZM191.336 254.869L190.363 254.639L189.785 257.079L191.883 255.706L191.336 254.869ZM211.759 241.51L212.306 242.347L213.586 241.51L212.306 240.673L211.759 241.51ZM191.336 228.151L191.883 227.314L189.788 225.944L190.362 228.38L191.336 228.151ZM225.26 254.869L224.287 254.639L223.709 257.079L225.808 255.706L225.26 254.869ZM245.683 241.51L246.231 242.347L247.51 241.51L246.231 240.673L245.683 241.51ZM225.26 228.151L225.808 227.314L223.713 225.944L224.287 228.38L225.26 228.151ZM259.19 254.869L258.217 254.64L257.643 257.076L259.737 255.706L259.19 254.869ZM279.613 241.51L280.161 242.347L281.44 241.51L280.161 240.673L279.613 241.51ZM259.19 228.151L259.737 227.314L257.643 225.944L258.217 228.38L259.19 228.151ZM293.12 254.869L292.147 254.64L291.572 257.076L293.667 255.706L293.12 254.869ZM313.543 241.51L314.09 242.347L315.37 241.51L314.09 240.673L313.543 241.51ZM293.12 228.151L293.667 227.314L291.572 225.944L292.147 228.38L293.12 228.151ZM0.00561382 209.065L-0.967723 208.836L-1.54194 211.273L0.55302 209.902L0.00561382 209.065ZM20.4287 195.706L20.9761 196.543L22.2557 195.706L20.976 194.869L20.4287 195.706ZM0 182.347L0.5473 181.51L-1.54745 180.141L-0.973337 182.577L0 182.347ZM37.6463 209.065L36.6729 208.836L36.0987 211.273L38.1937 209.902L37.6463 209.065ZM58.0694 195.706L58.6168 196.543L59.8962 195.706L58.6168 194.87L58.0694 195.706ZM37.6463 182.347L38.1937 181.511L36.0987 180.14L36.6729 182.577L37.6463 182.347ZM71.0597 209.065L70.0864 208.836L69.5122 211.273L71.6071 209.902L71.0597 209.065ZM91.4828 195.706L92.0302 196.543L93.3096 195.706L92.0302 194.87L91.4828 195.706ZM71.0597 182.347L71.6071 181.511L69.5122 180.14L70.0864 182.577L71.0597 182.347ZM104.468 209.065L103.494 208.836L102.92 211.273L105.015 209.902L104.468 209.065ZM124.891 195.706L125.438 196.543L126.717 195.706L125.438 194.87L124.891 195.706ZM104.468 182.347L105.015 181.511L102.92 180.14L103.494 182.577L104.468 182.347ZM137.881 209.065L136.908 208.836L136.333 211.273L138.428 209.902L137.881 209.065ZM158.304 195.706L158.852 196.543L160.131 195.706L158.852 194.87L158.304 195.706ZM137.881 182.347L138.428 181.511L136.333 180.14L136.908 182.577L137.881 182.347ZM174.118 209.065L173.145 208.836L172.571 211.273L174.666 209.902L174.118 209.065ZM194.541 195.706L195.089 196.543L196.368 195.706L195.089 194.87L194.541 195.706ZM174.118 182.347L174.666 181.511L172.571 180.14L173.145 182.577L174.118 182.347ZM207.532 209.065L206.558 208.836L205.984 211.273L208.079 209.902L207.532 209.065ZM227.955 195.706L228.502 196.543L229.782 195.706L228.502 194.87L227.955 195.706ZM207.532 182.347L208.079 181.511L205.984 180.14L206.558 182.577L207.532 182.347ZM241.972 209.065L240.999 208.836L240.425 211.273L242.52 209.902L241.972 209.065ZM262.396 195.706L262.943 196.543L264.222 195.706L262.943 194.87L262.396 195.706ZM241.972 182.347L242.52 181.511L240.425 180.14L240.999 182.577L241.972 182.347ZM275.386 209.065L274.413 208.836L273.838 211.273L275.933 209.902L275.386 209.065ZM295.809 195.706L296.356 196.543L297.636 195.706L296.356 194.87L295.809 195.706ZM275.386 182.347L275.933 181.511L273.838 180.14L274.413 182.577L275.386 182.347ZM189.41 165.444L188.437 165.214L187.863 167.651L189.958 166.281L189.41 165.444ZM209.833 152.085L210.381 152.922L211.66 152.085L210.381 151.248L209.833 152.085ZM189.41 138.726L189.958 137.889L187.863 136.519L188.437 138.955L189.41 138.726ZM223.211 165.444L222.238 165.214L221.664 167.651L223.758 166.281L223.211 165.444ZM243.634 152.085L244.182 152.922L245.461 152.085L244.182 151.248L243.634 152.085ZM223.211 138.726L223.758 137.889L221.664 136.519L222.238 138.955L223.211 138.726ZM259.19 165.444L258.217 165.214L257.643 167.651L259.737 166.281L259.19 165.444ZM279.613 152.085L280.161 152.922L281.44 152.085L280.161 151.248L279.613 152.085ZM259.19 138.726L259.737 137.889L257.643 136.519L258.217 138.955L259.19 138.726ZM171.294 117.449L170.321 117.219L169.747 119.656L171.842 118.286L171.294 117.449ZM191.718 104.09L192.265 104.927L193.544 104.09L192.265 103.253L191.718 104.09ZM171.294 90.7306L171.842 89.8938L169.747 88.5234L170.321 90.96L171.294 90.7306ZM206.633 117.449L205.66 117.219L205.086 119.656L207.181 118.286L206.633 117.449ZM227.057 104.09L227.604 104.927L228.883 104.09L227.604 103.253L227.057 104.09ZM206.633 90.7306L207.181 89.8938L205.086 88.5234L205.66 90.96L206.633 90.7306ZM241.972 117.449L240.999 117.219L240.425 119.656L242.52 118.286L241.972 117.449ZM262.396 104.09L262.943 104.927L264.222 104.09L262.943 103.253L262.396 104.09ZM241.972 90.7306L242.52 89.8938L240.425 88.5234L240.999 90.96L241.972 90.7306ZM152.662 72.0833L151.689 71.8528L151.111 74.2929L153.21 72.9202L152.662 72.0833ZM173.085 58.7243L173.633 59.5612L174.912 58.7243L173.633 57.8875L173.085 58.7243ZM152.662 45.3653L153.21 44.5285L151.115 43.1581L151.689 45.5947L152.662 45.3653ZM187.109 72.0833L186.135 71.8539L185.561 74.2905L187.656 72.9202L187.109 72.0833ZM207.532 58.7243L208.079 59.5612L209.358 58.7243L208.079 57.8875L207.532 58.7243ZM187.109 45.3653L187.656 44.5285L185.561 43.1581L186.135 45.5947L187.109 45.3653ZM223.211 72.0833L222.238 71.8539L221.664 74.2905L223.758 72.9202L223.211 72.0833ZM243.634 58.7243L244.182 59.5612L245.461 58.7243L244.182 57.8875L243.634 58.7243ZM223.211 45.3653L223.758 44.5285L221.664 43.1581L222.238 45.5947L223.211 45.3653ZM132.621 26.718L131.648 26.4886L131.073 28.9252L133.168 27.5549L132.621 26.718ZM153.044 13.359L153.591 14.1959L154.871 13.359L153.591 12.5221L153.044 13.359ZM132.621 0L133.168 -0.836867L131.072 -2.20817L131.648 0.229854L132.621 0ZM167.062 26.718L166.088 26.4886L165.514 28.9252L167.609 27.5549L167.062 26.718ZM187.485 13.359L188.032 14.1959L189.312 13.359L188.032 12.5221L187.485 13.359ZM167.062 0L167.609 -0.836867L165.513 -2.20817L166.088 0.229854L167.062 0ZM203.164 26.718L202.191 26.4886L201.617 28.9252L203.712 27.5549L203.164 26.718ZM223.587 13.359L224.135 14.1959L225.414 13.3589L224.135 12.5221L223.587 13.359ZM203.159 0L203.706 -0.836936L201.61 -2.20773L202.185 0.229854L203.159 0ZM154.195 424.734H153.195C153.195 429.262 152.709 433.558 151.689 437.863L152.662 438.093L153.635 438.324C154.693 433.862 155.195 429.411 155.195 424.734H154.195ZM152.662 438.093L153.21 438.93L173.633 425.571L173.085 424.734L172.538 423.897L152.115 437.256L152.662 438.093ZM173.085 424.734L173.633 423.897L153.21 410.538L152.662 411.375L152.115 412.212L172.538 425.571L173.085 424.734ZM152.662 411.375L151.689 411.605C152.704 415.91 153.195 420.207 153.195 424.734H154.195H155.195C155.195 420.057 154.687 415.606 153.636 411.146L152.662 411.375ZM188.636 424.734H187.636C187.636 429.262 187.15 433.559 186.135 437.864L187.109 438.093L188.082 438.323C189.133 433.861 189.636 429.411 189.636 424.734H188.636ZM187.109 438.093L187.656 438.93L208.079 425.571L207.532 424.734L206.984 423.897L186.561 437.256L187.109 438.093ZM207.532 424.734L208.079 423.897L187.656 410.538L187.109 411.375L186.561 412.212L206.984 425.571L207.532 424.734ZM187.109 411.375L186.135 411.605C187.15 415.91 187.636 420.206 187.636 424.734H188.636H189.636C189.636 420.058 189.133 415.607 188.082 411.146L187.109 411.375ZM224.738 424.734H223.738C223.738 429.262 223.252 433.559 222.238 437.864L223.211 438.093L224.184 438.323C225.236 433.861 225.738 429.411 225.738 424.734H224.738ZM223.211 438.093L223.758 438.93L244.182 425.571L243.634 424.734L243.087 423.897L222.664 437.256L223.211 438.093ZM243.634 424.734L244.182 423.897L223.758 410.538L223.211 411.375L222.664 412.212L243.087 425.571L243.634 424.734ZM223.211 411.375L222.238 411.605C223.252 415.91 223.738 420.206 223.738 424.734H224.738H225.738C225.738 420.058 225.236 415.607 224.184 411.146L223.211 411.375ZM172.821 378.93H171.821C171.821 383.459 171.336 387.755 170.321 392.06L171.294 392.289L172.268 392.519C173.319 388.058 173.821 383.607 173.821 378.93H172.821ZM171.294 392.289L171.842 393.126L192.265 379.767L191.718 378.93L191.17 378.094L170.747 391.453L171.294 392.289ZM191.718 378.93L192.265 378.094L171.842 364.735L171.294 365.572L170.747 366.408L191.17 379.767L191.718 378.93ZM171.294 365.572L170.321 365.801C171.336 370.106 171.821 374.402 171.821 378.93H172.821H173.821C173.821 374.254 173.319 369.803 172.268 365.342L171.294 365.572ZM208.16 378.93H207.16C207.16 383.459 206.675 387.755 205.66 392.06L206.633 392.289L207.607 392.519C208.658 388.058 209.16 383.607 209.16 378.93H208.16ZM206.633 392.289L207.181 393.126L227.604 379.767L227.057 378.93L226.509 378.094L206.086 391.453L206.633 392.289ZM227.057 378.93L227.604 378.094L207.181 364.735L206.633 365.572L206.086 366.408L226.509 379.767L227.057 378.93ZM206.633 365.572L205.66 365.801C206.675 370.106 207.16 374.402 207.16 378.93H208.16H209.16C209.16 374.254 208.658 369.803 207.607 365.342L206.633 365.572ZM243.499 378.93H242.499C242.499 383.459 242.014 387.755 240.999 392.06L241.972 392.289L242.946 392.519C243.997 388.058 244.499 383.607 244.499 378.93H243.499ZM241.972 392.289L242.52 393.126L262.943 379.767L262.396 378.93L261.848 378.094L241.425 391.453L241.972 392.289ZM262.396 378.93L262.943 378.094L242.52 364.735L241.972 365.572L241.425 366.408L261.848 379.767L262.396 378.93ZM241.972 365.572L240.999 365.801C242.014 370.106 242.499 374.402 242.499 378.93H243.499H244.499C244.499 374.254 243.997 369.803 242.946 365.342L241.972 365.572ZM190.937 333.117H189.937C189.937 337.645 189.451 341.942 188.437 346.247L189.41 346.476L190.384 346.706C191.435 342.245 191.937 337.794 191.937 333.117H190.937ZM189.41 346.476L189.958 347.313L210.381 333.954L209.833 333.117L209.286 332.28L188.863 345.639L189.41 346.476ZM209.833 333.117L210.381 332.28L189.958 318.921L189.41 319.758L188.863 320.595L209.286 333.954L209.833 333.117ZM189.41 319.758L188.437 319.988C189.451 324.293 189.937 328.589 189.937 333.117H190.937H191.937C191.937 328.441 191.435 323.99 190.384 319.529L189.41 319.758ZM224.738 333.117H223.738C223.738 337.645 223.252 341.942 222.238 346.247L223.211 346.476L224.184 346.706C225.236 342.245 225.738 337.794 225.738 333.117H224.738ZM223.211 346.476L223.758 347.313L244.182 333.954L243.634 333.117L243.087 332.28L222.664 345.639L223.211 346.476ZM243.634 333.117L244.182 332.28L223.758 318.921L223.211 319.758L222.664 320.595L243.087 333.954L243.634 333.117ZM223.211 319.758L222.238 319.988C223.252 324.293 223.738 328.589 223.738 333.117H224.738H225.738C225.738 328.441 225.236 323.99 224.184 319.529L223.211 319.758ZM260.717 333.117H259.717C259.717 337.645 259.231 341.942 258.217 346.247L259.19 346.476L260.163 346.706C261.215 342.245 261.717 337.794 261.717 333.117H260.717ZM259.19 346.476L259.737 347.313L280.161 333.954L279.613 333.117L279.066 332.28L258.643 345.639L259.19 346.476ZM279.613 333.117L280.161 332.28L259.737 318.921L259.19 319.758L258.643 320.595L279.066 333.954L279.613 333.117ZM259.19 319.758L258.217 319.988C259.231 324.293 259.717 328.589 259.717 333.117H260.717H261.717C261.717 328.441 261.215 323.99 260.163 319.529L259.19 319.758ZM1.53257 287.314H0.532573C0.532573 291.842 0.0468209 296.138 -0.967723 300.443L0.00561382 300.673L0.978951 300.902C2.03029 296.441 2.53257 291.99 2.53257 287.314H1.53257ZM0.00561382 300.673L0.553019 301.51L20.9761 288.151L20.4287 287.314L19.8813 286.477L-0.541792 299.836L0.00561382 300.673ZM20.4287 287.314L20.976 286.477L0.5473 273.118L0 273.955L-0.5473 274.792L19.8814 288.151L20.4287 287.314ZM0 273.955L-0.973225 274.185C0.0413406 278.48 0.532573 282.786 0.532573 287.314H1.53257H2.53257C2.53257 282.637 2.02455 278.176 0.973225 273.725L0 273.955ZM39.1732 287.314H38.1732C38.1732 291.842 37.6875 296.138 36.6729 300.443L37.6463 300.673L38.6196 300.902C39.671 296.441 40.1732 291.99 40.1732 287.314H39.1732ZM37.6463 300.673L38.1937 301.51L58.6168 288.151L58.0694 287.314L57.5219 286.477L37.0989 299.836L37.6463 300.673ZM58.0694 287.314L58.6168 286.477L38.1937 273.118L37.6463 273.955L37.0989 274.792L57.5219 288.151L58.0694 287.314ZM37.6463 273.955L36.673 274.185C37.6874 278.48 38.1732 282.785 38.1732 287.314H39.1732H40.1732C40.1732 282.637 39.671 278.177 38.6195 273.725L37.6463 273.955ZM72.5867 287.314H71.5867C71.5867 291.842 71.1009 296.138 70.0864 300.443L71.0597 300.673L72.0331 300.902C73.0844 296.441 73.5867 291.99 73.5867 287.314H72.5867ZM71.0597 300.673L71.6071 301.51L92.0302 288.151L91.4828 287.314L90.9354 286.477L70.5123 299.836L71.0597 300.673ZM91.4828 287.314L92.0302 286.477L71.6071 273.118L71.0597 273.955L70.5123 274.792L90.9354 288.151L91.4828 287.314ZM71.0597 273.955L70.0865 274.185C71.1009 278.48 71.5867 282.785 71.5867 287.314H72.5867H73.5867C73.5867 282.637 73.0845 278.177 72.033 273.725L71.0597 273.955ZM105.995 287.314H104.995C104.995 291.842 104.509 296.138 103.494 300.443L104.468 300.673L105.441 300.902C106.492 296.441 106.995 291.99 106.995 287.314H105.995ZM104.468 300.673L105.015 301.51L125.438 288.151L124.891 287.314L124.343 286.477L103.92 299.836L104.468 300.673ZM124.891 287.314L125.438 286.477L105.015 273.118L104.468 273.955L103.92 274.792L124.343 288.151L124.891 287.314ZM104.468 273.955L103.494 274.185C104.509 278.48 104.995 282.785 104.995 287.314H105.995H106.995C106.995 282.637 106.492 278.177 105.441 273.725L104.468 273.955ZM139.408 287.314H138.408C138.408 291.842 137.922 296.138 136.908 300.443L137.881 300.673L138.854 300.902C139.906 296.441 140.408 291.99 140.408 287.314H139.408ZM137.881 300.673L138.428 301.51L158.852 288.151L158.304 287.314L157.757 286.477L137.334 299.836L137.881 300.673ZM158.304 287.314L158.852 286.477L138.428 273.118L137.881 273.955L137.334 274.792L157.757 288.151L158.304 287.314ZM137.881 273.955L136.908 274.185C137.922 278.48 138.408 282.785 138.408 287.314H139.408H140.408C140.408 282.637 139.906 278.177 138.854 273.725L137.881 273.955ZM175.645 287.314H174.645C174.645 291.842 174.159 296.138 173.145 300.443L174.118 300.673L175.092 300.902C176.143 296.441 176.645 291.99 176.645 287.314H175.645ZM174.118 300.673L174.666 301.51L195.089 288.151L194.541 287.314L193.994 286.477L173.571 299.836L174.118 300.673ZM194.541 287.314L195.089 286.477L174.666 273.118L174.118 273.955L173.571 274.792L193.994 288.151L194.541 287.314ZM174.118 273.955L173.145 274.185C174.159 278.48 174.645 282.785 174.645 287.314H175.645H176.645C176.645 282.637 176.143 278.177 175.091 273.725L174.118 273.955ZM209.059 287.314H208.059C208.059 291.842 207.573 296.138 206.558 300.443L207.532 300.673L208.505 300.902C209.556 296.441 210.059 291.99 210.059 287.314H209.059ZM207.532 300.673L208.079 301.51L228.502 288.151L227.955 287.314L227.407 286.477L206.984 299.836L207.532 300.673ZM227.955 287.314L228.502 286.477L208.079 273.118L207.532 273.955L206.984 274.792L227.407 288.151L227.955 287.314ZM207.532 273.955L206.558 274.185C207.573 278.48 208.059 282.785 208.059 287.314H209.059H210.059C210.059 282.637 209.556 278.177 208.505 273.725L207.532 273.955ZM243.499 287.314H242.499C242.499 291.842 242.014 296.138 240.999 300.443L241.972 300.673L242.946 300.902C243.997 296.441 244.499 291.99 244.499 287.314H243.499ZM241.972 300.673L242.52 301.51L262.943 288.151L262.396 287.314L261.848 286.477L241.425 299.836L241.972 300.673ZM262.396 287.314L262.943 286.477L242.52 273.118L241.972 273.955L241.425 274.792L261.848 288.151L262.396 287.314ZM241.972 273.955L240.999 274.185C242.014 278.48 242.499 282.785 242.499 287.314H243.499H244.499C244.499 282.637 243.997 278.177 242.946 273.725L241.972 273.955ZM276.913 287.314H275.913C275.913 291.842 275.427 296.138 274.413 300.443L275.386 300.673L276.359 300.902C277.411 296.441 277.913 291.99 277.913 287.314H276.913ZM275.386 300.673L275.933 301.51L296.356 288.151L295.809 287.314L295.262 286.477L274.839 299.836L275.386 300.673ZM295.809 287.314L296.356 286.477L275.933 273.118L275.386 273.955L274.839 274.792L295.262 288.151L295.809 287.314ZM275.386 273.955L274.413 274.185C275.427 278.48 275.913 282.785 275.913 287.314H276.913H277.913C277.913 282.637 277.411 278.177 276.359 273.725L275.386 273.955ZM18.7502 241.51H17.7502C17.7502 246.038 17.2644 250.335 16.2499 254.64L17.2232 254.869L18.1965 255.098C19.2479 250.637 19.7502 246.187 19.7502 241.51H18.7502ZM17.2232 254.869L17.7706 255.706L38.1937 242.347L37.6463 241.51L37.0989 240.673L16.6758 254.032L17.2232 254.869ZM37.6463 241.51L38.1937 240.673L17.7706 227.314L17.2232 228.151L16.6758 228.988L37.0989 242.347L37.6463 241.51ZM17.2232 228.151L16.2499 228.38C17.2644 232.686 17.7502 236.982 17.7502 241.51H18.7502H19.7502C19.7502 236.834 19.2479 232.383 18.1965 227.922L17.2232 228.151ZM56.3908 241.51H55.3908C55.3908 246.038 54.9051 250.335 53.8905 254.64L54.8639 254.869L55.8372 255.098C56.8885 250.637 57.3908 246.187 57.3908 241.51H56.3908ZM54.8639 254.869L55.4113 255.706L75.8343 242.347L75.2869 241.51L74.7395 240.673L54.3165 254.032L54.8639 254.869ZM75.2869 241.51L75.8343 240.673L55.4113 227.314L54.8639 228.151L54.3165 228.988L74.7395 242.347L75.2869 241.51ZM54.8639 228.151L53.8905 228.38C54.9051 232.686 55.3908 236.982 55.3908 241.51H56.3908H57.3908C57.3908 236.834 56.8885 232.383 55.8372 227.922L54.8639 228.151ZM90.3207 241.51H89.3207C89.3207 246.038 88.835 250.334 87.8151 254.639L88.7882 254.869L89.7612 255.1C90.8185 250.638 91.3207 246.187 91.3207 241.51H90.3207ZM88.7882 254.869L89.3356 255.706L109.759 242.347L109.211 241.51L108.664 240.673L88.2408 254.032L88.7882 254.869ZM109.211 241.51L109.759 240.673L89.3356 227.314L88.7882 228.151L88.2408 228.988L108.664 242.347L109.211 241.51ZM88.7882 228.151L87.8148 228.38C88.8296 232.686 89.3207 236.983 89.3207 241.51H90.3207H91.3207C91.3207 236.833 90.8127 232.382 89.7615 227.922L88.7882 228.151ZM123.218 241.51H122.218C122.218 246.038 121.732 250.335 120.717 254.64L121.691 254.869L122.664 255.098C123.715 250.637 124.218 246.187 124.218 241.51H123.218ZM121.691 254.869L122.238 255.706L142.661 242.347L142.114 241.51L141.566 240.673L121.143 254.032L121.691 254.869ZM142.114 241.51L142.661 240.673L122.238 227.314L121.691 228.151L121.143 228.988L141.566 242.347L142.114 241.51ZM121.691 228.151L120.717 228.38C121.732 232.686 122.218 236.982 122.218 241.51H123.218H124.218C124.218 236.834 123.715 232.383 122.664 227.922L121.691 228.151ZM157.142 241.51H156.142C156.142 246.038 155.656 250.335 154.642 254.64L155.615 254.869L156.588 255.098C157.64 250.637 158.142 246.187 158.142 241.51H157.142ZM155.615 254.869L156.163 255.706L176.586 242.347L176.038 241.51L175.491 240.673L155.068 254.032L155.615 254.869ZM176.038 241.51L176.586 240.673L156.163 227.314L155.615 228.151L155.068 228.988L175.491 242.347L176.038 241.51ZM155.615 228.151L154.642 228.38C155.656 232.686 156.142 236.982 156.142 241.51H157.142H158.142C158.142 236.834 157.64 232.383 156.588 227.922L155.615 228.151ZM192.868 241.51H191.868C191.868 246.038 191.383 250.334 190.363 254.639L191.336 254.869L192.309 255.1C193.366 250.638 193.868 246.187 193.868 241.51H192.868ZM191.336 254.869L191.883 255.706L212.306 242.347L211.759 241.51L211.211 240.673L190.788 254.032L191.336 254.869ZM211.759 241.51L212.306 240.673L191.883 227.314L191.336 228.151L190.788 228.988L211.211 242.347L211.759 241.51ZM191.336 228.151L190.362 228.38C191.377 232.686 191.868 236.983 191.868 241.51H192.868H193.868C193.868 236.833 193.36 232.382 192.309 227.922L191.336 228.151ZM226.793 241.51H225.793C225.793 246.038 225.307 250.334 224.287 254.639L225.26 254.869L226.233 255.1C227.29 250.638 227.793 246.187 227.793 241.51H226.793ZM225.26 254.869L225.808 255.706L246.231 242.347L245.683 241.51L245.136 240.673L224.713 254.032L225.26 254.869ZM245.683 241.51L246.231 240.673L225.808 227.314L225.26 228.151L224.713 228.988L245.136 242.347L245.683 241.51ZM225.26 228.151L224.287 228.38C225.302 232.686 225.793 236.983 225.793 241.51H226.793H227.793C227.793 236.833 227.285 232.382 226.233 227.922L225.26 228.151ZM260.717 241.51H259.717C259.717 246.038 259.231 250.335 258.217 254.64L259.19 254.869L260.163 255.098C261.215 250.637 261.717 246.187 261.717 241.51H260.717ZM259.19 254.869L259.737 255.706L280.161 242.347L279.613 241.51L279.066 240.673L258.643 254.032L259.19 254.869ZM279.613 241.51L280.161 240.673L259.737 227.314L259.19 228.151L258.643 228.988L279.066 242.347L279.613 241.51ZM259.19 228.151L258.217 228.38C259.231 232.686 259.717 236.982 259.717 241.51H260.717H261.717C261.717 236.834 261.215 232.383 260.163 227.922L259.19 228.151ZM294.647 241.51H293.647C293.647 246.038 293.161 250.335 292.147 254.64L293.12 254.869L294.093 255.098C295.145 250.637 295.647 246.187 295.647 241.51H294.647ZM293.12 254.869L293.667 255.706L314.09 242.347L313.543 241.51L312.996 240.673L292.573 254.032L293.12 254.869ZM313.543 241.51L314.09 240.673L293.667 227.314L293.12 228.151L292.573 228.988L312.996 242.347L313.543 241.51ZM293.12 228.151L292.147 228.38C293.161 232.686 293.647 236.982 293.647 241.51H294.647H295.647C295.647 236.834 295.145 232.383 294.093 227.922L293.12 228.151ZM1.53257 195.706H0.532573C0.532573 200.235 0.0468208 204.531 -0.967723 208.836L0.00561382 209.065L0.978951 209.295C2.03029 204.834 2.53257 200.383 2.53257 195.706H1.53257ZM0.00561382 209.065L0.55302 209.902L20.9761 196.543L20.4287 195.706L19.8813 194.87L-0.541792 208.229L0.00561382 209.065ZM20.4287 195.706L20.976 194.869L0.5473 181.51L0 182.347L-0.5473 183.184L19.8814 196.543L20.4287 195.706ZM0 182.347L-0.973337 182.577C0.0413963 186.883 0.532573 191.179 0.532573 195.706H1.53257H2.53257C2.53257 191.029 2.02449 186.578 0.973337 182.118L0 182.347ZM39.1732 195.706H38.1732C38.1732 200.235 37.6875 204.531 36.6729 208.836L37.6463 209.065L38.6196 209.295C39.671 204.834 40.1732 200.383 40.1732 195.706H39.1732ZM37.6463 209.065L38.1937 209.902L58.6168 196.543L58.0694 195.706L57.5219 194.87L37.0989 208.229L37.6463 209.065ZM58.0694 195.706L58.6168 194.87L38.1937 181.511L37.6463 182.347L37.0989 183.184L57.5219 196.543L58.0694 195.706ZM37.6463 182.347L36.6729 182.577C37.6875 186.882 38.1732 191.178 38.1732 195.706H39.1732H40.1732C40.1732 191.03 39.671 186.579 38.6196 182.118L37.6463 182.347ZM72.5867 195.706H71.5867C71.5867 200.235 71.1009 204.531 70.0864 208.836L71.0597 209.065L72.0331 209.295C73.0844 204.834 73.5867 200.383 73.5867 195.706H72.5867ZM71.0597 209.065L71.6071 209.902L92.0302 196.543L91.4828 195.706L90.9354 194.87L70.5123 208.229L71.0597 209.065ZM91.4828 195.706L92.0302 194.87L71.6071 181.511L71.0597 182.347L70.5123 183.184L90.9354 196.543L91.4828 195.706ZM71.0597 182.347L70.0864 182.577C71.1009 186.882 71.5867 191.178 71.5867 195.706H72.5867H73.5867C73.5867 191.03 73.0844 186.579 72.0331 182.118L71.0597 182.347ZM105.995 195.706H104.995C104.995 200.235 104.509 204.531 103.494 208.836L104.468 209.065L105.441 209.295C106.492 204.834 106.995 200.383 106.995 195.706H105.995ZM104.468 209.065L105.015 209.902L125.438 196.543L124.891 195.706L124.343 194.87L103.92 208.229L104.468 209.065ZM124.891 195.706L125.438 194.87L105.015 181.511L104.468 182.347L103.92 183.184L124.343 196.543L124.891 195.706ZM104.468 182.347L103.494 182.577C104.509 186.882 104.995 191.178 104.995 195.706H105.995H106.995C106.995 191.03 106.492 186.579 105.441 182.118L104.468 182.347ZM139.408 195.706H138.408C138.408 200.235 137.922 204.531 136.908 208.836L137.881 209.065L138.854 209.295C139.906 204.834 140.408 200.383 140.408 195.706H139.408ZM137.881 209.065L138.428 209.902L158.852 196.543L158.304 195.706L157.757 194.87L137.334 208.229L137.881 209.065ZM158.304 195.706L158.852 194.87L138.428 181.511L137.881 182.347L137.334 183.184L157.757 196.543L158.304 195.706ZM137.881 182.347L136.908 182.577C137.922 186.882 138.408 191.178 138.408 195.706H139.408H140.408C140.408 191.03 139.906 186.579 138.854 182.118L137.881 182.347ZM175.645 195.706H174.645C174.645 200.235 174.159 204.531 173.145 208.836L174.118 209.065L175.092 209.295C176.143 204.834 176.645 200.383 176.645 195.706H175.645ZM174.118 209.065L174.666 209.902L195.089 196.543L194.541 195.706L193.994 194.87L173.571 208.229L174.118 209.065ZM194.541 195.706L195.089 194.87L174.666 181.511L174.118 182.347L173.571 183.184L193.994 196.543L194.541 195.706ZM174.118 182.347L173.145 182.577C174.159 186.882 174.645 191.178 174.645 195.706H175.645H176.645C176.645 191.03 176.143 186.579 175.092 182.118L174.118 182.347ZM209.059 195.706H208.059C208.059 200.235 207.573 204.531 206.558 208.836L207.532 209.065L208.505 209.295C209.556 204.834 210.059 200.383 210.059 195.706H209.059ZM207.532 209.065L208.079 209.902L228.502 196.543L227.955 195.706L227.407 194.87L206.984 208.229L207.532 209.065ZM227.955 195.706L228.502 194.87L208.079 181.511L207.532 182.347L206.984 183.184L227.407 196.543L227.955 195.706ZM207.532 182.347L206.558 182.577C207.573 186.882 208.059 191.178 208.059 195.706H209.059H210.059C210.059 191.03 209.556 186.579 208.505 182.118L207.532 182.347ZM243.499 195.706H242.499C242.499 200.235 242.014 204.531 240.999 208.836L241.972 209.065L242.946 209.295C243.997 204.834 244.499 200.383 244.499 195.706H243.499ZM241.972 209.065L242.52 209.902L262.943 196.543L262.396 195.706L261.848 194.87L241.425 208.229L241.972 209.065ZM262.396 195.706L262.943 194.87L242.52 181.511L241.972 182.347L241.425 183.184L261.848 196.543L262.396 195.706ZM241.972 182.347L240.999 182.577C242.014 186.882 242.499 191.178 242.499 195.706H243.499H244.499C244.499 191.03 243.997 186.579 242.946 182.118L241.972 182.347ZM276.913 195.706H275.913C275.913 200.235 275.427 204.531 274.413 208.836L275.386 209.065L276.359 209.295C277.411 204.834 277.913 200.383 277.913 195.706H276.913ZM275.386 209.065L275.933 209.902L296.356 196.543L295.809 195.706L295.262 194.87L274.839 208.229L275.386 209.065ZM295.809 195.706L296.356 194.87L275.933 181.511L275.386 182.347L274.839 183.184L295.262 196.543L295.809 195.706ZM275.386 182.347L274.413 182.577C275.427 186.882 275.913 191.178 275.913 195.706H276.913H277.913C277.913 191.03 277.411 186.579 276.359 182.118L275.386 182.347ZM190.937 152.085H189.937C189.937 156.613 189.451 160.909 188.437 165.214L189.41 165.444L190.384 165.673C191.435 161.212 191.937 156.761 191.937 152.085H190.937ZM189.41 165.444L189.958 166.281L210.381 152.922L209.833 152.085L209.286 151.248L188.863 164.607L189.41 165.444ZM209.833 152.085L210.381 151.248L189.958 137.889L189.41 138.726L188.863 139.563L209.286 152.922L209.833 152.085ZM189.41 138.726L188.437 138.955C189.451 143.26 189.937 147.557 189.937 152.085H190.937H191.937C191.937 147.408 191.435 142.958 190.384 138.496L189.41 138.726ZM224.738 152.085H223.738C223.738 156.613 223.252 160.909 222.238 165.214L223.211 165.444L224.184 165.673C225.236 161.212 225.738 156.761 225.738 152.085H224.738ZM223.211 165.444L223.758 166.281L244.182 152.922L243.634 152.085L243.087 151.248L222.664 164.607L223.211 165.444ZM243.634 152.085L244.182 151.248L223.758 137.889L223.211 138.726L222.664 139.563L243.087 152.922L243.634 152.085ZM223.211 138.726L222.238 138.955C223.252 143.26 223.738 147.557 223.738 152.085H224.738H225.738C225.738 147.408 225.236 142.958 224.184 138.496L223.211 138.726ZM260.717 152.085H259.717C259.717 156.613 259.231 160.909 258.217 165.214L259.19 165.444L260.163 165.673C261.215 161.212 261.717 156.761 261.717 152.085H260.717ZM259.19 165.444L259.737 166.281L280.161 152.922L279.613 152.085L279.066 151.248L258.643 164.607L259.19 165.444ZM279.613 152.085L280.161 151.248L259.737 137.889L259.19 138.726L258.643 139.563L279.066 152.922L279.613 152.085ZM259.19 138.726L258.217 138.955C259.231 143.26 259.717 147.557 259.717 152.085H260.717H261.717C261.717 147.408 261.215 142.958 260.163 138.496L259.19 138.726ZM172.821 104.09H171.821C171.821 108.618 171.336 112.914 170.321 117.219L171.294 117.449L172.268 117.678C173.319 113.217 173.821 108.766 173.821 104.09H172.821ZM171.294 117.449L171.842 118.286L192.265 104.927L191.718 104.09L191.17 103.253L170.747 116.612L171.294 117.449ZM191.718 104.09L192.265 103.253L171.842 89.8938L171.294 90.7306L170.747 91.5675L191.17 104.927L191.718 104.09ZM171.294 90.7306L170.321 90.96C171.336 95.2651 171.821 99.5616 171.821 104.09H172.821H173.821C173.821 99.4132 173.319 94.9625 172.268 90.5013L171.294 90.7306ZM208.16 104.09H207.16C207.16 108.618 206.675 112.914 205.66 117.219L206.633 117.449L207.607 117.678C208.658 113.217 209.16 108.766 209.16 104.09H208.16ZM206.633 117.449L207.181 118.286L227.604 104.927L227.057 104.09L226.509 103.253L206.086 116.612L206.633 117.449ZM227.057 104.09L227.604 103.253L207.181 89.8938L206.633 90.7306L206.086 91.5675L226.509 104.927L227.057 104.09ZM206.633 90.7306L205.66 90.96C206.675 95.2651 207.16 99.5616 207.16 104.09H208.16H209.16C209.16 99.4132 208.658 94.9625 207.607 90.5013L206.633 90.7306ZM243.499 104.09H242.499C242.499 108.618 242.014 112.914 240.999 117.219L241.972 117.449L242.946 117.678C243.997 113.217 244.499 108.766 244.499 104.09H243.499ZM241.972 117.449L242.52 118.286L262.943 104.927L262.396 104.09L261.848 103.253L241.425 116.612L241.972 117.449ZM262.396 104.09L262.943 103.253L242.52 89.8938L241.972 90.7306L241.425 91.5675L261.848 104.927L262.396 104.09ZM241.972 90.7306L240.999 90.96C242.014 95.2651 242.499 99.5616 242.499 104.09H243.499H244.499C244.499 99.4132 243.997 94.9625 242.946 90.5013L241.972 90.7306ZM154.195 58.7243H153.195C153.195 63.2524 152.709 67.5485 151.689 71.8528L152.662 72.0833L153.635 72.3139C154.693 67.8519 155.195 63.4008 155.195 58.7243H154.195ZM152.662 72.0833L153.21 72.9202L173.633 59.5612L173.085 58.7243L172.538 57.8875L152.115 71.2464L152.662 72.0833ZM173.085 58.7243L173.633 57.8875L153.21 44.5285L152.662 45.3653L152.115 46.2022L172.538 59.5612L173.085 58.7243ZM152.662 45.3653L151.689 45.5947C152.704 49.9006 153.195 54.1971 153.195 58.7243H154.195H155.195C155.195 54.047 154.687 49.5963 153.636 45.1359L152.662 45.3653ZM188.636 58.7243H187.636C187.636 63.2524 187.15 67.5489 186.135 71.8539L187.109 72.0833L188.082 72.3127C189.133 67.8515 189.636 63.4008 189.636 58.7243H188.636ZM187.109 72.0833L187.656 72.9202L208.079 59.5612L207.532 58.7243L206.984 57.8875L186.561 71.2464L187.109 72.0833ZM207.532 58.7243L208.079 57.8875L187.656 44.5285L187.109 45.3653L186.561 46.2022L206.984 59.5612L207.532 58.7243ZM187.109 45.3653L186.135 45.5947C187.15 49.8998 187.636 54.1962 187.636 58.7243H188.636H189.636C189.636 54.0478 189.133 49.5971 188.082 45.1359L187.109 45.3653ZM224.738 58.7243H223.738C223.738 63.2524 223.252 67.5489 222.238 71.8539L223.211 72.0833L224.184 72.3127C225.236 67.8515 225.738 63.4008 225.738 58.7243H224.738ZM223.211 72.0833L223.758 72.9202L244.182 59.5612L243.634 58.7243L243.087 57.8875L222.664 71.2464L223.211 72.0833ZM243.634 58.7243L244.182 57.8875L223.758 44.5285L223.211 45.3653L222.664 46.2022L243.087 59.5612L243.634 58.7243ZM223.211 45.3653L222.238 45.5947C223.252 49.8998 223.738 54.1962 223.738 58.7243H224.738H225.738C225.738 54.0478 225.236 49.5971 224.184 45.1359L223.211 45.3653ZM134.148 13.359H133.148C133.148 17.8871 132.662 22.1836 131.648 26.4886L132.621 26.718L133.594 26.9474C134.646 22.4862 135.148 18.0355 135.148 13.359H134.148ZM132.621 26.718L133.168 27.5549L153.591 14.1959L153.044 13.359L152.497 12.5221L132.073 25.8811L132.621 26.718ZM153.044 13.359L153.591 12.5221L133.168 -0.836867L132.621 0L132.073 0.836867L152.497 14.1959L153.044 13.359ZM132.621 0L131.648 0.229854C132.662 4.52484 133.148 8.83066 133.148 13.359H134.148H135.148C135.148 8.68277 134.646 4.22235 133.594 -0.229854L132.621 0ZM168.589 13.359H167.589C167.589 17.8871 167.103 22.1836 166.088 26.4886L167.062 26.718L168.035 26.9474C169.086 22.4862 169.589 18.0355 169.589 13.359H168.589ZM167.062 26.718L167.609 27.5549L188.032 14.1959L187.485 13.359L186.937 12.5221L166.514 25.8811L167.062 26.718ZM187.485 13.359L188.032 12.5221L167.609 -0.836867L167.062 0L166.514 0.836867L186.937 14.1959L187.485 13.359ZM167.062 0L166.088 0.229854C167.103 4.52484 167.589 8.83066 167.589 13.359H168.589H169.589C169.589 8.68277 169.086 4.22235 168.035 -0.229854L167.062 0ZM204.691 13.359H203.691C203.691 17.8871 203.205 22.1836 202.191 26.4886L203.164 26.718L204.137 26.9474C205.189 22.4862 205.691 18.0355 205.691 13.359H204.691ZM203.164 26.718L203.712 27.5549L224.135 14.1959L223.587 13.359L223.04 12.5221L202.617 25.8811L203.164 26.718ZM223.587 13.359L224.135 12.5221L203.706 -0.836936L203.159 0L202.611 0.836936L223.04 14.1959L223.587 13.359ZM203.159 0L202.185 0.229854C203.2 4.52483 203.685 8.83066 203.685 13.359H204.685H205.685C205.685 8.68278 205.183 4.22235 204.132 -0.229854L203.159 0Z" fill="#282A2F" mask="url(#path-1-inside-1_48_2438)"/>
</g>
</svg>
