<svg preserveAspectRatio="none" width="100%" height="100%" overflow="visible" style="display: block;" viewBox="0 0 27.9669 27.9967" fill="none" xmlns="http://www.w3.org/2000/svg">
<g id="Group">
<path id="Vector" fill-rule="evenodd" clip-rule="evenodd" d="M0.392637 2.2756C-0.446546 1.4354 0.148514 0 1.336 0H26.6334C27.3698 0 27.9667 0.596953 27.9667 1.33333V26.6607C27.9667 27.849 26.5297 28.4437 25.69 27.603L21.9893 23.8978V26.6417C21.9893 27.8297 20.5528 28.4246 19.7129 27.5843L15.9667 23.8364V26.6526C15.9667 27.8413 14.5286 28.4358 13.6892 27.594L0.407864 14.2748C-0.430246 13.4343 0.165057 12 1.35203 12H4.1355L0.413074 8.27593C-0.426593 7.4359 0.168357 6 1.3561 6H4.11263L0.392637 2.2756Z" fill="url(#paint0_linear_54_2971)"/>
</g>
<defs>
<linearGradient id="paint0_linear_54_2971" x1="26.8628" y1="27.9967" x2="3.4692" y2="-2.64829" gradientUnits="userSpaceOnUse">
<stop stop-color="#F69B63"/>
<stop offset="1" stop-color="#FFB685"/>
</linearGradient>
</defs>
</svg>
