<svg preserveAspectRatio="none" width="100%" height="100%" overflow="visible" style="display: block;" viewBox="0 0 53 60" fill="none" xmlns="http://www.w3.org/2000/svg">
<g id="Warstwa_1" clip-path="url(#clip0_2058_9183)">
<path id="Vector" d="M34.5012 21.4659C32.2875 23.2013 29.5203 24.2472 26.5059 24.2472C23.4914 24.2472 20.7125 23.2013 18.5106 21.4659L0 40.1387L7.489 47.6981L21.1953 33.8629V60H31.7929V33.8629L45.4992 47.6981L52.9882 40.1387L34.4895 21.4659H34.5012Z" fill="var(--fill-0, black)"/>
<path id="Vector_2" d="M26.5059 22.1672C32.5701 22.1672 37.4921 17.1989 37.4921 11.0777C37.4921 4.95642 32.5701 0 26.5059 0C20.4417 0 15.5197 4.9683 15.5197 11.0895C15.5197 17.2108 20.4417 22.1791 26.5059 22.1791V22.1672ZM26.5059 1.18859C31.9107 1.18859 36.3146 5.62203 36.3146 11.0895C36.3146 16.5571 31.9225 20.9905 26.5059 20.9905C21.0893 20.9905 16.6972 16.5571 16.6972 11.0895C16.6972 5.62203 21.1011 1.18859 26.5059 1.18859Z" fill="var(--fill-0, black)"/>
</g>
<defs>
<clipPath id="clip0_2058_9183">
<rect width="53" height="60" fill="white"/>
</clipPath>
</defs>
</svg>
