<svg preserveAspectRatio="none" width="100%" height="100%" overflow="visible" style="display: block;" viewBox="0 0 404.713 441.72" fill="none" xmlns="http://www.w3.org/2000/svg">
<g id="Vector">
<mask id="path-1-inside-1_47_2370" fill="white">
<path d="M199.03 428.25C199.03 432.891 198.393 437.301 197.052 441.72L223.414 428.25L197.052 414.781C198.386 419.2 199.03 423.61 199.03 428.25ZM243.486 428.25C243.486 432.891 242.848 437.301 241.515 441.72L267.876 428.25L241.515 414.781C242.848 419.2 243.486 423.61 243.486 428.25ZM290.086 428.25C290.086 432.891 289.448 437.301 288.115 441.72L314.476 428.25L288.115 414.781C289.448 419.2 290.086 423.61 290.086 428.25ZM223.073 382.068C223.073 386.708 222.436 391.118 221.102 395.537L247.464 382.068L221.102 368.598C222.436 373.017 223.073 377.427 223.073 382.068ZM268.688 382.068C268.688 386.708 268.05 391.118 266.717 395.537L293.078 382.068L266.717 368.598C268.05 373.017 268.688 377.427 268.688 382.068ZM314.302 382.068C314.302 386.708 313.665 391.118 312.331 395.537L338.693 382.068L312.331 368.598C313.665 373.017 314.302 377.427 314.302 382.068ZM246.457 335.875C246.457 340.516 245.819 344.925 244.486 349.345L270.847 335.875L244.486 322.406C245.819 326.825 246.457 331.235 246.457 335.875ZM290.086 335.875C290.086 340.516 289.448 344.925 288.115 349.345L314.476 335.875L288.115 322.406C289.448 326.825 290.086 331.235 290.086 335.875ZM336.526 335.875C336.526 340.516 335.889 344.925 334.555 349.345L360.917 335.875L334.555 322.406C335.889 326.825 336.526 331.235 336.526 335.875ZM1.9782 289.692C1.9782 294.333 1.34054 298.743 0.00724617 303.162L26.3688 289.692L0 276.223C1.33329 280.633 1.9782 285.052 1.9782 289.692ZM50.5637 289.692C50.5637 294.333 49.9261 298.743 48.5928 303.162L74.9543 289.692L48.5928 276.223C49.9261 280.633 50.5637 285.052 50.5637 289.692ZM93.6929 289.692C93.6929 294.333 93.0553 298.743 91.722 303.162L118.084 289.692L91.722 276.223C93.0553 280.633 93.6929 285.052 93.6929 289.692ZM136.815 289.692C136.815 294.333 136.177 298.743 134.844 303.162L161.205 289.692L134.844 276.223C136.177 280.633 136.815 285.052 136.815 289.692ZM179.944 289.692C179.944 294.333 179.306 298.743 177.973 303.162L204.335 289.692L177.973 276.223C179.306 280.633 179.944 285.052 179.944 289.692ZM226.718 289.692C226.718 294.333 226.08 298.743 224.747 303.162L251.109 289.692L224.747 276.223C226.08 280.633 226.718 285.052 226.718 289.692ZM269.847 289.692C269.847 294.333 269.21 298.743 267.876 303.162L294.238 289.692L267.876 276.223C269.21 280.633 269.847 285.052 269.847 289.692ZM314.302 289.692C314.302 294.333 313.665 298.743 312.331 303.162L338.693 289.692L312.331 276.223C313.665 280.633 314.302 285.052 314.302 289.692ZM357.432 289.692C357.432 294.333 356.794 298.743 355.461 303.162L381.822 289.692L355.461 276.223C356.794 280.633 357.432 285.052 357.432 289.692ZM24.2022 243.51C24.2022 248.15 23.5645 252.56 22.2312 256.979L48.5928 243.51L22.2312 230.04C23.5645 234.459 24.2022 238.869 24.2022 243.51ZM72.7877 243.51C72.7877 248.15 72.1501 252.56 70.8168 256.979L97.1783 243.51L70.8168 230.04C72.1501 234.459 72.7877 238.869 72.7877 243.51ZM116.584 243.51C116.584 248.15 115.946 252.56 114.605 256.979L140.967 243.51L114.605 230.04C115.939 234.459 116.584 238.869 116.584 243.51ZM159.046 243.51C159.046 248.15 158.408 252.56 157.075 256.979L183.437 243.51L157.075 230.04C158.408 234.459 159.046 238.869 159.046 243.51ZM202.835 243.51C202.835 248.15 202.197 252.56 200.864 256.979L227.225 243.51L200.864 230.04C202.197 234.459 202.835 238.869 202.835 243.51ZM248.949 243.51C248.949 248.15 248.312 252.56 246.971 256.979L273.333 243.51L246.971 230.04C248.304 234.459 248.949 238.869 248.949 243.51ZM292.738 243.51C292.738 248.15 292.1 252.56 290.76 256.979L317.121 243.51L290.76 230.04C292.093 234.459 292.738 238.869 292.738 243.51ZM336.526 243.51C336.526 248.15 335.889 252.56 334.555 256.979L360.917 243.51L334.555 230.04C335.889 234.459 336.526 238.869 336.526 243.51ZM380.322 243.51C380.322 248.15 379.685 252.56 378.351 256.979L404.713 243.51L378.351 230.04C379.685 234.459 380.322 238.869 380.322 243.51ZM1.9782 197.327C1.9782 201.967 1.34054 206.377 0.00724617 210.796L26.3688 197.327L0 183.857C1.33329 188.276 1.9782 192.686 1.9782 197.327ZM50.5637 197.327C50.5637 201.967 49.9261 206.377 48.5928 210.796L74.9543 197.327L48.5928 183.857C49.9261 188.276 50.5637 192.686 50.5637 197.327ZM93.6929 197.327C93.6929 201.967 93.0553 206.377 91.722 210.796L118.084 197.327L91.722 183.857C93.0553 188.276 93.6929 192.686 93.6929 197.327ZM136.815 197.327C136.815 201.967 136.177 206.377 134.844 210.796L161.205 197.327L134.844 183.857C136.177 188.276 136.815 192.686 136.815 197.327ZM179.944 197.327C179.944 201.967 179.306 206.377 177.973 210.796L204.335 197.327L177.973 183.857C179.306 188.276 179.944 192.686 179.944 197.327ZM226.718 197.327C226.718 201.967 226.08 206.377 224.747 210.796L251.109 197.327L224.747 183.857C226.08 188.276 226.718 192.686 226.718 197.327ZM269.847 197.327C269.847 201.967 269.21 206.377 267.876 210.796L294.238 197.327L267.876 183.857C269.21 188.276 269.847 192.686 269.847 197.327ZM314.302 197.327C314.302 201.967 313.665 206.377 312.331 210.796L338.693 197.327L312.331 183.857C313.665 188.276 314.302 192.686 314.302 197.327ZM357.432 197.327C357.432 201.967 356.794 206.377 355.461 210.796L381.822 197.327L355.461 183.857C356.794 188.276 357.432 192.686 357.432 197.327ZM246.457 153.344C246.457 157.984 245.819 162.394 244.486 166.814L270.847 153.344L244.486 139.874C245.819 144.294 246.457 148.704 246.457 153.344ZM290.086 153.344C290.086 157.984 289.448 162.394 288.115 166.814L314.476 153.344L288.115 139.874C289.448 144.294 290.086 148.704 290.086 153.344ZM336.526 153.344C336.526 157.984 335.889 162.394 334.555 166.814L360.917 153.344L334.555 139.874C335.889 144.294 336.526 148.704 336.526 153.344ZM223.073 104.951C223.073 109.592 222.436 114.002 221.102 118.421L247.464 104.951L221.102 91.4818C222.436 95.9012 223.073 100.311 223.073 104.951ZM268.688 104.951C268.688 109.592 268.05 114.002 266.717 118.421L293.078 104.951L266.717 91.4818C268.05 95.9012 268.688 100.311 268.688 104.951ZM314.302 104.951C314.302 109.592 313.665 114.002 312.331 118.421L338.693 104.951L312.331 91.4818C313.665 95.9012 314.302 100.311 314.302 104.951ZM199.03 59.2105C199.03 63.8509 198.393 68.2607 197.052 72.6801L223.414 59.2105L197.052 45.7409C198.386 50.1603 199.03 54.5701 199.03 59.2105ZM243.486 59.2105C243.486 63.8509 242.848 68.2607 241.515 72.6801L267.876 59.2105L241.515 45.7409C242.848 50.1603 243.486 54.5701 243.486 59.2105ZM290.086 59.2105C290.086 63.8509 289.448 68.2607 288.115 72.6801L314.476 59.2105L288.115 45.7409C289.448 50.1603 290.086 54.5701 290.086 59.2105ZM173.154 13.4696C173.154 18.11 172.517 22.5198 171.183 26.9392L197.545 13.4696L171.183 0C172.517 4.4098 173.154 8.82921 173.154 13.4696ZM217.61 13.4696C217.61 18.11 216.972 22.5198 215.639 26.9392L242 13.4696L215.639 0C216.972 4.4098 217.61 8.82921 217.61 13.4696ZM264.21 13.4696C264.21 18.11 263.572 22.5198 262.239 26.9392L288.6 13.4696L262.231 0C263.565 4.4098 264.202 8.82921 264.202 13.4696"/>
</mask>
<path d="M197.052 441.72L196.095 441.43L195.412 443.681L197.507 442.611L197.052 441.72ZM223.414 428.25L223.869 429.141L225.612 428.25L223.869 427.36L223.414 428.25ZM197.052 414.781L197.507 413.89L195.417 412.822L196.095 415.07L197.052 414.781ZM241.515 441.72L240.557 441.431L239.879 443.679L241.97 442.611L241.515 441.72ZM267.876 428.25L268.331 429.141L270.074 428.25L268.331 427.36L267.876 428.25ZM241.515 414.781L241.97 413.89L239.879 412.822L240.557 415.07L241.515 414.781ZM288.115 441.72L287.157 441.431L286.479 443.679L288.57 442.611L288.115 441.72ZM314.476 428.25L314.931 429.141L316.674 428.25L314.931 427.36L314.476 428.25ZM288.115 414.781L288.57 413.89L286.479 412.822L287.157 415.07L288.115 414.781ZM221.102 395.537L220.145 395.248L219.467 397.496L221.557 396.428L221.102 395.537ZM247.464 382.068L247.919 382.958L249.662 382.068L247.919 381.177L247.464 382.068ZM221.102 368.598L221.557 367.708L219.467 366.639L220.145 368.887L221.102 368.598ZM266.717 395.537L265.759 395.248L265.081 397.496L267.172 396.428L266.717 395.537ZM293.078 382.068L293.533 382.958L295.276 382.068L293.533 381.177L293.078 382.068ZM266.717 368.598L267.172 367.708L265.081 366.639L265.759 368.887L266.717 368.598ZM312.331 395.537L311.374 395.248L310.696 397.496L312.786 396.428L312.331 395.537ZM338.693 382.068L339.148 382.958L340.891 382.068L339.148 381.177L338.693 382.068ZM312.331 368.598L312.786 367.708L310.696 366.639L311.374 368.887L312.331 368.598ZM244.486 349.345L243.528 349.056L242.85 351.303L244.941 350.235L244.486 349.345ZM270.847 335.875L271.302 336.766L273.045 335.875L271.302 334.985L270.847 335.875ZM244.486 322.406L244.941 321.515L242.85 320.447L243.528 322.694L244.486 322.406ZM288.115 349.345L287.157 349.056L286.479 351.303L288.57 350.235L288.115 349.345ZM314.476 335.875L314.931 336.766L316.674 335.875L314.931 334.985L314.476 335.875ZM288.115 322.406L288.57 321.515L286.479 320.447L287.157 322.694L288.115 322.406ZM334.555 349.345L333.598 349.056L332.92 351.303L335.01 350.235L334.555 349.345ZM360.917 335.875L361.372 336.766L363.115 335.875L361.372 334.985L360.917 335.875ZM334.555 322.406L335.01 321.515L332.92 320.447L333.598 322.694L334.555 322.406ZM0.00724617 303.162L-0.950134 302.873L-1.62816 305.121L0.462247 304.052L0.00724617 303.162ZM26.3688 289.692L26.8238 290.583L28.5668 289.692L26.8237 288.802L26.3688 289.692ZM0 276.223L0.454902 275.332L-1.63705 274.264L-0.957206 276.512L0 276.223ZM48.5928 303.162L47.6354 302.873L46.9574 305.121L49.0478 304.052L48.5928 303.162ZM74.9543 289.692L75.4093 290.583L77.1521 289.692L75.4093 288.802L74.9543 289.692ZM48.5928 276.223L49.0478 275.332L46.9556 274.263L47.6356 276.512L48.5928 276.223ZM91.722 303.162L90.7646 302.873L90.0866 305.121L92.177 304.052L91.722 303.162ZM118.084 289.692L118.539 290.583L120.281 289.692L118.539 288.802L118.084 289.692ZM91.722 276.223L92.177 275.332L90.0848 274.263L90.7648 276.512L91.722 276.223ZM134.844 303.162L133.887 302.873L133.208 305.121L135.299 304.052L134.844 303.162ZM161.205 289.692L161.66 290.583L163.403 289.692L161.66 288.802L161.205 289.692ZM134.844 276.223L135.299 275.332L133.207 274.263L133.887 276.512L134.844 276.223ZM177.973 303.162L177.016 302.873L176.338 305.121L178.428 304.052L177.973 303.162ZM204.335 289.692L204.79 290.583L206.532 289.692L204.79 288.802L204.335 289.692ZM177.973 276.223L178.428 275.332L176.336 274.263L177.016 276.512L177.973 276.223ZM224.747 303.162L223.79 302.873L223.112 305.121L225.202 304.052L224.747 303.162ZM251.109 289.692L251.564 290.583L253.306 289.692L251.564 288.802L251.109 289.692ZM224.747 276.223L225.202 275.332L223.11 274.263L223.79 276.512L224.747 276.223ZM267.876 303.162L266.919 302.873L266.241 305.121L268.331 304.052L267.876 303.162ZM294.238 289.692L294.693 290.583L296.436 289.692L294.693 288.802L294.238 289.692ZM267.876 276.223L268.331 275.332L266.239 274.263L266.919 276.512L267.876 276.223ZM312.331 303.162L311.374 302.873L310.696 305.121L312.786 304.052L312.331 303.162ZM338.693 289.692L339.148 290.583L340.891 289.692L339.148 288.802L338.693 289.692ZM312.331 276.223L312.786 275.332L310.694 274.263L311.374 276.512L312.331 276.223ZM355.461 303.162L354.503 302.873L353.825 305.121L355.916 304.052L355.461 303.162ZM381.822 289.692L382.277 290.583L384.02 289.692L382.277 288.802L381.822 289.692ZM355.461 276.223L355.916 275.332L353.823 274.263L354.503 276.512L355.461 276.223ZM22.2312 256.979L21.2739 256.69L20.5958 258.938L22.6862 257.87L22.2312 256.979ZM48.5928 243.51L49.0478 244.4L50.7906 243.51L49.0478 242.619L48.5928 243.51ZM22.2312 230.04L22.6862 229.149L20.5958 228.081L21.2739 230.329L22.2312 230.04ZM70.8168 256.979L69.8594 256.69L69.1814 258.938L71.2718 257.87L70.8168 256.979ZM97.1783 243.51L97.6333 244.4L99.3761 243.51L97.6333 242.619L97.1783 243.51ZM70.8168 230.04L71.2718 229.149L69.1814 228.081L69.8594 230.329L70.8168 230.04ZM114.605 256.979L113.648 256.689L112.966 258.94L115.06 257.87L114.605 256.979ZM140.967 243.51L141.422 244.4L143.165 243.51L141.422 242.619L140.967 243.51ZM114.605 230.04L115.06 229.149L112.97 228.081L113.648 230.329L114.605 230.04ZM157.075 256.979L156.118 256.69L155.44 258.938L157.53 257.87L157.075 256.979ZM183.437 243.51L183.892 244.4L185.634 243.51L183.892 242.619L183.437 243.51ZM157.075 230.04L157.53 229.149L155.44 228.081L156.118 230.329L157.075 230.04ZM200.864 256.979L199.906 256.69L199.228 258.938L201.319 257.87L200.864 256.979ZM227.225 243.51L227.68 244.4L229.423 243.51L227.68 242.619L227.225 243.51ZM200.864 230.04L201.319 229.149L199.228 228.081L199.906 230.329L200.864 230.04ZM246.971 256.979L246.014 256.689L245.331 258.94L247.426 257.87L246.971 256.979ZM273.333 243.51L273.788 244.4L275.53 243.51L273.788 242.619L273.333 243.51ZM246.971 230.04L247.426 229.149L245.336 228.081L246.014 230.329L246.971 230.04ZM290.76 256.979L289.803 256.689L289.12 258.94L291.215 257.87L290.76 256.979ZM317.121 243.51L317.576 244.4L319.319 243.51L317.576 242.619L317.121 243.51ZM290.76 230.04L291.215 229.149L289.124 228.081L289.802 230.329L290.76 230.04ZM334.555 256.979L333.598 256.69L332.92 258.938L335.01 257.87L334.555 256.979ZM360.917 243.51L361.372 244.4L363.115 243.51L361.372 242.619L360.917 243.51ZM334.555 230.04L335.01 229.149L332.92 228.081L333.598 230.329L334.555 230.04ZM378.351 256.979L377.394 256.69L376.716 258.938L378.806 257.87L378.351 256.979ZM404.713 243.51L405.168 244.4L406.911 243.51L405.168 242.619L404.713 243.51ZM378.351 230.04L378.806 229.149L376.716 228.081L377.394 230.329L378.351 230.04ZM0.00724617 210.796L-0.950134 210.507L-1.62816 212.755L0.462248 211.687L0.00724617 210.796ZM26.3688 197.327L26.8238 198.217L28.5668 197.327L26.8237 196.436L26.3688 197.327ZM0 183.857L0.454903 182.967L-1.6353 181.899L-0.95738 184.146L0 183.857ZM48.5928 210.796L47.6354 210.507L46.9574 212.755L49.0478 211.687L48.5928 210.796ZM74.9543 197.327L75.4093 198.217L77.1521 197.327L75.4093 196.436L74.9543 197.327ZM48.5928 183.857L49.0478 182.967L46.9574 181.898L47.6354 184.146L48.5928 183.857ZM91.722 210.796L90.7646 210.507L90.0866 212.755L92.177 211.687L91.722 210.796ZM118.084 197.327L118.539 198.217L120.281 197.327L118.539 196.436L118.084 197.327ZM91.722 183.857L92.177 182.967L90.0866 181.898L90.7646 184.146L91.722 183.857ZM134.844 210.796L133.887 210.507L133.208 212.755L135.299 211.687L134.844 210.796ZM161.205 197.327L161.66 198.217L163.403 197.327L161.66 196.436L161.205 197.327ZM134.844 183.857L135.299 182.967L133.208 181.898L133.887 184.146L134.844 183.857ZM177.973 210.796L177.016 210.507L176.338 212.755L178.428 211.687L177.973 210.796ZM204.335 197.327L204.79 198.217L206.532 197.327L204.79 196.436L204.335 197.327ZM177.973 183.857L178.428 182.967L176.338 181.898L177.016 184.146L177.973 183.857ZM224.747 210.796L223.79 210.507L223.112 212.755L225.202 211.687L224.747 210.796ZM251.109 197.327L251.564 198.217L253.306 197.327L251.564 196.436L251.109 197.327ZM224.747 183.857L225.202 182.967L223.112 181.898L223.79 184.146L224.747 183.857ZM267.876 210.796L266.919 210.507L266.241 212.755L268.331 211.687L267.876 210.796ZM294.238 197.327L294.693 198.217L296.436 197.327L294.693 196.436L294.238 197.327ZM267.876 183.857L268.331 182.967L266.241 181.898L266.919 184.146L267.876 183.857ZM312.331 210.796L311.374 210.507L310.696 212.755L312.786 211.687L312.331 210.796ZM338.693 197.327L339.148 198.217L340.891 197.327L339.148 196.436L338.693 197.327ZM312.331 183.857L312.786 182.967L310.696 181.898L311.374 184.146L312.331 183.857ZM355.461 210.796L354.503 210.507L353.825 212.755L355.916 211.687L355.461 210.796ZM381.822 197.327L382.277 198.217L384.02 197.327L382.277 196.436L381.822 197.327ZM355.461 183.857L355.916 182.967L353.825 181.898L354.503 184.146L355.461 183.857ZM244.486 166.814L243.528 166.525L242.85 168.772L244.941 167.704L244.486 166.814ZM270.847 153.344L271.302 154.234L273.045 153.344L271.302 152.453L270.847 153.344ZM244.486 139.874L244.941 138.984L242.85 137.916L243.528 140.163L244.486 139.874ZM288.115 166.814L287.157 166.525L286.479 168.772L288.57 167.704L288.115 166.814ZM314.476 153.344L314.931 154.234L316.674 153.344L314.931 152.453L314.476 153.344ZM288.115 139.874L288.57 138.984L286.479 137.916L287.157 140.163L288.115 139.874ZM334.555 166.814L333.598 166.525L332.92 168.772L335.01 167.704L334.555 166.814ZM360.917 153.344L361.372 154.234L363.115 153.344L361.372 152.453L360.917 153.344ZM334.555 139.874L335.01 138.984L332.92 137.916L333.598 140.163L334.555 139.874ZM221.102 118.421L220.145 118.132L219.467 120.38L221.557 119.311L221.102 118.421ZM247.464 104.951L247.919 105.842L249.662 104.951L247.919 104.061L247.464 104.951ZM221.102 91.4818L221.557 90.5913L219.467 89.5232L220.145 91.7706L221.102 91.4818ZM266.717 118.421L265.759 118.132L265.081 120.38L267.172 119.311L266.717 118.421ZM293.078 104.951L293.533 105.842L295.276 104.951L293.533 104.061L293.078 104.951ZM266.717 91.4818L267.172 90.5913L265.081 89.5232L265.759 91.7706L266.717 91.4818ZM312.331 118.421L311.374 118.132L310.696 120.38L312.786 119.311L312.331 118.421ZM338.693 104.951L339.148 105.842L340.891 104.951L339.148 104.061L338.693 104.951ZM312.331 91.4818L312.786 90.5913L310.696 89.5232L311.374 91.7706L312.331 91.4818ZM197.052 72.6801L196.095 72.3898L195.412 74.6409L197.507 73.5706L197.052 72.6801ZM223.414 59.2105L223.869 60.101L225.612 59.2105L223.869 58.32L223.414 59.2105ZM197.052 45.7409L197.507 44.8504L195.417 43.7823L196.095 46.0297L197.052 45.7409ZM241.515 72.6801L240.557 72.3913L239.879 74.6387L241.97 73.5706L241.515 72.6801ZM267.876 59.2105L268.331 60.101L270.074 59.2105L268.331 58.32L267.876 59.2105ZM241.515 45.7409L241.97 44.8504L239.879 43.7823L240.557 46.0297L241.515 45.7409ZM288.115 72.6801L287.157 72.3913L286.479 74.6387L288.57 73.5706L288.115 72.6801ZM314.476 59.2105L314.931 60.101L316.674 59.2105L314.931 58.32L314.476 59.2105ZM288.115 45.7409L288.57 44.8504L286.479 43.7823L287.157 46.0297L288.115 45.7409ZM171.183 26.9392L170.226 26.6504L169.548 28.8978L171.638 27.8297L171.183 26.9392ZM197.545 13.4696L198 14.3601L199.743 13.4696L198 12.5791L197.545 13.4696ZM171.183 0L171.638 -0.890491L169.546 -1.95949L170.226 0.289409L171.183 0ZM215.639 26.9392L214.681 26.6504L214.003 28.8978L216.094 27.8297L215.639 26.9392ZM242 13.4696L242.455 14.3601L244.198 13.4696L242.455 12.5791L242 13.4696ZM215.639 0L216.094 -0.890491L214.001 -1.95949L214.681 0.289409L215.639 0ZM262.239 26.9392L261.281 26.6504L260.603 28.8978L262.694 27.8297L262.239 26.9392ZM288.6 13.4696L289.055 14.3601L290.798 13.4695L289.055 12.5791L288.6 13.4696ZM262.231 0L262.686 -0.890541L260.594 -1.95914L261.274 0.289409L262.231 0ZM199.03 428.25H198.03C198.03 432.795 197.406 437.107 196.095 441.43L197.052 441.72L198.009 442.01C199.379 437.494 200.03 432.987 200.03 428.25H199.03ZM197.052 441.72L197.507 442.611L223.869 429.141L223.414 428.25L222.959 427.36L196.597 440.83L197.052 441.72ZM223.414 428.25L223.869 427.36L197.507 413.89L197.052 414.781L196.597 415.671L222.959 429.141L223.414 428.25ZM197.052 414.781L196.095 415.07C197.4 419.394 198.03 423.707 198.03 428.25H199.03H200.03C200.03 423.513 199.371 419.006 198.01 414.492L197.052 414.781ZM243.486 428.25H242.486C242.486 432.795 241.862 437.108 240.557 441.431L241.515 441.72L242.472 442.009C243.834 437.494 244.486 432.987 244.486 428.25H243.486ZM241.515 441.72L241.97 442.611L268.331 429.141L267.876 428.25L267.421 427.36L241.06 440.83L241.515 441.72ZM267.876 428.25L268.331 427.36L241.97 413.89L241.515 414.781L241.06 415.671L267.421 429.141L267.876 428.25ZM241.515 414.781L240.557 415.07C241.862 419.393 242.486 423.706 242.486 428.25H243.486H244.486C244.486 423.514 243.834 419.007 242.472 414.492L241.515 414.781ZM290.086 428.25H289.086C289.086 432.795 288.462 437.108 287.157 441.431L288.115 441.72L289.072 442.009C290.434 437.494 291.086 432.987 291.086 428.25H290.086ZM288.115 441.72L288.57 442.611L314.931 429.141L314.476 428.25L314.021 427.36L287.66 440.83L288.115 441.72ZM314.476 428.25L314.931 427.36L288.57 413.89L288.115 414.781L287.66 415.671L314.021 429.141L314.476 428.25ZM288.115 414.781L287.157 415.07C288.462 419.393 289.086 423.706 289.086 428.25H290.086H291.086C291.086 423.514 290.434 419.007 289.072 414.492L288.115 414.781ZM223.073 382.068H222.073C222.073 386.612 221.449 390.925 220.145 395.248L221.102 395.537L222.06 395.826C223.422 391.311 224.073 386.804 224.073 382.068H223.073ZM221.102 395.537L221.557 396.428L247.919 382.958L247.464 382.068L247.009 381.177L220.647 394.647L221.102 395.537ZM247.464 382.068L247.919 381.177L221.557 367.708L221.102 368.598L220.647 369.489L247.009 382.958L247.464 382.068ZM221.102 368.598L220.145 368.887C221.449 373.211 222.073 377.523 222.073 382.068H223.073H224.073C224.073 377.332 223.422 372.824 222.06 368.309L221.102 368.598ZM268.688 382.068H267.688C267.688 386.612 267.064 390.925 265.759 395.248L266.717 395.537L267.674 395.826C269.036 391.311 269.688 386.804 269.688 382.068H268.688ZM266.717 395.537L267.172 396.428L293.533 382.958L293.078 382.068L292.623 381.177L266.262 394.647L266.717 395.537ZM293.078 382.068L293.533 381.177L267.172 367.708L266.717 368.598L266.262 369.489L292.623 382.958L293.078 382.068ZM266.717 368.598L265.759 368.887C267.064 373.211 267.688 377.523 267.688 382.068H268.688H269.688C269.688 377.332 269.036 372.824 267.674 368.309L266.717 368.598ZM314.302 382.068H313.302C313.302 386.612 312.678 390.925 311.374 395.248L312.331 395.537L313.289 395.826C314.651 391.311 315.302 386.804 315.302 382.068H314.302ZM312.331 395.537L312.786 396.428L339.148 382.958L338.693 382.068L338.238 381.177L311.876 394.647L312.331 395.537ZM338.693 382.068L339.148 381.177L312.786 367.708L312.331 368.598L311.876 369.489L338.238 382.958L338.693 382.068ZM312.331 368.598L311.374 368.887C312.678 373.211 313.302 377.523 313.302 382.068H314.302H315.302C315.302 377.332 314.651 372.824 313.289 368.309L312.331 368.598ZM246.457 335.875H245.457C245.457 340.42 244.833 344.732 243.528 349.056L244.486 349.345L245.443 349.634C246.805 345.118 247.457 340.611 247.457 335.875H246.457ZM244.486 349.345L244.941 350.235L271.302 336.766L270.847 335.875L270.392 334.985L244.031 348.454L244.486 349.345ZM270.847 335.875L271.302 334.985L244.941 321.515L244.486 322.406L244.031 323.296L270.392 336.766L270.847 335.875ZM244.486 322.406L243.528 322.694C244.833 327.018 245.457 331.33 245.457 335.875H246.457H247.457C247.457 331.139 246.805 326.632 245.443 322.117L244.486 322.406ZM290.086 335.875H289.086C289.086 340.42 288.462 344.732 287.157 349.056L288.115 349.345L289.072 349.634C290.434 345.118 291.086 340.611 291.086 335.875H290.086ZM288.115 349.345L288.57 350.235L314.931 336.766L314.476 335.875L314.021 334.985L287.66 348.454L288.115 349.345ZM314.476 335.875L314.931 334.985L288.57 321.515L288.115 322.406L287.66 323.296L314.021 336.766L314.476 335.875ZM288.115 322.406L287.157 322.694C288.462 327.018 289.086 331.33 289.086 335.875H290.086H291.086C291.086 331.139 290.434 326.632 289.072 322.117L288.115 322.406ZM336.526 335.875H335.526C335.526 340.42 334.902 344.732 333.598 349.056L334.555 349.345L335.513 349.634C336.875 345.118 337.526 340.611 337.526 335.875H336.526ZM334.555 349.345L335.01 350.235L361.372 336.766L360.917 335.875L360.462 334.985L334.1 348.454L334.555 349.345ZM360.917 335.875L361.372 334.985L335.01 321.515L334.555 322.406L334.1 323.296L360.462 336.766L360.917 335.875ZM334.555 322.406L333.598 322.694C334.902 327.018 335.526 331.33 335.526 335.875H336.526H337.526C337.526 331.139 336.875 326.632 335.513 322.117L334.555 322.406ZM1.9782 289.692H0.978203C0.978203 294.237 0.354271 298.549 -0.950134 302.873L0.00724617 303.162L0.964626 303.451C2.32681 298.936 2.9782 294.428 2.9782 289.692H1.9782ZM0.00724617 303.162L0.462247 304.052L26.8238 290.583L26.3688 289.692L25.9138 288.802L-0.447755 302.271L0.00724617 303.162ZM26.3688 289.692L26.8237 288.802L0.454902 275.332L0 276.223L-0.454902 277.113L25.9139 290.583L26.3688 289.692ZM0 276.223L-0.957206 276.512C0.347244 280.827 0.978203 285.148 0.978203 289.692H1.9782H2.9782C2.9782 284.956 2.31935 280.439 0.957206 275.933L0 276.223ZM50.5637 289.692H49.5637C49.5637 294.237 48.9398 298.549 47.6354 302.873L48.5928 303.162L49.5502 303.451C50.9123 298.936 51.5637 294.428 51.5637 289.692H50.5637ZM48.5928 303.162L49.0478 304.052L75.4093 290.583L74.9543 289.692L74.4993 288.802L48.1378 302.271L48.5928 303.162ZM74.9543 289.692L75.4093 288.802L49.0478 275.332L48.5928 276.223L48.1378 277.113L74.4993 290.583L74.9543 289.692ZM48.5928 276.223L47.6356 276.512C48.9397 280.826 49.5637 285.147 49.5637 289.692H50.5637H51.5637C51.5637 284.957 50.9124 280.44 49.55 275.933L48.5928 276.223ZM93.6929 289.692H92.6929C92.6929 294.237 92.069 298.549 90.7646 302.873L91.722 303.162L92.6793 303.451C94.0415 298.936 94.6929 294.428 94.6929 289.692H93.6929ZM91.722 303.162L92.177 304.052L118.539 290.583L118.084 289.692L117.629 288.802L91.267 302.271L91.722 303.162ZM118.084 289.692L118.539 288.802L92.177 275.332L91.722 276.223L91.267 277.113L117.629 290.583L118.084 289.692ZM91.722 276.223L90.7648 276.512C92.0689 280.826 92.6929 285.147 92.6929 289.692H93.6929H94.6929C94.6929 284.957 94.0416 280.44 92.6792 275.933L91.722 276.223ZM136.815 289.692H135.815C135.815 294.237 135.191 298.549 133.887 302.873L134.844 303.162L135.801 303.451C137.163 298.936 137.815 294.428 137.815 289.692H136.815ZM134.844 303.162L135.299 304.052L161.66 290.583L161.205 289.692L160.75 288.802L134.389 302.271L134.844 303.162ZM161.205 289.692L161.66 288.802L135.299 275.332L134.844 276.223L134.389 277.113L160.75 290.583L161.205 289.692ZM134.844 276.223L133.887 276.512C135.191 280.826 135.815 285.147 135.815 289.692H136.815H137.815C137.815 284.957 137.164 280.44 135.801 275.933L134.844 276.223ZM179.944 289.692H178.944C178.944 294.237 178.32 298.549 177.016 302.873L177.973 303.162L178.93 303.451C180.293 298.936 180.944 294.428 180.944 289.692H179.944ZM177.973 303.162L178.428 304.052L204.79 290.583L204.335 289.692L203.88 288.802L177.518 302.271L177.973 303.162ZM204.335 289.692L204.79 288.802L178.428 275.332L177.973 276.223L177.518 277.113L203.88 290.583L204.335 289.692ZM177.973 276.223L177.016 276.512C178.32 280.826 178.944 285.147 178.944 289.692H179.944H180.944C180.944 284.957 180.293 280.44 178.93 275.933L177.973 276.223ZM226.718 289.692H225.718C225.718 294.237 225.094 298.549 223.79 302.873L224.747 303.162L225.704 303.451C227.067 298.936 227.718 294.428 227.718 289.692H226.718ZM224.747 303.162L225.202 304.052L251.564 290.583L251.109 289.692L250.654 288.802L224.292 302.271L224.747 303.162ZM251.109 289.692L251.564 288.802L225.202 275.332L224.747 276.223L224.292 277.113L250.654 290.583L251.109 289.692ZM224.747 276.223L223.79 276.512C225.094 280.826 225.718 285.147 225.718 289.692H226.718H227.718C227.718 284.957 227.067 280.44 225.704 275.933L224.747 276.223ZM269.847 289.692H268.847C268.847 294.237 268.223 298.549 266.919 302.873L267.876 303.162L268.834 303.451C270.196 298.936 270.847 294.428 270.847 289.692H269.847ZM267.876 303.162L268.331 304.052L294.693 290.583L294.238 289.692L293.783 288.802L267.421 302.271L267.876 303.162ZM294.238 289.692L294.693 288.802L268.331 275.332L267.876 276.223L267.421 277.113L293.783 290.583L294.238 289.692ZM267.876 276.223L266.919 276.512C268.223 280.826 268.847 285.147 268.847 289.692H269.847H270.847C270.847 284.957 270.196 280.44 268.833 275.933L267.876 276.223ZM314.302 289.692H313.302C313.302 294.237 312.678 298.549 311.374 302.873L312.331 303.162L313.289 303.451C314.651 298.936 315.302 294.428 315.302 289.692H314.302ZM312.331 303.162L312.786 304.052L339.148 290.583L338.693 289.692L338.238 288.802L311.876 302.271L312.331 303.162ZM338.693 289.692L339.148 288.802L312.786 275.332L312.331 276.223L311.876 277.113L338.238 290.583L338.693 289.692ZM312.331 276.223L311.374 276.512C312.678 280.826 313.302 285.147 313.302 289.692H314.302H315.302C315.302 284.957 314.651 280.44 313.289 275.933L312.331 276.223ZM357.432 289.692H356.432C356.432 294.237 355.808 298.549 354.503 302.873L355.461 303.162L356.418 303.451C357.78 298.936 358.432 294.428 358.432 289.692H357.432ZM355.461 303.162L355.916 304.052L382.277 290.583L381.822 289.692L381.367 288.802L355.006 302.271L355.461 303.162ZM381.822 289.692L382.277 288.802L355.916 275.332L355.461 276.223L355.006 277.113L381.367 290.583L381.822 289.692ZM355.461 276.223L354.503 276.512C355.808 280.826 356.432 285.147 356.432 289.692H357.432H358.432C358.432 284.957 357.78 280.44 356.418 275.933L355.461 276.223ZM24.2022 243.51H23.2022C23.2022 248.054 22.5783 252.367 21.2739 256.69L22.2312 256.979L23.1886 257.268C24.5508 252.753 25.2022 248.246 25.2022 243.51H24.2022ZM22.2312 256.979L22.6862 257.87L49.0478 244.4L48.5928 243.51L48.1378 242.619L21.7762 256.089L22.2312 256.979ZM48.5928 243.51L49.0478 242.619L22.6862 229.149L22.2312 230.04L21.7762 230.93L48.1378 244.4L48.5928 243.51ZM22.2312 230.04L21.2739 230.329C22.5783 234.652 23.2022 238.965 23.2022 243.51H24.2022H25.2022C25.2022 238.773 24.5508 234.266 23.1886 229.751L22.2312 230.04ZM72.7877 243.51H71.7877C71.7877 248.054 71.1638 252.367 69.8594 256.69L70.8168 256.979L71.7742 257.268C73.1363 252.753 73.7877 248.246 73.7877 243.51H72.7877ZM70.8168 256.979L71.2718 257.87L97.6333 244.4L97.1783 243.51L96.7233 242.619L70.3618 256.089L70.8168 256.979ZM97.1783 243.51L97.6333 242.619L71.2718 229.149L70.8168 230.04L70.3618 230.93L96.7233 244.4L97.1783 243.51ZM70.8168 230.04L69.8594 230.329C71.1638 234.652 71.7877 238.965 71.7877 243.51H72.7877H73.7877C73.7877 238.773 73.1363 234.266 71.7742 229.751L70.8168 230.04ZM116.584 243.51H115.584C115.584 248.054 114.96 252.366 113.648 256.689L114.605 256.979L115.562 257.269C116.932 252.753 117.584 248.246 117.584 243.51H116.584ZM114.605 256.979L115.06 257.87L141.422 244.4L140.967 243.51L140.512 242.619L114.15 256.089L114.605 256.979ZM140.967 243.51L141.422 242.619L115.06 229.149L114.605 230.04L114.15 230.93L140.512 244.4L140.967 243.51ZM114.605 230.04L113.648 230.329C114.953 234.653 115.584 238.966 115.584 243.51H116.584H117.584C117.584 238.772 116.925 234.265 115.563 229.751L114.605 230.04ZM159.046 243.51H158.046C158.046 248.054 157.422 252.367 156.118 256.69L157.075 256.979L158.033 257.268C159.395 252.753 160.046 248.246 160.046 243.51H159.046ZM157.075 256.979L157.53 257.87L183.892 244.4L183.437 243.51L182.982 242.619L156.62 256.089L157.075 256.979ZM183.437 243.51L183.892 242.619L157.53 229.149L157.075 230.04L156.62 230.93L182.982 244.4L183.437 243.51ZM157.075 230.04L156.118 230.329C157.422 234.652 158.046 238.965 158.046 243.51H159.046H160.046C160.046 238.773 159.395 234.266 158.033 229.751L157.075 230.04ZM202.835 243.51H201.835C201.835 248.054 201.211 252.367 199.906 256.69L200.864 256.979L201.821 257.268C203.183 252.753 203.835 248.246 203.835 243.51H202.835ZM200.864 256.979L201.319 257.87L227.68 244.4L227.225 243.51L226.77 242.619L200.409 256.089L200.864 256.979ZM227.225 243.51L227.68 242.619L201.319 229.149L200.864 230.04L200.409 230.93L226.77 244.4L227.225 243.51ZM200.864 230.04L199.906 230.329C201.211 234.652 201.835 238.965 201.835 243.51H202.835H203.835C203.835 238.773 203.183 234.266 201.821 229.751L200.864 230.04ZM248.949 243.51H247.949C247.949 248.054 247.325 252.366 246.014 256.689L246.971 256.979L247.928 257.269C249.298 252.753 249.949 248.246 249.949 243.51H248.949ZM246.971 256.979L247.426 257.87L273.788 244.4L273.333 243.51L272.878 242.619L246.516 256.089L246.971 256.979ZM273.333 243.51L273.788 242.619L247.426 229.149L246.971 230.04L246.516 230.93L272.878 244.4L273.333 243.51ZM246.971 230.04L246.014 230.329C247.318 234.653 247.949 238.966 247.949 243.51H248.949H249.949C249.949 238.772 249.29 234.265 247.928 229.751L246.971 230.04ZM292.738 243.51H291.738C291.738 248.054 291.114 252.366 289.803 256.689L290.76 256.979L291.717 257.269C293.086 252.753 293.738 248.246 293.738 243.51H292.738ZM290.76 256.979L291.215 257.87L317.576 244.4L317.121 243.51L316.666 242.619L290.305 256.089L290.76 256.979ZM317.121 243.51L317.576 242.619L291.215 229.149L290.76 230.04L290.305 230.93L316.666 244.4L317.121 243.51ZM290.76 230.04L289.802 230.329C291.107 234.653 291.738 238.966 291.738 243.51H292.738H293.738C293.738 238.772 293.079 234.265 291.717 229.751L290.76 230.04ZM336.526 243.51H335.526C335.526 248.054 334.902 252.367 333.598 256.69L334.555 256.979L335.513 257.268C336.875 252.753 337.526 248.246 337.526 243.51H336.526ZM334.555 256.979L335.01 257.87L361.372 244.4L360.917 243.51L360.462 242.619L334.1 256.089L334.555 256.979ZM360.917 243.51L361.372 242.619L335.01 229.149L334.555 230.04L334.1 230.93L360.462 244.4L360.917 243.51ZM334.555 230.04L333.598 230.329C334.902 234.652 335.526 238.965 335.526 243.51H336.526H337.526C337.526 238.773 336.875 234.266 335.513 229.751L334.555 230.04ZM380.322 243.51H379.322C379.322 248.054 378.698 252.367 377.394 256.69L378.351 256.979L379.309 257.268C380.671 252.753 381.322 248.246 381.322 243.51H380.322ZM378.351 256.979L378.806 257.87L405.168 244.4L404.713 243.51L404.258 242.619L377.896 256.089L378.351 256.979ZM404.713 243.51L405.168 242.619L378.806 229.149L378.351 230.04L377.896 230.93L404.258 244.4L404.713 243.51ZM378.351 230.04L377.394 230.329C378.698 234.652 379.322 238.965 379.322 243.51H380.322H381.322C381.322 238.773 380.671 234.266 379.309 229.751L378.351 230.04ZM1.9782 197.327H0.978203C0.978203 201.871 0.354271 206.184 -0.950134 210.507L0.00724617 210.796L0.964626 211.085C2.32681 206.57 2.9782 202.063 2.9782 197.327H1.9782ZM0.00724617 210.796L0.462248 211.687L26.8238 198.217L26.3688 197.327L25.9138 196.436L-0.447756 209.906L0.00724617 210.796ZM26.3688 197.327L26.8237 196.436L0.454903 182.967L0 183.857L-0.454903 184.748L25.9139 198.217L26.3688 197.327ZM0 183.857L-0.95738 184.146C0.347331 188.471 0.978203 192.783 0.978203 197.327H1.9782H2.9782C2.9782 192.59 2.31926 188.082 0.95738 183.568L0 183.857ZM50.5637 197.327H49.5637C49.5637 201.871 48.9398 206.184 47.6354 210.507L48.5928 210.796L49.5502 211.085C50.9123 206.57 51.5637 202.063 51.5637 197.327H50.5637ZM48.5928 210.796L49.0478 211.687L75.4093 198.217L74.9543 197.327L74.4993 196.436L48.1378 209.906L48.5928 210.796ZM74.9543 197.327L75.4093 196.436L49.0478 182.967L48.5928 183.857L48.1378 184.748L74.4993 198.217L74.9543 197.327ZM48.5928 183.857L47.6354 184.146C48.9398 188.47 49.5637 192.782 49.5637 197.327H50.5637H51.5637C51.5637 192.591 50.9123 188.083 49.5502 183.568L48.5928 183.857ZM93.6929 197.327H92.6929C92.6929 201.871 92.069 206.184 90.7646 210.507L91.722 210.796L92.6793 211.085C94.0415 206.57 94.6929 202.063 94.6929 197.327H93.6929ZM91.722 210.796L92.177 211.687L118.539 198.217L118.084 197.327L117.629 196.436L91.267 209.906L91.722 210.796ZM118.084 197.327L118.539 196.436L92.177 182.967L91.722 183.857L91.267 184.748L117.629 198.217L118.084 197.327ZM91.722 183.857L90.7646 184.146C92.069 188.47 92.6929 192.782 92.6929 197.327H93.6929H94.6929C94.6929 192.591 94.0415 188.083 92.6793 183.568L91.722 183.857ZM136.815 197.327H135.815C135.815 201.871 135.191 206.184 133.887 210.507L134.844 210.796L135.801 211.085C137.163 206.57 137.815 202.063 137.815 197.327H136.815ZM134.844 210.796L135.299 211.687L161.66 198.217L161.205 197.327L160.75 196.436L134.389 209.906L134.844 210.796ZM161.205 197.327L161.66 196.436L135.299 182.967L134.844 183.857L134.389 184.748L160.75 198.217L161.205 197.327ZM134.844 183.857L133.887 184.146C135.191 188.47 135.815 192.782 135.815 197.327H136.815H137.815C137.815 192.591 137.163 188.083 135.801 183.568L134.844 183.857ZM179.944 197.327H178.944C178.944 201.871 178.32 206.184 177.016 210.507L177.973 210.796L178.93 211.085C180.293 206.57 180.944 202.063 180.944 197.327H179.944ZM177.973 210.796L178.428 211.687L204.79 198.217L204.335 197.327L203.88 196.436L177.518 209.906L177.973 210.796ZM204.335 197.327L204.79 196.436L178.428 182.967L177.973 183.857L177.518 184.748L203.88 198.217L204.335 197.327ZM177.973 183.857L177.016 184.146C178.32 188.47 178.944 192.782 178.944 197.327H179.944H180.944C180.944 192.591 180.293 188.083 178.93 183.568L177.973 183.857ZM226.718 197.327H225.718C225.718 201.871 225.094 206.184 223.79 210.507L224.747 210.796L225.704 211.085C227.067 206.57 227.718 202.063 227.718 197.327H226.718ZM224.747 210.796L225.202 211.687L251.564 198.217L251.109 197.327L250.654 196.436L224.292 209.906L224.747 210.796ZM251.109 197.327L251.564 196.436L225.202 182.967L224.747 183.857L224.292 184.748L250.654 198.217L251.109 197.327ZM224.747 183.857L223.79 184.146C225.094 188.47 225.718 192.782 225.718 197.327H226.718H227.718C227.718 192.591 227.067 188.083 225.704 183.568L224.747 183.857ZM269.847 197.327H268.847C268.847 201.871 268.223 206.184 266.919 210.507L267.876 210.796L268.834 211.085C270.196 206.57 270.847 202.063 270.847 197.327H269.847ZM267.876 210.796L268.331 211.687L294.693 198.217L294.238 197.327L293.783 196.436L267.421 209.906L267.876 210.796ZM294.238 197.327L294.693 196.436L268.331 182.967L267.876 183.857L267.421 184.748L293.783 198.217L294.238 197.327ZM267.876 183.857L266.919 184.146C268.223 188.47 268.847 192.782 268.847 197.327H269.847H270.847C270.847 192.591 270.196 188.083 268.834 183.568L267.876 183.857ZM314.302 197.327H313.302C313.302 201.871 312.678 206.184 311.374 210.507L312.331 210.796L313.289 211.085C314.651 206.57 315.302 202.063 315.302 197.327H314.302ZM312.331 210.796L312.786 211.687L339.148 198.217L338.693 197.327L338.238 196.436L311.876 209.906L312.331 210.796ZM338.693 197.327L339.148 196.436L312.786 182.967L312.331 183.857L311.876 184.748L338.238 198.217L338.693 197.327ZM312.331 183.857L311.374 184.146C312.678 188.47 313.302 192.782 313.302 197.327H314.302H315.302C315.302 192.591 314.651 188.083 313.289 183.568L312.331 183.857ZM357.432 197.327H356.432C356.432 201.871 355.808 206.184 354.503 210.507L355.461 210.796L356.418 211.085C357.78 206.57 358.432 202.063 358.432 197.327H357.432ZM355.461 210.796L355.916 211.687L382.277 198.217L381.822 197.327L381.367 196.436L355.006 209.906L355.461 210.796ZM381.822 197.327L382.277 196.436L355.916 182.967L355.461 183.857L355.006 184.748L381.367 198.217L381.822 197.327ZM355.461 183.857L354.503 184.146C355.808 188.47 356.432 192.782 356.432 197.327H357.432H358.432C358.432 192.591 357.78 188.083 356.418 183.568L355.461 183.857ZM246.457 153.344H245.457C245.457 157.889 244.833 162.201 243.528 166.525L244.486 166.814L245.443 167.102C246.805 162.587 247.457 158.08 247.457 153.344H246.457ZM244.486 166.814L244.941 167.704L271.302 154.234L270.847 153.344L270.392 152.453L244.031 165.923L244.486 166.814ZM270.847 153.344L271.302 152.453L244.941 138.984L244.486 139.874L244.031 140.765L270.392 154.234L270.847 153.344ZM244.486 139.874L243.528 140.163C244.833 144.487 245.457 148.799 245.457 153.344H246.457H247.457C247.457 148.608 246.805 144.101 245.443 139.586L244.486 139.874ZM290.086 153.344H289.086C289.086 157.889 288.462 162.201 287.157 166.525L288.115 166.814L289.072 167.102C290.434 162.587 291.086 158.08 291.086 153.344H290.086ZM288.115 166.814L288.57 167.704L314.931 154.234L314.476 153.344L314.021 152.453L287.66 165.923L288.115 166.814ZM314.476 153.344L314.931 152.453L288.57 138.984L288.115 139.874L287.66 140.765L314.021 154.234L314.476 153.344ZM288.115 139.874L287.157 140.163C288.462 144.487 289.086 148.799 289.086 153.344H290.086H291.086C291.086 148.608 290.434 144.101 289.072 139.586L288.115 139.874ZM336.526 153.344H335.526C335.526 157.889 334.902 162.201 333.598 166.525L334.555 166.814L335.513 167.102C336.875 162.587 337.526 158.08 337.526 153.344H336.526ZM334.555 166.814L335.01 167.704L361.372 154.234L360.917 153.344L360.462 152.453L334.1 165.923L334.555 166.814ZM360.917 153.344L361.372 152.453L335.01 138.984L334.555 139.874L334.1 140.765L360.462 154.234L360.917 153.344ZM334.555 139.874L333.598 140.163C334.902 144.487 335.526 148.799 335.526 153.344H336.526H337.526C337.526 148.608 336.875 144.101 335.513 139.586L334.555 139.874ZM223.073 104.951H222.073C222.073 109.496 221.449 113.809 220.145 118.132L221.102 118.421L222.06 118.71C223.422 114.195 224.073 109.687 224.073 104.951H223.073ZM221.102 118.421L221.557 119.311L247.919 105.842L247.464 104.951L247.009 104.061L220.647 117.53L221.102 118.421ZM247.464 104.951L247.919 104.061L221.557 90.5913L221.102 91.4818L220.647 92.3723L247.009 105.842L247.464 104.951ZM221.102 91.4818L220.145 91.7706C221.449 96.0943 222.073 100.407 222.073 104.951H223.073H224.073C224.073 100.215 223.422 95.7081 222.06 91.193L221.102 91.4818ZM268.688 104.951H267.688C267.688 109.496 267.064 113.809 265.759 118.132L266.717 118.421L267.674 118.71C269.036 114.195 269.688 109.687 269.688 104.951H268.688ZM266.717 118.421L267.172 119.311L293.533 105.842L293.078 104.951L292.623 104.061L266.262 117.53L266.717 118.421ZM293.078 104.951L293.533 104.061L267.172 90.5913L266.717 91.4818L266.262 92.3723L292.623 105.842L293.078 104.951ZM266.717 91.4818L265.759 91.7706C267.064 96.0943 267.688 100.407 267.688 104.951H268.688H269.688C269.688 100.215 269.036 95.7081 267.674 91.193L266.717 91.4818ZM314.302 104.951H313.302C313.302 109.496 312.678 113.809 311.374 118.132L312.331 118.421L313.289 118.71C314.651 114.195 315.302 109.687 315.302 104.951H314.302ZM312.331 118.421L312.786 119.311L339.148 105.842L338.693 104.951L338.238 104.061L311.876 117.53L312.331 118.421ZM338.693 104.951L339.148 104.061L312.786 90.5913L312.331 91.4818L311.876 92.3723L338.238 105.842L338.693 104.951ZM312.331 91.4818L311.374 91.7706C312.678 96.0943 313.302 100.407 313.302 104.951H314.302H315.302C315.302 100.215 314.651 95.7081 313.289 91.193L312.331 91.4818ZM199.03 59.2105H198.03C198.03 63.7552 197.406 68.0671 196.095 72.3898L197.052 72.6801L198.009 72.9704C199.379 68.4543 200.03 63.9465 200.03 59.2105H199.03ZM197.052 72.6801L197.507 73.5706L223.869 60.101L223.414 59.2105L222.959 58.32L196.597 71.7896L197.052 72.6801ZM223.414 59.2105L223.869 58.32L197.507 44.8504L197.052 45.7409L196.597 46.6314L222.959 60.101L223.414 59.2105ZM197.052 45.7409L196.095 46.0297C197.4 50.3544 198.03 54.6668 198.03 59.2105H199.03H200.03C200.03 54.4734 199.371 49.9662 198.01 45.4521L197.052 45.7409ZM243.486 59.2105H242.486C242.486 63.7552 241.862 68.0676 240.557 72.3913L241.515 72.6801L242.472 72.9689C243.834 68.4538 244.486 63.9465 244.486 59.2105H243.486ZM241.515 72.6801L241.97 73.5706L268.331 60.101L267.876 59.2105L267.421 58.32L241.06 71.7896L241.515 72.6801ZM267.876 59.2105L268.331 58.32L241.97 44.8504L241.515 45.7409L241.06 46.6314L267.421 60.101L267.876 59.2105ZM241.515 45.7409L240.557 46.0297C241.862 50.3534 242.486 54.6658 242.486 59.2105H243.486H244.486C244.486 54.4745 243.834 49.9672 242.472 45.4521L241.515 45.7409ZM290.086 59.2105H289.086C289.086 63.7552 288.462 68.0676 287.157 72.3913L288.115 72.6801L289.072 72.9689C290.434 68.4538 291.086 63.9465 291.086 59.2105H290.086ZM288.115 72.6801L288.57 73.5706L314.931 60.101L314.476 59.2105L314.021 58.32L287.66 71.7896L288.115 72.6801ZM314.476 59.2105L314.931 58.32L288.57 44.8504L288.115 45.7409L287.66 46.6314L314.021 60.101L314.476 59.2105ZM288.115 45.7409L287.157 46.0297C288.462 50.3534 289.086 54.6658 289.086 59.2105H290.086H291.086C291.086 54.4745 290.434 49.9672 289.072 45.4521L288.115 45.7409ZM173.154 13.4696H172.154C172.154 18.0143 171.53 22.3267 170.226 26.6504L171.183 26.9392L172.141 27.228C173.503 22.7129 174.154 18.2056 174.154 13.4696H173.154ZM171.183 26.9392L171.638 27.8297L198 14.3601L197.545 13.4696L197.09 12.5791L170.728 26.0487L171.183 26.9392ZM197.545 13.4696L198 12.5791L171.638 -0.890491L171.183 0L170.728 0.890491L197.09 14.3601L197.545 13.4696ZM171.183 0L170.226 0.289409C171.53 4.6028 172.154 8.92454 172.154 13.4696H173.154H174.154C174.154 8.73389 173.503 4.21681 172.141 -0.289409L171.183 0ZM217.61 13.4696H216.61C216.61 18.0143 215.986 22.3267 214.681 26.6504L215.639 26.9392L216.596 27.228C217.958 22.7129 218.61 18.2056 218.61 13.4696H217.61ZM215.639 26.9392L216.094 27.8297L242.455 14.3601L242 13.4696L241.545 12.5791L215.184 26.0487L215.639 26.9392ZM242 13.4696L242.455 12.5791L216.094 -0.890491L215.639 0L215.184 0.890491L241.545 14.3601L242 13.4696ZM215.639 0L214.681 0.289409C215.986 4.6028 216.61 8.92454 216.61 13.4696H217.61H218.61C218.61 8.73389 217.958 4.21681 216.596 -0.289409L215.639 0ZM264.21 13.4696H263.21C263.21 18.0143 262.586 22.3267 261.281 26.6504L262.239 26.9392L263.196 27.228C264.558 22.7129 265.21 18.2056 265.21 13.4696H264.21ZM262.239 26.9392L262.694 27.8297L289.055 14.3601L288.6 13.4696L288.145 12.5791L261.784 26.0487L262.239 26.9392ZM288.6 13.4696L289.055 12.5791L262.686 -0.890541L262.231 0L261.777 0.890541L288.145 14.3601L288.6 13.4696ZM262.231 0L261.274 0.289409C262.578 4.60279 263.202 8.92454 263.202 13.4696H264.202H265.202C265.202 8.73389 264.551 4.21681 263.189 -0.289409L262.231 0Z" fill="var(--stroke-0, #282A2F)" mask="url(#path-1-inside-1_47_2370)"/>
</g>
</svg>
