<svg preserveAspectRatio="xMidYMid meet" width="75.42" height="32" overflow="visible" style="display: block;" viewBox="0 0 75.42 32" fill="none" xmlns="http://www.w3.org/2000/svg">
<g id="Group">
<path id="Vector" d="M60.51 16.99C60.67 17.28 60.8 17.43 60.85 17.6C61.16 18.7 61.44 19.81 61.74 20.92C62.34 23.08 62.95 25.23 63.55 27.39C63.92 28.71 64.29 30.03 64.65 31.35C64.72 31.63 64.86 31.75 65.16 31.74C66.47 31.73 67.78 31.73 69.09 31.74C69.46 31.74 69.52 31.63 69.41 31.26C68.86 29.5 68.34 27.74 67.82 25.97C67.21 23.91 66.61 21.84 66 19.77C65.18 17.02 64.34 14.28 63.53 11.53C63.46 11.29 63.46 10.97 63.56 10.75C64.92 7.97 66.31 5.19 67.69 2.42C68.03 1.74 68.36 1.06 68.72 0.34C68.53 0.28 68.44 0.23 68.34 0.23C67.01 0.23 65.69 0.21 64.36 0.24C64.19 0.24 63.95 0.48 63.87 0.66C62.19 4.44 60.53 8.24 58.85 12.03C58.75 12.26 58.59 12.47 58.46 12.69C58.39 12.67 58.33 12.66 58.26 12.64C58.24 12.39 58.2 12.15 58.2 11.9C58.2 8.22 58.2 4.53 58.2 0.85C58.2 0.38 58.07 0.2 57.58 0.21C56.48 0.24 55.38 0.23 54.28 0.21C53.85 0.21 53.71 0.35 53.71 0.78C53.71 10.9 53.72 21.03 53.71 31.15C53.71 31.63 53.87 31.74 54.32 31.73C55.38 31.7 56.45 31.73 57.51 31.73C58.19 31.73 58.19 31.73 58.19 31.03C58.19 28.25 58.21 25.48 58.18 22.7C58.17 21.9 58.33 21.2 58.72 20.51C59.02 19.98 59.27 19.42 59.54 18.88C59.83 18.29 60.13 17.71 60.5 16.98L60.51 16.99Z" fill="var(--fill-0, black)"/>
<path id="Vector_2" d="M0.05 15.96C0.05 12.71 0.05 9.47 0.05 6.22C0.05 4.44 0.03 2.66 0 0.88C0 0.44 0.07 0.22 0.59 0.22C2.93 0.25 5.27 0.16 7.61 0.26C10.01 0.36 12.1 1.22 13.29 3.46C13.75 4.32 14.05 5.3 14.22 6.26C14.54 8.1 14.45 9.94 13.82 11.73C13.35 13.05 12.56 14.13 11.5 15.02C11.03 15.41 11.03 15.45 11.55 15.78C13.56 17.08 14.5 19 14.73 21.32C14.83 22.29 14.94 23.27 14.88 24.23C14.76 26.08 14.41 27.88 13.28 29.44C12.34 30.73 11.04 31.33 9.52 31.54C6.5 31.97 3.46 31.64 0.43 31.74C0.09 31.75 0.03 31.6 0.03 31.3C0.05 29.61 0.06 27.91 0.06 26.22C0.06 22.8 0.06 19.38 0.06 15.96H0.05ZM4.58 22.55C4.58 23.51 4.58 24.47 4.58 25.43C4.58 25.95 4.6 26.48 4.6 27C4.6 27.43 4.76 27.65 5.23 27.6C6.02 27.52 6.82 27.52 7.61 27.4C8.81 27.22 9.56 26.45 9.97 25.35C10.58 23.7 10.5 22 10.09 20.33C9.76 19.01 8.99 17.98 7.56 17.69C6.87 17.55 6.15 17.53 5.44 17.5C4.65 17.47 4.61 17.5 4.6 18.3C4.58 19.71 4.6 21.12 4.6 22.54L4.58 22.55ZM4.61 8.83C4.61 10.17 4.61 11.52 4.61 12.86C4.61 13.22 4.77 13.36 5.12 13.35C5.49 13.33 5.85 13.37 6.22 13.34C7.45 13.25 8.52 12.8 9.13 11.68C10.09 9.94 10.16 8.1 9.47 6.24C9.19 5.48 8.65 4.98 7.88 4.68C7 4.33 6.1 4.45 5.2 4.4C4.78 4.38 4.59 4.54 4.59 4.96C4.59 6.25 4.59 7.54 4.59 8.83H4.61Z" fill="var(--fill-0, black)"/>
<path id="Vector_3" d="M26.89 15.95C26.89 10.96 26.89 5.96 26.89 0.97C26.89 0.24 26.89 0.23 27.61 0.23C29.83 0.23 32.04 0.21 34.26 0.23C35.88 0.25 37.38 0.71 38.69 1.7C39.98 2.67 40.62 4.04 40.94 5.54C41.3 7.21 41.32 8.93 40.98 10.62C40.62 12.41 39.74 13.9 38.3 15.04C37.88 15.38 37.89 15.45 38.35 15.74C40.09 16.84 41.04 18.45 41.46 20.44C41.81 22.12 41.85 23.81 41.61 25.48C41.31 27.55 40.67 29.53 38.75 30.7C38.07 31.12 37.25 31.38 36.46 31.51C33.43 31.98 30.37 31.63 27.32 31.73C26.89 31.74 26.9 31.47 26.9 31.18C26.9 29.4 26.9 27.62 26.9 25.84C26.9 22.54 26.9 19.24 26.9 15.94L26.89 15.95ZM31.37 22.51C31.37 23.99 31.38 25.47 31.37 26.96C31.37 27.44 31.55 27.62 32.02 27.6C32.47 27.58 32.93 27.61 33.38 27.6C35.85 27.5 36.91 26.14 37.13 24C37.25 22.86 37.14 21.67 36.94 20.53C36.7 19.21 36.03 18.08 34.56 17.79C33.73 17.62 32.88 17.59 32.04 17.5C31.54 17.45 31.36 17.67 31.36 18.17C31.38 19.62 31.36 21.06 31.36 22.51H31.37ZM31.37 8.88V10.81C31.37 11.45 31.38 12.1 31.37 12.74C31.36 13.16 31.52 13.36 31.95 13.33C32.32 13.31 32.68 13.35 33.05 13.33C34.7 13.21 35.97 12.33 36.46 10.67C36.8 9.52 36.79 8.35 36.62 7.2C36.45 6.03 35.91 4.99 34.66 4.67C33.82 4.45 32.91 4.48 32.04 4.4C31.55 4.35 31.35 4.57 31.36 5.07C31.38 6.34 31.36 7.61 31.36 8.89L31.37 8.88Z" fill="var(--fill-0, black)"/>
<path id="Vector_4" d="M60.51 16.99C60.14 17.72 59.85 18.3 59.55 18.89C59.28 19.43 59.03 20 58.73 20.52C58.34 21.2 58.18 21.91 58.19 22.71C58.23 25.48 58.2 28.26 58.2 31.04C58.2 31.74 58.2 31.74 57.52 31.74C56.45 31.74 55.39 31.72 54.33 31.74C53.89 31.75 53.72 31.64 53.72 31.16C53.73 21.04 53.73 10.91 53.72 0.79C53.72 0.36 53.85 0.21 54.29 0.22C55.39 0.24 56.49 0.25 57.59 0.22C58.08 0.21 58.21 0.39 58.21 0.86C58.19 4.54 58.2 8.23 58.21 11.91C58.21 12.16 58.25 12.4 58.27 12.65C58.34 12.67 58.4 12.68 58.47 12.7C58.6 12.48 58.75 12.27 58.86 12.04C60.53 8.25 62.19 4.46 63.88 0.67C63.96 0.49 64.2 0.25 64.37 0.25C65.7 0.22 67.02 0.23 68.35 0.24C68.45 0.24 68.54 0.29 68.73 0.35C68.37 1.07 68.04 1.75 67.7 2.43C66.32 5.21 64.93 7.98 63.57 10.76C63.46 10.98 63.47 11.3 63.54 11.54C64.35 14.29 65.19 17.03 66.01 19.78C66.63 21.84 67.22 23.91 67.83 25.98C68.35 27.75 68.87 29.51 69.42 31.27C69.53 31.63 69.47 31.75 69.1 31.75C67.79 31.75 66.48 31.75 65.17 31.75C64.87 31.75 64.74 31.63 64.66 31.36C64.3 30.04 63.93 28.72 63.56 27.4C62.96 25.24 62.35 23.09 61.75 20.93C61.44 19.83 61.16 18.72 60.86 17.61C60.81 17.44 60.68 17.28 60.52 17L60.51 16.99Z" fill="var(--fill-0, black)"/>
<path id="Vector_5" d="M20.96 0H20.17V32H20.96V0Z" fill="var(--fill-0, black)"/>
<path id="Vector_6" d="M47.95 0H47.16V32H47.95V0Z" fill="var(--fill-0, black)"/>
<g id="Group_2">
<path id="Vector_7" d="M73.38 2.12V2.91H73.04V1.08H73.69C73.99 1.08 74.21 1.18 74.21 1.52C74.21 1.72 74.16 1.93 73.93 1.96C74.13 1.99 74.19 2.12 74.19 2.3C74.19 2.38 74.19 2.82 74.26 2.88V2.91H73.88C73.84 2.79 73.85 2.57 73.84 2.45C73.84 2.34 73.84 2.18 73.72 2.15C73.63 2.12 73.53 2.13 73.43 2.13H73.37L73.38 2.12ZM73.38 1.85H73.65C73.76 1.85 73.85 1.77 73.85 1.59C73.85 1.38 73.76 1.35 73.64 1.35H73.39V1.85H73.38Z" fill="var(--fill-0, black)"/>
<path id="Vector_8" d="M73.65 3.76C72.68 3.76 71.88 2.97 71.88 1.99C71.88 1.01 72.67 0.22 73.65 0.22C74.63 0.22 75.42 1.01 75.42 1.99C75.42 2.97 74.63 3.76 73.65 3.76ZM73.65 0.5C72.83 0.5 72.16 1.17 72.16 1.99C72.16 2.81 72.83 3.48 73.65 3.48C74.47 3.48 75.14 2.81 75.14 1.99C75.14 1.17 74.47 0.5 73.65 0.5Z" fill="var(--fill-0, black)"/>
</g>
</g>
</svg>
