<svg width="14" height="13" viewBox="0 0 14.3333 13.6667" fill="none" xmlns="http://www.w3.org/2000/svg">
<g id="Group">
<path id="Vector" d="M12.5 5.83333C12.5 4.41885 11.9381 3.06229 10.9379 2.0621C9.93771 1.0619 8.58115 0.5 7.16667 0.5C5.75218 0.5 4.39562 1.0619 3.39543 2.0621C2.39524 3.06229 1.83333 4.41885 1.83333 5.83333" stroke="#FAFAFA" stroke-linejoin="round"/>
<path id="Vector_2" d="M12.5 10.5V10.8333C12.5 11.187 12.3595 11.5261 12.1095 11.7761C11.8594 12.0262 11.5203 12.1667 11.1667 12.1667H8.83333M0.5 8.792V7.54133C0.500045 7.24401 0.599469 6.95523 0.78247 6.72089C0.965471 6.48655 1.22155 6.3201 1.51 6.248L2.67 5.95733C2.72894 5.94265 2.79046 5.94159 2.84987 5.95423C2.90929 5.96686 2.96505 5.99287 3.01292 6.03026C3.06079 6.06766 3.09951 6.11546 3.12615 6.17006C3.15279 6.22465 3.16664 6.28459 3.16667 6.34533V9.98733C3.16677 10.0482 3.15298 10.1083 3.12635 10.163C3.09971 10.2178 3.06094 10.2657 3.01297 10.3032C2.96501 10.3407 2.90912 10.3667 2.84957 10.3793C2.79002 10.392 2.72838 10.3908 2.66933 10.376L1.50933 10.086C1.221 10.0138 0.965078 9.84727 0.782207 9.61294C0.599336 9.37862 0.500008 9.08991 0.5 8.79267V8.792ZM13.8333 8.792V7.54133C13.8333 7.24401 13.7339 6.95523 13.5509 6.72089C13.3679 6.48655 13.1118 6.3201 12.8233 6.248L11.6633 5.95733C11.6044 5.94265 11.5429 5.94159 11.4835 5.95423C11.424 5.96686 11.3683 5.99287 11.3204 6.03026C11.2725 6.06766 11.2338 6.11546 11.2072 6.17006C11.1805 6.22465 11.1667 6.28459 11.1667 6.34533V9.98733C11.1666 10.0481 11.1804 10.1082 11.207 10.1628C11.2336 10.2175 11.2723 10.2654 11.3202 10.3029C11.368 10.3403 11.4238 10.3664 11.4833 10.3791C11.5428 10.3917 11.6043 10.3907 11.6633 10.376L12.8233 10.086C13.1118 10.0139 13.3679 9.84745 13.5509 9.61311C13.7339 9.37878 13.8333 9.08999 13.8333 8.79267V8.792Z" stroke="#FAFAFA"/>
<path id="Vector_3" d="M8.16667 13.1667H6.16667C5.90145 13.1667 5.6471 13.0613 5.45956 12.8738C5.27202 12.6862 5.16667 12.4319 5.16667 12.1667C5.16667 11.9015 5.27202 11.6471 5.45956 11.4596C5.6471 11.272 5.90145 11.1667 6.16667 11.1667H8.16667C8.43188 11.1667 8.68624 11.272 8.87377 11.4596C9.06131 11.6471 9.16667 11.9015 9.16667 12.1667C9.16667 12.4319 9.06131 12.6862 8.87377 12.8738C8.68624 13.0613 8.43188 13.1667 8.16667 13.1667Z" stroke="#FAFAFA"/>
</g>
</svg>
