<svg width="37" height="37" viewBox="0 0 37.9735 37.9886" fill="none" xmlns="http://www.w3.org/2000/svg">
<g id="Group">
<path id="Vector" d="M8.37793 3.48107C7.53874 2.64087 8.1338 1.20547 9.32128 1.20547H34.6187C35.355 1.20547 35.952 1.80242 35.952 2.5388V27.8662C35.952 29.0544 34.515 29.6492 33.6753 28.8084L8.37793 3.48107Z" fill="url(#paint0_linear_54_2993)"/>
<g id="Group_2" filter="url(#filter0_f_54_2993)">
<path id="Vector_2" d="M8.39722 9.60888C7.55755 8.76884 8.15251 7.33294 9.34024 7.33294H28.6401C29.3764 7.33294 29.9734 7.92991 29.9734 8.66628V27.9747C29.9734 29.1627 28.5369 29.7575 27.6971 28.9173L8.39722 9.60888Z" fill="black" fill-opacity="0.24"/>
</g>
<g id="Group_3" filter="url(#filter1_f_54_2993)">
<path id="Vector_3" d="M8.39729 10.2759C7.55762 9.4359 8.15257 8 9.3403 8H28.6401C29.3765 8 29.9735 8.59697 29.9735 9.33333V28.6417C29.9735 29.8297 28.537 30.4246 27.6971 29.5843L8.39729 10.2759Z" fill="black" fill-opacity="0.32"/>
</g>
<path id="Vector_4" d="M8.39689 9.4814C7.55723 8.64137 8.15218 7.20547 9.33991 7.20547H28.6397C29.3761 7.20547 29.9731 7.80244 29.9731 8.5388V27.8472C29.9731 29.0352 28.5366 29.63 27.6967 28.7898L8.39689 9.4814Z" fill="url(#paint1_linear_54_2993)"/>
<g id="Group_4" filter="url(#filter2_f_54_2993)">
<path id="Vector_5" d="M8.39185 15.6076C7.55374 14.7671 8.14905 13.3328 9.33601 13.3328H22.6173C23.3537 13.3328 23.9507 13.9298 23.9507 14.6661V27.9854C23.9507 29.1741 22.5126 29.7686 21.6732 28.9268L8.39185 15.6076Z" fill="black" fill-opacity="0.24"/>
</g>
<g id="Group_5" filter="url(#filter3_f_54_2993)">
<path id="Vector_6" d="M8.39185 16.2748C7.55374 15.4343 8.14905 14 9.33601 14H22.6173C23.3537 14 23.9507 14.597 23.9507 15.3333V28.6526C23.9507 29.8413 22.5126 30.4358 21.6732 29.594L8.39185 16.2748Z" fill="black" fill-opacity="0.32"/>
</g>
<path id="Vector_7" d="M8.39264 15.4803C7.55453 14.6398 8.14983 13.2055 9.33679 13.2055H22.6181C23.3545 13.2055 23.9515 13.8024 23.9515 14.5388V27.858C23.9515 29.0468 22.5134 29.6413 21.674 28.7995L8.39264 15.4803Z" fill="url(#paint2_linear_54_2993)"/>
</g>
<defs>
<filter id="filter0_f_54_2993" x="7.24423" y="6.57294" width="23.4892" height="23.4977" filterUnits="userSpaceOnUse" color-interpolation-filters="sRGB">
<feFlood flood-opacity="0" result="BackgroundImageFix"/>
<feBlend mode="normal" in="SourceGraphic" in2="BackgroundImageFix" result="shape"/>
<feGaussianBlur stdDeviation="0.38" result="effect1_foregroundBlur_54_2993"/>
</filter>
<filter id="filter1_f_54_2993" x="0.00429698" y="0" width="37.9692" height="37.9777" filterUnits="userSpaceOnUse" color-interpolation-filters="sRGB">
<feFlood flood-opacity="0" result="BackgroundImageFix"/>
<feBlend mode="normal" in="SourceGraphic" in2="BackgroundImageFix" result="shape"/>
<feGaussianBlur stdDeviation="4" result="effect1_foregroundBlur_54_2993"/>
</filter>
<filter id="filter2_f_54_2993" x="7.24" y="12.5728" width="17.4707" height="17.5086" filterUnits="userSpaceOnUse" color-interpolation-filters="sRGB">
<feFlood flood-opacity="0" result="BackgroundImageFix"/>
<feBlend mode="normal" in="SourceGraphic" in2="BackgroundImageFix" result="shape"/>
<feGaussianBlur stdDeviation="0.38" result="effect1_foregroundBlur_54_2993"/>
</filter>
<filter id="filter3_f_54_2993" x="8.6613e-08" y="6" width="31.9507" height="31.9886" filterUnits="userSpaceOnUse" color-interpolation-filters="sRGB">
<feFlood flood-opacity="0" result="BackgroundImageFix"/>
<feBlend mode="normal" in="SourceGraphic" in2="BackgroundImageFix" result="shape"/>
<feGaussianBlur stdDeviation="4" result="effect1_foregroundBlur_54_2993"/>
</filter>
<linearGradient id="paint0_linear_54_2993" x1="42.2387" y1="35.3275" x2="15.9352" y2="-6.92717" gradientUnits="userSpaceOnUse">
<stop stop-color="#922717"/>
<stop offset="0.513532" stop-color="#D83B01"/>
</linearGradient>
<linearGradient id="paint1_linear_54_2993" x1="11.6577" y1="1.70077" x2="34.028" y2="33.8538" gradientUnits="userSpaceOnUse">
<stop stop-color="#F69B63"/>
<stop offset="1" stop-color="#D83B01"/>
</linearGradient>
<linearGradient id="paint2_linear_54_2993" x1="23.2478" y1="31.0835" x2="8.30226" y2="11.5399" gradientUnits="userSpaceOnUse">
<stop stop-color="#F69B63"/>
<stop offset="1" stop-color="#FFB685"/>
</linearGradient>
</defs>
</svg>
