<svg width="17" height="21" viewBox="0 0 17.962 21.9957" fill="none" xmlns="http://www.w3.org/2000/svg">
<g id="Group">
<path id="Vector" d="M7.6262 0.268486C7.26822 -0.0894953 6.68783 -0.0894951 6.32985 0.268486L0.269219 6.32909C-0.0887621 6.68708 -0.0887621 7.26749 0.269219 7.62547L3.63788 10.9941L0.268486 14.3635C-0.0894953 14.7215 -0.0894953 15.3019 0.268486 15.6599L6.33583 21.7272C6.69382 22.0852 7.27422 22.0852 7.63221 21.7272L14.3477 15.0117L11.6059 12.2699L14.3481 15.0108L17.6968 11.6277C18.0517 11.2692 18.0502 10.6914 17.6935 10.3347L14.3356 6.97674L14.335 6.97729L7.6262 0.268486Z" fill="url(#paint0_linear_47_2200)"/>
</g>
<defs>
<linearGradient id="paint0_linear_47_2200" x1="1.73023e-05" y1="-1.65973e-07" x2="10.006" y2="25.1599" gradientUnits="userSpaceOnUse">
<stop stop-color="#CD9EF0"/>
<stop offset="1" stop-color="#9F75D3"/>
</linearGradient>
</defs>
</svg>
