<svg preserveAspectRatio="none" width="100%" height="100%" overflow="visible" style="display: block;" viewBox="0 0 12 13.3334" fill="none" xmlns="http://www.w3.org/2000/svg">
<path id="Vector" fill-rule="evenodd" clip-rule="evenodd" d="M11.82 3.41333L11.7267 3.24667C11.6063 3.04513 11.4365 2.87762 11.2333 2.76L6.76 0.18C6.55746 0.0625 6.32753 0.000413333 6.09333 0H5.9C5.6658 0.000413333 5.43586 0.0625 5.23333 0.18L0.76 2.76667C0.55798 2.88351 0.390173 3.05131 0.273333 3.25333L0.18 3.42C0.0625 3.62256 0.000413333 3.85249 0 4.08667V9.25333C0.000413333 9.48753 0.0625 9.71746 0.18 9.92L0.273333 10.0867C0.393193 10.2863 0.560326 10.4535 0.76 10.5733L5.24 13.1533C5.44153 13.2733 5.67213 13.3355 5.90666 13.3333H6.09333C6.32753 13.3329 6.55746 13.2709 6.76 13.1533L11.2333 10.5667C11.4373 10.4525 11.6058 10.284 11.72 10.08L11.82 9.91333C11.9361 9.7102 11.9981 9.48067 12 9.24667V4.08C11.9996 3.84583 11.9375 3.61589 11.82 3.41333ZM5.9 1.33333H6.09333L10 3.58667L6 5.89333L2 3.58667L5.9 1.33333ZM6.66666 11.6667L10.5667 9.41333L10.6667 9.24667V4.74L6.66666 7.05333V11.6667Z" fill="var(--fill-0, #FAFAFA)"/>
</svg>
