<svg width="31" height="31" viewBox="0 0 31.1064 31.1171" fill="none" xmlns="http://www.w3.org/2000/svg">
<g id="Group">
<path id="Vector" d="M8.25898 4.89406C7.68204 4.31642 8.09114 3.32958 8.90753 3.32958H26.2995C26.8057 3.32958 27.2162 3.73999 27.2162 4.24625V21.6588C27.2162 22.4757 26.2282 22.8846 25.6509 22.3066L8.25898 4.89406Z" fill="url(#paint0_linear_47_2187)"/>
<g id="Group_2" filter="url(#filter0_f_47_2187)">
<path id="Vector_2" d="M8.27282 9.10637C7.69555 8.52885 8.10458 7.54167 8.92114 7.54167H22.1898C22.696 7.54167 23.1064 7.95208 23.1064 8.45833V21.7329C23.1064 22.5496 22.1189 22.9586 21.5415 22.3809L8.27282 9.10637Z" fill="black" fill-opacity="0.24"/>
</g>
<g id="Group_3" filter="url(#filter1_f_47_2187)">
<path id="Vector_3" d="M8.27282 9.5647C7.69555 8.98718 8.10458 8 8.92114 8H22.1898C22.696 8 23.1064 8.41041 23.1064 8.91667V22.1912C23.1064 23.0079 22.1189 23.4169 21.5415 22.8392L8.27282 9.5647Z" fill="black" fill-opacity="0.32"/>
</g>
<path id="Vector_4" d="M8.27282 9.01929C7.69555 8.44176 8.10458 7.45458 8.92114 7.45458H22.1898C22.696 7.45458 23.1064 7.865 23.1064 8.37125V21.6458C23.1064 22.4625 22.1189 22.8715 21.5415 22.2938L8.27282 9.01929Z" fill="url(#paint1_linear_47_2187)"/>
<g id="Group_4" filter="url(#filter2_f_47_2187)">
<path id="Vector_5" d="M8.2694 13.2306C7.6932 12.6527 8.10247 11.6667 8.91851 11.6667H18.0494C18.5557 11.6667 18.9661 12.0771 18.9661 12.5833V21.7403C18.9661 22.5576 17.9774 22.9663 17.4003 22.3876L8.2694 13.2306Z" fill="black" fill-opacity="0.24"/>
</g>
<g id="Group_5" filter="url(#filter3_f_47_2187)">
<path id="Vector_6" d="M8.2694 13.6889C7.6932 13.1111 8.10247 12.125 8.91851 12.125H18.0494C18.5557 12.125 18.9661 12.5354 18.9661 13.0417V22.1986C18.9661 23.0159 17.9774 23.4246 17.4003 22.8459L8.2694 13.6889Z" fill="black" fill-opacity="0.32"/>
</g>
<path id="Vector_7" d="M8.2694 13.1435C7.6932 12.5657 8.10247 11.5796 8.91851 11.5796H18.0494C18.5557 11.5796 18.9661 11.99 18.9661 12.4963V21.6532C18.9661 22.4705 17.9774 22.8792 17.4003 22.3005L8.2694 13.1435Z" fill="url(#paint2_linear_47_2187)"/>
</g>
<defs>
<filter id="filter0_f_47_2187" x="7.24264" y="6.78167" width="16.6238" height="16.6297" filterUnits="userSpaceOnUse" color-interpolation-filters="sRGB">
<feFlood flood-opacity="0" result="BackgroundImageFix"/>
<feBlend mode="normal" in="SourceGraphic" in2="BackgroundImageFix" result="shape"/>
<feGaussianBlur stdDeviation="0.38" result="effect1_foregroundBlur_47_2187"/>
</filter>
<filter id="filter1_f_47_2187" x="0.0026373" y="0" width="31.1038" height="31.1097" filterUnits="userSpaceOnUse" color-interpolation-filters="sRGB">
<feFlood flood-opacity="0" result="BackgroundImageFix"/>
<feBlend mode="normal" in="SourceGraphic" in2="BackgroundImageFix" result="shape"/>
<feGaussianBlur stdDeviation="4" result="effect1_foregroundBlur_47_2187"/>
</filter>
<filter id="filter2_f_47_2187" x="7.24" y="10.9067" width="12.4861" height="12.5121" filterUnits="userSpaceOnUse" color-interpolation-filters="sRGB">
<feFlood flood-opacity="0" result="BackgroundImageFix"/>
<feBlend mode="normal" in="SourceGraphic" in2="BackgroundImageFix" result="shape"/>
<feGaussianBlur stdDeviation="0.38" result="effect1_foregroundBlur_47_2187"/>
</filter>
<filter id="filter3_f_47_2187" x="1.43424e-07" y="4.125" width="26.9661" height="26.9921" filterUnits="userSpaceOnUse" color-interpolation-filters="sRGB">
<feFlood flood-opacity="0" result="BackgroundImageFix"/>
<feBlend mode="normal" in="SourceGraphic" in2="BackgroundImageFix" result="shape"/>
<feGaussianBlur stdDeviation="4" result="effect1_foregroundBlur_47_2187"/>
</filter>
<linearGradient id="paint0_linear_47_2187" x1="31.5383" y1="26.7885" x2="13.4546" y2="-2.2616" gradientUnits="userSpaceOnUse">
<stop stop-color="#922717"/>
<stop offset="0.513532" stop-color="#D83B01"/>
</linearGradient>
<linearGradient id="paint1_linear_47_2187" x1="10.5147" y1="3.6701" x2="25.8942" y2="25.7753" gradientUnits="userSpaceOnUse">
<stop stop-color="#F69B63"/>
<stop offset="1" stop-color="#D83B01"/>
</linearGradient>
<linearGradient id="paint2_linear_47_2187" x1="18.4823" y1="23.8707" x2="8.20726" y2="10.4345" gradientUnits="userSpaceOnUse">
<stop stop-color="#F69B63"/>
<stop offset="1" stop-color="#FFB685"/>
</linearGradient>
</defs>
</svg>
