<svg width="22" height="19" viewBox="0 0 22 19.2522" fill="none" xmlns="http://www.w3.org/2000/svg">
<g id="Group">
<path id="Vector" d="M0.916667 0H6.75909C7.02277 0 7.27368 0.113545 7.44771 0.311625L11.0004 4.35506L14.5523 0.311692C14.7263 0.11357 14.9773 0 15.241 0H21.0833C21.5896 0 22 0.410405 22 0.916667V6.6258C22 6.84537 21.9212 7.05762 21.7779 7.22398L11.6946 18.9336C11.3289 19.3584 10.6711 19.3584 10.3053 18.9337L0.222042 7.22398C0.0787896 7.05762 0 6.84537 0 6.62583V0.916667C0 0.410405 0.410405 0 0.916667 0Z" fill="url(#paint0_linear_47_2164)"/>
</g>
<defs>
<linearGradient id="paint0_linear_47_2164" x1="-4.92708" y1="-5.72917" x2="11.6877" y2="13.3507" gradientUnits="userSpaceOnUse">
<stop stop-color="#EBC7FF"/>
<stop offset="0.493452" stop-color="#E4B4FF"/>
</linearGradient>
</defs>
</svg>
