<svg width="19" height="21" viewBox="0 0 19.25 21.8353" fill="none" xmlns="http://www.w3.org/2000/svg">
<g id="Group">
<path id="Vector" fill-rule="evenodd" clip-rule="evenodd" d="M0.560494 3.74421C0.220823 3.88744 0 4.22021 0 4.58885V9.54683V15.0468C0 18.3858 7.07018 21.0515 9.09132 21.7453C9.44093 21.8653 9.80907 21.8653 10.1587 21.7453C12.1798 21.0515 19.25 18.3858 19.25 15.0468V9.54683V4.58885C19.25 4.22021 19.0292 3.88744 18.6895 3.74421L9.98117 0.0720258C9.75343 -0.0240086 9.49658 -0.0240086 9.26883 0.0720258L0.560494 3.74421ZM2.62623 8.43938L0.0122467 9.54167L2.62593 8.4397C2.62604 8.43958 2.62614 8.43949 2.62623 8.43938Z" fill="url(#paint0_linear_47_2235)"/>
</g>
<defs>
<linearGradient id="paint0_linear_47_2235" x1="0.229167" y1="-4.4848" x2="5.93574" y2="14.3087" gradientUnits="userSpaceOnUse">
<stop stop-color="#FFED80"/>
<stop offset="0.961333" stop-color="#FFDB00"/>
</linearGradient>
</defs>
</svg>
