<svg preserveAspectRatio="none" width="100%" height="100%" overflow="visible" style="display: block;" viewBox="0 0 68.5 32.01" fill="none" xmlns="http://www.w3.org/2000/svg">
<g id="Group 642">
<path id="Vector" d="M0 20.17V0H10.02C14.56 0 16.13 2.13 16.13 4.98C16.13 7.2 14.82 8.77 13.18 9.26C14.98 9.69 16.74 11.26 16.74 14.27C16.74 17.79 14.6 20.16 9.16 20.16H0V20.17ZM4.27 3.64V8.07H9.35C10.94 8.07 11.85 7.37 11.85 5.79C11.85 4.43 10.97 3.63 9.29 3.63H4.26L4.27 3.64ZM9.4 16.59C11.44 16.59 12.39 15.58 12.39 13.79C12.39 12 11.42 11.03 9.59 11.03H4.27V16.59H9.4ZM29.41 0H33.91V13.79C33.91 18.38 30.98 20.87 25.64 20.87C20.3 20.87 17.57 18.41 17.57 13.83V0H22.04V13.42C22.04 15.91 23.26 17.19 25.69 17.19C28.12 17.19 29.4 15.88 29.4 13.4V0H29.41Z" fill="var(--fill-0, black)"/>
<path id="Vector 2" d="M0.04 24.72V23.17H0.83V24.72H0.04ZM0.04 31.81V25.48H0.83V31.81H0.04Z" fill="var(--fill-0, black)"/>
<path id="Vector 3" d="M6.57 31.81V27.74C6.57 26.33 5.86 25.97 4.77 25.97C3.31 25.97 2.61 27.12 2.61 28.35V31.8H1.82V25.47H2.59V27.18C2.93 25.8 4.04 25.3 5.05 25.3C6.44 25.3 7.39 25.9 7.39 27.55V31.79H6.58V31.8L6.57 31.81Z" fill="var(--fill-0, black)"/>
<path id="Vector 4" d="M7.82 25.48H8.59C8.59 23.94 9.27 23.16 11.05 23.16V23.8C9.69 23.8 9.37 24.36 9.37 25.47H11.1V26.04H9.36V31.81H8.59V26.04H7.82V25.48Z" fill="var(--fill-0, black)"/>
<path id="Vector 5" d="M11.68 31.81V25.48H12.43V27.1C12.87 25.72 13.92 25.31 14.85 25.31H15.23V26.1C15.1 26.09 14.95 26.08 14.75 26.08C13.21 26.08 12.49 27.27 12.49 28.59V31.81H11.7H11.68Z" fill="var(--fill-0, black)"/>
<path id="Vector 6" d="M20.27 31.81C20.25 31.57 20.22 30.73 20.22 30.47C19.99 31.32 18.98 31.98 17.67 31.98C16.07 31.98 15.45 31.28 15.45 30.14C15.45 28.73 16.53 28.34 18.23 28.16C19.39 28.03 20.14 28.12 20.14 27.66C20.14 26.53 19.62 25.95 18.29 25.95C17.03 25.95 16.41 26.46 16.36 27.55H15.65C15.69 26.24 16.37 25.32 18.33 25.32C20.29 25.32 20.94 26.22 20.94 27.82V31.83H20.26V31.81H20.27ZM20.16 28.33C19.96 28.59 19.26 28.58 18.25 28.67C16.98 28.81 16.23 29.08 16.23 30.13C16.23 30.92 16.7 31.37 17.83 31.37C19.02 31.37 20.07 30.68 20.17 29.52V28.32H20.16V28.33Z" fill="var(--fill-0, black)"/>
<path id="Vector 7" d="M26.37 27.4C26.35 26.21 25.5 25.88 24.49 25.88C23.68 25.88 22.63 25.97 22.63 26.98C22.63 29.02 27.28 27.46 27.28 30.01C27.28 31.54 25.88 31.97 24.59 31.97C23.16 31.97 21.7 31.41 21.66 29.76H22.47C22.48 30.97 23.53 31.41 24.58 31.41C25.45 31.41 26.54 31.21 26.54 30.08C26.54 29.24 25.6 29.05 24.81 28.88C23.74 28.64 21.89 28.57 21.89 27.03C21.89 25.58 23.32 25.29 24.5 25.29C25.81 25.29 27.04 25.72 27.11 27.38H26.39V27.39L26.37 27.4Z" fill="var(--fill-0, black)"/>
<path id="Vector 8" d="M29.74 31.81H28.97V26.04H27.66V25.47H28.97V23.76H29.74V25.47H31.1V26.04H29.74V31.81Z" fill="var(--fill-0, black)"/>
<path id="Vector 9" d="M31.77 31.81V25.48H32.52V27.1C32.96 25.72 34.01 25.31 34.94 25.31H35.32V26.1C35.19 26.09 35.04 26.08 34.84 26.08C33.3 26.08 32.58 27.27 32.58 28.59V31.81H31.79H31.77Z" fill="var(--fill-0, black)"/>
<path id="Vector 10" d="M36.75 25.48V29.75C36.75 30.79 37.2 31.34 38.75 31.34C40.3 31.34 40.71 30.79 40.71 29.74V25.5H41.49V29.82C41.49 31.17 40.99 32.01 38.76 32.01C36.53 32.01 35.95 31.17 35.95 29.84V25.5H36.74L36.75 25.48Z" fill="var(--fill-0, black)"/>
<path id="Vector 11" d="M47.9 29.52C47.74 30.99 46.57 31.98 45.1 31.98C43.43 31.98 42.28 30.83 42.28 28.57C42.28 26.31 43.43 25.31 45.14 25.31C46.74 25.31 47.82 26.25 47.91 27.74H47.1C46.99 26.6 46.21 25.97 45.13 25.97C43.92 25.97 43.06 26.71 43.06 28.54C43.06 30.37 43.91 31.31 45.08 31.31C46.12 31.31 46.95 30.62 47.1 29.51H47.91V29.52H47.9Z" fill="var(--fill-0, black)"/>
<path id="Vector 12" d="M50.39 31.81H49.62V26.04H48.31V25.47H49.62V23.76H50.39V25.47H51.75V26.04H50.39V31.81Z" fill="var(--fill-0, black)"/>
<path id="Vector 13" d="M53.21 25.48V29.75C53.21 30.79 53.66 31.34 55.21 31.34C56.76 31.34 57.16 30.79 57.16 29.74V25.5H57.94V29.82C57.94 31.17 57.44 32.01 55.21 32.01C52.98 32.01 52.4 31.17 52.4 29.84V25.5H53.19L53.21 25.48Z" fill="var(--fill-0, black)"/>
<path id="Vector 14" d="M58.85 31.81V25.48H59.6V27.1C60.04 25.72 61.09 25.31 62.02 25.31H62.4V26.1C62.27 26.09 62.12 26.08 61.91 26.08C60.37 26.08 59.65 27.27 59.65 28.59V31.81H58.86H58.85Z" fill="var(--fill-0, black)"/>
<path id="Vector 15" d="M68.29 29.95C68.02 31.17 66.91 31.99 65.61 31.99C63.62 31.99 62.55 30.78 62.55 28.54C62.55 26.58 63.64 25.32 65.5 25.32C67.36 25.32 68.37 26.68 68.37 28.88H63.33C63.4 30.53 64.23 31.34 65.58 31.34C65.74 31.34 65.91 31.3 66.05 31.23C66.77 31.1 67.27 30.65 67.45 29.95H68.28H68.29ZM67.59 28.26C67.54 26.85 66.84 25.97 65.5 25.97C64.16 25.97 63.39 26.82 63.36 28.26H67.59Z" fill="var(--fill-0, black)"/>
<path id="Vector 16" d="M49.63 0H50.79V13.51C50.79 18.34 48.02 20.86 43.12 20.86C38.58 20.86 35.78 18.52 35.78 13.72V0H36.91V13.63C36.91 17.85 39.28 19.89 43.14 19.89C47.31 19.89 49.62 17.67 49.62 13.45V0H49.63Z" fill="var(--fill-0, black)"/>
<path id="Vector 17" d="M54 20.17H52.91V0H54V20.16V20.17ZM68.28 0L55.53 9.57L68.5 20.17H66.98L54.15 9.6L66.82 0H68.29H68.28Z" fill="var(--fill-0, black)"/>
</g>
</svg>
