<svg width="23" height="31" viewBox="0 0 23.3334 31.5369" fill="none" xmlns="http://www.w3.org/2000/svg">
<g id="Group">
<path id="Vector" d="M23.3334 10.1248C23.3334 8.71609 22.4478 7.45946 21.1211 6.98566L1.78177 0.0788038C0.913467 -0.231309 0 0.412421 0 1.33446V11.8362C0 12.3996 0.354233 12.9023 0.8849 13.0918L9.55157 16.1871C10.4199 16.4972 11.3333 15.8534 11.3333 14.9314V8.90139C11.3333 8.43559 11.7989 8.11336 12.2348 8.27743L14.5074 9.13269C15.8065 9.62159 16.6667 10.8644 16.6667 12.2524V14.8783L6.87573 18.4558C6.34983 18.6479 6 19.1482 6 19.7081V30.2024C6 31.1285 6.92103 31.7726 7.79093 31.4547L21.144 26.5757C22.4588 26.0953 23.3333 24.8446 23.3333 23.4448L23.3334 10.1248Z" fill="white"/>
</g>
</svg>
