<svg preserveAspectRatio="none" width="100%" height="100%" overflow="visible" style="display: block;" viewBox="0 0 12 12" fill="none" xmlns="http://www.w3.org/2000/svg">
<path id="Vector" fill-rule="evenodd" clip-rule="evenodd" d="M1 0C0.447713 0 0 0.447713 0 1V11C0 11.5523 0.447713 12 1 12H11C11.5523 12 12 11.5523 12 11V1C12 0.447713 11.5523 0 11 0H1ZM3.68051 2.66848C3.68426 3.30598 3.20707 3.69879 2.64082 3.69598C2.10738 3.69317 1.64238 3.26848 1.64519 2.66942C1.64801 2.10598 2.09332 1.65317 2.67176 1.66629C3.25863 1.67942 3.68426 2.10973 3.68051 2.66848ZM6.18647 4.50784H4.50647H4.50553V10.2144H6.28113V10.0813C6.28113 9.828 6.28093 9.57467 6.28073 9.32127C6.2802 8.6454 6.2796 7.9688 6.28307 7.29313C6.284 7.12907 6.29147 6.95847 6.33367 6.80187C6.49207 6.21687 7.01807 5.83907 7.60493 5.93193C7.9818 5.99093 8.23113 6.2094 8.33613 6.56473C8.40087 6.78687 8.42993 7.02593 8.43273 7.25753C8.44033 7.95593 8.43927 8.65433 8.4382 9.3528C8.4378 9.59933 8.4374 9.846 8.4374 10.0925V10.2135H10.2187V10.0766C10.2187 9.77527 10.2185 9.474 10.2183 9.17273C10.218 8.41973 10.2176 7.66673 10.2196 6.91347C10.2205 6.57313 10.184 6.23753 10.1005 5.90847C9.97587 5.41907 9.71807 5.01407 9.299 4.7216C9.0018 4.51346 8.67553 4.3794 8.31087 4.3644C8.26933 4.36267 8.22747 4.36041 8.1854 4.35814C7.99893 4.34806 7.8094 4.33782 7.63113 4.37377C7.12113 4.47596 6.67307 4.7094 6.3346 5.12093C6.29527 5.16813 6.2568 5.21607 6.1994 5.2876L6.18647 5.3038V4.50784ZM1.78776 10.2163H3.55495V4.51155H1.78776V10.2163Z" fill="var(--fill-0, #FAFAFA)"/>
</svg>
