<svg width="500" height="500" viewBox="0 0 500 500" fill="none" xmlns="http://www.w3.org/2000/svg">
  <!-- Large Cube Outline -->
  <g transform="translate(150, 50)">
    <path d="M100 0L200 50V150L100 200L0 150V50L100 0Z" stroke="white" stroke-width="1" fill="none" opacity="0.3"/>
    <path d="M100 0V100M0 50L100 100L200 50M100 100V200" stroke="white" stroke-width="1" opacity="0.3"/>
  </g>
  
  <!-- Medium Cube Outline -->
  <g transform="translate(280, 180)">
    <path d="M75 0L150 37.5V112.5L75 150L0 112.5V37.5L75 0Z" stroke="white" stroke-width="1" fill="none" opacity="0.4"/>
    <path d="M75 0V75M0 37.5L75 75L150 37.5M75 75V150" stroke="white" stroke-width="1" opacity="0.4"/>
  </g>
  
  <!-- Small Cube Filled -->
  <g transform="translate(100, 250)">
    <path d="M50 0L100 25V75L50 100L0 75V25L50 0Z" stroke="white" stroke-width="1" fill="white" fill-opacity="0.1"/>
    <path d="M50 0V50M0 25L50 50L100 25M50 50V100" stroke="white" stroke-width="1" opacity="0.5"/>
  </g>
  
  <!-- Tiny Cube -->
  <g transform="translate(350, 350)">
    <path d="M30 0L60 15V45L30 60L0 45V15L30 0Z" stroke="white" stroke-width="1" fill="none" opacity="0.3"/>
    <path d="M30 0V30M0 15L30 30L60 15M30 30V60" stroke="white" stroke-width="1" opacity="0.3"/>
  </g>
</svg>
