<svg width="13" height="9" viewBox="0 0 13.3428 9.34134" fill="none" xmlns="http://www.w3.org/2000/svg">
<path id="Vector" d="M13.0713 1.46867C12.9954 1.18694 12.847 0.930008 12.6409 0.72345C12.4348 0.516892 12.1782 0.367912 11.8967 0.291338C10.8527 0.00467159 6.676 5.06433e-06 6.676 5.06433e-06C6.676 5.06433e-06 2.5 -0.00466174 1.45533 0.269338C1.17395 0.349436 0.917882 0.500523 0.711712 0.708095C0.505541 0.915666 0.356191 1.17275 0.278001 1.45467C0.00266776 2.49867 9.76766e-07 4.66401 9.76766e-07 4.66401C9.76766e-07 4.66401 -0.00266568 6.84 0.270668 7.87334C0.424001 8.44467 0.874001 8.89601 1.446 9.05001C2.50067 9.33667 6.666 9.34134 6.666 9.34134C6.666 9.34134 10.8427 9.346 11.8867 9.07267C12.1683 8.99623 12.4252 8.8476 12.6318 8.64146C12.8384 8.43532 12.9876 8.17883 13.0647 7.89734C13.3407 6.85401 13.3427 4.68934 13.3427 4.68934C13.3427 4.68934 13.356 2.51267 13.0713 1.46867ZM5.34 6.67001L5.34333 2.67001L8.81467 4.67334L5.34 6.67001Z" fill="#FAFAFA"/>
</svg>
