<svg preserveAspectRatio="none" width="100%" height="100%" overflow="visible" style="display: block;" viewBox="0 0 56.9062 65.793" fill="none" xmlns="http://www.w3.org/2000/svg">
<g id="Group">
<path id="Vector" d="M17.7832 45.9361V15.7046C17.7832 10.7939 13.8023 6.81304 8.8916 6.81304C3.98091 6.81304 1.10523e-06 10.7939 8.83446e-07 15.7046L0 35.2662C-2.66132e-07 41.159 4.77709 45.9361 10.6699 45.9361H17.7832Z" fill="url(#paint0_linear_47_2178)"/>
<path id="Vector_2" d="M48.0146 56.606C52.9254 56.606 56.9062 52.6251 56.9062 47.7144V28.1529C56.9062 22.2601 52.1291 17.483 46.2363 17.483H39.123V47.7144C39.123 52.6251 43.1039 56.606 48.0146 56.606Z" fill="url(#paint1_linear_47_2178)"/>
<g id="Group_2" filter="url(#filter0_f_47_2178)">
<path id="Vector_3" d="M17.7818 47.123V16.8916C17.7818 12.1801 14.1173 8.32449 9.48296 8.01945C9.67887 8.00655 9.8765 8 10.0757 8H27.8589C27.9594 8 28.0595 8.00132 28.1593 8.00393C28.2564 8.00132 28.3539 8 28.4517 8C34.3445 8 39.1216 12.7771 39.1216 18.6699L39.1215 48.9021C39.1215 53.6117 42.7832 57.4662 47.4149 57.7739C47.2208 57.7866 47.025 57.793 46.8277 57.793H29.0445C28.944 57.793 28.8439 57.7917 28.7441 57.7891C28.6469 57.7917 28.5495 57.793 28.4517 57.793C22.5588 57.793 17.7818 53.0159 17.7818 47.123Z" fill="var(--fill-0, black)" fill-opacity="0.32"/>
</g>
<g id="Group_3" filter="url(#filter1_f_47_2178)">
<path id="Vector_4" d="M17.7818 46.1642V15.9328C17.7818 11.2213 14.1173 7.36566 9.48296 7.06061C9.67887 7.04772 9.8765 7.04117 10.0757 7.04117L27.8589 7.04116C27.9594 7.04116 28.0595 7.04248 28.1593 7.04509C28.2564 7.04248 28.3539 7.04116 28.4517 7.04116C34.3445 7.04116 39.1216 11.8183 39.1216 17.7111L39.1215 47.9432C39.1215 52.6529 42.7832 56.5073 47.4149 56.815C47.2208 56.8277 47.025 56.8341 46.8277 56.8341H29.0445C28.944 56.8341 28.8439 56.8328 28.7441 56.8302C28.6469 56.8328 28.5495 56.8341 28.4517 56.8341C22.5588 56.8341 17.7818 52.057 17.7818 46.1642Z" fill="var(--fill-0, black)" fill-opacity="0.24"/>
</g>
<path id="Vector_5" fill-rule="evenodd" clip-rule="evenodd" d="M17.7815 45.9361V45.3433V36.4517V26.9673V15.7046C17.7815 10.9932 14.117 7.13753 9.48269 6.83249C9.6786 6.81959 9.87629 6.81304 10.0755 6.81304H27.8587C27.9591 6.81304 28.0592 6.81435 28.159 6.81697C28.2562 6.81435 28.3536 6.81304 28.4514 6.81304C34.3443 6.81304 39.1214 11.5901 39.1214 17.483V17.4837L39.1212 47.7151C39.1212 52.4248 42.7829 56.2792 47.4146 56.5869C47.2205 56.5996 47.0247 56.606 46.8274 56.606H29.0442C28.9437 56.606 28.8436 56.6047 28.7438 56.6021C28.6466 56.6047 28.5492 56.606 28.4514 56.606C22.5586 56.606 17.7815 51.8289 17.7815 45.9361Z" fill="url(#paint2_linear_47_2178)"/>
</g>
<defs>
<filter id="filter0_f_47_2178" x="1.48296" y="-2.38419e-07" width="53.9319" height="65.793" filterUnits="userSpaceOnUse" color-interpolation-filters="sRGB">
<feFlood flood-opacity="0" result="BackgroundImageFix"/>
<feBlend mode="normal" in="SourceGraphic" in2="BackgroundImageFix" result="shape"/>
<feGaussianBlur stdDeviation="4" result="effect1_foregroundBlur_47_2178"/>
</filter>
<filter id="filter1_f_47_2178" x="8.72296" y="6.28116" width="39.4519" height="51.313" filterUnits="userSpaceOnUse" color-interpolation-filters="sRGB">
<feFlood flood-opacity="0" result="BackgroundImageFix"/>
<feBlend mode="normal" in="SourceGraphic" in2="BackgroundImageFix" result="shape"/>
<feGaussianBlur stdDeviation="0.38" result="effect1_foregroundBlur_47_2178"/>
</filter>
<linearGradient id="paint0_linear_47_2178" x1="17.7832" y1="45.9361" x2="-11.9794" y2="31.485" gradientUnits="userSpaceOnUse">
<stop stop-color="#27518A"/>
<stop offset="1" stop-color="#2064AE"/>
</linearGradient>
<linearGradient id="paint1_linear_47_2178" x1="56.7619" y1="53.7478" x2="35.4406" y2="49.909" gradientUnits="userSpaceOnUse">
<stop stop-color="#7CE6FF"/>
<stop offset="1" stop-color="#A7F2FF"/>
</linearGradient>
<linearGradient id="paint2_linear_47_2178" x1="13.1626" y1="1.45208" x2="40.5852" y2="58.7045" gradientUnits="userSpaceOnUse">
<stop stop-color="#40C4F5"/>
<stop offset="1" stop-color="#0095E6"/>
</linearGradient>
</defs>
</svg>
