<svg preserveAspectRatio="none" width="100%" height="100%" overflow="visible" style="display: block;" viewBox="0 0 29 33" fill="none" xmlns="http://www.w3.org/2000/svg">
<g id="Group">
<path id="Vector" d="M3.5 0L21 6.24995V14.8311C21 15.5226 20.315 16.0054 19.6638 15.7729L16 14.4648V9.60602C16 8.5645 15.3543 7.63207 14.3793 7.26575L12.6758 6.62572C12.3489 6.5029 12 6.74455 12 7.09377V13.0357L3.5 10V0Z" fill="url(#paint0_linear_48_2489)"/>
<g id="Group_2" filter="url(#filter0_f_48_2489)">
<path id="Vector_2" d="M21 8.09995C21 9.1498 20.3441 10.0897 19.358 10.45L8 14.6V24.6L21 19.85V8.09995Z" fill="var(--fill-0, black)" fill-opacity="0.24"/>
</g>
<g id="Group_3" filter="url(#filter1_f_48_2489)">
<path id="Vector_3" d="M21 8.49995C21 9.5498 20.3441 10.4896 19.358 10.8499L8 15V25L21 20.25V8.49995Z" fill="var(--fill-0, black)" fill-opacity="0.32"/>
</g>
<path id="Vector_4" d="M21 7.99995C21 9.0498 20.3441 9.98963 19.358 10.3499L8 14.5V24.5L21 19.7499V7.99995Z" fill="url(#paint1_linear_48_2489)"/>
<path id="Vector_5" opacity="0.5" d="M21 7.99995C21 9.0498 20.3441 9.98963 19.358 10.3499L8 14.5V24.5L21 19.7499V7.99995Z" fill="url(#paint2_linear_48_2489)"/>
<path id="Vector_6" opacity="0.5" d="M16.0003 11.58L11.998 13.0442L11.9981 18.9087C11.9981 19.2581 12.3473 19.4997 12.6742 19.3766L14.381 18.7342C15.3553 18.3675 16.0003 17.4355 16.0003 16.3945V11.58Z" fill="var(--fill-0, #B0ADFF)"/>
</g>
<defs>
<filter id="filter0_f_48_2489" x="7.2" y="7.29995" width="14.6" height="18.1" filterUnits="userSpaceOnUse" color-interpolation-filters="sRGB">
<feFlood flood-opacity="0" result="BackgroundImageFix"/>
<feBlend mode="normal" in="SourceGraphic" in2="BackgroundImageFix" result="shape"/>
<feGaussianBlur stdDeviation="0.4" result="effect1_foregroundBlur_48_2489"/>
</filter>
<filter id="filter1_f_48_2489" x="0" y="0.49995" width="29" height="32.5" filterUnits="userSpaceOnUse" color-interpolation-filters="sRGB">
<feFlood flood-opacity="0" result="BackgroundImageFix"/>
<feBlend mode="normal" in="SourceGraphic" in2="BackgroundImageFix" result="shape"/>
<feGaussianBlur stdDeviation="4" result="effect1_foregroundBlur_48_2489"/>
</filter>
<linearGradient id="paint0_linear_48_2489" x1="10.0113" y1="-5.82139e-08" x2="14.6646" y2="12.1808" gradientUnits="userSpaceOnUse">
<stop stop-color="#CCDFFF"/>
<stop offset="1" stop-color="#CCDFFF"/>
</linearGradient>
<linearGradient id="paint1_linear_48_2489" x1="16.5344" y1="23.623" x2="16.5344" y2="9.10377" gradientUnits="userSpaceOnUse">
<stop stop-color="#DBDBDB"/>
<stop offset="1" stop-color="#FCFCFC"/>
</linearGradient>
<linearGradient id="paint2_linear_48_2489" x1="21" y1="14.4465" x2="16.0191" y2="14.4465" gradientUnits="userSpaceOnUse">
<stop stop-color="#94B9FF"/>
<stop offset="0.287843" stop-color="#94B9FF" stop-opacity="0.523646"/>
<stop offset="1" stop-color="#538FFF" stop-opacity="0"/>
</linearGradient>
</defs>
</svg>
