<svg width="26" height="23" viewBox="0 0 26 23.8619" fill="none" xmlns="http://www.w3.org/2000/svg">
<g id="Group">
<path id="Vector" d="M22.3333 22.8619H3.66667C2.95942 22.8619 2.28115 22.581 1.78105 22.0809C1.28095 21.5808 1 20.9025 1 20.1953V8.19526C1 7.48801 1.28095 6.80974 1.78105 6.30964C2.28115 5.80954 2.95942 5.52859 3.66667 5.52859H22.3333C23.0406 5.52859 23.7189 5.80954 24.219 6.30964C24.719 6.80974 25 7.48801 25 8.19526V20.1953C25 20.9025 24.719 21.5808 24.219 22.0809C23.7189 22.581 23.0406 22.8619 22.3333 22.8619Z" stroke="#0B0B0B" stroke-width="2"/>
<path id="Vector_2" d="M19 14.8619C18.8232 14.8619 18.6536 14.7917 18.5286 14.6667C18.4036 14.5416 18.3333 14.3721 18.3333 14.1953C18.3333 14.0184 18.4036 13.8489 18.5286 13.7239C18.6536 13.5988 18.8232 13.5286 19 13.5286C19.1768 13.5286 19.3464 13.5988 19.4714 13.7239C19.5964 13.8489 19.6667 14.0184 19.6667 14.1953C19.6667 14.3721 19.5964 14.5416 19.4714 14.6667C19.3464 14.7917 19.1768 14.8619 19 14.8619Z" fill="#0B0B0B" stroke="#0B0B0B" stroke-width="2" stroke-linejoin="round"/>
<path id="Vector_3" d="M21 5.52859V3.66592C20.9999 3.25726 20.9059 2.85409 20.7252 2.48755C20.5445 2.121 20.2819 1.8009 19.9578 1.55194C19.6338 1.30299 19.2568 1.13185 18.8561 1.05174C18.4553 0.971628 18.0415 0.984694 17.6467 1.08992L2.98 5.00059C2.41207 5.15194 1.91005 5.48667 1.55199 5.95276C1.19392 6.41885 0.99987 6.99018 1 7.57792V8.19526" stroke="#0B0B0B" stroke-width="2"/>
</g>
</svg>
