<svg width="33" height="41" viewBox="0 0 33.3333 41.3327" fill="none" xmlns="http://www.w3.org/2000/svg">
<g id="Group">
<path id="Vector" d="M2 1.94203e-05L25.3334 8.33329V19.7749C25.3334 20.6969 24.42 21.3406 23.5517 21.0306L18.6667 19.2865V12.8081C18.6667 11.4194 17.8057 10.1761 16.5057 9.68769L14.2345 8.83432C13.7986 8.67055 13.3333 8.99275 13.3333 9.45839V17.381L2 13.3334V1.94203e-05Z" fill="url(#paint0_linear_47_2274)"/>
<g id="Group_2" filter="url(#filter0_f_47_2274)">
<path id="Vector_2" d="M25.3333 10.8014C25.3333 12.2012 24.4588 13.4543 23.144 13.9347L8 19.4681V32.8014L25.3333 26.4681V10.8014Z" fill="black" fill-opacity="0.24"/>
</g>
<g id="Group_3" filter="url(#filter1_f_47_2274)">
<path id="Vector_3" d="M25.3333 11.3326C25.3333 12.7324 24.4588 13.9855 23.144 14.4659L8 19.9993V33.3327L25.3333 26.9993V11.3326Z" fill="black" fill-opacity="0.32"/>
</g>
<path id="Vector_4" d="M25.3333 10.6679C25.3333 12.0677 24.4588 13.3208 23.144 13.8012L8 19.3346V32.6679L25.3333 26.3345V10.6679Z" fill="url(#paint1_linear_47_2274)"/>
<path id="Vector_5" opacity="0.5" d="M25.3333 10.6679C25.3333 12.0677 24.4588 13.3208 23.144 13.8012L8 19.3346V32.6679L25.3333 26.3345V10.6679Z" fill="url(#paint2_linear_47_2274)"/>
<path id="Vector_6" opacity="0.5" d="M18.6659 15.4406L13.3295 17.3928L13.3296 25.2122C13.3296 25.678 13.7951 26.0002 14.2311 25.8361L16.5068 24.9795C17.8058 24.4905 18.6659 23.2478 18.6659 21.8598V15.4406Z" fill="#B0ADFF"/>
</g>
<defs>
<filter id="filter0_f_47_2274" x="7.2" y="10.0014" width="18.9333" height="23.6" filterUnits="userSpaceOnUse" color-interpolation-filters="sRGB">
<feFlood flood-opacity="0" result="BackgroundImageFix"/>
<feBlend mode="normal" in="SourceGraphic" in2="BackgroundImageFix" result="shape"/>
<feGaussianBlur stdDeviation="0.4" result="effect1_foregroundBlur_47_2274"/>
</filter>
<filter id="filter1_f_47_2274" x="0" y="3.33264" width="33.3333" height="38" filterUnits="userSpaceOnUse" color-interpolation-filters="sRGB">
<feFlood flood-opacity="0" result="BackgroundImageFix"/>
<feBlend mode="normal" in="SourceGraphic" in2="BackgroundImageFix" result="shape"/>
<feGaussianBlur stdDeviation="4" result="effect1_foregroundBlur_47_2274"/>
</filter>
<linearGradient id="paint0_linear_47_2274" x1="10.6817" y1="1.93427e-05" x2="16.8862" y2="16.2411" gradientUnits="userSpaceOnUse">
<stop stop-color="#0B53CE"/>
<stop offset="1" stop-color="#7252AA"/>
</linearGradient>
<linearGradient id="paint1_linear_47_2274" x1="19.3792" y1="31.4987" x2="19.3792" y2="12.1396" gradientUnits="userSpaceOnUse">
<stop stop-color="#2266E3"/>
<stop offset="1" stop-color="#AE7FE2"/>
</linearGradient>
<linearGradient id="paint2_linear_47_2274" x1="25.3333" y1="19.2632" x2="18.6921" y2="19.2632" gradientUnits="userSpaceOnUse">
<stop stop-color="#94B9FF"/>
<stop offset="0.287843" stop-color="#94B9FF" stop-opacity="0.523646"/>
<stop offset="1" stop-color="#538FFF" stop-opacity="0"/>
</linearGradient>
</defs>
</svg>
