<svg width="35" height="31" viewBox="0 0 35.25 31.0465" fill="none" xmlns="http://www.w3.org/2000/svg">
<g id="Group">
<path id="Vector" d="M27.25 22.5885C27.25 25.9275 20.1798 28.5931 18.1587 29.2869C17.8091 29.4069 17.4409 29.4069 17.0913 29.2869C15.0702 28.5931 8 25.9275 8 22.5885C8 17.2727 12.3093 12.9635 17.625 12.9635C22.9408 12.9635 27.25 17.2727 27.25 22.5885Z" fill="url(#paint0_linear_47_2151)"/>
<g id="Group_2" filter="url(#filter0_f_47_2151)">
<path id="Vector_2" d="M8 17.5465L17.2693 13.6384C17.497 13.5424 17.7538 13.5424 17.9816 13.6385L27.25 17.5463V23.0465L17.9812 19.138C17.7534 19.042 17.4966 19.042 17.2688 19.138L8 23.0465V17.5465Z" fill="black" fill-opacity="0.32"/>
</g>
<g id="Group_3" filter="url(#filter1_f_47_2151)">
<path id="Vector_3" d="M8 17.1753L17.2693 13.2672C17.497 13.1712 17.7538 13.1712 17.9816 13.2672L27.25 17.175V22.6753L17.9812 18.7667C17.7534 18.6707 17.4966 18.6707 17.2688 18.7667L8 22.6753V17.1753Z" fill="black" fill-opacity="0.24"/>
</g>
<path id="Vector_4" d="M8 17.0885L17.2693 13.1804C17.497 13.0844 17.7538 13.0844 17.9816 13.1804L27.25 17.0883V22.5885L17.9812 18.68C17.7534 18.5839 17.4966 18.5839 17.2688 18.68L8 22.5885V17.0885Z" fill="url(#paint1_linear_47_2151)"/>
<g id="Group_4" filter="url(#filter2_f_47_2151)">
<path id="Vector_5" d="M8 12.5889C8 12.2202 8.22082 11.8874 8.56049 11.7442L17.2688 8.07203C17.4966 7.97599 17.7534 7.97599 17.9812 8.07203L26.6895 11.7442C27.0292 11.8874 27.25 12.2202 27.25 12.5889V17.5468L17.9812 13.6383C17.7534 13.5423 17.4966 13.5423 17.2688 13.6383L8 17.5468V12.5889Z" fill="black" fill-opacity="0.32"/>
</g>
<g id="Group_5" filter="url(#filter3_f_47_2151)">
<path id="Vector_6" d="M8 12.2176C8 11.849 8.22082 11.5162 8.56049 11.373L17.2688 7.70078C17.4966 7.60474 17.7534 7.60474 17.9812 7.70078L26.6895 11.373C27.0292 11.5162 27.25 11.849 27.25 12.2176V17.1756L17.9812 13.2671C17.7534 13.171 17.4966 13.171 17.2688 13.2671L8 17.1756V12.2176Z" fill="black" fill-opacity="0.24"/>
</g>
<path id="Vector_7" d="M8 12.1305C8 11.7619 8.22082 11.4291 8.56049 11.2859L17.2688 7.61367C17.4966 7.51764 17.7534 7.51764 17.9812 7.61367L26.6895 11.2859C27.0292 11.4291 27.25 11.7619 27.25 12.1305V17.0885L17.9812 13.1799C17.7534 13.0839 17.4966 13.0839 17.2688 13.1799L8 17.0885V12.1305Z" fill="url(#paint2_linear_47_2151)"/>
</g>
<defs>
<filter id="filter0_f_47_2151" x="0" y="5.56644" width="35.25" height="25.4801" filterUnits="userSpaceOnUse" color-interpolation-filters="sRGB">
<feFlood flood-opacity="0" result="BackgroundImageFix"/>
<feBlend mode="normal" in="SourceGraphic" in2="BackgroundImageFix" result="shape"/>
<feGaussianBlur stdDeviation="4" result="effect1_foregroundBlur_47_2151"/>
</filter>
<filter id="filter1_f_47_2151" x="7.24" y="12.4352" width="20.77" height="11.0001" filterUnits="userSpaceOnUse" color-interpolation-filters="sRGB">
<feFlood flood-opacity="0" result="BackgroundImageFix"/>
<feBlend mode="normal" in="SourceGraphic" in2="BackgroundImageFix" result="shape"/>
<feGaussianBlur stdDeviation="0.38" result="effect1_foregroundBlur_47_2151"/>
</filter>
<filter id="filter2_f_47_2151" x="0" y="1.49012e-07" width="35.25" height="25.5468" filterUnits="userSpaceOnUse" color-interpolation-filters="sRGB">
<feFlood flood-opacity="0" result="BackgroundImageFix"/>
<feBlend mode="normal" in="SourceGraphic" in2="BackgroundImageFix" result="shape"/>
<feGaussianBlur stdDeviation="4" result="effect1_foregroundBlur_47_2151"/>
</filter>
<filter id="filter3_f_47_2151" x="7.24" y="6.86875" width="20.77" height="11.0668" filterUnits="userSpaceOnUse" color-interpolation-filters="sRGB">
<feFlood flood-opacity="0" result="BackgroundImageFix"/>
<feBlend mode="normal" in="SourceGraphic" in2="BackgroundImageFix" result="shape"/>
<feGaussianBlur stdDeviation="0.38" result="effect1_foregroundBlur_47_2151"/>
</filter>
<linearGradient id="paint0_linear_47_2151" x1="8" y1="12.9635" x2="30.2081" y2="19.6741" gradientUnits="userSpaceOnUse">
<stop stop-color="#EA8200"/>
<stop offset="1" stop-color="#C46A08"/>
</linearGradient>
<linearGradient id="paint1_linear_47_2151" x1="8" y1="13.0303" x2="27.052" y2="22.9682" gradientUnits="userSpaceOnUse">
<stop stop-color="#FAC240"/>
<stop offset="1" stop-color="#F29800"/>
</linearGradient>
<linearGradient id="paint2_linear_47_2151" x1="8.22917" y1="3.05685" x2="13.9357" y2="21.8503" gradientUnits="userSpaceOnUse">
<stop stop-color="#FFED80"/>
<stop offset="0.961333" stop-color="#FFDB00"/>
</linearGradient>
</defs>
</svg>
