<?xml version="1.0" encoding="UTF-8"?>
<svg width="122" height="20" viewBox="0 0 122.023 20.0005" fill="none" xmlns="http://www.w3.org/2000/svg">
<g id="Group649">
<path d="M25.4237 0H25.7855L37.652 11.2818V0.613371H41.6075V19.9739H41.2457L29.3792 8.66321V19.5833H25.4237V0Z" fill="#FAFAFA"/>
<path d="M54.1082 11.5897H62.6902V8.18999H54.1082V4.15066H63.1096V0.61198H50.1527V19.5845H63.3298V16.0459H54.1082V11.5897Z" fill="#FAFAFA"/>
<path d="M79.5263 9.02797V12.4277H84.9025C84.2892 14.8524 82.4228 16.4671 79.7491 16.4671C76.3231 16.4671 74.1763 13.6807 74.1763 10.1132C74.1763 6.54566 76.2104 3.78811 79.6364 3.78811C81.7832 3.78811 83.5945 4.8733 84.4858 6.88117L88.1922 5.09873C86.5199 1.86674 83.3429 0.165551 79.639 0.165551C73.9011 0.165551 69.9718 4.34381 69.9718 10.1105C69.9718 15.8773 73.9299 20.0005 79.6128 20.0005C85.2957 20.0005 89.1962 15.99 89.1962 10.3071C89.1962 9.88774 89.1673 9.44475 89.1411 9.02535H79.5289L79.5263 9.02797Z" fill="#FAFAFA"/>
<path d="M100.389 0.61198H96.4051V19.5845H100.389V0.61198Z" fill="#FAFAFA"/>
<path d="M115.249 8.02235C113.967 7.66062 112.686 7.215 112.686 5.84934C112.686 4.64881 113.718 3.73137 115.333 3.73137C116.531 3.73137 117.703 4.31591 118.817 5.68158L121.687 3.00791C120.072 1.03149 117.899 0.137649 115.446 0.137649C111.658 0.137649 108.704 2.53346 108.704 5.98826C108.704 9.44306 111.574 10.9188 115.307 11.9201C116.646 12.2845 118.038 12.8114 118.038 14.2321C118.038 15.5139 116.924 16.4313 115.252 16.4313C113.692 16.4313 112.02 15.5663 110.822 14.0643L107.98 16.6567C109.624 18.9949 112.243 19.9988 114.974 19.9988C119.291 19.9988 122.023 17.5191 122.023 14.0669C122.023 10.0826 118.958 8.99483 115.252 8.01973" fill="#FAFAFA"/>
<path d="M9.48637 14.1369C8.24127 14.1369 7.05646 14.365 5.87164 14.8394L9.48637 5.45801L13.1011 14.8394C11.9163 14.365 10.7315 14.1369 9.48637 14.1369ZM11.2819 0.611328H7.69342L0 19.5839H4.11015C5.69602 18.3388 7.46537 17.7228 9.48637 17.7228C11.5074 17.7228 13.2767 18.3388 14.8626 19.5839H18.9727L11.2819 0.611328Z" fill="#FAFAFA"/>
</g>
</svg>
