<svg width="16" height="18" viewBox="0 0 16.5 18.1667" fill="none" xmlns="http://www.w3.org/2000/svg">
<g id="Group">
<path id="Vector" d="M4.08333 0.75H12L15.75 4.5V14.9167" stroke="#0B0B0B" stroke-width="1.5" stroke-linecap="round" stroke-linejoin="round"/>
<path id="Vector_2" d="M0.75 16.1667V4.5C0.75 4.16848 0.881696 3.85054 1.11612 3.61612C1.35054 3.3817 1.66848 3.25 2 3.25H10.1267C10.2592 3.25012 10.3863 3.30287 10.48 3.39667L13.1033 6.02C13.15 6.06658 13.1869 6.12193 13.2121 6.18285C13.2373 6.24378 13.2502 6.30908 13.25 6.375V16.1667C13.25 16.4982 13.1183 16.8161 12.8839 17.0506C12.6495 17.285 12.3315 17.4167 12 17.4167H2C1.66848 17.4167 1.35054 17.285 1.11612 17.0506C0.881696 16.8161 0.75 16.4982 0.75 16.1667Z" stroke="#0B0B0B" stroke-width="1.5" stroke-linecap="round" stroke-linejoin="round"/>
<path id="Vector_3" d="M9.91667 3.25V6.08333C9.91667 6.21594 9.96934 6.34312 10.0631 6.43689C10.1569 6.53066 10.2841 6.58333 10.4167 6.58333H13.25" stroke="#0B0B0B" stroke-width="1.5" stroke-linecap="round" stroke-linejoin="round"/>
</g>
</svg>
