<svg width="31" height="28" viewBox="0 0 31.9788 28" fill="none" xmlns="http://www.w3.org/2000/svg">
<g id="Group">
<path id="Vector" d="M0.0264595 1.59537C-0.138952 0.77017 0.49216 0 1.33379 0H9.54918C10.1893 0 10.7392 0.45498 10.8589 1.08385L11.0334 2H30.6448C31.495 2 32.128 2.785 31.9478 3.6159L30.0685 12.2826C29.9355 12.8958 29.3929 13.3333 28.7655 13.3333H13.1922L13.8271 16.6667H26.6752C27.5223 16.6667 28.1547 17.4463 27.9799 18.2752L26.1517 26.9419C26.0216 27.5586 25.4774 28 24.847 28H6.41178C5.77641 28 5.22931 27.5517 5.10444 26.9287L0.0264595 1.59537Z" fill="url(#paint0_linear_54_2946)"/>
</g>
<defs>
<linearGradient id="paint0_linear_54_2946" x1="-4.18082" y1="-7" x2="11.9154" y2="29.7813" gradientUnits="userSpaceOnUse">
<stop stop-color="#FAC240"/>
<stop offset="0.199984" stop-color="#F29800"/>
</linearGradient>
</defs>
</svg>
