<svg preserveAspectRatio="none" width="100%" height="100%" overflow="visible" style="display: block;" viewBox="0 0 48 48.0005" fill="none" xmlns="http://www.w3.org/2000/svg">
<g id="Group">
<path id="Vector" fill-rule="evenodd" clip-rule="evenodd" d="M24.001 16.8299C28.2986 18.5502 31.3343 22.7532 31.3343 27.6653C31.3343 27.8037 31.3319 27.9415 31.3271 28.0787C29.3245 29.6965 26.7758 30.6653 24.0009 30.6653C21.226 30.6653 18.6774 29.6965 16.6748 28.0787C16.67 27.9415 16.6676 27.8037 16.6676 27.6653C16.6676 22.7532 19.7033 18.5502 24.001 16.8299Z" fill="url(#paint0_linear_47_2130)"/>
<g id="Group_2" filter="url(#filter0_f_47_2130)">
<path id="Vector_2" d="M35.6589 19.2532C33.6563 17.6354 31.1076 16.6667 28.3327 16.6667C21.8894 16.6667 16.6661 21.89 16.6661 28.3333C16.6661 28.4717 16.6685 28.6095 16.6733 28.7468C14.0258 26.608 12.3327 23.3351 12.3327 19.6667C12.3327 13.2233 17.5561 8 23.9994 8C30.3043 8 35.4411 13.0014 35.6589 19.2532Z" fill="var(--fill-0, black)" fill-opacity="0.32"/>
</g>
<g id="Group_3" filter="url(#filter1_f_47_2130)">
<path id="Vector_3" d="M35.6589 18.7147C33.6563 17.0969 31.1076 16.1281 28.3327 16.1281C21.8894 16.1281 16.6661 21.3515 16.6661 27.7948C16.6661 27.9332 16.6685 28.071 16.6733 28.2082C14.0258 26.0695 12.3327 22.7965 12.3327 19.1281C12.3327 12.6848 17.5561 7.46147 23.9994 7.46147C30.3043 7.46147 35.4411 12.4629 35.6589 18.7147Z" fill="var(--fill-0, black)" fill-opacity="0.24"/>
</g>
<path id="Vector_4" fill-rule="evenodd" clip-rule="evenodd" d="M35.6585 18.586C33.6559 16.9682 31.1073 15.9994 28.3324 15.9994C21.8891 15.9994 16.6657 21.2227 16.6657 27.6661C16.6657 27.8044 16.6681 27.9423 16.6729 28.0795C14.0255 25.9408 12.3324 22.6678 12.3324 18.9994C12.3324 12.5561 17.5557 7.33274 23.9991 7.33274C30.304 7.33274 35.4408 12.3341 35.6585 18.586Z" fill="url(#paint1_linear_47_2130)"/>
<g id="Group_4" filter="url(#filter2_f_47_2130)">
<path id="Vector_5" d="M31.3261 28.7472C29.3235 30.365 26.7749 31.3338 24 31.3338C17.5567 31.3338 12.3333 26.1105 12.3333 19.6672C12.3333 19.5288 12.3357 19.391 12.3405 19.2537C9.69311 21.3924 8 24.6654 8 28.3338C8 34.7771 13.2233 40.0005 19.6667 40.0005C25.9716 40.0005 31.1084 34.9991 31.3261 28.7472Z" fill="var(--fill-0, black)" fill-opacity="0.32"/>
</g>
<g id="Group_5" filter="url(#filter3_f_47_2130)">
<path id="Vector_6" d="M31.3261 28.2067C29.3235 29.8245 26.7749 30.7933 24 30.7933C17.5567 30.7933 12.3333 25.5699 12.3333 19.1266C12.3333 18.9882 12.3357 18.8504 12.3405 18.7132C9.69311 20.8519 8 24.1248 8 27.7933C8 34.2366 13.2233 39.4599 19.6667 39.4599C25.9716 39.4599 31.1084 34.4585 31.3261 28.2067Z" fill="var(--fill-0, black)" fill-opacity="0.24"/>
</g>
<path id="Vector_7" fill-rule="evenodd" clip-rule="evenodd" d="M31.3261 28.0791C29.3235 29.6969 26.7749 30.6656 24 30.6656C17.5567 30.6656 12.3333 25.4423 12.3333 18.999C12.3333 18.8606 12.3357 18.7228 12.3405 18.5856C9.69311 20.7243 8 23.9972 8 27.6656C8 34.109 13.2233 39.3323 19.6667 39.3323C25.9716 39.3323 31.1084 34.3309 31.3261 28.0791Z" fill="url(#paint2_linear_47_2130)"/>
<g id="Group_6" filter="url(#filter4_f_47_2130)">
<path id="Vector_8" d="M24 39.1675C28.2976 37.4472 31.3333 33.2442 31.3333 28.3321C31.3333 23.4201 28.2976 19.217 24 17.4967C25.3397 16.9605 26.8021 16.6655 28.3333 16.6655C34.7767 16.6655 40 21.8888 40 28.3321C40 34.7755 34.7767 39.9988 28.3333 39.9988C26.8021 39.9988 25.3397 39.7038 24 39.1675Z" fill="var(--fill-0, black)" fill-opacity="0.32"/>
</g>
<g id="Group_7" filter="url(#filter5_f_47_2130)">
<path id="Vector_9" d="M24 38.6271C28.2976 36.9068 31.3333 32.7037 31.3333 27.7917C31.3333 22.8796 28.2976 18.6766 24 16.9563C25.3397 16.42 26.8021 16.125 28.3333 16.125C34.7767 16.125 40 21.3483 40 27.7917C40 34.235 34.7767 39.4583 28.3333 39.4583C26.8021 39.4583 25.3397 39.1633 24 38.6271Z" fill="var(--fill-0, black)" fill-opacity="0.24"/>
</g>
<path id="Vector_10" fill-rule="evenodd" clip-rule="evenodd" d="M24 38.5024C28.2976 36.7821 31.3333 32.5791 31.3333 27.667C31.3333 22.755 28.2976 18.5519 24 16.8316C25.3397 16.2954 26.8021 16.0004 28.3333 16.0004C34.7767 16.0004 40 21.2237 40 27.667C40 34.1104 34.7767 39.3337 28.3333 39.3337C26.8021 39.3337 25.3397 39.0387 24 38.5024Z" fill="url(#paint3_linear_47_2130)"/>
</g>
<defs>
<filter id="filter0_f_47_2130" x="4.33274" y="2.38419e-07" width="39.3261" height="36.7468" filterUnits="userSpaceOnUse" color-interpolation-filters="sRGB">
<feFlood flood-opacity="0" result="BackgroundImageFix"/>
<feBlend mode="normal" in="SourceGraphic" in2="BackgroundImageFix" result="shape"/>
<feGaussianBlur stdDeviation="4" result="effect1_foregroundBlur_47_2130"/>
</filter>
<filter id="filter1_f_47_2130" x="11.5727" y="6.70147" width="24.8461" height="22.2668" filterUnits="userSpaceOnUse" color-interpolation-filters="sRGB">
<feFlood flood-opacity="0" result="BackgroundImageFix"/>
<feBlend mode="normal" in="SourceGraphic" in2="BackgroundImageFix" result="shape"/>
<feGaussianBlur stdDeviation="0.38" result="effect1_foregroundBlur_47_2130"/>
</filter>
<filter id="filter2_f_47_2130" x="0" y="11.2537" width="39.3261" height="36.7468" filterUnits="userSpaceOnUse" color-interpolation-filters="sRGB">
<feFlood flood-opacity="0" result="BackgroundImageFix"/>
<feBlend mode="normal" in="SourceGraphic" in2="BackgroundImageFix" result="shape"/>
<feGaussianBlur stdDeviation="4" result="effect1_foregroundBlur_47_2130"/>
</filter>
<filter id="filter3_f_47_2130" x="7.24" y="17.9532" width="24.8461" height="22.2668" filterUnits="userSpaceOnUse" color-interpolation-filters="sRGB">
<feFlood flood-opacity="0" result="BackgroundImageFix"/>
<feBlend mode="normal" in="SourceGraphic" in2="BackgroundImageFix" result="shape"/>
<feGaussianBlur stdDeviation="0.38" result="effect1_foregroundBlur_47_2130"/>
</filter>
<filter id="filter4_f_47_2130" x="16" y="8.66548" width="32" height="39.3333" filterUnits="userSpaceOnUse" color-interpolation-filters="sRGB">
<feFlood flood-opacity="0" result="BackgroundImageFix"/>
<feBlend mode="normal" in="SourceGraphic" in2="BackgroundImageFix" result="shape"/>
<feGaussianBlur stdDeviation="4" result="effect1_foregroundBlur_47_2130"/>
</filter>
<filter id="filter5_f_47_2130" x="23.24" y="15.365" width="17.52" height="24.8533" filterUnits="userSpaceOnUse" color-interpolation-filters="sRGB">
<feFlood flood-opacity="0" result="BackgroundImageFix"/>
<feBlend mode="normal" in="SourceGraphic" in2="BackgroundImageFix" result="shape"/>
<feGaussianBlur stdDeviation="0.38" result="effect1_foregroundBlur_47_2130"/>
</filter>
<linearGradient id="paint0_linear_47_2130" x1="16.6676" y1="16.8299" x2="30.9743" y2="31.0279" gradientUnits="userSpaceOnUse">
<stop stop-color="#2064AE"/>
<stop offset="1" stop-color="#27518A"/>
</linearGradient>
<linearGradient id="paint1_linear_47_2130" x1="16.3119" y1="9.17706" x2="24.5485" y2="28.877" gradientUnits="userSpaceOnUse">
<stop stop-color="#7CECFF"/>
<stop offset="1" stop-color="#50E6FF"/>
</linearGradient>
<linearGradient id="paint2_linear_47_2130" x1="18.3333" y1="25.499" x2="37.3885" y2="43.9306" gradientUnits="userSpaceOnUse">
<stop stop-color="#40C4F5"/>
<stop offset="1" stop-color="#0095E6"/>
</linearGradient>
<linearGradient id="paint3_linear_47_2130" x1="23.1667" y1="16.0004" x2="34.8333" y2="36.667" gradientUnits="userSpaceOnUse">
<stop stop-color="#0095E6"/>
<stop offset="1" stop-color="#0078D4"/>
</linearGradient>
</defs>
</svg>
