<svg preserveAspectRatio="none" width="100%" height="100%" overflow="visible" style="display: block;" viewBox="0 0 1322.85 27" fill="none" xmlns="http://www.w3.org/2000/svg">
<g id="Content">
<g id="Logo">
<path fill-rule="evenodd" clip-rule="evenodd" d="M28.8562 4.5L19.6486 22.5H11L14.8534 15.04H14.6805C11.5015 19.1668 6.7583 21.8835 0 22.5V15.1433C0 15.1433 4.32345 14.8879 6.86508 12.2157H0V4.50014H7.71561V10.8461L7.88878 10.8454L11.0417 4.50014H16.8768V10.8059L17.0499 10.8056L20.3211 4.5H28.8562Z" fill="var(--fill-0, #717F92)"/>
<path d="M79.0664 20.5132H81.5513V6.25H79.0664V20.5132Z" fill="var(--fill-0, #717F92)"/>
<path fill-rule="evenodd" clip-rule="evenodd" d="M65.3674 20.3676C65.9074 20.5921 66.4566 20.7044 67.0149 20.7044C67.9372 20.7044 68.7625 20.4799 69.4907 20.0308C70.2188 19.5818 70.7831 18.9629 71.1836 18.174C71.5841 17.3791 71.7844 16.4779 71.7844 15.4706C71.7844 14.4633 71.5781 13.5622 71.1655 12.7672C70.7528 11.9723 70.1794 11.3564 69.4451 10.9195C68.7109 10.4765 67.8765 10.2581 66.942 10.2641C66.3474 10.2641 65.777 10.3794 65.2308 10.61C64.6847 10.8406 64.2296 11.1683 63.8655 11.5931C63.8374 11.6254 63.8101 11.6581 63.7836 11.691V6.25915H61.2896V20.5133H63.7654L63.7604 19.1817C63.8244 19.2602 63.8929 19.3369 63.9656 19.4119C64.36 19.8185 64.8273 20.137 65.3674 20.3676ZM67.9159 18.0648C67.5093 18.3136 67.0451 18.438 66.5232 18.438C66.0074 18.438 65.5342 18.3105 65.1034 18.0557C64.6725 17.7947 64.3297 17.4398 64.0748 16.9907C63.826 16.5417 63.7016 16.0319 63.7016 15.4615C63.6956 14.8911 63.8169 14.3814 64.0657 13.9323C64.3206 13.4772 64.6634 13.1253 65.0943 12.8765C65.5251 12.6216 66.0014 12.4972 66.5232 12.5033C67.0451 12.4972 67.5093 12.6186 67.9159 12.8674C68.3285 13.1101 68.6441 13.459 68.8626 13.9141C69.0871 14.3632 69.1994 14.879 69.1994 15.4615C69.1994 16.0441 69.0871 16.5599 68.8626 17.0089C68.6441 17.458 68.3285 17.8099 67.9159 18.0648Z" fill="var(--fill-0, #717F92)"/>
<path d="M32.4561 7.11475H35.296L37.8364 16.3923L40.5389 7.11475H42.9055L45.8364 16.2061L48.2758 7.11475H50.879L47.0379 20.5132H44.5894L41.609 11.6316L38.8732 20.5132H36.3974L32.4561 7.11475Z" fill="var(--fill-0, #717F92)"/>
<path fill-rule="evenodd" clip-rule="evenodd" d="M55.073 20.7498C54.0838 20.7559 53.1918 20.5374 52.3969 20.0945C51.608 19.6454 50.9861 19.0234 50.5309 18.2285C50.0819 17.4336 49.8574 16.5264 49.8574 15.5069C49.8574 14.5178 50.088 13.6228 50.5492 12.8218C51.0103 12.0208 51.6353 11.3958 52.4242 10.9468C53.2131 10.4977 54.0929 10.2732 55.0638 10.2732C56.1561 10.2732 57.1118 10.5159 57.931 11.0014C58.7563 11.4868 59.3722 12.1756 59.7788 13.0676C60.1914 13.9535 60.3401 14.9699 60.2248 16.1168H52.4281C52.4499 16.5737 52.5639 16.9894 52.7701 17.3638C53.0007 17.7764 53.3223 18.098 53.7349 18.3286C54.1476 18.5592 54.6087 18.6745 55.1185 18.6745C55.5068 18.6684 55.8679 18.6017 56.2016 18.4743C56.5354 18.3408 56.8175 18.1618 57.0481 17.9372C57.2848 17.7127 57.4517 17.4579 57.5488 17.1727H60.152C59.9942 17.8705 59.6787 18.4925 59.2054 19.0386C58.732 19.5787 58.1374 20.0004 57.4213 20.3038C56.7053 20.6072 55.9225 20.7559 55.073 20.7498ZM52.7792 13.6137C52.6338 13.8673 52.533 14.1403 52.4769 14.4329H57.6452C57.6077 14.0633 57.4936 13.7265 57.303 13.4226C57.0845 13.0645 56.7872 12.7884 56.411 12.5943C56.0348 12.394 55.61 12.2939 55.1367 12.2939C54.633 12.2939 54.1749 12.4092 53.7622 12.6398C53.3496 12.8704 53.0219 13.195 52.7792 13.6137Z" fill="var(--fill-0, #717F92)"/>
<path d="M73.6142 10.4826C73.6142 9.66943 73.7992 8.94732 74.1694 8.31623C74.5395 7.67908 75.0584 7.18452 75.7259 6.83257C76.3994 6.47455 77.1853 6.28947 78.0833 6.27734V8.48917C77.6646 8.49524 77.3066 8.58323 77.0093 8.75314C76.718 8.91698 76.4935 9.15667 76.3357 9.47221C76.1905 9.76271 76.1121 10.0995 76.1006 10.4826H78.0287V12.5852H76.0991V20.5132H73.6142V12.5852H72.0122V10.4826H73.6142Z" fill="var(--fill-0, #717F92)"/>
<path fill-rule="evenodd" clip-rule="evenodd" d="M87.8679 20.7316C86.8545 20.7316 85.9473 20.5101 85.1463 20.0672C84.3514 19.6181 83.7264 18.9992 83.2713 18.2103C82.8222 17.4154 82.5977 16.5143 82.5977 15.5069C82.5977 14.4936 82.8222 13.5894 83.2713 12.7945C83.7264 11.9935 84.3514 11.3715 85.1463 10.9285C85.9473 10.4855 86.8545 10.264 87.8679 10.264C88.8873 10.264 89.7976 10.4855 90.5985 10.9285C91.4056 11.3715 92.0337 11.9904 92.4827 12.7854C92.9317 13.5803 93.1593 14.4875 93.1654 15.5069C93.1593 16.5143 92.9317 17.4154 92.4827 18.2103C92.0397 18.9992 91.4147 19.6181 90.6076 20.0672C89.8006 20.5101 88.8873 20.7316 87.8679 20.7316ZM87.8679 18.447C88.4019 18.447 88.8752 18.3256 89.2878 18.0829C89.7005 17.8341 90.019 17.4882 90.2436 17.0452C90.4681 16.5962 90.5803 16.0834 90.5803 15.5069C90.5803 14.9244 90.4681 14.4086 90.2436 13.9595C90.019 13.5105 89.7005 13.1646 89.2878 12.9219C88.8752 12.6731 88.4019 12.5487 87.8679 12.5487C87.34 12.5487 86.8697 12.6731 86.457 12.9219C86.0505 13.1646 85.7349 13.5105 85.5104 13.9595C85.2859 14.4086 85.1767 14.9244 85.1827 15.5069C85.1827 16.0834 85.295 16.5962 85.5195 17.0452C85.7501 17.4882 86.0656 17.8341 86.4661 18.0829C86.8727 18.3256 87.34 18.447 87.8679 18.447Z" fill="var(--fill-0, #717F92)"/>
<path d="M95.8505 10.4825H93.0835L96.0781 20.5132H98.4993L100.469 14.1066L102.595 20.5132H104.98L107.984 10.4825H105.481L103.777 16.726L101.894 10.4825H99.4732L97.5994 16.8635L95.8505 10.4825Z" fill="var(--fill-0, #717F92)"/>
</g>
<path id="Logo_2" fill-rule="evenodd" clip-rule="evenodd" d="M179.73 6.5745L179.919 6.912C180.157 7.32214 180.283 7.78779 180.284 8.26194V18.7244C180.28 19.1982 180.154 19.6631 179.919 20.0744L179.717 20.4119C179.486 20.8251 179.144 21.1662 178.731 21.3974L169.673 26.6354C169.263 26.8733 168.797 26.999 168.323 26.9999H167.945C167.47 27.0044 167.003 26.8782 166.595 26.6354L157.523 21.4109C157.119 21.1682 156.78 20.8298 156.537 20.4254L156.348 20.0879C156.11 19.6777 155.985 19.2122 155.984 18.7379V8.27544C155.985 7.80129 156.11 7.33564 156.348 6.9255L156.537 6.588C156.774 6.17892 157.114 5.83905 157.523 5.6025L166.581 0.3645C166.992 0.126571 167.457 0.000856098 167.931 0H168.323C168.797 0.000856098 169.263 0.126571 169.673 0.3645L178.731 5.589C179.143 5.82713 179.487 6.16634 179.73 6.5745ZM168.323 2.69993H167.931L160.034 7.26294L168.134 11.9339L176.234 7.26294L168.323 2.69993ZM177.381 19.062L169.484 23.625V14.283L177.584 9.59857V18.7245L177.381 19.062ZM215.488 19.9801H212.689V5.20576H215.488V19.9801ZM190.228 20.2968H193.358V14.9314H194.719L198.043 20.2968H201.387L197.712 14.3871C199.345 13.9011 200.57 12.793 200.57 10.6935V10.6157C200.57 7.73862 198.49 6.39725 195.205 6.39725H190.228V20.2968ZM193.358 12.793V8.80782H195.127C196.643 8.80782 197.499 9.29382 197.499 10.7129V10.7907C197.499 12.132 196.702 12.793 195.127 12.793H193.358ZM206.47 20.1934C209.25 20.1934 210.999 18.9687 211.33 16.772H208.667C208.492 17.6274 207.85 18.1911 206.548 18.1911C205.012 18.1911 204.098 17.2191 204.02 15.5279H211.349V14.7503C211.349 11.1149 209.017 9.57924 206.392 9.57924C203.437 9.57924 201.163 11.6593 201.163 14.8669V15.0224C201.163 18.2689 203.398 20.1934 206.47 20.1934ZM204.059 13.7977C204.273 12.3591 205.129 11.5232 206.392 11.5232C207.734 11.5232 208.511 12.2619 208.608 13.7977H204.059ZM220.858 20.1942C222.53 20.1942 223.56 19.4166 224.085 18.3864V19.9804H226.885V9.81333H224.085V15.7814C224.085 17.2783 223.152 18.017 221.967 18.017C220.762 18.017 220.197 17.356 220.197 15.9758V9.81333H217.398V16.3646C217.398 19.0278 218.876 20.1942 220.858 20.1942ZM231.615 19.9796H228.796V9.8125H231.615V11.3677C232.12 10.4151 233.209 9.57924 234.725 9.57924C236.067 9.57924 237.077 10.143 237.563 11.3483C238.38 10.1235 239.702 9.57924 240.985 9.57924C242.871 9.57924 244.329 10.7651 244.329 13.4672V19.9796H241.529V13.7783C241.529 12.4757 240.946 11.8925 239.935 11.8925C238.846 11.8925 237.972 12.5924 237.972 13.9727V19.9796H235.172V13.7783C235.172 12.4757 234.57 11.8925 233.578 11.8925C232.489 11.8925 231.615 12.5924 231.615 13.9727V19.9796ZM250.837 20.1934C253.618 20.1934 255.367 18.9687 255.697 16.772H253.034C252.859 17.6274 252.218 18.1911 250.915 18.1911C249.379 18.1911 248.466 17.2191 248.388 15.5279H255.717V14.7503C255.717 11.1149 253.384 9.57924 250.76 9.57924C247.805 9.57924 245.53 11.6593 245.53 14.8669V15.0224C245.53 18.2689 247.766 20.1934 250.837 20.1934ZM248.427 13.7977C248.641 12.3591 249.497 11.5232 250.76 11.5232C252.101 11.5232 252.879 12.2619 252.976 13.7977H248.427Z" fill="var(--fill-0, #717F92)"/>
<g id="Logo_3">
<path fill-rule="evenodd" clip-rule="evenodd" d="M332.573 4.5L323.366 22.5H314.717L318.571 15.04H318.398C315.219 19.1668 310.475 21.8835 303.717 22.5V15.1433C303.717 15.1433 308.041 14.8879 310.582 12.2157H303.717V4.50014H311.433V10.8461L311.606 10.8454L314.759 4.50014H320.594V10.8059L320.767 10.8056L324.038 4.5H332.573Z" fill="var(--fill-0, #717F92)"/>
<path d="M382.784 20.5132H385.268V6.25H382.784V20.5132Z" fill="var(--fill-0, #717F92)"/>
<path fill-rule="evenodd" clip-rule="evenodd" d="M369.084 20.3676C369.624 20.5921 370.174 20.7044 370.732 20.7044C371.654 20.7044 372.48 20.4799 373.208 20.0308C373.936 19.5818 374.5 18.9629 374.901 18.174C375.301 17.3791 375.501 16.4779 375.501 15.4706C375.501 14.4633 375.295 13.5622 374.883 12.7672C374.47 11.9723 373.896 11.3564 373.162 10.9195C372.428 10.4765 371.594 10.2581 370.659 10.2641C370.064 10.2641 369.494 10.3794 368.948 10.61C368.402 10.8406 367.947 11.1683 367.583 11.5931C367.554 11.6254 367.527 11.6581 367.501 11.691V6.25915H365.007V20.5133H367.482L367.477 19.1817C367.541 19.2602 367.61 19.3369 367.683 19.4119C368.077 19.8185 368.544 20.137 369.084 20.3676ZM371.633 18.0648C371.226 18.3136 370.762 18.438 370.24 18.438C369.725 18.438 369.251 18.3105 368.82 18.0557C368.39 17.7947 368.047 17.4398 367.792 16.9907C367.543 16.5417 367.419 16.0319 367.419 15.4615C367.413 14.8911 367.534 14.3814 367.783 13.9323C368.038 13.4772 368.38 13.1253 368.811 12.8765C369.242 12.6216 369.719 12.4972 370.24 12.5033C370.762 12.4972 371.226 12.6186 371.633 12.8674C372.046 13.1101 372.361 13.459 372.58 13.9141C372.804 14.3632 372.916 14.879 372.916 15.4615C372.916 16.0441 372.804 16.5599 372.58 17.0089C372.361 17.458 372.046 17.8099 371.633 18.0648Z" fill="var(--fill-0, #717F92)"/>
<path d="M336.173 7.11475H339.013L341.553 16.3923L344.256 7.11475H346.623L349.553 16.2061L351.993 7.11475H354.596L350.755 20.5132H348.306L345.326 11.6316L342.59 20.5132H340.114L336.173 7.11475Z" fill="var(--fill-0, #717F92)"/>
<path fill-rule="evenodd" clip-rule="evenodd" d="M358.79 20.7498C357.801 20.7559 356.909 20.5374 356.114 20.0945C355.325 19.6454 354.703 19.0234 354.248 18.2285C353.799 17.4336 353.575 16.5264 353.575 15.5069C353.575 14.5178 353.805 13.6228 354.266 12.8218C354.727 12.0208 355.352 11.3958 356.141 10.9468C356.93 10.4977 357.81 10.2732 358.781 10.2732C359.873 10.2732 360.829 10.5159 361.648 11.0014C362.473 11.4868 363.089 12.1756 363.496 13.0676C363.909 13.9535 364.057 14.9699 363.942 16.1168H356.145C356.167 16.5737 356.281 16.9894 356.487 17.3638C356.718 17.7764 357.039 18.098 357.452 18.3286C357.865 18.5592 358.326 18.6745 358.836 18.6745C359.224 18.6684 359.585 18.6017 359.919 18.4743C360.253 18.3408 360.535 18.1618 360.765 17.9372C361.002 17.7127 361.169 17.4579 361.266 17.1727H363.869C363.711 17.8705 363.396 18.4925 362.923 19.0386C362.449 19.5787 361.855 20.0004 361.138 20.3038C360.422 20.6072 359.64 20.7559 358.79 20.7498ZM356.496 13.6137C356.351 13.8673 356.25 14.1403 356.194 14.4329H361.362C361.325 14.0633 361.211 13.7265 361.02 13.4226C360.802 13.0645 360.504 12.7884 360.128 12.5943C359.752 12.394 359.327 12.2939 358.854 12.2939C358.35 12.2939 357.892 12.4092 357.479 12.6398C357.067 12.8704 356.739 13.195 356.496 13.6137Z" fill="var(--fill-0, #717F92)"/>
<path d="M377.331 10.4826C377.331 9.66943 377.516 8.94732 377.887 8.31623C378.257 7.67908 378.776 7.18452 379.443 6.83257C380.117 6.47455 380.902 6.28947 381.8 6.27734V8.48917C381.382 8.49524 381.024 8.58323 380.726 8.75314C380.435 8.91698 380.211 9.15667 380.053 9.47221C379.908 9.76271 379.829 10.0995 379.818 10.4826H381.746V12.5852H379.816V20.5132H377.331V12.5852H375.729V10.4826H377.331Z" fill="var(--fill-0, #717F92)"/>
<path fill-rule="evenodd" clip-rule="evenodd" d="M391.585 20.7316C390.572 20.7316 389.664 20.5101 388.863 20.0672C388.068 19.6181 387.443 18.9992 386.988 18.2103C386.539 17.4154 386.315 16.5143 386.315 15.5069C386.315 14.4936 386.539 13.5894 386.988 12.7945C387.443 11.9935 388.068 11.3715 388.863 10.9285C389.664 10.4855 390.572 10.264 391.585 10.264C392.604 10.264 393.515 10.4855 394.316 10.9285C395.123 11.3715 395.751 11.9904 396.2 12.7854C396.649 13.5803 396.876 14.4875 396.882 15.5069C396.876 16.5143 396.649 17.4154 396.2 18.2103C395.757 18.9992 395.132 19.6181 394.325 20.0672C393.518 20.5101 392.604 20.7316 391.585 20.7316ZM391.585 18.447C392.119 18.447 392.592 18.3256 393.005 18.0829C393.418 17.8341 393.736 17.4882 393.961 17.0452C394.185 16.5962 394.297 16.0834 394.297 15.5069C394.297 14.9244 394.185 14.4086 393.961 13.9595C393.736 13.5105 393.418 13.1646 393.005 12.9219C392.592 12.6731 392.119 12.5487 391.585 12.5487C391.057 12.5487 390.587 12.6731 390.174 12.9219C389.768 13.1646 389.452 13.5105 389.227 13.9595C389.003 14.4086 388.894 14.9244 388.9 15.5069C388.9 16.0834 389.012 16.5962 389.237 17.0452C389.467 17.4882 389.783 17.8341 390.183 18.0829C390.59 18.3256 391.057 18.447 391.585 18.447Z" fill="var(--fill-0, #717F92)"/>
<path d="M399.568 10.4825H396.801L399.795 20.5132H402.216L404.186 14.1066L406.312 20.5132H408.697L411.701 10.4825H409.198L407.494 16.726L405.611 10.4825H403.19L401.316 16.8635L399.568 10.4825Z" fill="var(--fill-0, #717F92)"/>
</g>
<path id="Logo_4" fill-rule="evenodd" clip-rule="evenodd" d="M483.447 6.5745L483.636 6.912C483.874 7.32214 484 7.78779 484.001 8.26194V18.7244C483.997 19.1982 483.871 19.6631 483.636 20.0744L483.434 20.4119C483.203 20.8251 482.862 21.1662 482.448 21.3974L473.39 26.6354C472.98 26.8733 472.514 26.999 472.04 26.9999H471.662C471.187 27.0044 470.72 26.8782 470.312 26.6354L461.24 21.4109C460.836 21.1682 460.497 20.8298 460.254 20.4254L460.065 20.0879C459.828 19.6777 459.702 19.2122 459.701 18.7379V8.27544C459.702 7.80129 459.828 7.33564 460.065 6.9255L460.254 6.588C460.491 6.17892 460.831 5.83905 461.24 5.6025L470.298 0.3645C470.709 0.126571 471.174 0.000856098 471.648 0H472.04C472.514 0.000856098 472.98 0.126571 473.39 0.3645L482.448 5.589C482.86 5.82713 483.204 6.16634 483.447 6.5745ZM472.04 2.69993H471.648L463.751 7.26294L471.851 11.9339L479.951 7.26294L472.04 2.69993ZM481.098 19.062L473.201 23.625V14.283L481.301 9.59857V18.7245L481.098 19.062ZM519.205 19.9801H516.406V5.20576H519.205V19.9801ZM493.945 20.2968H497.075V14.9314H498.436L501.76 20.2968H505.104L501.429 14.3871C503.062 13.9011 504.287 12.793 504.287 10.6935V10.6157C504.287 7.73862 502.207 6.39725 498.922 6.39725H493.945V20.2968ZM497.075 12.793V8.80782H498.844C500.36 8.80782 501.216 9.29382 501.216 10.7129V10.7907C501.216 12.132 500.419 12.793 498.844 12.793H497.075ZM510.187 20.1934C512.967 20.1934 514.716 18.9687 515.047 16.772H512.384C512.209 17.6274 511.567 18.1911 510.265 18.1911C508.729 18.1911 507.815 17.2191 507.738 15.5279H515.066V14.7503C515.066 11.1149 512.734 9.57924 510.109 9.57924C507.154 9.57924 504.88 11.6593 504.88 14.8669V15.0224C504.88 18.2689 507.115 20.1934 510.187 20.1934ZM507.776 13.7977C507.99 12.3591 508.846 11.5232 510.109 11.5232C511.451 11.5232 512.228 12.2619 512.325 13.7977H507.776ZM524.575 20.1942C526.247 20.1942 527.277 19.4166 527.802 18.3864V19.9804H530.602V9.81333H527.802V15.7814C527.802 17.2783 526.869 18.017 525.684 18.017C524.479 18.017 523.914 17.356 523.914 15.9758V9.81333H521.115V16.3646C521.115 19.0278 522.593 20.1942 524.575 20.1942ZM535.332 19.9796H532.513V9.8125H535.332V11.3677C535.837 10.4151 536.926 9.57924 538.442 9.57924C539.784 9.57924 540.795 10.143 541.281 11.3483C542.097 10.1235 543.419 9.57924 544.702 9.57924C546.588 9.57924 548.046 10.7651 548.046 13.4672V19.9796H545.246V13.7783C545.246 12.4757 544.663 11.8925 543.652 11.8925C542.563 11.8925 541.689 12.5924 541.689 13.9727V19.9796H538.889V13.7783C538.889 12.4757 538.287 11.8925 537.295 11.8925C536.207 11.8925 535.332 12.5924 535.332 13.9727V19.9796ZM554.554 20.1934C557.335 20.1934 559.085 18.9687 559.414 16.772H556.751C556.576 17.6274 555.935 18.1911 554.632 18.1911C553.096 18.1911 552.183 17.2191 552.105 15.5279H559.434V14.7503C559.434 11.1149 557.101 9.57924 554.477 9.57924C551.522 9.57924 549.247 11.6593 549.247 14.8669V15.0224C549.247 18.2689 551.483 20.1934 554.554 20.1934ZM552.144 13.7977C552.358 12.3591 553.214 11.5232 554.477 11.5232C555.818 11.5232 556.596 12.2619 556.693 13.7977H552.144Z" fill="var(--fill-0, #717F92)"/>
<g id="Logo_5">
<path fill-rule="evenodd" clip-rule="evenodd" d="M636.29 4.5L627.083 22.5H618.434L622.288 15.04H622.115C618.936 19.1668 614.193 21.8835 607.434 22.5V15.1433C607.434 15.1433 611.758 14.8879 614.299 12.2157H607.434V4.50014H615.15V10.8461L615.323 10.8454L618.476 4.50014H624.311V10.8059L624.484 10.8056L627.755 4.5H636.29Z" fill="var(--fill-0, #717F92)"/>
<path d="M686.501 20.5132H688.986V6.25H686.501V20.5132Z" fill="var(--fill-0, #717F92)"/>
<path fill-rule="evenodd" clip-rule="evenodd" d="M672.802 20.3676C673.342 20.5921 673.891 20.7044 674.449 20.7044C675.371 20.7044 676.197 20.4799 676.925 20.0308C677.653 19.5818 678.217 18.9629 678.618 18.174C679.018 17.3791 679.219 16.4779 679.219 15.4706C679.219 14.4633 679.012 13.5622 678.6 12.7672C678.187 11.9723 677.614 11.3564 676.879 10.9195C676.145 10.4765 675.311 10.2581 674.376 10.2641C673.782 10.2641 673.211 10.3794 672.665 10.61C672.119 10.8406 671.664 11.1683 671.3 11.5931C671.272 11.6254 671.244 11.6581 671.218 11.691V6.25915H668.724V20.5133H671.2L671.195 19.1817C671.259 19.2602 671.327 19.3369 671.4 19.4119C671.794 19.8185 672.261 20.137 672.802 20.3676ZM675.35 18.0648C674.944 18.3136 674.479 18.438 673.957 18.438C673.442 18.438 672.968 18.3105 672.538 18.0557C672.107 17.7947 671.764 17.4398 671.509 16.9907C671.26 16.5417 671.136 16.0319 671.136 15.4615C671.13 14.8911 671.251 14.3814 671.5 13.9323C671.755 13.4772 672.098 13.1253 672.528 12.8765C672.959 12.6216 673.436 12.4972 673.957 12.5033C674.479 12.4972 674.944 12.6186 675.35 12.8674C675.763 13.1101 676.078 13.459 676.297 13.9141C676.521 14.3632 676.634 14.879 676.634 15.4615C676.634 16.0441 676.521 16.5599 676.297 17.0089C676.078 17.458 675.763 17.8099 675.35 18.0648Z" fill="var(--fill-0, #717F92)"/>
<path d="M639.89 7.11475H642.73L645.271 16.3923L647.973 7.11475H650.34L653.271 16.2061L655.71 7.11475H658.313L654.472 20.5132H652.024L649.043 11.6316L646.307 20.5132H643.832L639.89 7.11475Z" fill="var(--fill-0, #717F92)"/>
<path fill-rule="evenodd" clip-rule="evenodd" d="M662.507 20.7498C661.518 20.7559 660.626 20.5374 659.831 20.0945C659.042 19.6454 658.42 19.0234 657.965 18.2285C657.516 17.4336 657.292 16.5264 657.292 15.5069C657.292 14.5178 657.522 13.6228 657.983 12.8218C658.445 12.0208 659.07 11.3958 659.858 10.9468C660.647 10.4977 661.527 10.2732 662.498 10.2732C663.59 10.2732 664.546 10.5159 665.365 11.0014C666.191 11.4868 666.806 12.1756 667.213 13.0676C667.626 13.9535 667.774 14.9699 667.659 16.1168H659.862C659.884 16.5737 659.998 16.9894 660.204 17.3638C660.435 17.7764 660.757 18.098 661.169 18.3286C661.582 18.5592 662.043 18.6745 662.553 18.6745C662.941 18.6684 663.302 18.6017 663.636 18.4743C663.97 18.3408 664.252 18.1618 664.482 17.9372C664.719 17.7127 664.886 17.4579 664.983 17.1727H667.586C667.428 17.8705 667.113 18.4925 666.64 19.0386C666.166 19.5787 665.572 20.0004 664.856 20.3038C664.14 20.6072 663.357 20.7559 662.507 20.7498ZM660.213 13.6137C660.068 13.8673 659.967 14.1403 659.911 14.4329H665.079C665.042 14.0633 664.928 13.7265 664.737 13.4226C664.519 13.0645 664.221 12.7884 663.845 12.5943C663.469 12.394 663.044 12.2939 662.571 12.2939C662.067 12.2939 661.609 12.4092 661.196 12.6398C660.784 12.8704 660.456 13.195 660.213 13.6137Z" fill="var(--fill-0, #717F92)"/>
<path d="M681.048 10.4826C681.048 9.66943 681.233 8.94732 681.604 8.31623C681.974 7.67908 682.493 7.18452 683.16 6.83257C683.834 6.47455 684.62 6.28947 685.518 6.27734V8.48917C685.099 8.49524 684.741 8.58323 684.444 8.75314C684.152 8.91698 683.928 9.15667 683.77 9.47221C683.625 9.76271 683.546 10.0995 683.535 10.4826H685.463V12.5852H683.533V20.5132H681.048V12.5852H679.446V10.4826H681.048Z" fill="var(--fill-0, #717F92)"/>
<path fill-rule="evenodd" clip-rule="evenodd" d="M695.302 20.7316C694.289 20.7316 693.381 20.5101 692.58 20.0672C691.786 19.6181 691.161 18.9992 690.705 18.2103C690.256 17.4154 690.032 16.5143 690.032 15.5069C690.032 14.4936 690.256 13.5894 690.705 12.7945C691.161 11.9935 691.786 11.3715 692.58 10.9285C693.381 10.4855 694.289 10.264 695.302 10.264C696.321 10.264 697.232 10.4855 698.033 10.9285C698.84 11.3715 699.468 11.9904 699.917 12.7854C700.366 13.5803 700.593 14.4875 700.6 15.5069C700.593 16.5143 700.366 17.4154 699.917 18.2103C699.474 18.9992 698.849 19.6181 698.042 20.0672C697.235 20.5101 696.321 20.7316 695.302 20.7316ZM695.302 18.447C695.836 18.447 696.309 18.3256 696.722 18.0829C697.135 17.8341 697.453 17.4882 697.678 17.0452C697.902 16.5962 698.014 16.0834 698.014 15.5069C698.014 14.9244 697.902 14.4086 697.678 13.9595C697.453 13.5105 697.135 13.1646 696.722 12.9219C696.309 12.6731 695.836 12.5487 695.302 12.5487C694.774 12.5487 694.304 12.6731 693.891 12.9219C693.485 13.1646 693.169 13.5105 692.945 13.9595C692.72 14.4086 692.611 14.9244 692.617 15.5069C692.617 16.0834 692.729 16.5962 692.954 17.0452C693.184 17.4882 693.5 17.8341 693.9 18.0829C694.307 18.3256 694.774 18.447 695.302 18.447Z" fill="var(--fill-0, #717F92)"/>
<path d="M703.285 10.4825H700.518L703.512 20.5132H705.933L707.903 14.1066L710.029 20.5132H712.414L715.418 10.4825H712.915L711.211 16.726L709.328 10.4825H706.907L705.034 16.8635L703.285 10.4825Z" fill="var(--fill-0, #717F92)"/>
</g>
<path id="Logo_6" fill-rule="evenodd" clip-rule="evenodd" d="M787.164 6.5745L787.353 6.912C787.591 7.32214 787.717 7.78779 787.718 8.26194V18.7244C787.714 19.1982 787.589 19.6631 787.353 20.0744L787.151 20.4119C786.92 20.8251 786.579 21.1662 786.166 21.3974L777.107 26.6354C776.697 26.8733 776.231 26.999 775.757 26.9999H775.379C774.904 27.0044 774.437 26.8782 774.029 26.6354L764.957 21.4109C764.553 21.1682 764.214 20.8298 763.972 20.4254L763.783 20.0879C763.545 19.6777 763.419 19.2122 763.418 18.7379V8.27544C763.419 7.80129 763.545 7.33564 763.783 6.9255L763.972 6.588C764.208 6.17892 764.548 5.83905 764.957 5.6025L774.016 0.3645C774.426 0.126571 774.891 0.000856098 775.366 0H775.757C776.231 0.000856098 776.697 0.126571 777.107 0.3645L786.166 5.589C786.577 5.82713 786.921 6.16634 787.164 6.5745ZM775.757 2.69993H775.366L767.468 7.26294L775.568 11.9339L783.668 7.26294L775.757 2.69993ZM784.815 19.062L776.918 23.625V14.283L785.018 9.59857V18.7245L784.815 19.062ZM822.922 19.9801H820.123V5.20576H822.922V19.9801ZM797.662 20.2968H800.792V14.9314H802.153L805.477 20.2968H808.821L805.147 14.3871C806.78 13.9011 808.004 12.793 808.004 10.6935V10.6157C808.004 7.73862 805.924 6.39725 802.639 6.39725H797.662V20.2968ZM800.792 12.793V8.80782H802.561C804.077 8.80782 804.933 9.29382 804.933 10.7129V10.7907C804.933 12.132 804.136 12.793 802.561 12.793H800.792ZM813.904 20.1934C816.684 20.1934 818.434 18.9687 818.764 16.772H816.101C815.926 17.6274 815.284 18.1911 813.982 18.1911C812.446 18.1911 811.532 17.2191 811.455 15.5279H818.784V14.7503C818.784 11.1149 816.451 9.57924 813.826 9.57924C810.871 9.57924 808.597 11.6593 808.597 14.8669V15.0224C808.597 18.2689 810.833 20.1934 813.904 20.1934ZM811.494 13.7977C811.707 12.3591 812.563 11.5232 813.826 11.5232C815.168 11.5232 815.945 12.2619 816.042 13.7977H811.494ZM828.293 20.1942C829.965 20.1942 830.995 19.4166 831.519 18.3864V19.9804H834.319V9.81333H831.519V15.7814C831.519 17.2783 830.586 18.017 829.401 18.017C828.196 18.017 827.631 17.356 827.631 15.9758V9.81333H824.832V16.3646C824.832 19.0278 826.31 20.1942 828.293 20.1942ZM839.049 19.9796H836.23V9.8125H839.049V11.3677C839.554 10.4151 840.643 9.57924 842.159 9.57924C843.501 9.57924 844.512 10.143 844.998 11.3483C845.814 10.1235 847.136 9.57924 848.419 9.57924C850.305 9.57924 851.763 10.7651 851.763 13.4672V19.9796H848.963V13.7783C848.963 12.4757 848.38 11.8925 847.369 11.8925C846.281 11.8925 845.406 12.5924 845.406 13.9727V19.9796H842.607V13.7783C842.607 12.4757 842.004 11.8925 841.012 11.8925C839.924 11.8925 839.049 12.5924 839.049 13.9727V19.9796ZM858.272 20.1934C861.052 20.1934 862.802 18.9687 863.132 16.772H860.468C860.293 17.6274 859.652 18.1911 858.349 18.1911C856.814 18.1911 855.9 17.2191 855.822 15.5279H863.151V14.7503C863.151 11.1149 860.818 9.57924 858.194 9.57924C855.239 9.57924 852.964 11.6593 852.964 14.8669V15.0224C852.964 18.2689 855.2 20.1934 858.272 20.1934ZM855.861 13.7977C856.075 12.3591 856.931 11.5232 858.194 11.5232C859.535 11.5232 860.313 12.2619 860.41 13.7977H855.861Z" fill="var(--fill-0, #717F92)"/>
<g id="Logo_7">
<path fill-rule="evenodd" clip-rule="evenodd" d="M940.008 4.5L930.8 22.5H922.151L926.005 15.04H925.832C922.653 19.1668 917.91 21.8835 911.151 22.5V15.1433C911.151 15.1433 915.475 14.8879 918.016 12.2157H911.151V4.50014H918.867V10.8461L919.04 10.8454L922.193 4.50014H928.028V10.8059L928.201 10.8056L931.472 4.5H940.008Z" fill="var(--fill-0, #717F92)"/>
<path d="M990.218 20.5132H992.703V6.25H990.218V20.5132Z" fill="var(--fill-0, #717F92)"/>
<path fill-rule="evenodd" clip-rule="evenodd" d="M976.519 20.3676C977.059 20.5921 977.608 20.7044 978.166 20.7044C979.088 20.7044 979.914 20.4799 980.642 20.0308C981.37 19.5818 981.934 18.9629 982.335 18.174C982.735 17.3791 982.936 16.4779 982.936 15.4706C982.936 14.4633 982.729 13.5622 982.317 12.7672C981.904 11.9723 981.331 11.3564 980.596 10.9195C979.862 10.4765 979.028 10.2581 978.093 10.2641C977.499 10.2641 976.928 10.3794 976.382 10.61C975.836 10.8406 975.381 11.1683 975.017 11.5931C974.989 11.6254 974.961 11.6581 974.935 11.691V6.25915H972.441V20.5133H974.917L974.912 19.1817C974.976 19.2602 975.044 19.3369 975.117 19.4119C975.511 19.8185 975.979 20.137 976.519 20.3676ZM979.067 18.0648C978.661 18.3136 978.196 18.438 977.675 18.438C977.159 18.438 976.685 18.3105 976.255 18.0557C975.824 17.7947 975.481 17.4398 975.226 16.9907C974.977 16.5417 974.853 16.0319 974.853 15.4615C974.847 14.8911 974.968 14.3814 975.217 13.9323C975.472 13.4772 975.815 13.1253 976.246 12.8765C976.676 12.6216 977.153 12.4972 977.675 12.5033C978.196 12.4972 978.661 12.6186 979.067 12.8674C979.48 13.1101 979.795 13.459 980.014 13.9141C980.238 14.3632 980.351 14.879 980.351 15.4615C980.351 16.0441 980.238 16.5599 980.014 17.0089C979.795 17.458 979.48 17.8099 979.067 18.0648Z" fill="var(--fill-0, #717F92)"/>
<path d="M943.607 7.11475H946.447L948.988 16.3923L951.69 7.11475H954.057L956.988 16.2061L959.427 7.11475H962.03L958.189 20.5132H955.741L952.76 11.6316L950.024 20.5132H947.549L943.607 7.11475Z" fill="var(--fill-0, #717F92)"/>
<path fill-rule="evenodd" clip-rule="evenodd" d="M966.224 20.7498C965.235 20.7559 964.343 20.5374 963.548 20.0945C962.759 19.6454 962.137 19.0234 961.682 18.2285C961.233 17.4336 961.009 16.5264 961.009 15.5069C961.009 14.5178 961.239 13.6228 961.701 12.8218C962.162 12.0208 962.787 11.3958 963.576 10.9468C964.364 10.4977 965.244 10.2732 966.215 10.2732C967.307 10.2732 968.263 10.5159 969.082 11.0014C969.908 11.4868 970.524 12.1756 970.93 13.0676C971.343 13.9535 971.491 14.9699 971.376 16.1168H963.579C963.601 16.5737 963.715 16.9894 963.921 17.3638C964.152 17.7764 964.474 18.098 964.886 18.3286C965.299 18.5592 965.76 18.6745 966.27 18.6745C966.658 18.6684 967.019 18.6017 967.353 18.4743C967.687 18.3408 967.969 18.1618 968.199 17.9372C968.436 17.7127 968.603 17.4579 968.7 17.1727H971.303C971.146 17.8705 970.83 18.4925 970.357 19.0386C969.883 19.5787 969.289 20.0004 968.573 20.3038C967.857 20.6072 967.074 20.7559 966.224 20.7498ZM963.931 13.6137C963.785 13.8673 963.684 14.1403 963.628 14.4329H968.797C968.759 14.0633 968.645 13.7265 968.454 13.4226C968.236 13.0645 967.939 12.7884 967.562 12.5943C967.186 12.394 966.761 12.2939 966.288 12.2939C965.784 12.2939 965.326 12.4092 964.914 12.6398C964.501 12.8704 964.173 13.195 963.931 13.6137Z" fill="var(--fill-0, #717F92)"/>
<path d="M984.766 10.4826C984.766 9.66943 984.951 8.94732 985.321 8.31623C985.691 7.67908 986.21 7.18452 986.877 6.83257C987.551 6.47455 988.337 6.28947 989.235 6.27734V8.48917C988.816 8.49524 988.458 8.58323 988.161 8.75314C987.869 8.91698 987.645 9.15667 987.487 9.47221C987.342 9.76271 987.263 10.0995 987.252 10.4826H989.18V12.5852H987.25V20.5132H984.766V12.5852H983.164V10.4826H984.766Z" fill="var(--fill-0, #717F92)"/>
<path fill-rule="evenodd" clip-rule="evenodd" d="M999.019 20.7316C998.006 20.7316 997.099 20.5101 996.298 20.0672C995.503 19.6181 994.878 18.9992 994.423 18.2103C993.973 17.4154 993.749 16.5143 993.749 15.5069C993.749 14.4936 993.973 13.5894 994.423 12.7945C994.878 11.9935 995.503 11.3715 996.298 10.9285C997.099 10.4855 998.006 10.264 999.019 10.264C1000.04 10.264 1000.95 10.4855 1001.75 10.9285C1002.56 11.3715 1003.18 11.9904 1003.63 12.7854C1004.08 13.5803 1004.31 14.4875 1004.32 15.5069C1004.31 16.5143 1004.08 17.4154 1003.63 18.2103C1003.19 18.9992 1002.57 19.6181 1001.76 20.0672C1000.95 20.5101 1000.04 20.7316 999.019 20.7316ZM999.019 18.447C999.553 18.447 1000.03 18.3256 1000.44 18.0829C1000.85 17.8341 1001.17 17.4882 1001.39 17.0452C1001.62 16.5962 1001.73 16.0834 1001.73 15.5069C1001.73 14.9244 1001.62 14.4086 1001.39 13.9595C1001.17 13.5105 1000.85 13.1646 1000.44 12.9219C1000.03 12.6731 999.553 12.5487 999.019 12.5487C998.491 12.5487 998.021 12.6731 997.608 12.9219C997.202 13.1646 996.886 13.5105 996.662 13.9595C996.437 14.4086 996.328 14.9244 996.334 15.5069C996.334 16.0834 996.446 16.5962 996.671 17.0452C996.901 17.4882 997.217 17.8341 997.617 18.0829C998.024 18.3256 998.491 18.447 999.019 18.447Z" fill="var(--fill-0, #717F92)"/>
<path d="M1007 10.4825H1004.23L1007.23 20.5132H1009.65L1011.62 14.1066L1013.75 20.5132H1016.13L1019.14 10.4825H1016.63L1014.93 16.726L1013.05 10.4825H1010.62L1008.75 16.8635L1007 10.4825Z" fill="var(--fill-0, #717F92)"/>
</g>
<path id="Logo_8" fill-rule="evenodd" clip-rule="evenodd" d="M1090.88 6.5745L1091.07 6.912C1091.31 7.32214 1091.43 7.78779 1091.44 8.26194V18.7244C1091.43 19.1982 1091.31 19.6631 1091.07 20.0744L1090.87 20.4119C1090.64 20.8251 1090.3 21.1662 1089.88 21.3974L1080.82 26.6354C1080.41 26.8733 1079.95 26.999 1079.47 26.9999H1079.1C1078.62 27.0044 1078.15 26.8782 1077.75 26.6354L1068.67 21.4109C1068.27 21.1682 1067.93 20.8298 1067.69 20.4254L1067.5 20.0879C1067.26 19.6777 1067.14 19.2122 1067.14 18.7379V8.27544C1067.14 7.80129 1067.26 7.33564 1067.5 6.9255L1067.69 6.588C1067.93 6.17892 1068.27 5.83905 1068.67 5.6025L1077.73 0.3645C1078.14 0.126571 1078.61 0.000856098 1079.08 0H1079.47C1079.95 0.000856098 1080.41 0.126571 1080.82 0.3645L1089.88 5.589C1090.29 5.82713 1090.64 6.16634 1090.88 6.5745ZM1079.47 2.69993H1079.08L1071.19 7.26294L1079.29 11.9339L1087.39 7.26294L1079.47 2.69993ZM1088.53 19.062L1080.64 23.625V14.283L1088.74 9.59857V18.7245L1088.53 19.062ZM1126.64 19.9801H1123.84V5.20576H1126.64V19.9801ZM1101.38 20.2968H1104.51V14.9314H1105.87L1109.19 20.2968H1112.54L1108.86 14.3871C1110.5 13.9011 1111.72 12.793 1111.72 10.6935V10.6157C1111.72 7.73862 1109.64 6.39725 1106.36 6.39725H1101.38V20.2968ZM1104.51 12.793V8.80782H1106.28C1107.79 8.80782 1108.65 9.29382 1108.65 10.7129V10.7907C1108.65 12.132 1107.85 12.793 1106.28 12.793H1104.51ZM1117.62 20.1934C1120.4 20.1934 1122.15 18.9687 1122.48 16.772H1119.82C1119.64 17.6274 1119 18.1911 1117.7 18.1911C1116.16 18.1911 1115.25 17.2191 1115.17 15.5279H1122.5V14.7503C1122.5 11.1149 1120.17 9.57924 1117.54 9.57924C1114.59 9.57924 1112.31 11.6593 1112.31 14.8669V15.0224C1112.31 18.2689 1114.55 20.1934 1117.62 20.1934ZM1115.21 13.7977C1115.42 12.3591 1116.28 11.5232 1117.54 11.5232C1118.88 11.5232 1119.66 12.2619 1119.76 13.7977H1115.21ZM1132.01 20.1942C1133.68 20.1942 1134.71 19.4166 1135.24 18.3864V19.9804H1138.04V9.81333H1135.24V15.7814C1135.24 17.2783 1134.3 18.017 1133.12 18.017C1131.91 18.017 1131.35 17.356 1131.35 15.9758V9.81333H1128.55V16.3646C1128.55 19.0278 1130.03 20.1942 1132.01 20.1942ZM1142.77 19.9796H1139.95V9.8125H1142.77V11.3677C1143.27 10.4151 1144.36 9.57924 1145.88 9.57924C1147.22 9.57924 1148.23 10.143 1148.71 11.3483C1149.53 10.1235 1150.85 9.57924 1152.14 9.57924C1154.02 9.57924 1155.48 10.7651 1155.48 13.4672V19.9796H1152.68V13.7783C1152.68 12.4757 1152.1 11.8925 1151.09 11.8925C1150 11.8925 1149.12 12.5924 1149.12 13.9727V19.9796H1146.32V13.7783C1146.32 12.4757 1145.72 11.8925 1144.73 11.8925C1143.64 11.8925 1142.77 12.5924 1142.77 13.9727V19.9796ZM1161.99 20.1934C1164.77 20.1934 1166.52 18.9687 1166.85 16.772H1164.19C1164.01 17.6274 1163.37 18.1911 1162.07 18.1911C1160.53 18.1911 1159.62 17.2191 1159.54 15.5279H1166.87V14.7503C1166.87 11.1149 1164.54 9.57924 1161.91 9.57924C1158.96 9.57924 1156.68 11.6593 1156.68 14.8669V15.0224C1156.68 18.2689 1158.92 20.1934 1161.99 20.1934ZM1159.58 13.7977C1159.79 12.3591 1160.65 11.5232 1161.91 11.5232C1163.25 11.5232 1164.03 12.2619 1164.13 13.7977H1159.58Z" fill="var(--fill-0, #717F92)"/>
<g id="Logo_9">
<path fill-rule="evenodd" clip-rule="evenodd" d="M1243.72 4.5L1234.52 22.5H1225.87L1229.72 15.04H1229.55C1226.37 19.1668 1221.63 21.8835 1214.87 22.5V15.1433C1214.87 15.1433 1219.19 14.8879 1221.73 12.2157H1214.87V4.50014H1222.58V10.8461L1222.76 10.8454L1225.91 4.50014H1231.75V10.8059L1231.92 10.8056L1235.19 4.5H1243.72Z" fill="var(--fill-0, #717F92)"/>
<path d="M1293.93 20.5132H1296.42V6.25H1293.93V20.5132Z" fill="var(--fill-0, #717F92)"/>
<path fill-rule="evenodd" clip-rule="evenodd" d="M1280.24 20.3676C1280.78 20.5921 1281.32 20.7044 1281.88 20.7044C1282.81 20.7044 1283.63 20.4799 1284.36 20.0308C1285.09 19.5818 1285.65 18.9629 1286.05 18.174C1286.45 17.3791 1286.65 16.4779 1286.65 15.4706C1286.65 14.4633 1286.45 13.5622 1286.03 12.7672C1285.62 11.9723 1285.05 11.3564 1284.31 10.9195C1283.58 10.4765 1282.74 10.2581 1281.81 10.2641C1281.22 10.2641 1280.65 10.3794 1280.1 10.61C1279.55 10.8406 1279.1 11.1683 1278.73 11.5931C1278.71 11.6254 1278.68 11.6581 1278.65 11.691V6.25915H1276.16V20.5133H1278.63L1278.63 19.1817C1278.69 19.2602 1278.76 19.3369 1278.83 19.4119C1279.23 19.8185 1279.7 20.137 1280.24 20.3676ZM1282.78 18.0648C1282.38 18.3136 1281.91 18.438 1281.39 18.438C1280.88 18.438 1280.4 18.3105 1279.97 18.0557C1279.54 17.7947 1279.2 17.4398 1278.94 16.9907C1278.69 16.5417 1278.57 16.0319 1278.57 15.4615C1278.56 14.8911 1278.69 14.3814 1278.93 13.9323C1279.19 13.4772 1279.53 13.1253 1279.96 12.8765C1280.39 12.6216 1280.87 12.4972 1281.39 12.5033C1281.91 12.4972 1282.38 12.6186 1282.78 12.8674C1283.2 13.1101 1283.51 13.459 1283.73 13.9141C1283.96 14.3632 1284.07 14.879 1284.07 15.4615C1284.07 16.0441 1283.96 16.5599 1283.73 17.0089C1283.51 17.458 1283.2 17.8099 1282.78 18.0648Z" fill="var(--fill-0, #717F92)"/>
<path d="M1247.32 7.11475H1250.16L1252.7 16.3923L1255.41 7.11475H1257.77L1260.7 16.2061L1263.14 7.11475H1265.75L1261.91 20.5132H1259.46L1256.48 11.6316L1253.74 20.5132H1251.27L1247.32 7.11475Z" fill="var(--fill-0, #717F92)"/>
<path fill-rule="evenodd" clip-rule="evenodd" d="M1269.94 20.7498C1268.95 20.7559 1268.06 20.5374 1267.27 20.0945C1266.48 19.6454 1265.85 19.0234 1265.4 18.2285C1264.95 17.4336 1264.73 16.5264 1264.73 15.5069C1264.73 14.5178 1264.96 13.6228 1265.42 12.8218C1265.88 12.0208 1266.5 11.3958 1267.29 10.9468C1268.08 10.4977 1268.96 10.2732 1269.93 10.2732C1271.02 10.2732 1271.98 10.5159 1272.8 11.0014C1273.62 11.4868 1274.24 12.1756 1274.65 13.0676C1275.06 13.9535 1275.21 14.9699 1275.09 16.1168H1267.3C1267.32 16.5737 1267.43 16.9894 1267.64 17.3638C1267.87 17.7764 1268.19 18.098 1268.6 18.3286C1269.02 18.5592 1269.48 18.6745 1269.99 18.6745C1270.38 18.6684 1270.74 18.6017 1271.07 18.4743C1271.4 18.3408 1271.69 18.1618 1271.92 17.9372C1272.15 17.7127 1272.32 17.4579 1272.42 17.1727H1275.02C1274.86 17.8705 1274.55 18.4925 1274.07 19.0386C1273.6 19.5787 1273.01 20.0004 1272.29 20.3038C1271.57 20.6072 1270.79 20.7559 1269.94 20.7498ZM1267.65 13.6137C1267.5 13.8673 1267.4 14.1403 1267.35 14.4329H1272.51C1272.48 14.0633 1272.36 13.7265 1272.17 13.4226C1271.95 13.0645 1271.66 12.7884 1271.28 12.5943C1270.9 12.394 1270.48 12.2939 1270.01 12.2939C1269.5 12.2939 1269.04 12.4092 1268.63 12.6398C1268.22 12.8704 1267.89 13.195 1267.65 13.6137Z" fill="var(--fill-0, #717F92)"/>
<path d="M1288.48 10.4826C1288.48 9.66943 1288.67 8.94732 1289.04 8.31623C1289.41 7.67908 1289.93 7.18452 1290.59 6.83257C1291.27 6.47455 1292.05 6.28947 1292.95 6.27734V8.48917C1292.53 8.49524 1292.18 8.58323 1291.88 8.75314C1291.59 8.91698 1291.36 9.15667 1291.2 9.47221C1291.06 9.76271 1290.98 10.0995 1290.97 10.4826H1292.9V12.5852H1290.97V20.5132H1288.48V12.5852H1286.88V10.4826H1288.48Z" fill="var(--fill-0, #717F92)"/>
<path fill-rule="evenodd" clip-rule="evenodd" d="M1302.74 20.7316C1301.72 20.7316 1300.82 20.5101 1300.01 20.0672C1299.22 19.6181 1298.59 18.9992 1298.14 18.2103C1297.69 17.4154 1297.47 16.5143 1297.47 15.5069C1297.47 14.4936 1297.69 13.5894 1298.14 12.7945C1298.59 11.9935 1299.22 11.3715 1300.01 10.9285C1300.82 10.4855 1301.72 10.264 1302.74 10.264C1303.76 10.264 1304.67 10.4855 1305.47 10.9285C1306.27 11.3715 1306.9 11.9904 1307.35 12.7854C1307.8 13.5803 1308.03 14.4875 1308.03 15.5069C1308.03 16.5143 1307.8 17.4154 1307.35 18.2103C1306.91 18.9992 1306.28 19.6181 1305.48 20.0672C1304.67 20.5101 1303.76 20.7316 1302.74 20.7316ZM1302.74 18.447C1303.27 18.447 1303.74 18.3256 1304.16 18.0829C1304.57 17.8341 1304.89 17.4882 1305.11 17.0452C1305.34 16.5962 1305.45 16.0834 1305.45 15.5069C1305.45 14.9244 1305.34 14.4086 1305.11 13.9595C1304.89 13.5105 1304.57 13.1646 1304.16 12.9219C1303.74 12.6731 1303.27 12.5487 1302.74 12.5487C1302.21 12.5487 1301.74 12.6731 1301.33 12.9219C1300.92 13.1646 1300.6 13.5105 1300.38 13.9595C1300.15 14.4086 1300.05 14.9244 1300.05 15.5069C1300.05 16.0834 1300.16 16.5962 1300.39 17.0452C1300.62 17.4882 1300.93 17.8341 1301.33 18.0829C1301.74 18.3256 1302.21 18.447 1302.74 18.447Z" fill="var(--fill-0, #717F92)"/>
<path d="M1310.72 10.4825H1307.95L1310.95 20.5132H1313.37L1315.34 14.1066L1317.46 20.5132H1319.85L1322.85 10.4825H1320.35L1318.65 16.726L1316.76 10.4825H1314.34L1312.47 16.8635L1310.72 10.4825Z" fill="var(--fill-0, #717F92)"/>
</g>
</g>
</svg>
